%TF.GenerationSoftware,KiCad,Pcbnew,7.0.6*%
%TF.CreationDate,2024-04-24T00:38:09-04:00*%
%TF.ProjectId,Doom Keycap,446f6f6d-204b-4657-9963-61702e6b6963,REV1*%
%TF.SameCoordinates,Original*%
%TF.FileFunction,Drillmap*%
%TF.FilePolarity,Positive*%
%FSLAX45Y45*%
G04 Gerber Fmt 4.5, Leading zero omitted, Abs format (unit mm)*
G04 Created by KiCad (PCBNEW 7.0.6) date 2024-04-24 00:38:09*
%MOMM*%
%LPD*%
G01*
G04 APERTURE LIST*
%ADD10C,0.050000*%
%ADD11C,0.200000*%
%ADD12C,0.035000*%
%ADD13C,0.065000*%
%ADD14C,0.070000*%
G04 APERTURE END LIST*
D10*
X18809000Y-8387500D02*
X18809000Y-9437500D01*
X15559000Y-9437500D01*
X15559000Y-7887500D01*
X18309000Y-7887500D01*
X18809000Y-8387500D01*
D11*
D12*
X15674000Y-8580000D02*
X15709000Y-8615000D01*
X15709000Y-8580000D02*
X15674000Y-8615000D01*
X15816500Y-8782500D02*
X15851500Y-8817500D01*
X15851500Y-8782500D02*
X15816500Y-8817500D01*
X15816500Y-8882500D02*
X15851500Y-8917500D01*
X15851500Y-8882500D02*
X15816500Y-8917500D01*
X15816500Y-8957500D02*
X15851500Y-8992500D01*
X15851500Y-8957500D02*
X15816500Y-8992500D01*
X15816500Y-9032500D02*
X15851500Y-9067500D01*
X15851500Y-9032500D02*
X15816500Y-9067500D01*
X16191500Y-8995000D02*
X16226500Y-9030000D01*
X16226500Y-8995000D02*
X16191500Y-9030000D01*
X16266500Y-8582500D02*
X16301500Y-8617500D01*
X16301500Y-8582500D02*
X16266500Y-8617500D01*
X16397584Y-8164439D02*
X16432584Y-8199439D01*
X16432584Y-8164439D02*
X16397584Y-8199439D01*
X16404000Y-8651875D02*
X16439000Y-8686875D01*
X16439000Y-8651875D02*
X16404000Y-8686875D01*
X16404000Y-8757500D02*
X16439000Y-8792500D01*
X16439000Y-8757500D02*
X16404000Y-8792500D01*
X16416500Y-8332500D02*
X16451500Y-8367500D01*
X16451500Y-8332500D02*
X16416500Y-8367500D01*
X16422500Y-8439375D02*
X16457500Y-8474375D01*
X16457500Y-8439375D02*
X16422500Y-8474375D01*
X16429000Y-8232500D02*
X16464000Y-8267500D01*
X16464000Y-8232500D02*
X16429000Y-8267500D01*
X16429409Y-8032500D02*
X16464409Y-8067500D01*
X16464409Y-8032500D02*
X16429409Y-8067500D01*
X16431640Y-7960243D02*
X16466640Y-7995243D01*
X16466640Y-7960243D02*
X16431640Y-7995243D01*
X16504000Y-9282500D02*
X16539000Y-9317500D01*
X16539000Y-9282500D02*
X16504000Y-9317500D01*
X16515931Y-9006633D02*
X16550931Y-9041633D01*
X16550931Y-9006633D02*
X16515931Y-9041633D01*
X16591500Y-8945000D02*
X16626500Y-8980000D01*
X16626500Y-8945000D02*
X16591500Y-8980000D01*
X16675250Y-8737425D02*
X16710250Y-8772425D01*
X16710250Y-8737425D02*
X16675250Y-8772425D01*
X16704000Y-8020000D02*
X16739000Y-8055000D01*
X16739000Y-8020000D02*
X16704000Y-8055000D01*
X16704000Y-8132500D02*
X16739000Y-8167500D01*
X16739000Y-8132500D02*
X16704000Y-8167500D01*
X16741500Y-8370000D02*
X16776500Y-8405000D01*
X16776500Y-8370000D02*
X16741500Y-8405000D01*
X16764050Y-9070000D02*
X16799050Y-9105000D01*
X16799050Y-9070000D02*
X16764050Y-9105000D01*
X16796095Y-7942500D02*
X16831095Y-7977500D01*
X16831095Y-7942500D02*
X16796095Y-7977500D01*
X16816500Y-9297450D02*
X16851500Y-9332450D01*
X16851500Y-9297450D02*
X16816500Y-9332450D01*
X16896500Y-8664375D02*
X16931500Y-8699375D01*
X16931500Y-8664375D02*
X16896500Y-8699375D01*
X16951720Y-8092500D02*
X16986720Y-8127500D01*
X16986720Y-8092500D02*
X16951720Y-8127500D01*
X17126720Y-7942500D02*
X17161720Y-7977500D01*
X17161720Y-7942500D02*
X17126720Y-7977500D01*
X17206972Y-9155050D02*
X17241972Y-9190050D01*
X17241972Y-9155050D02*
X17206972Y-9190050D01*
X17316500Y-8674378D02*
X17351500Y-8709378D01*
X17351500Y-8674378D02*
X17316500Y-8709378D01*
X17535500Y-8675375D02*
X17570500Y-8710375D01*
X17570500Y-8675375D02*
X17535500Y-8710375D01*
X17571720Y-8042500D02*
X17606720Y-8077500D01*
X17606720Y-8042500D02*
X17571720Y-8077500D01*
X17576500Y-8878125D02*
X17611500Y-8913125D01*
X17611500Y-8878125D02*
X17576500Y-8913125D01*
X17666500Y-8407500D02*
X17701500Y-8442500D01*
X17701500Y-8407500D02*
X17666500Y-8442500D01*
X17726500Y-8728125D02*
X17761500Y-8763125D01*
X17761500Y-8728125D02*
X17726500Y-8763125D01*
X17726500Y-9053125D02*
X17761500Y-9088125D01*
X17761500Y-9053125D02*
X17726500Y-9088125D01*
X17751500Y-8453125D02*
X17786500Y-8488125D01*
X17786500Y-8453125D02*
X17751500Y-8488125D01*
X17943641Y-8775984D02*
X17978641Y-8810984D01*
X17978641Y-8775984D02*
X17943641Y-8810984D01*
X18140555Y-8825125D02*
X18175555Y-8860125D01*
X18175555Y-8825125D02*
X18140555Y-8860125D01*
X18151500Y-8453125D02*
X18186500Y-8488125D01*
X18186500Y-8453125D02*
X18151500Y-8488125D01*
X18151500Y-8603125D02*
X18186500Y-8638125D01*
X18186500Y-8603125D02*
X18151500Y-8638125D01*
X18151500Y-9053125D02*
X18186500Y-9088125D01*
X18186500Y-9053125D02*
X18151500Y-9088125D01*
X18289721Y-8631419D02*
X18324721Y-8666419D01*
X18324721Y-8631419D02*
X18289721Y-8666419D01*
X18291500Y-8932500D02*
X18326500Y-8967500D01*
X18326500Y-8932500D02*
X18291500Y-8967500D01*
X18446348Y-8579136D02*
X18481348Y-8614136D01*
X18481348Y-8579136D02*
X18446348Y-8614136D01*
X18498798Y-8717550D02*
X18533798Y-8752550D01*
X18533798Y-8717550D02*
X18498798Y-8752550D01*
X18541500Y-8632500D02*
X18576500Y-8667500D01*
X18576500Y-8632500D02*
X18541500Y-8667500D01*
X18595488Y-8767550D02*
X18630488Y-8802550D01*
X18630488Y-8767550D02*
X18595488Y-8802550D01*
X18654000Y-8845000D02*
X18689000Y-8880000D01*
X18689000Y-8845000D02*
X18654000Y-8880000D01*
X17014000Y-8624375D02*
G75*
G03*
X17014000Y-8624375I-17500J0D01*
G01*
X17014000Y-8751875D02*
G75*
G03*
X17014000Y-8751875I-17500J0D01*
G01*
X17014000Y-8879375D02*
G75*
G03*
X17014000Y-8879375I-17500J0D01*
G01*
X17141500Y-8624375D02*
G75*
G03*
X17141500Y-8624375I-17500J0D01*
G01*
X17141500Y-8751875D02*
G75*
G03*
X17141500Y-8751875I-17500J0D01*
G01*
X17141500Y-8879375D02*
G75*
G03*
X17141500Y-8879375I-17500J0D01*
G01*
X17269000Y-8624375D02*
G75*
G03*
X17269000Y-8624375I-17500J0D01*
G01*
X17269000Y-8751875D02*
G75*
G03*
X17269000Y-8751875I-17500J0D01*
G01*
X17269000Y-8879375D02*
G75*
G03*
X17269000Y-8879375I-17500J0D01*
G01*
D13*
X15744000Y-8340500D02*
X15744000Y-8405500D01*
X15711500Y-8373000D02*
X15776500Y-8373000D01*
D11*
X15711500Y-8353000D02*
X15711500Y-8393000D01*
X15711500Y-8393000D02*
G75*
G03*
X15776500Y-8393000I32500J0D01*
G01*
X15776500Y-8393000D02*
X15776500Y-8353000D01*
X15776500Y-8353000D02*
G75*
G03*
X15711500Y-8353000I-32500J0D01*
G01*
D13*
X16229000Y-8340500D02*
X16229000Y-8405500D01*
X16196500Y-8373000D02*
X16261500Y-8373000D01*
D11*
X16196500Y-8353000D02*
X16196500Y-8393000D01*
X16196500Y-8393000D02*
G75*
G03*
X16261500Y-8393000I32500J0D01*
G01*
X16261500Y-8393000D02*
X16261500Y-8353000D01*
X16261500Y-8353000D02*
G75*
G03*
X16196500Y-8353000I-32500J0D01*
G01*
D14*
X15738749Y-8094749D02*
X15738749Y-8045251D01*
X15689251Y-8045251D01*
X15689251Y-8094749D01*
X15738749Y-8094749D01*
D11*
X15679000Y-8045000D02*
X15679000Y-8095000D01*
X15679000Y-8095000D02*
G75*
G03*
X15749000Y-8095000I35000J0D01*
G01*
X15749000Y-8095000D02*
X15749000Y-8045000D01*
X15749000Y-8045000D02*
G75*
G03*
X15679000Y-8045000I-35000J0D01*
G01*
D14*
X16283749Y-8094749D02*
X16283749Y-8045251D01*
X16234251Y-8045251D01*
X16234251Y-8094749D01*
X16283749Y-8094749D01*
D11*
X16224000Y-8045000D02*
X16224000Y-8095000D01*
X16224000Y-8095000D02*
G75*
G03*
X16294000Y-8095000I35000J0D01*
G01*
X16294000Y-8095000D02*
X16294000Y-8045000D01*
X16294000Y-8045000D02*
G75*
G03*
X16224000Y-8045000I-35000J0D01*
G01*
X15817277Y-9751484D02*
X15817277Y-9551484D01*
X15817277Y-9551484D02*
X15864896Y-9551484D01*
X15864896Y-9551484D02*
X15893467Y-9561008D01*
X15893467Y-9561008D02*
X15912515Y-9580055D01*
X15912515Y-9580055D02*
X15922039Y-9599103D01*
X15922039Y-9599103D02*
X15931562Y-9637198D01*
X15931562Y-9637198D02*
X15931562Y-9665770D01*
X15931562Y-9665770D02*
X15922039Y-9703865D01*
X15922039Y-9703865D02*
X15912515Y-9722912D01*
X15912515Y-9722912D02*
X15893467Y-9741960D01*
X15893467Y-9741960D02*
X15864896Y-9751484D01*
X15864896Y-9751484D02*
X15817277Y-9751484D01*
X16017277Y-9751484D02*
X16017277Y-9618150D01*
X16017277Y-9656246D02*
X16026801Y-9637198D01*
X16026801Y-9637198D02*
X16036324Y-9627674D01*
X16036324Y-9627674D02*
X16055372Y-9618150D01*
X16055372Y-9618150D02*
X16074420Y-9618150D01*
X16141086Y-9751484D02*
X16141086Y-9618150D01*
X16141086Y-9551484D02*
X16131562Y-9561008D01*
X16131562Y-9561008D02*
X16141086Y-9570531D01*
X16141086Y-9570531D02*
X16150610Y-9561008D01*
X16150610Y-9561008D02*
X16141086Y-9551484D01*
X16141086Y-9551484D02*
X16141086Y-9570531D01*
X16264896Y-9751484D02*
X16245848Y-9741960D01*
X16245848Y-9741960D02*
X16236324Y-9722912D01*
X16236324Y-9722912D02*
X16236324Y-9551484D01*
X16369658Y-9751484D02*
X16350610Y-9741960D01*
X16350610Y-9741960D02*
X16341086Y-9722912D01*
X16341086Y-9722912D02*
X16341086Y-9551484D01*
X16598229Y-9751484D02*
X16598229Y-9551484D01*
X16598229Y-9551484D02*
X16664896Y-9694341D01*
X16664896Y-9694341D02*
X16731562Y-9551484D01*
X16731562Y-9551484D02*
X16731562Y-9751484D01*
X16912515Y-9751484D02*
X16912515Y-9646722D01*
X16912515Y-9646722D02*
X16902991Y-9627674D01*
X16902991Y-9627674D02*
X16883944Y-9618150D01*
X16883944Y-9618150D02*
X16845848Y-9618150D01*
X16845848Y-9618150D02*
X16826801Y-9627674D01*
X16912515Y-9741960D02*
X16893467Y-9751484D01*
X16893467Y-9751484D02*
X16845848Y-9751484D01*
X16845848Y-9751484D02*
X16826801Y-9741960D01*
X16826801Y-9741960D02*
X16817277Y-9722912D01*
X16817277Y-9722912D02*
X16817277Y-9703865D01*
X16817277Y-9703865D02*
X16826801Y-9684817D01*
X16826801Y-9684817D02*
X16845848Y-9675293D01*
X16845848Y-9675293D02*
X16893467Y-9675293D01*
X16893467Y-9675293D02*
X16912515Y-9665770D01*
X17007753Y-9618150D02*
X17007753Y-9818150D01*
X17007753Y-9627674D02*
X17026801Y-9618150D01*
X17026801Y-9618150D02*
X17064896Y-9618150D01*
X17064896Y-9618150D02*
X17083944Y-9627674D01*
X17083944Y-9627674D02*
X17093467Y-9637198D01*
X17093467Y-9637198D02*
X17102991Y-9656246D01*
X17102991Y-9656246D02*
X17102991Y-9713389D01*
X17102991Y-9713389D02*
X17093467Y-9732436D01*
X17093467Y-9732436D02*
X17083944Y-9741960D01*
X17083944Y-9741960D02*
X17064896Y-9751484D01*
X17064896Y-9751484D02*
X17026801Y-9751484D01*
X17026801Y-9751484D02*
X17007753Y-9741960D01*
X17188705Y-9732436D02*
X17198229Y-9741960D01*
X17198229Y-9741960D02*
X17188705Y-9751484D01*
X17188705Y-9751484D02*
X17179182Y-9741960D01*
X17179182Y-9741960D02*
X17188705Y-9732436D01*
X17188705Y-9732436D02*
X17188705Y-9751484D01*
X17188705Y-9627674D02*
X17198229Y-9637198D01*
X17198229Y-9637198D02*
X17188705Y-9646722D01*
X17188705Y-9646722D02*
X17179182Y-9637198D01*
X17179182Y-9637198D02*
X17188705Y-9627674D01*
X17188705Y-9627674D02*
X17188705Y-9646722D01*
D12*
X15521500Y-10062500D02*
X15556500Y-10097500D01*
X15556500Y-10062500D02*
X15521500Y-10097500D01*
D11*
X15855372Y-9971484D02*
X15874420Y-9971484D01*
X15874420Y-9971484D02*
X15893467Y-9981008D01*
X15893467Y-9981008D02*
X15902991Y-9990531D01*
X15902991Y-9990531D02*
X15912515Y-10009579D01*
X15912515Y-10009579D02*
X15922039Y-10047674D01*
X15922039Y-10047674D02*
X15922039Y-10095293D01*
X15922039Y-10095293D02*
X15912515Y-10133389D01*
X15912515Y-10133389D02*
X15902991Y-10152436D01*
X15902991Y-10152436D02*
X15893467Y-10161960D01*
X15893467Y-10161960D02*
X15874420Y-10171484D01*
X15874420Y-10171484D02*
X15855372Y-10171484D01*
X15855372Y-10171484D02*
X15836324Y-10161960D01*
X15836324Y-10161960D02*
X15826801Y-10152436D01*
X15826801Y-10152436D02*
X15817277Y-10133389D01*
X15817277Y-10133389D02*
X15807753Y-10095293D01*
X15807753Y-10095293D02*
X15807753Y-10047674D01*
X15807753Y-10047674D02*
X15817277Y-10009579D01*
X15817277Y-10009579D02*
X15826801Y-9990531D01*
X15826801Y-9990531D02*
X15836324Y-9981008D01*
X15836324Y-9981008D02*
X15855372Y-9971484D01*
X16007753Y-10152436D02*
X16017277Y-10161960D01*
X16017277Y-10161960D02*
X16007753Y-10171484D01*
X16007753Y-10171484D02*
X15998229Y-10161960D01*
X15998229Y-10161960D02*
X16007753Y-10152436D01*
X16007753Y-10152436D02*
X16007753Y-10171484D01*
X16083943Y-9971484D02*
X16207753Y-9971484D01*
X16207753Y-9971484D02*
X16141086Y-10047674D01*
X16141086Y-10047674D02*
X16169658Y-10047674D01*
X16169658Y-10047674D02*
X16188705Y-10057198D01*
X16188705Y-10057198D02*
X16198229Y-10066722D01*
X16198229Y-10066722D02*
X16207753Y-10085770D01*
X16207753Y-10085770D02*
X16207753Y-10133389D01*
X16207753Y-10133389D02*
X16198229Y-10152436D01*
X16198229Y-10152436D02*
X16188705Y-10161960D01*
X16188705Y-10161960D02*
X16169658Y-10171484D01*
X16169658Y-10171484D02*
X16112515Y-10171484D01*
X16112515Y-10171484D02*
X16093467Y-10161960D01*
X16093467Y-10161960D02*
X16083943Y-10152436D01*
X16388705Y-9971484D02*
X16293467Y-9971484D01*
X16293467Y-9971484D02*
X16283943Y-10066722D01*
X16283943Y-10066722D02*
X16293467Y-10057198D01*
X16293467Y-10057198D02*
X16312515Y-10047674D01*
X16312515Y-10047674D02*
X16360134Y-10047674D01*
X16360134Y-10047674D02*
X16379182Y-10057198D01*
X16379182Y-10057198D02*
X16388705Y-10066722D01*
X16388705Y-10066722D02*
X16398229Y-10085770D01*
X16398229Y-10085770D02*
X16398229Y-10133389D01*
X16398229Y-10133389D02*
X16388705Y-10152436D01*
X16388705Y-10152436D02*
X16379182Y-10161960D01*
X16379182Y-10161960D02*
X16360134Y-10171484D01*
X16360134Y-10171484D02*
X16312515Y-10171484D01*
X16312515Y-10171484D02*
X16293467Y-10161960D01*
X16293467Y-10161960D02*
X16283943Y-10152436D01*
X16522039Y-9971484D02*
X16541086Y-9971484D01*
X16541086Y-9971484D02*
X16560134Y-9981008D01*
X16560134Y-9981008D02*
X16569658Y-9990531D01*
X16569658Y-9990531D02*
X16579182Y-10009579D01*
X16579182Y-10009579D02*
X16588705Y-10047674D01*
X16588705Y-10047674D02*
X16588705Y-10095293D01*
X16588705Y-10095293D02*
X16579182Y-10133389D01*
X16579182Y-10133389D02*
X16569658Y-10152436D01*
X16569658Y-10152436D02*
X16560134Y-10161960D01*
X16560134Y-10161960D02*
X16541086Y-10171484D01*
X16541086Y-10171484D02*
X16522039Y-10171484D01*
X16522039Y-10171484D02*
X16502991Y-10161960D01*
X16502991Y-10161960D02*
X16493467Y-10152436D01*
X16493467Y-10152436D02*
X16483943Y-10133389D01*
X16483943Y-10133389D02*
X16474420Y-10095293D01*
X16474420Y-10095293D02*
X16474420Y-10047674D01*
X16474420Y-10047674D02*
X16483943Y-10009579D01*
X16483943Y-10009579D02*
X16493467Y-9990531D01*
X16493467Y-9990531D02*
X16502991Y-9981008D01*
X16502991Y-9981008D02*
X16522039Y-9971484D01*
X16674420Y-10171484D02*
X16674420Y-10038150D01*
X16674420Y-10057198D02*
X16683943Y-10047674D01*
X16683943Y-10047674D02*
X16702991Y-10038150D01*
X16702991Y-10038150D02*
X16731563Y-10038150D01*
X16731563Y-10038150D02*
X16750610Y-10047674D01*
X16750610Y-10047674D02*
X16760134Y-10066722D01*
X16760134Y-10066722D02*
X16760134Y-10171484D01*
X16760134Y-10066722D02*
X16769658Y-10047674D01*
X16769658Y-10047674D02*
X16788705Y-10038150D01*
X16788705Y-10038150D02*
X16817277Y-10038150D01*
X16817277Y-10038150D02*
X16836325Y-10047674D01*
X16836325Y-10047674D02*
X16845848Y-10066722D01*
X16845848Y-10066722D02*
X16845848Y-10171484D01*
X16941086Y-10171484D02*
X16941086Y-10038150D01*
X16941086Y-10057198D02*
X16950610Y-10047674D01*
X16950610Y-10047674D02*
X16969658Y-10038150D01*
X16969658Y-10038150D02*
X16998229Y-10038150D01*
X16998229Y-10038150D02*
X17017277Y-10047674D01*
X17017277Y-10047674D02*
X17026801Y-10066722D01*
X17026801Y-10066722D02*
X17026801Y-10171484D01*
X17026801Y-10066722D02*
X17036325Y-10047674D01*
X17036325Y-10047674D02*
X17055372Y-10038150D01*
X17055372Y-10038150D02*
X17083944Y-10038150D01*
X17083944Y-10038150D02*
X17102991Y-10047674D01*
X17102991Y-10047674D02*
X17112515Y-10066722D01*
X17112515Y-10066722D02*
X17112515Y-10171484D01*
X17502991Y-9961960D02*
X17331563Y-10219103D01*
X17760134Y-9971484D02*
X17779182Y-9971484D01*
X17779182Y-9971484D02*
X17798229Y-9981008D01*
X17798229Y-9981008D02*
X17807753Y-9990531D01*
X17807753Y-9990531D02*
X17817277Y-10009579D01*
X17817277Y-10009579D02*
X17826801Y-10047674D01*
X17826801Y-10047674D02*
X17826801Y-10095293D01*
X17826801Y-10095293D02*
X17817277Y-10133389D01*
X17817277Y-10133389D02*
X17807753Y-10152436D01*
X17807753Y-10152436D02*
X17798229Y-10161960D01*
X17798229Y-10161960D02*
X17779182Y-10171484D01*
X17779182Y-10171484D02*
X17760134Y-10171484D01*
X17760134Y-10171484D02*
X17741087Y-10161960D01*
X17741087Y-10161960D02*
X17731563Y-10152436D01*
X17731563Y-10152436D02*
X17722039Y-10133389D01*
X17722039Y-10133389D02*
X17712515Y-10095293D01*
X17712515Y-10095293D02*
X17712515Y-10047674D01*
X17712515Y-10047674D02*
X17722039Y-10009579D01*
X17722039Y-10009579D02*
X17731563Y-9990531D01*
X17731563Y-9990531D02*
X17741087Y-9981008D01*
X17741087Y-9981008D02*
X17760134Y-9971484D01*
X17912515Y-10152436D02*
X17922039Y-10161960D01*
X17922039Y-10161960D02*
X17912515Y-10171484D01*
X17912515Y-10171484D02*
X17902991Y-10161960D01*
X17902991Y-10161960D02*
X17912515Y-10152436D01*
X17912515Y-10152436D02*
X17912515Y-10171484D01*
X18045848Y-9971484D02*
X18064896Y-9971484D01*
X18064896Y-9971484D02*
X18083944Y-9981008D01*
X18083944Y-9981008D02*
X18093468Y-9990531D01*
X18093468Y-9990531D02*
X18102991Y-10009579D01*
X18102991Y-10009579D02*
X18112515Y-10047674D01*
X18112515Y-10047674D02*
X18112515Y-10095293D01*
X18112515Y-10095293D02*
X18102991Y-10133389D01*
X18102991Y-10133389D02*
X18093468Y-10152436D01*
X18093468Y-10152436D02*
X18083944Y-10161960D01*
X18083944Y-10161960D02*
X18064896Y-10171484D01*
X18064896Y-10171484D02*
X18045848Y-10171484D01*
X18045848Y-10171484D02*
X18026801Y-10161960D01*
X18026801Y-10161960D02*
X18017277Y-10152436D01*
X18017277Y-10152436D02*
X18007753Y-10133389D01*
X18007753Y-10133389D02*
X17998229Y-10095293D01*
X17998229Y-10095293D02*
X17998229Y-10047674D01*
X17998229Y-10047674D02*
X18007753Y-10009579D01*
X18007753Y-10009579D02*
X18017277Y-9990531D01*
X18017277Y-9990531D02*
X18026801Y-9981008D01*
X18026801Y-9981008D02*
X18045848Y-9971484D01*
X18302991Y-10171484D02*
X18188706Y-10171484D01*
X18245848Y-10171484D02*
X18245848Y-9971484D01*
X18245848Y-9971484D02*
X18226801Y-10000055D01*
X18226801Y-10000055D02*
X18207753Y-10019103D01*
X18207753Y-10019103D02*
X18188706Y-10028627D01*
X18369658Y-9971484D02*
X18493468Y-9971484D01*
X18493468Y-9971484D02*
X18426801Y-10047674D01*
X18426801Y-10047674D02*
X18455372Y-10047674D01*
X18455372Y-10047674D02*
X18474420Y-10057198D01*
X18474420Y-10057198D02*
X18483944Y-10066722D01*
X18483944Y-10066722D02*
X18493468Y-10085770D01*
X18493468Y-10085770D02*
X18493468Y-10133389D01*
X18493468Y-10133389D02*
X18483944Y-10152436D01*
X18483944Y-10152436D02*
X18474420Y-10161960D01*
X18474420Y-10161960D02*
X18455372Y-10171484D01*
X18455372Y-10171484D02*
X18398229Y-10171484D01*
X18398229Y-10171484D02*
X18379182Y-10161960D01*
X18379182Y-10161960D02*
X18369658Y-10152436D01*
X18607753Y-10057198D02*
X18588706Y-10047674D01*
X18588706Y-10047674D02*
X18579182Y-10038150D01*
X18579182Y-10038150D02*
X18569658Y-10019103D01*
X18569658Y-10019103D02*
X18569658Y-10009579D01*
X18569658Y-10009579D02*
X18579182Y-9990531D01*
X18579182Y-9990531D02*
X18588706Y-9981008D01*
X18588706Y-9981008D02*
X18607753Y-9971484D01*
X18607753Y-9971484D02*
X18645849Y-9971484D01*
X18645849Y-9971484D02*
X18664896Y-9981008D01*
X18664896Y-9981008D02*
X18674420Y-9990531D01*
X18674420Y-9990531D02*
X18683944Y-10009579D01*
X18683944Y-10009579D02*
X18683944Y-10019103D01*
X18683944Y-10019103D02*
X18674420Y-10038150D01*
X18674420Y-10038150D02*
X18664896Y-10047674D01*
X18664896Y-10047674D02*
X18645849Y-10057198D01*
X18645849Y-10057198D02*
X18607753Y-10057198D01*
X18607753Y-10057198D02*
X18588706Y-10066722D01*
X18588706Y-10066722D02*
X18579182Y-10076246D01*
X18579182Y-10076246D02*
X18569658Y-10095293D01*
X18569658Y-10095293D02*
X18569658Y-10133389D01*
X18569658Y-10133389D02*
X18579182Y-10152436D01*
X18579182Y-10152436D02*
X18588706Y-10161960D01*
X18588706Y-10161960D02*
X18607753Y-10171484D01*
X18607753Y-10171484D02*
X18645849Y-10171484D01*
X18645849Y-10171484D02*
X18664896Y-10161960D01*
X18664896Y-10161960D02*
X18674420Y-10152436D01*
X18674420Y-10152436D02*
X18683944Y-10133389D01*
X18683944Y-10133389D02*
X18683944Y-10095293D01*
X18683944Y-10095293D02*
X18674420Y-10076246D01*
X18674420Y-10076246D02*
X18664896Y-10066722D01*
X18664896Y-10066722D02*
X18645849Y-10057198D01*
X18760134Y-9971484D02*
X18760134Y-10009579D01*
X18836325Y-9971484D02*
X18836325Y-10009579D01*
X19131563Y-10247674D02*
X19122039Y-10238150D01*
X19122039Y-10238150D02*
X19102991Y-10209579D01*
X19102991Y-10209579D02*
X19093468Y-10190531D01*
X19093468Y-10190531D02*
X19083944Y-10161960D01*
X19083944Y-10161960D02*
X19074420Y-10114341D01*
X19074420Y-10114341D02*
X19074420Y-10076246D01*
X19074420Y-10076246D02*
X19083944Y-10028627D01*
X19083944Y-10028627D02*
X19093468Y-10000055D01*
X19093468Y-10000055D02*
X19102991Y-9981008D01*
X19102991Y-9981008D02*
X19122039Y-9952436D01*
X19122039Y-9952436D02*
X19131563Y-9942912D01*
X19293468Y-10038150D02*
X19293468Y-10171484D01*
X19245849Y-9961960D02*
X19198230Y-10104817D01*
X19198230Y-10104817D02*
X19322039Y-10104817D01*
X19407753Y-10171484D02*
X19445849Y-10171484D01*
X19445849Y-10171484D02*
X19464896Y-10161960D01*
X19464896Y-10161960D02*
X19474420Y-10152436D01*
X19474420Y-10152436D02*
X19493468Y-10123865D01*
X19493468Y-10123865D02*
X19502991Y-10085770D01*
X19502991Y-10085770D02*
X19502991Y-10009579D01*
X19502991Y-10009579D02*
X19493468Y-9990531D01*
X19493468Y-9990531D02*
X19483944Y-9981008D01*
X19483944Y-9981008D02*
X19464896Y-9971484D01*
X19464896Y-9971484D02*
X19426801Y-9971484D01*
X19426801Y-9971484D02*
X19407753Y-9981008D01*
X19407753Y-9981008D02*
X19398230Y-9990531D01*
X19398230Y-9990531D02*
X19388706Y-10009579D01*
X19388706Y-10009579D02*
X19388706Y-10057198D01*
X19388706Y-10057198D02*
X19398230Y-10076246D01*
X19398230Y-10076246D02*
X19407753Y-10085770D01*
X19407753Y-10085770D02*
X19426801Y-10095293D01*
X19426801Y-10095293D02*
X19464896Y-10095293D01*
X19464896Y-10095293D02*
X19483944Y-10085770D01*
X19483944Y-10085770D02*
X19493468Y-10076246D01*
X19493468Y-10076246D02*
X19502991Y-10057198D01*
X19741087Y-10171484D02*
X19741087Y-9971484D01*
X19826801Y-10171484D02*
X19826801Y-10066722D01*
X19826801Y-10066722D02*
X19817277Y-10047674D01*
X19817277Y-10047674D02*
X19798230Y-10038150D01*
X19798230Y-10038150D02*
X19769658Y-10038150D01*
X19769658Y-10038150D02*
X19750611Y-10047674D01*
X19750611Y-10047674D02*
X19741087Y-10057198D01*
X19950611Y-10171484D02*
X19931563Y-10161960D01*
X19931563Y-10161960D02*
X19922039Y-10152436D01*
X19922039Y-10152436D02*
X19912515Y-10133389D01*
X19912515Y-10133389D02*
X19912515Y-10076246D01*
X19912515Y-10076246D02*
X19922039Y-10057198D01*
X19922039Y-10057198D02*
X19931563Y-10047674D01*
X19931563Y-10047674D02*
X19950611Y-10038150D01*
X19950611Y-10038150D02*
X19979182Y-10038150D01*
X19979182Y-10038150D02*
X19998230Y-10047674D01*
X19998230Y-10047674D02*
X20007753Y-10057198D01*
X20007753Y-10057198D02*
X20017277Y-10076246D01*
X20017277Y-10076246D02*
X20017277Y-10133389D01*
X20017277Y-10133389D02*
X20007753Y-10152436D01*
X20007753Y-10152436D02*
X19998230Y-10161960D01*
X19998230Y-10161960D02*
X19979182Y-10171484D01*
X19979182Y-10171484D02*
X19950611Y-10171484D01*
X20131563Y-10171484D02*
X20112515Y-10161960D01*
X20112515Y-10161960D02*
X20102992Y-10142912D01*
X20102992Y-10142912D02*
X20102992Y-9971484D01*
X20283944Y-10161960D02*
X20264896Y-10171484D01*
X20264896Y-10171484D02*
X20226801Y-10171484D01*
X20226801Y-10171484D02*
X20207753Y-10161960D01*
X20207753Y-10161960D02*
X20198230Y-10142912D01*
X20198230Y-10142912D02*
X20198230Y-10066722D01*
X20198230Y-10066722D02*
X20207753Y-10047674D01*
X20207753Y-10047674D02*
X20226801Y-10038150D01*
X20226801Y-10038150D02*
X20264896Y-10038150D01*
X20264896Y-10038150D02*
X20283944Y-10047674D01*
X20283944Y-10047674D02*
X20293468Y-10066722D01*
X20293468Y-10066722D02*
X20293468Y-10085770D01*
X20293468Y-10085770D02*
X20198230Y-10104817D01*
X20369658Y-10161960D02*
X20388706Y-10171484D01*
X20388706Y-10171484D02*
X20426801Y-10171484D01*
X20426801Y-10171484D02*
X20445849Y-10161960D01*
X20445849Y-10161960D02*
X20455373Y-10142912D01*
X20455373Y-10142912D02*
X20455373Y-10133389D01*
X20455373Y-10133389D02*
X20445849Y-10114341D01*
X20445849Y-10114341D02*
X20426801Y-10104817D01*
X20426801Y-10104817D02*
X20398230Y-10104817D01*
X20398230Y-10104817D02*
X20379182Y-10095293D01*
X20379182Y-10095293D02*
X20369658Y-10076246D01*
X20369658Y-10076246D02*
X20369658Y-10066722D01*
X20369658Y-10066722D02*
X20379182Y-10047674D01*
X20379182Y-10047674D02*
X20398230Y-10038150D01*
X20398230Y-10038150D02*
X20426801Y-10038150D01*
X20426801Y-10038150D02*
X20445849Y-10047674D01*
X20522039Y-10247674D02*
X20531563Y-10238150D01*
X20531563Y-10238150D02*
X20550611Y-10209579D01*
X20550611Y-10209579D02*
X20560134Y-10190531D01*
X20560134Y-10190531D02*
X20569658Y-10161960D01*
X20569658Y-10161960D02*
X20579182Y-10114341D01*
X20579182Y-10114341D02*
X20579182Y-10076246D01*
X20579182Y-10076246D02*
X20569658Y-10028627D01*
X20569658Y-10028627D02*
X20560134Y-10000055D01*
X20560134Y-10000055D02*
X20550611Y-9981008D01*
X20550611Y-9981008D02*
X20531563Y-9952436D01*
X20531563Y-9952436D02*
X20522039Y-9942912D01*
D12*
X15556500Y-10344000D02*
G75*
G03*
X15556500Y-10344000I-17500J0D01*
G01*
D11*
X15855372Y-10235484D02*
X15874420Y-10235484D01*
X15874420Y-10235484D02*
X15893467Y-10245008D01*
X15893467Y-10245008D02*
X15902991Y-10254531D01*
X15902991Y-10254531D02*
X15912515Y-10273579D01*
X15912515Y-10273579D02*
X15922039Y-10311674D01*
X15922039Y-10311674D02*
X15922039Y-10359293D01*
X15922039Y-10359293D02*
X15912515Y-10397389D01*
X15912515Y-10397389D02*
X15902991Y-10416436D01*
X15902991Y-10416436D02*
X15893467Y-10425960D01*
X15893467Y-10425960D02*
X15874420Y-10435484D01*
X15874420Y-10435484D02*
X15855372Y-10435484D01*
X15855372Y-10435484D02*
X15836324Y-10425960D01*
X15836324Y-10425960D02*
X15826801Y-10416436D01*
X15826801Y-10416436D02*
X15817277Y-10397389D01*
X15817277Y-10397389D02*
X15807753Y-10359293D01*
X15807753Y-10359293D02*
X15807753Y-10311674D01*
X15807753Y-10311674D02*
X15817277Y-10273579D01*
X15817277Y-10273579D02*
X15826801Y-10254531D01*
X15826801Y-10254531D02*
X15836324Y-10245008D01*
X15836324Y-10245008D02*
X15855372Y-10235484D01*
X16007753Y-10416436D02*
X16017277Y-10425960D01*
X16017277Y-10425960D02*
X16007753Y-10435484D01*
X16007753Y-10435484D02*
X15998229Y-10425960D01*
X15998229Y-10425960D02*
X16007753Y-10416436D01*
X16007753Y-10416436D02*
X16007753Y-10435484D01*
X16083943Y-10235484D02*
X16207753Y-10235484D01*
X16207753Y-10235484D02*
X16141086Y-10311674D01*
X16141086Y-10311674D02*
X16169658Y-10311674D01*
X16169658Y-10311674D02*
X16188705Y-10321198D01*
X16188705Y-10321198D02*
X16198229Y-10330722D01*
X16198229Y-10330722D02*
X16207753Y-10349770D01*
X16207753Y-10349770D02*
X16207753Y-10397389D01*
X16207753Y-10397389D02*
X16198229Y-10416436D01*
X16198229Y-10416436D02*
X16188705Y-10425960D01*
X16188705Y-10425960D02*
X16169658Y-10435484D01*
X16169658Y-10435484D02*
X16112515Y-10435484D01*
X16112515Y-10435484D02*
X16093467Y-10425960D01*
X16093467Y-10425960D02*
X16083943Y-10416436D01*
X16388705Y-10235484D02*
X16293467Y-10235484D01*
X16293467Y-10235484D02*
X16283943Y-10330722D01*
X16283943Y-10330722D02*
X16293467Y-10321198D01*
X16293467Y-10321198D02*
X16312515Y-10311674D01*
X16312515Y-10311674D02*
X16360134Y-10311674D01*
X16360134Y-10311674D02*
X16379182Y-10321198D01*
X16379182Y-10321198D02*
X16388705Y-10330722D01*
X16388705Y-10330722D02*
X16398229Y-10349770D01*
X16398229Y-10349770D02*
X16398229Y-10397389D01*
X16398229Y-10397389D02*
X16388705Y-10416436D01*
X16388705Y-10416436D02*
X16379182Y-10425960D01*
X16379182Y-10425960D02*
X16360134Y-10435484D01*
X16360134Y-10435484D02*
X16312515Y-10435484D01*
X16312515Y-10435484D02*
X16293467Y-10425960D01*
X16293467Y-10425960D02*
X16283943Y-10416436D01*
X16522039Y-10235484D02*
X16541086Y-10235484D01*
X16541086Y-10235484D02*
X16560134Y-10245008D01*
X16560134Y-10245008D02*
X16569658Y-10254531D01*
X16569658Y-10254531D02*
X16579182Y-10273579D01*
X16579182Y-10273579D02*
X16588705Y-10311674D01*
X16588705Y-10311674D02*
X16588705Y-10359293D01*
X16588705Y-10359293D02*
X16579182Y-10397389D01*
X16579182Y-10397389D02*
X16569658Y-10416436D01*
X16569658Y-10416436D02*
X16560134Y-10425960D01*
X16560134Y-10425960D02*
X16541086Y-10435484D01*
X16541086Y-10435484D02*
X16522039Y-10435484D01*
X16522039Y-10435484D02*
X16502991Y-10425960D01*
X16502991Y-10425960D02*
X16493467Y-10416436D01*
X16493467Y-10416436D02*
X16483943Y-10397389D01*
X16483943Y-10397389D02*
X16474420Y-10359293D01*
X16474420Y-10359293D02*
X16474420Y-10311674D01*
X16474420Y-10311674D02*
X16483943Y-10273579D01*
X16483943Y-10273579D02*
X16493467Y-10254531D01*
X16493467Y-10254531D02*
X16502991Y-10245008D01*
X16502991Y-10245008D02*
X16522039Y-10235484D01*
X16674420Y-10435484D02*
X16674420Y-10302150D01*
X16674420Y-10321198D02*
X16683943Y-10311674D01*
X16683943Y-10311674D02*
X16702991Y-10302150D01*
X16702991Y-10302150D02*
X16731563Y-10302150D01*
X16731563Y-10302150D02*
X16750610Y-10311674D01*
X16750610Y-10311674D02*
X16760134Y-10330722D01*
X16760134Y-10330722D02*
X16760134Y-10435484D01*
X16760134Y-10330722D02*
X16769658Y-10311674D01*
X16769658Y-10311674D02*
X16788705Y-10302150D01*
X16788705Y-10302150D02*
X16817277Y-10302150D01*
X16817277Y-10302150D02*
X16836325Y-10311674D01*
X16836325Y-10311674D02*
X16845848Y-10330722D01*
X16845848Y-10330722D02*
X16845848Y-10435484D01*
X16941086Y-10435484D02*
X16941086Y-10302150D01*
X16941086Y-10321198D02*
X16950610Y-10311674D01*
X16950610Y-10311674D02*
X16969658Y-10302150D01*
X16969658Y-10302150D02*
X16998229Y-10302150D01*
X16998229Y-10302150D02*
X17017277Y-10311674D01*
X17017277Y-10311674D02*
X17026801Y-10330722D01*
X17026801Y-10330722D02*
X17026801Y-10435484D01*
X17026801Y-10330722D02*
X17036325Y-10311674D01*
X17036325Y-10311674D02*
X17055372Y-10302150D01*
X17055372Y-10302150D02*
X17083944Y-10302150D01*
X17083944Y-10302150D02*
X17102991Y-10311674D01*
X17102991Y-10311674D02*
X17112515Y-10330722D01*
X17112515Y-10330722D02*
X17112515Y-10435484D01*
X17502991Y-10225960D02*
X17331563Y-10483103D01*
X17760134Y-10235484D02*
X17779182Y-10235484D01*
X17779182Y-10235484D02*
X17798229Y-10245008D01*
X17798229Y-10245008D02*
X17807753Y-10254531D01*
X17807753Y-10254531D02*
X17817277Y-10273579D01*
X17817277Y-10273579D02*
X17826801Y-10311674D01*
X17826801Y-10311674D02*
X17826801Y-10359293D01*
X17826801Y-10359293D02*
X17817277Y-10397389D01*
X17817277Y-10397389D02*
X17807753Y-10416436D01*
X17807753Y-10416436D02*
X17798229Y-10425960D01*
X17798229Y-10425960D02*
X17779182Y-10435484D01*
X17779182Y-10435484D02*
X17760134Y-10435484D01*
X17760134Y-10435484D02*
X17741087Y-10425960D01*
X17741087Y-10425960D02*
X17731563Y-10416436D01*
X17731563Y-10416436D02*
X17722039Y-10397389D01*
X17722039Y-10397389D02*
X17712515Y-10359293D01*
X17712515Y-10359293D02*
X17712515Y-10311674D01*
X17712515Y-10311674D02*
X17722039Y-10273579D01*
X17722039Y-10273579D02*
X17731563Y-10254531D01*
X17731563Y-10254531D02*
X17741087Y-10245008D01*
X17741087Y-10245008D02*
X17760134Y-10235484D01*
X17912515Y-10416436D02*
X17922039Y-10425960D01*
X17922039Y-10425960D02*
X17912515Y-10435484D01*
X17912515Y-10435484D02*
X17902991Y-10425960D01*
X17902991Y-10425960D02*
X17912515Y-10416436D01*
X17912515Y-10416436D02*
X17912515Y-10435484D01*
X18045848Y-10235484D02*
X18064896Y-10235484D01*
X18064896Y-10235484D02*
X18083944Y-10245008D01*
X18083944Y-10245008D02*
X18093468Y-10254531D01*
X18093468Y-10254531D02*
X18102991Y-10273579D01*
X18102991Y-10273579D02*
X18112515Y-10311674D01*
X18112515Y-10311674D02*
X18112515Y-10359293D01*
X18112515Y-10359293D02*
X18102991Y-10397389D01*
X18102991Y-10397389D02*
X18093468Y-10416436D01*
X18093468Y-10416436D02*
X18083944Y-10425960D01*
X18083944Y-10425960D02*
X18064896Y-10435484D01*
X18064896Y-10435484D02*
X18045848Y-10435484D01*
X18045848Y-10435484D02*
X18026801Y-10425960D01*
X18026801Y-10425960D02*
X18017277Y-10416436D01*
X18017277Y-10416436D02*
X18007753Y-10397389D01*
X18007753Y-10397389D02*
X17998229Y-10359293D01*
X17998229Y-10359293D02*
X17998229Y-10311674D01*
X17998229Y-10311674D02*
X18007753Y-10273579D01*
X18007753Y-10273579D02*
X18017277Y-10254531D01*
X18017277Y-10254531D02*
X18026801Y-10245008D01*
X18026801Y-10245008D02*
X18045848Y-10235484D01*
X18302991Y-10435484D02*
X18188706Y-10435484D01*
X18245848Y-10435484D02*
X18245848Y-10235484D01*
X18245848Y-10235484D02*
X18226801Y-10264055D01*
X18226801Y-10264055D02*
X18207753Y-10283103D01*
X18207753Y-10283103D02*
X18188706Y-10292627D01*
X18369658Y-10235484D02*
X18493468Y-10235484D01*
X18493468Y-10235484D02*
X18426801Y-10311674D01*
X18426801Y-10311674D02*
X18455372Y-10311674D01*
X18455372Y-10311674D02*
X18474420Y-10321198D01*
X18474420Y-10321198D02*
X18483944Y-10330722D01*
X18483944Y-10330722D02*
X18493468Y-10349770D01*
X18493468Y-10349770D02*
X18493468Y-10397389D01*
X18493468Y-10397389D02*
X18483944Y-10416436D01*
X18483944Y-10416436D02*
X18474420Y-10425960D01*
X18474420Y-10425960D02*
X18455372Y-10435484D01*
X18455372Y-10435484D02*
X18398229Y-10435484D01*
X18398229Y-10435484D02*
X18379182Y-10425960D01*
X18379182Y-10425960D02*
X18369658Y-10416436D01*
X18607753Y-10321198D02*
X18588706Y-10311674D01*
X18588706Y-10311674D02*
X18579182Y-10302150D01*
X18579182Y-10302150D02*
X18569658Y-10283103D01*
X18569658Y-10283103D02*
X18569658Y-10273579D01*
X18569658Y-10273579D02*
X18579182Y-10254531D01*
X18579182Y-10254531D02*
X18588706Y-10245008D01*
X18588706Y-10245008D02*
X18607753Y-10235484D01*
X18607753Y-10235484D02*
X18645849Y-10235484D01*
X18645849Y-10235484D02*
X18664896Y-10245008D01*
X18664896Y-10245008D02*
X18674420Y-10254531D01*
X18674420Y-10254531D02*
X18683944Y-10273579D01*
X18683944Y-10273579D02*
X18683944Y-10283103D01*
X18683944Y-10283103D02*
X18674420Y-10302150D01*
X18674420Y-10302150D02*
X18664896Y-10311674D01*
X18664896Y-10311674D02*
X18645849Y-10321198D01*
X18645849Y-10321198D02*
X18607753Y-10321198D01*
X18607753Y-10321198D02*
X18588706Y-10330722D01*
X18588706Y-10330722D02*
X18579182Y-10340246D01*
X18579182Y-10340246D02*
X18569658Y-10359293D01*
X18569658Y-10359293D02*
X18569658Y-10397389D01*
X18569658Y-10397389D02*
X18579182Y-10416436D01*
X18579182Y-10416436D02*
X18588706Y-10425960D01*
X18588706Y-10425960D02*
X18607753Y-10435484D01*
X18607753Y-10435484D02*
X18645849Y-10435484D01*
X18645849Y-10435484D02*
X18664896Y-10425960D01*
X18664896Y-10425960D02*
X18674420Y-10416436D01*
X18674420Y-10416436D02*
X18683944Y-10397389D01*
X18683944Y-10397389D02*
X18683944Y-10359293D01*
X18683944Y-10359293D02*
X18674420Y-10340246D01*
X18674420Y-10340246D02*
X18664896Y-10330722D01*
X18664896Y-10330722D02*
X18645849Y-10321198D01*
X18760134Y-10235484D02*
X18760134Y-10273579D01*
X18836325Y-10235484D02*
X18836325Y-10273579D01*
X19131563Y-10511674D02*
X19122039Y-10502150D01*
X19122039Y-10502150D02*
X19102991Y-10473579D01*
X19102991Y-10473579D02*
X19093468Y-10454531D01*
X19093468Y-10454531D02*
X19083944Y-10425960D01*
X19083944Y-10425960D02*
X19074420Y-10378341D01*
X19074420Y-10378341D02*
X19074420Y-10340246D01*
X19074420Y-10340246D02*
X19083944Y-10292627D01*
X19083944Y-10292627D02*
X19093468Y-10264055D01*
X19093468Y-10264055D02*
X19102991Y-10245008D01*
X19102991Y-10245008D02*
X19122039Y-10216436D01*
X19122039Y-10216436D02*
X19131563Y-10206912D01*
X19217277Y-10435484D02*
X19255372Y-10435484D01*
X19255372Y-10435484D02*
X19274420Y-10425960D01*
X19274420Y-10425960D02*
X19283944Y-10416436D01*
X19283944Y-10416436D02*
X19302991Y-10387865D01*
X19302991Y-10387865D02*
X19312515Y-10349770D01*
X19312515Y-10349770D02*
X19312515Y-10273579D01*
X19312515Y-10273579D02*
X19302991Y-10254531D01*
X19302991Y-10254531D02*
X19293468Y-10245008D01*
X19293468Y-10245008D02*
X19274420Y-10235484D01*
X19274420Y-10235484D02*
X19236325Y-10235484D01*
X19236325Y-10235484D02*
X19217277Y-10245008D01*
X19217277Y-10245008D02*
X19207753Y-10254531D01*
X19207753Y-10254531D02*
X19198230Y-10273579D01*
X19198230Y-10273579D02*
X19198230Y-10321198D01*
X19198230Y-10321198D02*
X19207753Y-10340246D01*
X19207753Y-10340246D02*
X19217277Y-10349770D01*
X19217277Y-10349770D02*
X19236325Y-10359293D01*
X19236325Y-10359293D02*
X19274420Y-10359293D01*
X19274420Y-10359293D02*
X19293468Y-10349770D01*
X19293468Y-10349770D02*
X19302991Y-10340246D01*
X19302991Y-10340246D02*
X19312515Y-10321198D01*
X19550611Y-10435484D02*
X19550611Y-10235484D01*
X19636325Y-10435484D02*
X19636325Y-10330722D01*
X19636325Y-10330722D02*
X19626801Y-10311674D01*
X19626801Y-10311674D02*
X19607753Y-10302150D01*
X19607753Y-10302150D02*
X19579182Y-10302150D01*
X19579182Y-10302150D02*
X19560134Y-10311674D01*
X19560134Y-10311674D02*
X19550611Y-10321198D01*
X19760134Y-10435484D02*
X19741087Y-10425960D01*
X19741087Y-10425960D02*
X19731563Y-10416436D01*
X19731563Y-10416436D02*
X19722039Y-10397389D01*
X19722039Y-10397389D02*
X19722039Y-10340246D01*
X19722039Y-10340246D02*
X19731563Y-10321198D01*
X19731563Y-10321198D02*
X19741087Y-10311674D01*
X19741087Y-10311674D02*
X19760134Y-10302150D01*
X19760134Y-10302150D02*
X19788706Y-10302150D01*
X19788706Y-10302150D02*
X19807753Y-10311674D01*
X19807753Y-10311674D02*
X19817277Y-10321198D01*
X19817277Y-10321198D02*
X19826801Y-10340246D01*
X19826801Y-10340246D02*
X19826801Y-10397389D01*
X19826801Y-10397389D02*
X19817277Y-10416436D01*
X19817277Y-10416436D02*
X19807753Y-10425960D01*
X19807753Y-10425960D02*
X19788706Y-10435484D01*
X19788706Y-10435484D02*
X19760134Y-10435484D01*
X19941087Y-10435484D02*
X19922039Y-10425960D01*
X19922039Y-10425960D02*
X19912515Y-10406912D01*
X19912515Y-10406912D02*
X19912515Y-10235484D01*
X20093468Y-10425960D02*
X20074420Y-10435484D01*
X20074420Y-10435484D02*
X20036325Y-10435484D01*
X20036325Y-10435484D02*
X20017277Y-10425960D01*
X20017277Y-10425960D02*
X20007753Y-10406912D01*
X20007753Y-10406912D02*
X20007753Y-10330722D01*
X20007753Y-10330722D02*
X20017277Y-10311674D01*
X20017277Y-10311674D02*
X20036325Y-10302150D01*
X20036325Y-10302150D02*
X20074420Y-10302150D01*
X20074420Y-10302150D02*
X20093468Y-10311674D01*
X20093468Y-10311674D02*
X20102992Y-10330722D01*
X20102992Y-10330722D02*
X20102992Y-10349770D01*
X20102992Y-10349770D02*
X20007753Y-10368817D01*
X20179182Y-10425960D02*
X20198230Y-10435484D01*
X20198230Y-10435484D02*
X20236325Y-10435484D01*
X20236325Y-10435484D02*
X20255373Y-10425960D01*
X20255373Y-10425960D02*
X20264896Y-10406912D01*
X20264896Y-10406912D02*
X20264896Y-10397389D01*
X20264896Y-10397389D02*
X20255373Y-10378341D01*
X20255373Y-10378341D02*
X20236325Y-10368817D01*
X20236325Y-10368817D02*
X20207753Y-10368817D01*
X20207753Y-10368817D02*
X20188706Y-10359293D01*
X20188706Y-10359293D02*
X20179182Y-10340246D01*
X20179182Y-10340246D02*
X20179182Y-10330722D01*
X20179182Y-10330722D02*
X20188706Y-10311674D01*
X20188706Y-10311674D02*
X20207753Y-10302150D01*
X20207753Y-10302150D02*
X20236325Y-10302150D01*
X20236325Y-10302150D02*
X20255373Y-10311674D01*
X20331563Y-10511674D02*
X20341087Y-10502150D01*
X20341087Y-10502150D02*
X20360134Y-10473579D01*
X20360134Y-10473579D02*
X20369658Y-10454531D01*
X20369658Y-10454531D02*
X20379182Y-10425960D01*
X20379182Y-10425960D02*
X20388706Y-10378341D01*
X20388706Y-10378341D02*
X20388706Y-10340246D01*
X20388706Y-10340246D02*
X20379182Y-10292627D01*
X20379182Y-10292627D02*
X20369658Y-10264055D01*
X20369658Y-10264055D02*
X20360134Y-10245008D01*
X20360134Y-10245008D02*
X20341087Y-10216436D01*
X20341087Y-10216436D02*
X20331563Y-10206912D01*
D13*
X15524000Y-10575500D02*
X15524000Y-10640500D01*
X15491500Y-10608000D02*
X15556500Y-10608000D01*
D11*
X15855372Y-10499484D02*
X15874420Y-10499484D01*
X15874420Y-10499484D02*
X15893467Y-10509008D01*
X15893467Y-10509008D02*
X15902991Y-10518531D01*
X15902991Y-10518531D02*
X15912515Y-10537579D01*
X15912515Y-10537579D02*
X15922039Y-10575674D01*
X15922039Y-10575674D02*
X15922039Y-10623293D01*
X15922039Y-10623293D02*
X15912515Y-10661389D01*
X15912515Y-10661389D02*
X15902991Y-10680436D01*
X15902991Y-10680436D02*
X15893467Y-10689960D01*
X15893467Y-10689960D02*
X15874420Y-10699484D01*
X15874420Y-10699484D02*
X15855372Y-10699484D01*
X15855372Y-10699484D02*
X15836324Y-10689960D01*
X15836324Y-10689960D02*
X15826801Y-10680436D01*
X15826801Y-10680436D02*
X15817277Y-10661389D01*
X15817277Y-10661389D02*
X15807753Y-10623293D01*
X15807753Y-10623293D02*
X15807753Y-10575674D01*
X15807753Y-10575674D02*
X15817277Y-10537579D01*
X15817277Y-10537579D02*
X15826801Y-10518531D01*
X15826801Y-10518531D02*
X15836324Y-10509008D01*
X15836324Y-10509008D02*
X15855372Y-10499484D01*
X16007753Y-10680436D02*
X16017277Y-10689960D01*
X16017277Y-10689960D02*
X16007753Y-10699484D01*
X16007753Y-10699484D02*
X15998229Y-10689960D01*
X15998229Y-10689960D02*
X16007753Y-10680436D01*
X16007753Y-10680436D02*
X16007753Y-10699484D01*
X16188705Y-10499484D02*
X16150610Y-10499484D01*
X16150610Y-10499484D02*
X16131562Y-10509008D01*
X16131562Y-10509008D02*
X16122039Y-10518531D01*
X16122039Y-10518531D02*
X16102991Y-10547103D01*
X16102991Y-10547103D02*
X16093467Y-10585198D01*
X16093467Y-10585198D02*
X16093467Y-10661389D01*
X16093467Y-10661389D02*
X16102991Y-10680436D01*
X16102991Y-10680436D02*
X16112515Y-10689960D01*
X16112515Y-10689960D02*
X16131562Y-10699484D01*
X16131562Y-10699484D02*
X16169658Y-10699484D01*
X16169658Y-10699484D02*
X16188705Y-10689960D01*
X16188705Y-10689960D02*
X16198229Y-10680436D01*
X16198229Y-10680436D02*
X16207753Y-10661389D01*
X16207753Y-10661389D02*
X16207753Y-10613770D01*
X16207753Y-10613770D02*
X16198229Y-10594722D01*
X16198229Y-10594722D02*
X16188705Y-10585198D01*
X16188705Y-10585198D02*
X16169658Y-10575674D01*
X16169658Y-10575674D02*
X16131562Y-10575674D01*
X16131562Y-10575674D02*
X16112515Y-10585198D01*
X16112515Y-10585198D02*
X16102991Y-10594722D01*
X16102991Y-10594722D02*
X16093467Y-10613770D01*
X16388705Y-10499484D02*
X16293467Y-10499484D01*
X16293467Y-10499484D02*
X16283943Y-10594722D01*
X16283943Y-10594722D02*
X16293467Y-10585198D01*
X16293467Y-10585198D02*
X16312515Y-10575674D01*
X16312515Y-10575674D02*
X16360134Y-10575674D01*
X16360134Y-10575674D02*
X16379182Y-10585198D01*
X16379182Y-10585198D02*
X16388705Y-10594722D01*
X16388705Y-10594722D02*
X16398229Y-10613770D01*
X16398229Y-10613770D02*
X16398229Y-10661389D01*
X16398229Y-10661389D02*
X16388705Y-10680436D01*
X16388705Y-10680436D02*
X16379182Y-10689960D01*
X16379182Y-10689960D02*
X16360134Y-10699484D01*
X16360134Y-10699484D02*
X16312515Y-10699484D01*
X16312515Y-10699484D02*
X16293467Y-10689960D01*
X16293467Y-10689960D02*
X16283943Y-10680436D01*
X16522039Y-10499484D02*
X16541086Y-10499484D01*
X16541086Y-10499484D02*
X16560134Y-10509008D01*
X16560134Y-10509008D02*
X16569658Y-10518531D01*
X16569658Y-10518531D02*
X16579182Y-10537579D01*
X16579182Y-10537579D02*
X16588705Y-10575674D01*
X16588705Y-10575674D02*
X16588705Y-10623293D01*
X16588705Y-10623293D02*
X16579182Y-10661389D01*
X16579182Y-10661389D02*
X16569658Y-10680436D01*
X16569658Y-10680436D02*
X16560134Y-10689960D01*
X16560134Y-10689960D02*
X16541086Y-10699484D01*
X16541086Y-10699484D02*
X16522039Y-10699484D01*
X16522039Y-10699484D02*
X16502991Y-10689960D01*
X16502991Y-10689960D02*
X16493467Y-10680436D01*
X16493467Y-10680436D02*
X16483943Y-10661389D01*
X16483943Y-10661389D02*
X16474420Y-10623293D01*
X16474420Y-10623293D02*
X16474420Y-10575674D01*
X16474420Y-10575674D02*
X16483943Y-10537579D01*
X16483943Y-10537579D02*
X16493467Y-10518531D01*
X16493467Y-10518531D02*
X16502991Y-10509008D01*
X16502991Y-10509008D02*
X16522039Y-10499484D01*
X16674420Y-10699484D02*
X16674420Y-10566150D01*
X16674420Y-10585198D02*
X16683943Y-10575674D01*
X16683943Y-10575674D02*
X16702991Y-10566150D01*
X16702991Y-10566150D02*
X16731563Y-10566150D01*
X16731563Y-10566150D02*
X16750610Y-10575674D01*
X16750610Y-10575674D02*
X16760134Y-10594722D01*
X16760134Y-10594722D02*
X16760134Y-10699484D01*
X16760134Y-10594722D02*
X16769658Y-10575674D01*
X16769658Y-10575674D02*
X16788705Y-10566150D01*
X16788705Y-10566150D02*
X16817277Y-10566150D01*
X16817277Y-10566150D02*
X16836325Y-10575674D01*
X16836325Y-10575674D02*
X16845848Y-10594722D01*
X16845848Y-10594722D02*
X16845848Y-10699484D01*
X16941086Y-10699484D02*
X16941086Y-10566150D01*
X16941086Y-10585198D02*
X16950610Y-10575674D01*
X16950610Y-10575674D02*
X16969658Y-10566150D01*
X16969658Y-10566150D02*
X16998229Y-10566150D01*
X16998229Y-10566150D02*
X17017277Y-10575674D01*
X17017277Y-10575674D02*
X17026801Y-10594722D01*
X17026801Y-10594722D02*
X17026801Y-10699484D01*
X17026801Y-10594722D02*
X17036325Y-10575674D01*
X17036325Y-10575674D02*
X17055372Y-10566150D01*
X17055372Y-10566150D02*
X17083944Y-10566150D01*
X17083944Y-10566150D02*
X17102991Y-10575674D01*
X17102991Y-10575674D02*
X17112515Y-10594722D01*
X17112515Y-10594722D02*
X17112515Y-10699484D01*
X17502991Y-10489960D02*
X17331563Y-10747103D01*
X17760134Y-10499484D02*
X17779182Y-10499484D01*
X17779182Y-10499484D02*
X17798229Y-10509008D01*
X17798229Y-10509008D02*
X17807753Y-10518531D01*
X17807753Y-10518531D02*
X17817277Y-10537579D01*
X17817277Y-10537579D02*
X17826801Y-10575674D01*
X17826801Y-10575674D02*
X17826801Y-10623293D01*
X17826801Y-10623293D02*
X17817277Y-10661389D01*
X17817277Y-10661389D02*
X17807753Y-10680436D01*
X17807753Y-10680436D02*
X17798229Y-10689960D01*
X17798229Y-10689960D02*
X17779182Y-10699484D01*
X17779182Y-10699484D02*
X17760134Y-10699484D01*
X17760134Y-10699484D02*
X17741087Y-10689960D01*
X17741087Y-10689960D02*
X17731563Y-10680436D01*
X17731563Y-10680436D02*
X17722039Y-10661389D01*
X17722039Y-10661389D02*
X17712515Y-10623293D01*
X17712515Y-10623293D02*
X17712515Y-10575674D01*
X17712515Y-10575674D02*
X17722039Y-10537579D01*
X17722039Y-10537579D02*
X17731563Y-10518531D01*
X17731563Y-10518531D02*
X17741087Y-10509008D01*
X17741087Y-10509008D02*
X17760134Y-10499484D01*
X17912515Y-10680436D02*
X17922039Y-10689960D01*
X17922039Y-10689960D02*
X17912515Y-10699484D01*
X17912515Y-10699484D02*
X17902991Y-10689960D01*
X17902991Y-10689960D02*
X17912515Y-10680436D01*
X17912515Y-10680436D02*
X17912515Y-10699484D01*
X18045848Y-10499484D02*
X18064896Y-10499484D01*
X18064896Y-10499484D02*
X18083944Y-10509008D01*
X18083944Y-10509008D02*
X18093468Y-10518531D01*
X18093468Y-10518531D02*
X18102991Y-10537579D01*
X18102991Y-10537579D02*
X18112515Y-10575674D01*
X18112515Y-10575674D02*
X18112515Y-10623293D01*
X18112515Y-10623293D02*
X18102991Y-10661389D01*
X18102991Y-10661389D02*
X18093468Y-10680436D01*
X18093468Y-10680436D02*
X18083944Y-10689960D01*
X18083944Y-10689960D02*
X18064896Y-10699484D01*
X18064896Y-10699484D02*
X18045848Y-10699484D01*
X18045848Y-10699484D02*
X18026801Y-10689960D01*
X18026801Y-10689960D02*
X18017277Y-10680436D01*
X18017277Y-10680436D02*
X18007753Y-10661389D01*
X18007753Y-10661389D02*
X17998229Y-10623293D01*
X17998229Y-10623293D02*
X17998229Y-10575674D01*
X17998229Y-10575674D02*
X18007753Y-10537579D01*
X18007753Y-10537579D02*
X18017277Y-10518531D01*
X18017277Y-10518531D02*
X18026801Y-10509008D01*
X18026801Y-10509008D02*
X18045848Y-10499484D01*
X18188706Y-10518531D02*
X18198229Y-10509008D01*
X18198229Y-10509008D02*
X18217277Y-10499484D01*
X18217277Y-10499484D02*
X18264896Y-10499484D01*
X18264896Y-10499484D02*
X18283944Y-10509008D01*
X18283944Y-10509008D02*
X18293468Y-10518531D01*
X18293468Y-10518531D02*
X18302991Y-10537579D01*
X18302991Y-10537579D02*
X18302991Y-10556627D01*
X18302991Y-10556627D02*
X18293468Y-10585198D01*
X18293468Y-10585198D02*
X18179182Y-10699484D01*
X18179182Y-10699484D02*
X18302991Y-10699484D01*
X18483944Y-10499484D02*
X18388706Y-10499484D01*
X18388706Y-10499484D02*
X18379182Y-10594722D01*
X18379182Y-10594722D02*
X18388706Y-10585198D01*
X18388706Y-10585198D02*
X18407753Y-10575674D01*
X18407753Y-10575674D02*
X18455372Y-10575674D01*
X18455372Y-10575674D02*
X18474420Y-10585198D01*
X18474420Y-10585198D02*
X18483944Y-10594722D01*
X18483944Y-10594722D02*
X18493468Y-10613770D01*
X18493468Y-10613770D02*
X18493468Y-10661389D01*
X18493468Y-10661389D02*
X18483944Y-10680436D01*
X18483944Y-10680436D02*
X18474420Y-10689960D01*
X18474420Y-10689960D02*
X18455372Y-10699484D01*
X18455372Y-10699484D02*
X18407753Y-10699484D01*
X18407753Y-10699484D02*
X18388706Y-10689960D01*
X18388706Y-10689960D02*
X18379182Y-10680436D01*
X18664896Y-10499484D02*
X18626801Y-10499484D01*
X18626801Y-10499484D02*
X18607753Y-10509008D01*
X18607753Y-10509008D02*
X18598229Y-10518531D01*
X18598229Y-10518531D02*
X18579182Y-10547103D01*
X18579182Y-10547103D02*
X18569658Y-10585198D01*
X18569658Y-10585198D02*
X18569658Y-10661389D01*
X18569658Y-10661389D02*
X18579182Y-10680436D01*
X18579182Y-10680436D02*
X18588706Y-10689960D01*
X18588706Y-10689960D02*
X18607753Y-10699484D01*
X18607753Y-10699484D02*
X18645849Y-10699484D01*
X18645849Y-10699484D02*
X18664896Y-10689960D01*
X18664896Y-10689960D02*
X18674420Y-10680436D01*
X18674420Y-10680436D02*
X18683944Y-10661389D01*
X18683944Y-10661389D02*
X18683944Y-10613770D01*
X18683944Y-10613770D02*
X18674420Y-10594722D01*
X18674420Y-10594722D02*
X18664896Y-10585198D01*
X18664896Y-10585198D02*
X18645849Y-10575674D01*
X18645849Y-10575674D02*
X18607753Y-10575674D01*
X18607753Y-10575674D02*
X18588706Y-10585198D01*
X18588706Y-10585198D02*
X18579182Y-10594722D01*
X18579182Y-10594722D02*
X18569658Y-10613770D01*
X18760134Y-10499484D02*
X18760134Y-10537579D01*
X18836325Y-10499484D02*
X18836325Y-10537579D01*
X19131563Y-10775674D02*
X19122039Y-10766150D01*
X19122039Y-10766150D02*
X19102991Y-10737579D01*
X19102991Y-10737579D02*
X19093468Y-10718531D01*
X19093468Y-10718531D02*
X19083944Y-10689960D01*
X19083944Y-10689960D02*
X19074420Y-10642341D01*
X19074420Y-10642341D02*
X19074420Y-10604246D01*
X19074420Y-10604246D02*
X19083944Y-10556627D01*
X19083944Y-10556627D02*
X19093468Y-10528055D01*
X19093468Y-10528055D02*
X19102991Y-10509008D01*
X19102991Y-10509008D02*
X19122039Y-10480436D01*
X19122039Y-10480436D02*
X19131563Y-10470912D01*
X19245849Y-10499484D02*
X19264896Y-10499484D01*
X19264896Y-10499484D02*
X19283944Y-10509008D01*
X19283944Y-10509008D02*
X19293468Y-10518531D01*
X19293468Y-10518531D02*
X19302991Y-10537579D01*
X19302991Y-10537579D02*
X19312515Y-10575674D01*
X19312515Y-10575674D02*
X19312515Y-10623293D01*
X19312515Y-10623293D02*
X19302991Y-10661389D01*
X19302991Y-10661389D02*
X19293468Y-10680436D01*
X19293468Y-10680436D02*
X19283944Y-10689960D01*
X19283944Y-10689960D02*
X19264896Y-10699484D01*
X19264896Y-10699484D02*
X19245849Y-10699484D01*
X19245849Y-10699484D02*
X19226801Y-10689960D01*
X19226801Y-10689960D02*
X19217277Y-10680436D01*
X19217277Y-10680436D02*
X19207753Y-10661389D01*
X19207753Y-10661389D02*
X19198230Y-10623293D01*
X19198230Y-10623293D02*
X19198230Y-10575674D01*
X19198230Y-10575674D02*
X19207753Y-10537579D01*
X19207753Y-10537579D02*
X19217277Y-10518531D01*
X19217277Y-10518531D02*
X19226801Y-10509008D01*
X19226801Y-10509008D02*
X19245849Y-10499484D01*
X19550611Y-10699484D02*
X19550611Y-10499484D01*
X19636325Y-10699484D02*
X19636325Y-10594722D01*
X19636325Y-10594722D02*
X19626801Y-10575674D01*
X19626801Y-10575674D02*
X19607753Y-10566150D01*
X19607753Y-10566150D02*
X19579182Y-10566150D01*
X19579182Y-10566150D02*
X19560134Y-10575674D01*
X19560134Y-10575674D02*
X19550611Y-10585198D01*
X19760134Y-10699484D02*
X19741087Y-10689960D01*
X19741087Y-10689960D02*
X19731563Y-10680436D01*
X19731563Y-10680436D02*
X19722039Y-10661389D01*
X19722039Y-10661389D02*
X19722039Y-10604246D01*
X19722039Y-10604246D02*
X19731563Y-10585198D01*
X19731563Y-10585198D02*
X19741087Y-10575674D01*
X19741087Y-10575674D02*
X19760134Y-10566150D01*
X19760134Y-10566150D02*
X19788706Y-10566150D01*
X19788706Y-10566150D02*
X19807753Y-10575674D01*
X19807753Y-10575674D02*
X19817277Y-10585198D01*
X19817277Y-10585198D02*
X19826801Y-10604246D01*
X19826801Y-10604246D02*
X19826801Y-10661389D01*
X19826801Y-10661389D02*
X19817277Y-10680436D01*
X19817277Y-10680436D02*
X19807753Y-10689960D01*
X19807753Y-10689960D02*
X19788706Y-10699484D01*
X19788706Y-10699484D02*
X19760134Y-10699484D01*
X19941087Y-10699484D02*
X19922039Y-10689960D01*
X19922039Y-10689960D02*
X19912515Y-10670912D01*
X19912515Y-10670912D02*
X19912515Y-10499484D01*
X20093468Y-10689960D02*
X20074420Y-10699484D01*
X20074420Y-10699484D02*
X20036325Y-10699484D01*
X20036325Y-10699484D02*
X20017277Y-10689960D01*
X20017277Y-10689960D02*
X20007753Y-10670912D01*
X20007753Y-10670912D02*
X20007753Y-10594722D01*
X20007753Y-10594722D02*
X20017277Y-10575674D01*
X20017277Y-10575674D02*
X20036325Y-10566150D01*
X20036325Y-10566150D02*
X20074420Y-10566150D01*
X20074420Y-10566150D02*
X20093468Y-10575674D01*
X20093468Y-10575674D02*
X20102992Y-10594722D01*
X20102992Y-10594722D02*
X20102992Y-10613770D01*
X20102992Y-10613770D02*
X20007753Y-10632817D01*
X20179182Y-10689960D02*
X20198230Y-10699484D01*
X20198230Y-10699484D02*
X20236325Y-10699484D01*
X20236325Y-10699484D02*
X20255373Y-10689960D01*
X20255373Y-10689960D02*
X20264896Y-10670912D01*
X20264896Y-10670912D02*
X20264896Y-10661389D01*
X20264896Y-10661389D02*
X20255373Y-10642341D01*
X20255373Y-10642341D02*
X20236325Y-10632817D01*
X20236325Y-10632817D02*
X20207753Y-10632817D01*
X20207753Y-10632817D02*
X20188706Y-10623293D01*
X20188706Y-10623293D02*
X20179182Y-10604246D01*
X20179182Y-10604246D02*
X20179182Y-10594722D01*
X20179182Y-10594722D02*
X20188706Y-10575674D01*
X20188706Y-10575674D02*
X20207753Y-10566150D01*
X20207753Y-10566150D02*
X20236325Y-10566150D01*
X20236325Y-10566150D02*
X20255373Y-10575674D01*
X20502992Y-10623293D02*
X20655373Y-10623293D01*
X20579182Y-10699484D02*
X20579182Y-10547103D01*
X20893468Y-10518531D02*
X20902992Y-10509008D01*
X20902992Y-10509008D02*
X20922039Y-10499484D01*
X20922039Y-10499484D02*
X20969658Y-10499484D01*
X20969658Y-10499484D02*
X20988706Y-10509008D01*
X20988706Y-10509008D02*
X20998230Y-10518531D01*
X20998230Y-10518531D02*
X21007754Y-10537579D01*
X21007754Y-10537579D02*
X21007754Y-10556627D01*
X21007754Y-10556627D02*
X20998230Y-10585198D01*
X20998230Y-10585198D02*
X20883944Y-10699484D01*
X20883944Y-10699484D02*
X21007754Y-10699484D01*
X21236325Y-10689960D02*
X21255373Y-10699484D01*
X21255373Y-10699484D02*
X21293468Y-10699484D01*
X21293468Y-10699484D02*
X21312516Y-10689960D01*
X21312516Y-10689960D02*
X21322039Y-10670912D01*
X21322039Y-10670912D02*
X21322039Y-10661389D01*
X21322039Y-10661389D02*
X21312516Y-10642341D01*
X21312516Y-10642341D02*
X21293468Y-10632817D01*
X21293468Y-10632817D02*
X21264896Y-10632817D01*
X21264896Y-10632817D02*
X21245849Y-10623293D01*
X21245849Y-10623293D02*
X21236325Y-10604246D01*
X21236325Y-10604246D02*
X21236325Y-10594722D01*
X21236325Y-10594722D02*
X21245849Y-10575674D01*
X21245849Y-10575674D02*
X21264896Y-10566150D01*
X21264896Y-10566150D02*
X21293468Y-10566150D01*
X21293468Y-10566150D02*
X21312516Y-10575674D01*
X21436325Y-10699484D02*
X21417277Y-10689960D01*
X21417277Y-10689960D02*
X21407754Y-10670912D01*
X21407754Y-10670912D02*
X21407754Y-10499484D01*
X21541087Y-10699484D02*
X21522039Y-10689960D01*
X21522039Y-10689960D02*
X21512516Y-10680436D01*
X21512516Y-10680436D02*
X21502992Y-10661389D01*
X21502992Y-10661389D02*
X21502992Y-10604246D01*
X21502992Y-10604246D02*
X21512516Y-10585198D01*
X21512516Y-10585198D02*
X21522039Y-10575674D01*
X21522039Y-10575674D02*
X21541087Y-10566150D01*
X21541087Y-10566150D02*
X21569658Y-10566150D01*
X21569658Y-10566150D02*
X21588706Y-10575674D01*
X21588706Y-10575674D02*
X21598230Y-10585198D01*
X21598230Y-10585198D02*
X21607754Y-10604246D01*
X21607754Y-10604246D02*
X21607754Y-10661389D01*
X21607754Y-10661389D02*
X21598230Y-10680436D01*
X21598230Y-10680436D02*
X21588706Y-10689960D01*
X21588706Y-10689960D02*
X21569658Y-10699484D01*
X21569658Y-10699484D02*
X21541087Y-10699484D01*
X21664897Y-10566150D02*
X21741087Y-10566150D01*
X21693468Y-10499484D02*
X21693468Y-10670912D01*
X21693468Y-10670912D02*
X21702992Y-10689960D01*
X21702992Y-10689960D02*
X21722039Y-10699484D01*
X21722039Y-10699484D02*
X21741087Y-10699484D01*
X21798230Y-10689960D02*
X21817277Y-10699484D01*
X21817277Y-10699484D02*
X21855373Y-10699484D01*
X21855373Y-10699484D02*
X21874420Y-10689960D01*
X21874420Y-10689960D02*
X21883944Y-10670912D01*
X21883944Y-10670912D02*
X21883944Y-10661389D01*
X21883944Y-10661389D02*
X21874420Y-10642341D01*
X21874420Y-10642341D02*
X21855373Y-10632817D01*
X21855373Y-10632817D02*
X21826801Y-10632817D01*
X21826801Y-10632817D02*
X21807754Y-10623293D01*
X21807754Y-10623293D02*
X21798230Y-10604246D01*
X21798230Y-10604246D02*
X21798230Y-10594722D01*
X21798230Y-10594722D02*
X21807754Y-10575674D01*
X21807754Y-10575674D02*
X21826801Y-10566150D01*
X21826801Y-10566150D02*
X21855373Y-10566150D01*
X21855373Y-10566150D02*
X21874420Y-10575674D01*
X21950611Y-10775674D02*
X21960135Y-10766150D01*
X21960135Y-10766150D02*
X21979182Y-10737579D01*
X21979182Y-10737579D02*
X21988706Y-10718531D01*
X21988706Y-10718531D02*
X21998230Y-10689960D01*
X21998230Y-10689960D02*
X22007754Y-10642341D01*
X22007754Y-10642341D02*
X22007754Y-10604246D01*
X22007754Y-10604246D02*
X21998230Y-10556627D01*
X21998230Y-10556627D02*
X21988706Y-10528055D01*
X21988706Y-10528055D02*
X21979182Y-10509008D01*
X21979182Y-10509008D02*
X21960135Y-10480436D01*
X21960135Y-10480436D02*
X21950611Y-10470912D01*
D14*
X15546249Y-10896749D02*
X15546249Y-10847251D01*
X15496751Y-10847251D01*
X15496751Y-10896749D01*
X15546249Y-10896749D01*
D11*
X15855372Y-10763484D02*
X15874420Y-10763484D01*
X15874420Y-10763484D02*
X15893467Y-10773008D01*
X15893467Y-10773008D02*
X15902991Y-10782531D01*
X15902991Y-10782531D02*
X15912515Y-10801579D01*
X15912515Y-10801579D02*
X15922039Y-10839674D01*
X15922039Y-10839674D02*
X15922039Y-10887293D01*
X15922039Y-10887293D02*
X15912515Y-10925389D01*
X15912515Y-10925389D02*
X15902991Y-10944436D01*
X15902991Y-10944436D02*
X15893467Y-10953960D01*
X15893467Y-10953960D02*
X15874420Y-10963484D01*
X15874420Y-10963484D02*
X15855372Y-10963484D01*
X15855372Y-10963484D02*
X15836324Y-10953960D01*
X15836324Y-10953960D02*
X15826801Y-10944436D01*
X15826801Y-10944436D02*
X15817277Y-10925389D01*
X15817277Y-10925389D02*
X15807753Y-10887293D01*
X15807753Y-10887293D02*
X15807753Y-10839674D01*
X15807753Y-10839674D02*
X15817277Y-10801579D01*
X15817277Y-10801579D02*
X15826801Y-10782531D01*
X15826801Y-10782531D02*
X15836324Y-10773008D01*
X15836324Y-10773008D02*
X15855372Y-10763484D01*
X16007753Y-10944436D02*
X16017277Y-10953960D01*
X16017277Y-10953960D02*
X16007753Y-10963484D01*
X16007753Y-10963484D02*
X15998229Y-10953960D01*
X15998229Y-10953960D02*
X16007753Y-10944436D01*
X16007753Y-10944436D02*
X16007753Y-10963484D01*
X16083943Y-10763484D02*
X16217277Y-10763484D01*
X16217277Y-10763484D02*
X16131562Y-10963484D01*
X16331562Y-10763484D02*
X16350610Y-10763484D01*
X16350610Y-10763484D02*
X16369658Y-10773008D01*
X16369658Y-10773008D02*
X16379182Y-10782531D01*
X16379182Y-10782531D02*
X16388705Y-10801579D01*
X16388705Y-10801579D02*
X16398229Y-10839674D01*
X16398229Y-10839674D02*
X16398229Y-10887293D01*
X16398229Y-10887293D02*
X16388705Y-10925389D01*
X16388705Y-10925389D02*
X16379182Y-10944436D01*
X16379182Y-10944436D02*
X16369658Y-10953960D01*
X16369658Y-10953960D02*
X16350610Y-10963484D01*
X16350610Y-10963484D02*
X16331562Y-10963484D01*
X16331562Y-10963484D02*
X16312515Y-10953960D01*
X16312515Y-10953960D02*
X16302991Y-10944436D01*
X16302991Y-10944436D02*
X16293467Y-10925389D01*
X16293467Y-10925389D02*
X16283943Y-10887293D01*
X16283943Y-10887293D02*
X16283943Y-10839674D01*
X16283943Y-10839674D02*
X16293467Y-10801579D01*
X16293467Y-10801579D02*
X16302991Y-10782531D01*
X16302991Y-10782531D02*
X16312515Y-10773008D01*
X16312515Y-10773008D02*
X16331562Y-10763484D01*
X16522039Y-10763484D02*
X16541086Y-10763484D01*
X16541086Y-10763484D02*
X16560134Y-10773008D01*
X16560134Y-10773008D02*
X16569658Y-10782531D01*
X16569658Y-10782531D02*
X16579182Y-10801579D01*
X16579182Y-10801579D02*
X16588705Y-10839674D01*
X16588705Y-10839674D02*
X16588705Y-10887293D01*
X16588705Y-10887293D02*
X16579182Y-10925389D01*
X16579182Y-10925389D02*
X16569658Y-10944436D01*
X16569658Y-10944436D02*
X16560134Y-10953960D01*
X16560134Y-10953960D02*
X16541086Y-10963484D01*
X16541086Y-10963484D02*
X16522039Y-10963484D01*
X16522039Y-10963484D02*
X16502991Y-10953960D01*
X16502991Y-10953960D02*
X16493467Y-10944436D01*
X16493467Y-10944436D02*
X16483943Y-10925389D01*
X16483943Y-10925389D02*
X16474420Y-10887293D01*
X16474420Y-10887293D02*
X16474420Y-10839674D01*
X16474420Y-10839674D02*
X16483943Y-10801579D01*
X16483943Y-10801579D02*
X16493467Y-10782531D01*
X16493467Y-10782531D02*
X16502991Y-10773008D01*
X16502991Y-10773008D02*
X16522039Y-10763484D01*
X16674420Y-10963484D02*
X16674420Y-10830150D01*
X16674420Y-10849198D02*
X16683943Y-10839674D01*
X16683943Y-10839674D02*
X16702991Y-10830150D01*
X16702991Y-10830150D02*
X16731563Y-10830150D01*
X16731563Y-10830150D02*
X16750610Y-10839674D01*
X16750610Y-10839674D02*
X16760134Y-10858722D01*
X16760134Y-10858722D02*
X16760134Y-10963484D01*
X16760134Y-10858722D02*
X16769658Y-10839674D01*
X16769658Y-10839674D02*
X16788705Y-10830150D01*
X16788705Y-10830150D02*
X16817277Y-10830150D01*
X16817277Y-10830150D02*
X16836325Y-10839674D01*
X16836325Y-10839674D02*
X16845848Y-10858722D01*
X16845848Y-10858722D02*
X16845848Y-10963484D01*
X16941086Y-10963484D02*
X16941086Y-10830150D01*
X16941086Y-10849198D02*
X16950610Y-10839674D01*
X16950610Y-10839674D02*
X16969658Y-10830150D01*
X16969658Y-10830150D02*
X16998229Y-10830150D01*
X16998229Y-10830150D02*
X17017277Y-10839674D01*
X17017277Y-10839674D02*
X17026801Y-10858722D01*
X17026801Y-10858722D02*
X17026801Y-10963484D01*
X17026801Y-10858722D02*
X17036325Y-10839674D01*
X17036325Y-10839674D02*
X17055372Y-10830150D01*
X17055372Y-10830150D02*
X17083944Y-10830150D01*
X17083944Y-10830150D02*
X17102991Y-10839674D01*
X17102991Y-10839674D02*
X17112515Y-10858722D01*
X17112515Y-10858722D02*
X17112515Y-10963484D01*
X17502991Y-10753960D02*
X17331563Y-11011103D01*
X17760134Y-10763484D02*
X17779182Y-10763484D01*
X17779182Y-10763484D02*
X17798229Y-10773008D01*
X17798229Y-10773008D02*
X17807753Y-10782531D01*
X17807753Y-10782531D02*
X17817277Y-10801579D01*
X17817277Y-10801579D02*
X17826801Y-10839674D01*
X17826801Y-10839674D02*
X17826801Y-10887293D01*
X17826801Y-10887293D02*
X17817277Y-10925389D01*
X17817277Y-10925389D02*
X17807753Y-10944436D01*
X17807753Y-10944436D02*
X17798229Y-10953960D01*
X17798229Y-10953960D02*
X17779182Y-10963484D01*
X17779182Y-10963484D02*
X17760134Y-10963484D01*
X17760134Y-10963484D02*
X17741087Y-10953960D01*
X17741087Y-10953960D02*
X17731563Y-10944436D01*
X17731563Y-10944436D02*
X17722039Y-10925389D01*
X17722039Y-10925389D02*
X17712515Y-10887293D01*
X17712515Y-10887293D02*
X17712515Y-10839674D01*
X17712515Y-10839674D02*
X17722039Y-10801579D01*
X17722039Y-10801579D02*
X17731563Y-10782531D01*
X17731563Y-10782531D02*
X17741087Y-10773008D01*
X17741087Y-10773008D02*
X17760134Y-10763484D01*
X17912515Y-10944436D02*
X17922039Y-10953960D01*
X17922039Y-10953960D02*
X17912515Y-10963484D01*
X17912515Y-10963484D02*
X17902991Y-10953960D01*
X17902991Y-10953960D02*
X17912515Y-10944436D01*
X17912515Y-10944436D02*
X17912515Y-10963484D01*
X18045848Y-10763484D02*
X18064896Y-10763484D01*
X18064896Y-10763484D02*
X18083944Y-10773008D01*
X18083944Y-10773008D02*
X18093468Y-10782531D01*
X18093468Y-10782531D02*
X18102991Y-10801579D01*
X18102991Y-10801579D02*
X18112515Y-10839674D01*
X18112515Y-10839674D02*
X18112515Y-10887293D01*
X18112515Y-10887293D02*
X18102991Y-10925389D01*
X18102991Y-10925389D02*
X18093468Y-10944436D01*
X18093468Y-10944436D02*
X18083944Y-10953960D01*
X18083944Y-10953960D02*
X18064896Y-10963484D01*
X18064896Y-10963484D02*
X18045848Y-10963484D01*
X18045848Y-10963484D02*
X18026801Y-10953960D01*
X18026801Y-10953960D02*
X18017277Y-10944436D01*
X18017277Y-10944436D02*
X18007753Y-10925389D01*
X18007753Y-10925389D02*
X17998229Y-10887293D01*
X17998229Y-10887293D02*
X17998229Y-10839674D01*
X17998229Y-10839674D02*
X18007753Y-10801579D01*
X18007753Y-10801579D02*
X18017277Y-10782531D01*
X18017277Y-10782531D02*
X18026801Y-10773008D01*
X18026801Y-10773008D02*
X18045848Y-10763484D01*
X18188706Y-10782531D02*
X18198229Y-10773008D01*
X18198229Y-10773008D02*
X18217277Y-10763484D01*
X18217277Y-10763484D02*
X18264896Y-10763484D01*
X18264896Y-10763484D02*
X18283944Y-10773008D01*
X18283944Y-10773008D02*
X18293468Y-10782531D01*
X18293468Y-10782531D02*
X18302991Y-10801579D01*
X18302991Y-10801579D02*
X18302991Y-10820627D01*
X18302991Y-10820627D02*
X18293468Y-10849198D01*
X18293468Y-10849198D02*
X18179182Y-10963484D01*
X18179182Y-10963484D02*
X18302991Y-10963484D01*
X18369658Y-10763484D02*
X18502991Y-10763484D01*
X18502991Y-10763484D02*
X18417277Y-10963484D01*
X18664896Y-10763484D02*
X18626801Y-10763484D01*
X18626801Y-10763484D02*
X18607753Y-10773008D01*
X18607753Y-10773008D02*
X18598229Y-10782531D01*
X18598229Y-10782531D02*
X18579182Y-10811103D01*
X18579182Y-10811103D02*
X18569658Y-10849198D01*
X18569658Y-10849198D02*
X18569658Y-10925389D01*
X18569658Y-10925389D02*
X18579182Y-10944436D01*
X18579182Y-10944436D02*
X18588706Y-10953960D01*
X18588706Y-10953960D02*
X18607753Y-10963484D01*
X18607753Y-10963484D02*
X18645849Y-10963484D01*
X18645849Y-10963484D02*
X18664896Y-10953960D01*
X18664896Y-10953960D02*
X18674420Y-10944436D01*
X18674420Y-10944436D02*
X18683944Y-10925389D01*
X18683944Y-10925389D02*
X18683944Y-10877770D01*
X18683944Y-10877770D02*
X18674420Y-10858722D01*
X18674420Y-10858722D02*
X18664896Y-10849198D01*
X18664896Y-10849198D02*
X18645849Y-10839674D01*
X18645849Y-10839674D02*
X18607753Y-10839674D01*
X18607753Y-10839674D02*
X18588706Y-10849198D01*
X18588706Y-10849198D02*
X18579182Y-10858722D01*
X18579182Y-10858722D02*
X18569658Y-10877770D01*
X18760134Y-10763484D02*
X18760134Y-10801579D01*
X18836325Y-10763484D02*
X18836325Y-10801579D01*
X19131563Y-11039674D02*
X19122039Y-11030150D01*
X19122039Y-11030150D02*
X19102991Y-11001579D01*
X19102991Y-11001579D02*
X19093468Y-10982531D01*
X19093468Y-10982531D02*
X19083944Y-10953960D01*
X19083944Y-10953960D02*
X19074420Y-10906341D01*
X19074420Y-10906341D02*
X19074420Y-10868246D01*
X19074420Y-10868246D02*
X19083944Y-10820627D01*
X19083944Y-10820627D02*
X19093468Y-10792055D01*
X19093468Y-10792055D02*
X19102991Y-10773008D01*
X19102991Y-10773008D02*
X19122039Y-10744436D01*
X19122039Y-10744436D02*
X19131563Y-10734912D01*
X19245849Y-10763484D02*
X19264896Y-10763484D01*
X19264896Y-10763484D02*
X19283944Y-10773008D01*
X19283944Y-10773008D02*
X19293468Y-10782531D01*
X19293468Y-10782531D02*
X19302991Y-10801579D01*
X19302991Y-10801579D02*
X19312515Y-10839674D01*
X19312515Y-10839674D02*
X19312515Y-10887293D01*
X19312515Y-10887293D02*
X19302991Y-10925389D01*
X19302991Y-10925389D02*
X19293468Y-10944436D01*
X19293468Y-10944436D02*
X19283944Y-10953960D01*
X19283944Y-10953960D02*
X19264896Y-10963484D01*
X19264896Y-10963484D02*
X19245849Y-10963484D01*
X19245849Y-10963484D02*
X19226801Y-10953960D01*
X19226801Y-10953960D02*
X19217277Y-10944436D01*
X19217277Y-10944436D02*
X19207753Y-10925389D01*
X19207753Y-10925389D02*
X19198230Y-10887293D01*
X19198230Y-10887293D02*
X19198230Y-10839674D01*
X19198230Y-10839674D02*
X19207753Y-10801579D01*
X19207753Y-10801579D02*
X19217277Y-10782531D01*
X19217277Y-10782531D02*
X19226801Y-10773008D01*
X19226801Y-10773008D02*
X19245849Y-10763484D01*
X19550611Y-10963484D02*
X19550611Y-10763484D01*
X19636325Y-10963484D02*
X19636325Y-10858722D01*
X19636325Y-10858722D02*
X19626801Y-10839674D01*
X19626801Y-10839674D02*
X19607753Y-10830150D01*
X19607753Y-10830150D02*
X19579182Y-10830150D01*
X19579182Y-10830150D02*
X19560134Y-10839674D01*
X19560134Y-10839674D02*
X19550611Y-10849198D01*
X19760134Y-10963484D02*
X19741087Y-10953960D01*
X19741087Y-10953960D02*
X19731563Y-10944436D01*
X19731563Y-10944436D02*
X19722039Y-10925389D01*
X19722039Y-10925389D02*
X19722039Y-10868246D01*
X19722039Y-10868246D02*
X19731563Y-10849198D01*
X19731563Y-10849198D02*
X19741087Y-10839674D01*
X19741087Y-10839674D02*
X19760134Y-10830150D01*
X19760134Y-10830150D02*
X19788706Y-10830150D01*
X19788706Y-10830150D02*
X19807753Y-10839674D01*
X19807753Y-10839674D02*
X19817277Y-10849198D01*
X19817277Y-10849198D02*
X19826801Y-10868246D01*
X19826801Y-10868246D02*
X19826801Y-10925389D01*
X19826801Y-10925389D02*
X19817277Y-10944436D01*
X19817277Y-10944436D02*
X19807753Y-10953960D01*
X19807753Y-10953960D02*
X19788706Y-10963484D01*
X19788706Y-10963484D02*
X19760134Y-10963484D01*
X19941087Y-10963484D02*
X19922039Y-10953960D01*
X19922039Y-10953960D02*
X19912515Y-10934912D01*
X19912515Y-10934912D02*
X19912515Y-10763484D01*
X20093468Y-10953960D02*
X20074420Y-10963484D01*
X20074420Y-10963484D02*
X20036325Y-10963484D01*
X20036325Y-10963484D02*
X20017277Y-10953960D01*
X20017277Y-10953960D02*
X20007753Y-10934912D01*
X20007753Y-10934912D02*
X20007753Y-10858722D01*
X20007753Y-10858722D02*
X20017277Y-10839674D01*
X20017277Y-10839674D02*
X20036325Y-10830150D01*
X20036325Y-10830150D02*
X20074420Y-10830150D01*
X20074420Y-10830150D02*
X20093468Y-10839674D01*
X20093468Y-10839674D02*
X20102992Y-10858722D01*
X20102992Y-10858722D02*
X20102992Y-10877770D01*
X20102992Y-10877770D02*
X20007753Y-10896817D01*
X20179182Y-10953960D02*
X20198230Y-10963484D01*
X20198230Y-10963484D02*
X20236325Y-10963484D01*
X20236325Y-10963484D02*
X20255373Y-10953960D01*
X20255373Y-10953960D02*
X20264896Y-10934912D01*
X20264896Y-10934912D02*
X20264896Y-10925389D01*
X20264896Y-10925389D02*
X20255373Y-10906341D01*
X20255373Y-10906341D02*
X20236325Y-10896817D01*
X20236325Y-10896817D02*
X20207753Y-10896817D01*
X20207753Y-10896817D02*
X20188706Y-10887293D01*
X20188706Y-10887293D02*
X20179182Y-10868246D01*
X20179182Y-10868246D02*
X20179182Y-10858722D01*
X20179182Y-10858722D02*
X20188706Y-10839674D01*
X20188706Y-10839674D02*
X20207753Y-10830150D01*
X20207753Y-10830150D02*
X20236325Y-10830150D01*
X20236325Y-10830150D02*
X20255373Y-10839674D01*
X20502992Y-10887293D02*
X20655373Y-10887293D01*
X20579182Y-10963484D02*
X20579182Y-10811103D01*
X20893468Y-10782531D02*
X20902992Y-10773008D01*
X20902992Y-10773008D02*
X20922039Y-10763484D01*
X20922039Y-10763484D02*
X20969658Y-10763484D01*
X20969658Y-10763484D02*
X20988706Y-10773008D01*
X20988706Y-10773008D02*
X20998230Y-10782531D01*
X20998230Y-10782531D02*
X21007754Y-10801579D01*
X21007754Y-10801579D02*
X21007754Y-10820627D01*
X21007754Y-10820627D02*
X20998230Y-10849198D01*
X20998230Y-10849198D02*
X20883944Y-10963484D01*
X20883944Y-10963484D02*
X21007754Y-10963484D01*
X21236325Y-10953960D02*
X21255373Y-10963484D01*
X21255373Y-10963484D02*
X21293468Y-10963484D01*
X21293468Y-10963484D02*
X21312516Y-10953960D01*
X21312516Y-10953960D02*
X21322039Y-10934912D01*
X21322039Y-10934912D02*
X21322039Y-10925389D01*
X21322039Y-10925389D02*
X21312516Y-10906341D01*
X21312516Y-10906341D02*
X21293468Y-10896817D01*
X21293468Y-10896817D02*
X21264896Y-10896817D01*
X21264896Y-10896817D02*
X21245849Y-10887293D01*
X21245849Y-10887293D02*
X21236325Y-10868246D01*
X21236325Y-10868246D02*
X21236325Y-10858722D01*
X21236325Y-10858722D02*
X21245849Y-10839674D01*
X21245849Y-10839674D02*
X21264896Y-10830150D01*
X21264896Y-10830150D02*
X21293468Y-10830150D01*
X21293468Y-10830150D02*
X21312516Y-10839674D01*
X21436325Y-10963484D02*
X21417277Y-10953960D01*
X21417277Y-10953960D02*
X21407754Y-10934912D01*
X21407754Y-10934912D02*
X21407754Y-10763484D01*
X21541087Y-10963484D02*
X21522039Y-10953960D01*
X21522039Y-10953960D02*
X21512516Y-10944436D01*
X21512516Y-10944436D02*
X21502992Y-10925389D01*
X21502992Y-10925389D02*
X21502992Y-10868246D01*
X21502992Y-10868246D02*
X21512516Y-10849198D01*
X21512516Y-10849198D02*
X21522039Y-10839674D01*
X21522039Y-10839674D02*
X21541087Y-10830150D01*
X21541087Y-10830150D02*
X21569658Y-10830150D01*
X21569658Y-10830150D02*
X21588706Y-10839674D01*
X21588706Y-10839674D02*
X21598230Y-10849198D01*
X21598230Y-10849198D02*
X21607754Y-10868246D01*
X21607754Y-10868246D02*
X21607754Y-10925389D01*
X21607754Y-10925389D02*
X21598230Y-10944436D01*
X21598230Y-10944436D02*
X21588706Y-10953960D01*
X21588706Y-10953960D02*
X21569658Y-10963484D01*
X21569658Y-10963484D02*
X21541087Y-10963484D01*
X21664897Y-10830150D02*
X21741087Y-10830150D01*
X21693468Y-10763484D02*
X21693468Y-10934912D01*
X21693468Y-10934912D02*
X21702992Y-10953960D01*
X21702992Y-10953960D02*
X21722039Y-10963484D01*
X21722039Y-10963484D02*
X21741087Y-10963484D01*
X21798230Y-10953960D02*
X21817277Y-10963484D01*
X21817277Y-10963484D02*
X21855373Y-10963484D01*
X21855373Y-10963484D02*
X21874420Y-10953960D01*
X21874420Y-10953960D02*
X21883944Y-10934912D01*
X21883944Y-10934912D02*
X21883944Y-10925389D01*
X21883944Y-10925389D02*
X21874420Y-10906341D01*
X21874420Y-10906341D02*
X21855373Y-10896817D01*
X21855373Y-10896817D02*
X21826801Y-10896817D01*
X21826801Y-10896817D02*
X21807754Y-10887293D01*
X21807754Y-10887293D02*
X21798230Y-10868246D01*
X21798230Y-10868246D02*
X21798230Y-10858722D01*
X21798230Y-10858722D02*
X21807754Y-10839674D01*
X21807754Y-10839674D02*
X21826801Y-10830150D01*
X21826801Y-10830150D02*
X21855373Y-10830150D01*
X21855373Y-10830150D02*
X21874420Y-10839674D01*
X21950611Y-11039674D02*
X21960135Y-11030150D01*
X21960135Y-11030150D02*
X21979182Y-11001579D01*
X21979182Y-11001579D02*
X21988706Y-10982531D01*
X21988706Y-10982531D02*
X21998230Y-10953960D01*
X21998230Y-10953960D02*
X22007754Y-10906341D01*
X22007754Y-10906341D02*
X22007754Y-10868246D01*
X22007754Y-10868246D02*
X21998230Y-10820627D01*
X21998230Y-10820627D02*
X21988706Y-10792055D01*
X21988706Y-10792055D02*
X21979182Y-10773008D01*
X21979182Y-10773008D02*
X21960135Y-10744436D01*
X21960135Y-10744436D02*
X21950611Y-10734912D01*
M02*
