%TF.GenerationSoftware,KiCad,Pcbnew,(6.0.9)*%
%TF.CreationDate,2023-01-06T22:41:28-05:00*%
%TF.ProjectId,Doom Keycap,446f6f6d-204b-4657-9963-61702e6b6963,REV1*%
%TF.SameCoordinates,Original*%
%TF.FileFunction,Paste,Top*%
%TF.FilePolarity,Positive*%
%FSLAX46Y46*%
G04 Gerber Fmt 4.6, Leading zero omitted, Abs format (unit mm)*
G04 Created by KiCad (PCBNEW (6.0.9)) date 2023-01-06 22:41:28*
%MOMM*%
%LPD*%
G01*
G04 APERTURE LIST*
G04 Aperture macros list*
%AMRoundRect*
0 Rectangle with rounded corners*
0 $1 Rounding radius*
0 $2 $3 $4 $5 $6 $7 $8 $9 X,Y pos of 4 corners*
0 Add a 4 corners polygon primitive as box body*
4,1,4,$2,$3,$4,$5,$6,$7,$8,$9,$2,$3,0*
0 Add four circle primitives for the rounded corners*
1,1,$1+$1,$2,$3*
1,1,$1+$1,$4,$5*
1,1,$1+$1,$6,$7*
1,1,$1+$1,$8,$9*
0 Add four rect primitives between the rounded corners*
20,1,$1+$1,$2,$3,$4,$5,0*
20,1,$1+$1,$4,$5,$6,$7,0*
20,1,$1+$1,$6,$7,$8,$9,0*
20,1,$1+$1,$8,$9,$2,$3,0*%
G04 Aperture macros list end*
%ADD10RoundRect,0.147500X0.147500X0.172500X-0.147500X0.172500X-0.147500X-0.172500X0.147500X-0.172500X0*%
%ADD11RoundRect,0.147500X-0.172500X0.147500X-0.172500X-0.147500X0.172500X-0.147500X0.172500X0.147500X0*%
%ADD12RoundRect,0.147500X0.172500X-0.147500X0.172500X0.147500X-0.172500X0.147500X-0.172500X-0.147500X0*%
%ADD13RoundRect,0.150000X0.650000X0.150000X-0.650000X0.150000X-0.650000X-0.150000X0.650000X-0.150000X0*%
%ADD14RoundRect,0.147500X-0.147500X-0.172500X0.147500X-0.172500X0.147500X0.172500X-0.147500X0.172500X0*%
%ADD15RoundRect,0.250000X0.292217X-0.292217X0.292217X0.292217X-0.292217X0.292217X-0.292217X-0.292217X0*%
%ADD16RoundRect,0.050000X0.050000X-0.387500X0.050000X0.387500X-0.050000X0.387500X-0.050000X-0.387500X0*%
%ADD17RoundRect,0.050000X0.387500X-0.050000X0.387500X0.050000X-0.387500X0.050000X-0.387500X-0.050000X0*%
%ADD18R,0.990600X1.244600*%
%ADD19RoundRect,0.243750X0.243750X0.456250X-0.243750X0.456250X-0.243750X-0.456250X0.243750X-0.456250X0*%
%ADD20RoundRect,0.140000X-0.170000X0.140000X-0.170000X-0.140000X0.170000X-0.140000X0.170000X0.140000X0*%
%ADD21RoundRect,0.140000X0.140000X0.170000X-0.140000X0.170000X-0.140000X-0.170000X0.140000X-0.170000X0*%
%ADD22R,0.812800X0.254000*%
%ADD23R,0.254000X0.812800*%
%ADD24R,1.244600X1.244600*%
%ADD25RoundRect,0.135000X-0.185000X0.135000X-0.185000X-0.135000X0.185000X-0.135000X0.185000X0.135000X0*%
%ADD26RoundRect,0.218750X0.256250X-0.218750X0.256250X0.218750X-0.256250X0.218750X-0.256250X-0.218750X0*%
%ADD27R,0.304800X0.254000*%
G04 APERTURE END LIST*
D10*
X169890000Y-84000000D03*
X168920000Y-84000000D03*
X169890000Y-85000000D03*
X168920000Y-85000000D03*
D11*
X157090000Y-91630000D03*
X157090000Y-92600000D03*
D12*
X167715000Y-92720000D03*
X167715000Y-91750000D03*
D13*
X165840000Y-91770000D03*
X165840000Y-90500000D03*
X165840000Y-89230000D03*
X165840000Y-87960000D03*
X158640000Y-87960000D03*
X158640000Y-89230000D03*
X158640000Y-90500000D03*
X158640000Y-91770000D03*
D12*
X183496545Y-86552361D03*
X183496545Y-85582361D03*
D11*
X168840000Y-91765000D03*
X168840000Y-92735000D03*
D14*
X169630000Y-87012500D03*
X170600000Y-87012500D03*
D12*
X180246581Y-85808972D03*
X180246581Y-84838972D03*
D15*
X174952500Y-88200000D03*
X174952500Y-86925000D03*
X176227500Y-86925000D03*
X176227500Y-88200000D03*
D16*
X172990000Y-91000000D03*
X173390000Y-91000000D03*
X173790000Y-91000000D03*
X174190000Y-91000000D03*
X174590000Y-91000000D03*
X174990000Y-91000000D03*
X175390000Y-91000000D03*
X175790000Y-91000000D03*
X176190000Y-91000000D03*
X176590000Y-91000000D03*
X176990000Y-91000000D03*
X177390000Y-91000000D03*
X177790000Y-91000000D03*
X178190000Y-91000000D03*
D17*
X179027500Y-90162500D03*
X179027500Y-89762500D03*
X179027500Y-89362500D03*
X179027500Y-88962500D03*
X179027500Y-88562500D03*
X179027500Y-88162500D03*
X179027500Y-87762500D03*
X179027500Y-87362500D03*
X179027500Y-86962500D03*
X179027500Y-86562500D03*
X179027500Y-86162500D03*
X179027500Y-85762500D03*
X179027500Y-85362500D03*
X179027500Y-84962500D03*
D16*
X178190000Y-84125000D03*
X177790000Y-84125000D03*
X177390000Y-84125000D03*
X176990000Y-84125000D03*
X176590000Y-84125000D03*
X176190000Y-84125000D03*
X175790000Y-84125000D03*
X175390000Y-84125000D03*
X174990000Y-84125000D03*
X174590000Y-84125000D03*
X174190000Y-84125000D03*
X173790000Y-84125000D03*
X173390000Y-84125000D03*
X172990000Y-84125000D03*
D17*
X172152500Y-84962500D03*
X172152500Y-85362500D03*
X172152500Y-85762500D03*
X172152500Y-86162500D03*
X172152500Y-86562500D03*
X172152500Y-86962500D03*
X172152500Y-87362500D03*
X172152500Y-87762500D03*
X172152500Y-88162500D03*
X172152500Y-88562500D03*
X172152500Y-88962500D03*
X172152500Y-89362500D03*
X172152500Y-89762500D03*
X172152500Y-90162500D03*
D11*
X183496545Y-88552361D03*
X183496545Y-89522361D03*
D14*
X169630000Y-86012500D03*
X170600000Y-86012500D03*
D10*
X170123630Y-88010899D03*
X169153630Y-88010899D03*
D14*
X181126545Y-86852361D03*
X182096545Y-86852361D03*
D18*
X187015000Y-89134300D03*
X185415000Y-86365700D03*
X185415000Y-89134300D03*
X187015000Y-86365700D03*
D19*
X187027500Y-81250000D03*
X185152500Y-81250000D03*
D20*
X167590000Y-79770000D03*
X167590000Y-80730000D03*
D21*
X170570000Y-82750000D03*
X169610000Y-82750000D03*
D20*
X168590000Y-79750000D03*
X168590000Y-80710000D03*
D21*
X177070000Y-80500000D03*
X176110000Y-80500000D03*
D22*
X175037800Y-82000001D03*
X175037800Y-81500000D03*
X175037800Y-81000000D03*
X175037800Y-80499999D03*
D23*
X174340001Y-79802200D03*
X173840000Y-79802200D03*
X173340000Y-79802200D03*
X172839999Y-79802200D03*
D22*
X172142200Y-80499999D03*
X172142200Y-81000000D03*
X172142200Y-81500000D03*
X172142200Y-82000001D03*
D23*
X172839999Y-82697800D03*
X173340000Y-82697800D03*
X173840000Y-82697800D03*
X174340001Y-82697800D03*
D24*
X173590000Y-81250000D03*
D25*
X179590000Y-81990000D03*
X179590000Y-83010000D03*
D26*
X181840000Y-83787500D03*
X181840000Y-82212500D03*
D21*
X170570000Y-81750000D03*
X169610000Y-81750000D03*
D27*
X184165400Y-93549999D03*
X181514600Y-93250001D03*
X184165400Y-92949997D03*
X181514600Y-92649999D03*
X184165400Y-92349999D03*
X181514600Y-92050001D03*
X184165400Y-91750000D03*
X181514600Y-91450002D03*
D21*
X177070000Y-81500000D03*
X176110000Y-81500000D03*
M02*
