%TF.GenerationSoftware,KiCad,Pcbnew,7.0.6*%
%TF.CreationDate,2024-04-24T00:37:06-04:00*%
%TF.ProjectId,Doom Keycap,446f6f6d-204b-4657-9963-61702e6b6963,REV1*%
%TF.SameCoordinates,Original*%
%TF.FileFunction,Legend,Top*%
%TF.FilePolarity,Positive*%
%FSLAX46Y46*%
G04 Gerber Fmt 4.6, Leading zero omitted, Abs format (unit mm)*
G04 Created by KiCad (PCBNEW 7.0.6) date 2024-04-24 00:37:06*
%MOMM*%
%LPD*%
G01*
G04 APERTURE LIST*
G04 Aperture macros list*
%AMRoundRect*
0 Rectangle with rounded corners*
0 $1 Rounding radius*
0 $2 $3 $4 $5 $6 $7 $8 $9 X,Y pos of 4 corners*
0 Add a 4 corners polygon primitive as box body*
4,1,4,$2,$3,$4,$5,$6,$7,$8,$9,$2,$3,0*
0 Add four circle primitives for the rounded corners*
1,1,$1+$1,$2,$3*
1,1,$1+$1,$4,$5*
1,1,$1+$1,$6,$7*
1,1,$1+$1,$8,$9*
0 Add four rect primitives between the rounded corners*
20,1,$1+$1,$2,$3,$4,$5,0*
20,1,$1+$1,$4,$5,$6,$7,0*
20,1,$1+$1,$6,$7,$8,$9,0*
20,1,$1+$1,$8,$9,$2,$3,0*%
G04 Aperture macros list end*
%ADD10C,0.125000*%
%ADD11C,0.120000*%
%ADD12C,0.100000*%
%ADD13RoundRect,0.191000X-0.140000X-0.170000X0.140000X-0.170000X0.140000X0.170000X-0.140000X0.170000X0*%
%ADD14RoundRect,0.198500X0.147500X0.172500X-0.147500X0.172500X-0.147500X-0.172500X0.147500X-0.172500X0*%
%ADD15RoundRect,0.186000X0.135000X0.185000X-0.135000X0.185000X-0.135000X-0.185000X0.135000X-0.185000X0*%
%ADD16RoundRect,0.051000X-0.750000X1.000000X-0.750000X-1.000000X0.750000X-1.000000X0.750000X1.000000X0*%
%ADD17RoundRect,0.051000X-1.900000X1.000000X-1.900000X-1.000000X1.900000X-1.000000X1.900000X1.000000X0*%
%ADD18RoundRect,0.198500X-0.147500X-0.172500X0.147500X-0.172500X0.147500X0.172500X-0.147500X0.172500X0*%
%ADD19RoundRect,0.186000X0.185000X-0.135000X0.185000X0.135000X-0.185000X0.135000X-0.185000X-0.135000X0*%
%ADD20RoundRect,0.186000X-0.135000X-0.185000X0.135000X-0.185000X0.135000X0.185000X-0.135000X0.185000X0*%
%ADD21RoundRect,0.198500X0.172500X-0.147500X0.172500X0.147500X-0.172500X0.147500X-0.172500X-0.147500X0*%
%ADD22RoundRect,0.101000X0.050000X-0.387500X0.050000X0.387500X-0.050000X0.387500X-0.050000X-0.387500X0*%
%ADD23RoundRect,0.101000X0.387500X-0.050000X0.387500X0.050000X-0.387500X0.050000X-0.387500X-0.050000X0*%
%ADD24RoundRect,0.195000X1.456000X-1.456000X1.456000X1.456000X-1.456000X1.456000X-1.456000X-1.456000X0*%
%ADD25RoundRect,0.186000X0.035355X-0.226274X0.226274X-0.035355X-0.035355X0.226274X-0.226274X0.035355X0*%
%ADD26RoundRect,0.051000X0.495300X-0.622300X0.495300X0.622300X-0.495300X0.622300X-0.495300X-0.622300X0*%
%ADD27RoundRect,0.191000X0.140000X0.170000X-0.140000X0.170000X-0.140000X-0.170000X0.140000X-0.170000X0*%
%ADD28C,1.000000*%
%ADD29RoundRect,0.051000X-0.406400X0.127000X-0.406400X-0.127000X0.406400X-0.127000X0.406400X0.127000X0*%
%ADD30RoundRect,0.051000X0.127000X0.406400X-0.127000X0.406400X-0.127000X-0.406400X0.127000X-0.406400X0*%
%ADD31RoundRect,0.051000X0.622300X0.622300X-0.622300X0.622300X-0.622300X-0.622300X0.622300X-0.622300X0*%
%ADD32RoundRect,0.051000X0.750000X-0.500000X0.750000X0.500000X-0.750000X0.500000X-0.750000X-0.500000X0*%
%ADD33RoundRect,0.269750X-0.256250X0.218750X-0.256250X-0.218750X0.256250X-0.218750X0.256250X0.218750X0*%
%ADD34C,1.102000*%
%ADD35O,1.402000X1.902000*%
%ADD36O,1.152000X1.552000*%
G04 APERTURE END LIST*
D10*
X163756666Y-94177190D02*
X163732857Y-94201000D01*
X163732857Y-94201000D02*
X163661428Y-94224809D01*
X163661428Y-94224809D02*
X163613809Y-94224809D01*
X163613809Y-94224809D02*
X163542381Y-94201000D01*
X163542381Y-94201000D02*
X163494762Y-94153380D01*
X163494762Y-94153380D02*
X163470952Y-94105761D01*
X163470952Y-94105761D02*
X163447143Y-94010523D01*
X163447143Y-94010523D02*
X163447143Y-93939095D01*
X163447143Y-93939095D02*
X163470952Y-93843857D01*
X163470952Y-93843857D02*
X163494762Y-93796238D01*
X163494762Y-93796238D02*
X163542381Y-93748619D01*
X163542381Y-93748619D02*
X163613809Y-93724809D01*
X163613809Y-93724809D02*
X163661428Y-93724809D01*
X163661428Y-93724809D02*
X163732857Y-93748619D01*
X163732857Y-93748619D02*
X163756666Y-93772428D01*
X164185238Y-93891476D02*
X164185238Y-94224809D01*
X164066190Y-93701000D02*
X163947143Y-94058142D01*
X163947143Y-94058142D02*
X164256666Y-94058142D01*
X163768571Y-83745940D02*
X163744762Y-83769750D01*
X163744762Y-83769750D02*
X163673333Y-83793559D01*
X163673333Y-83793559D02*
X163625714Y-83793559D01*
X163625714Y-83793559D02*
X163554286Y-83769750D01*
X163554286Y-83769750D02*
X163506667Y-83722130D01*
X163506667Y-83722130D02*
X163482857Y-83674511D01*
X163482857Y-83674511D02*
X163459048Y-83579273D01*
X163459048Y-83579273D02*
X163459048Y-83507845D01*
X163459048Y-83507845D02*
X163482857Y-83412607D01*
X163482857Y-83412607D02*
X163506667Y-83364988D01*
X163506667Y-83364988D02*
X163554286Y-83317369D01*
X163554286Y-83317369D02*
X163625714Y-83293559D01*
X163625714Y-83293559D02*
X163673333Y-83293559D01*
X163673333Y-83293559D02*
X163744762Y-83317369D01*
X163744762Y-83317369D02*
X163768571Y-83341178D01*
X164244762Y-83793559D02*
X163959048Y-83793559D01*
X164101905Y-83793559D02*
X164101905Y-83293559D01*
X164101905Y-83293559D02*
X164054286Y-83364988D01*
X164054286Y-83364988D02*
X164006667Y-83412607D01*
X164006667Y-83412607D02*
X163959048Y-83436416D01*
X164554285Y-83293559D02*
X164601904Y-83293559D01*
X164601904Y-83293559D02*
X164649523Y-83317369D01*
X164649523Y-83317369D02*
X164673333Y-83341178D01*
X164673333Y-83341178D02*
X164697142Y-83388797D01*
X164697142Y-83388797D02*
X164720952Y-83484035D01*
X164720952Y-83484035D02*
X164720952Y-83603083D01*
X164720952Y-83603083D02*
X164697142Y-83698321D01*
X164697142Y-83698321D02*
X164673333Y-83745940D01*
X164673333Y-83745940D02*
X164649523Y-83769750D01*
X164649523Y-83769750D02*
X164601904Y-83793559D01*
X164601904Y-83793559D02*
X164554285Y-83793559D01*
X164554285Y-83793559D02*
X164506666Y-83769750D01*
X164506666Y-83769750D02*
X164482857Y-83745940D01*
X164482857Y-83745940D02*
X164459047Y-83698321D01*
X164459047Y-83698321D02*
X164435238Y-83603083D01*
X164435238Y-83603083D02*
X164435238Y-83484035D01*
X164435238Y-83484035D02*
X164459047Y-83388797D01*
X164459047Y-83388797D02*
X164482857Y-83341178D01*
X164482857Y-83341178D02*
X164506666Y-83317369D01*
X164506666Y-83317369D02*
X164554285Y-83293559D01*
X163756666Y-84745940D02*
X163732857Y-84769750D01*
X163732857Y-84769750D02*
X163661428Y-84793559D01*
X163661428Y-84793559D02*
X163613809Y-84793559D01*
X163613809Y-84793559D02*
X163542381Y-84769750D01*
X163542381Y-84769750D02*
X163494762Y-84722130D01*
X163494762Y-84722130D02*
X163470952Y-84674511D01*
X163470952Y-84674511D02*
X163447143Y-84579273D01*
X163447143Y-84579273D02*
X163447143Y-84507845D01*
X163447143Y-84507845D02*
X163470952Y-84412607D01*
X163470952Y-84412607D02*
X163494762Y-84364988D01*
X163494762Y-84364988D02*
X163542381Y-84317369D01*
X163542381Y-84317369D02*
X163613809Y-84293559D01*
X163613809Y-84293559D02*
X163661428Y-84293559D01*
X163661428Y-84293559D02*
X163732857Y-84317369D01*
X163732857Y-84317369D02*
X163756666Y-84341178D01*
X164042381Y-84507845D02*
X163994762Y-84484035D01*
X163994762Y-84484035D02*
X163970952Y-84460226D01*
X163970952Y-84460226D02*
X163947143Y-84412607D01*
X163947143Y-84412607D02*
X163947143Y-84388797D01*
X163947143Y-84388797D02*
X163970952Y-84341178D01*
X163970952Y-84341178D02*
X163994762Y-84317369D01*
X163994762Y-84317369D02*
X164042381Y-84293559D01*
X164042381Y-84293559D02*
X164137619Y-84293559D01*
X164137619Y-84293559D02*
X164185238Y-84317369D01*
X164185238Y-84317369D02*
X164209047Y-84341178D01*
X164209047Y-84341178D02*
X164232857Y-84388797D01*
X164232857Y-84388797D02*
X164232857Y-84412607D01*
X164232857Y-84412607D02*
X164209047Y-84460226D01*
X164209047Y-84460226D02*
X164185238Y-84484035D01*
X164185238Y-84484035D02*
X164137619Y-84507845D01*
X164137619Y-84507845D02*
X164042381Y-84507845D01*
X164042381Y-84507845D02*
X163994762Y-84531654D01*
X163994762Y-84531654D02*
X163970952Y-84555464D01*
X163970952Y-84555464D02*
X163947143Y-84603083D01*
X163947143Y-84603083D02*
X163947143Y-84698321D01*
X163947143Y-84698321D02*
X163970952Y-84745940D01*
X163970952Y-84745940D02*
X163994762Y-84769750D01*
X163994762Y-84769750D02*
X164042381Y-84793559D01*
X164042381Y-84793559D02*
X164137619Y-84793559D01*
X164137619Y-84793559D02*
X164185238Y-84769750D01*
X164185238Y-84769750D02*
X164209047Y-84745940D01*
X164209047Y-84745940D02*
X164232857Y-84698321D01*
X164232857Y-84698321D02*
X164232857Y-84603083D01*
X164232857Y-84603083D02*
X164209047Y-84555464D01*
X164209047Y-84555464D02*
X164185238Y-84531654D01*
X164185238Y-84531654D02*
X164137619Y-84507845D01*
X168920501Y-92281926D02*
X168682406Y-92448592D01*
X168920501Y-92567640D02*
X168420501Y-92567640D01*
X168420501Y-92567640D02*
X168420501Y-92377164D01*
X168420501Y-92377164D02*
X168444311Y-92329545D01*
X168444311Y-92329545D02*
X168468120Y-92305735D01*
X168468120Y-92305735D02*
X168515739Y-92281926D01*
X168515739Y-92281926D02*
X168587168Y-92281926D01*
X168587168Y-92281926D02*
X168634787Y-92305735D01*
X168634787Y-92305735D02*
X168658596Y-92329545D01*
X168658596Y-92329545D02*
X168682406Y-92377164D01*
X168682406Y-92377164D02*
X168682406Y-92567640D01*
X168468120Y-92091449D02*
X168444311Y-92067640D01*
X168444311Y-92067640D02*
X168420501Y-92020021D01*
X168420501Y-92020021D02*
X168420501Y-91900973D01*
X168420501Y-91900973D02*
X168444311Y-91853354D01*
X168444311Y-91853354D02*
X168468120Y-91829545D01*
X168468120Y-91829545D02*
X168515739Y-91805735D01*
X168515739Y-91805735D02*
X168563358Y-91805735D01*
X168563358Y-91805735D02*
X168634787Y-91829545D01*
X168634787Y-91829545D02*
X168920501Y-92115259D01*
X168920501Y-92115259D02*
X168920501Y-91805735D01*
X156709047Y-89224809D02*
X156709047Y-89629571D01*
X156709047Y-89629571D02*
X156732857Y-89677190D01*
X156732857Y-89677190D02*
X156756666Y-89701000D01*
X156756666Y-89701000D02*
X156804285Y-89724809D01*
X156804285Y-89724809D02*
X156899523Y-89724809D01*
X156899523Y-89724809D02*
X156947142Y-89701000D01*
X156947142Y-89701000D02*
X156970952Y-89677190D01*
X156970952Y-89677190D02*
X156994761Y-89629571D01*
X156994761Y-89629571D02*
X156994761Y-89224809D01*
X157494762Y-89724809D02*
X157209048Y-89724809D01*
X157351905Y-89724809D02*
X157351905Y-89224809D01*
X157351905Y-89224809D02*
X157304286Y-89296238D01*
X157304286Y-89296238D02*
X157256667Y-89343857D01*
X157256667Y-89343857D02*
X157209048Y-89367666D01*
X179103292Y-84230307D02*
X179079483Y-84254117D01*
X179079483Y-84254117D02*
X179008054Y-84277926D01*
X179008054Y-84277926D02*
X178960435Y-84277926D01*
X178960435Y-84277926D02*
X178889007Y-84254117D01*
X178889007Y-84254117D02*
X178841388Y-84206497D01*
X178841388Y-84206497D02*
X178817578Y-84158878D01*
X178817578Y-84158878D02*
X178793769Y-84063640D01*
X178793769Y-84063640D02*
X178793769Y-83992212D01*
X178793769Y-83992212D02*
X178817578Y-83896974D01*
X178817578Y-83896974D02*
X178841388Y-83849355D01*
X178841388Y-83849355D02*
X178889007Y-83801736D01*
X178889007Y-83801736D02*
X178960435Y-83777926D01*
X178960435Y-83777926D02*
X179008054Y-83777926D01*
X179008054Y-83777926D02*
X179079483Y-83801736D01*
X179079483Y-83801736D02*
X179103292Y-83825545D01*
X179269959Y-83777926D02*
X179579483Y-83777926D01*
X179579483Y-83777926D02*
X179412816Y-83968402D01*
X179412816Y-83968402D02*
X179484245Y-83968402D01*
X179484245Y-83968402D02*
X179531864Y-83992212D01*
X179531864Y-83992212D02*
X179555673Y-84016021D01*
X179555673Y-84016021D02*
X179579483Y-84063640D01*
X179579483Y-84063640D02*
X179579483Y-84182688D01*
X179579483Y-84182688D02*
X179555673Y-84230307D01*
X179555673Y-84230307D02*
X179531864Y-84254117D01*
X179531864Y-84254117D02*
X179484245Y-84277926D01*
X179484245Y-84277926D02*
X179341388Y-84277926D01*
X179341388Y-84277926D02*
X179293769Y-84254117D01*
X179293769Y-84254117D02*
X179269959Y-84230307D01*
X166196422Y-90511078D02*
X166029756Y-90272983D01*
X165910708Y-90511078D02*
X165910708Y-90011078D01*
X165910708Y-90011078D02*
X166101184Y-90011078D01*
X166101184Y-90011078D02*
X166148803Y-90034888D01*
X166148803Y-90034888D02*
X166172613Y-90058697D01*
X166172613Y-90058697D02*
X166196422Y-90106316D01*
X166196422Y-90106316D02*
X166196422Y-90177745D01*
X166196422Y-90177745D02*
X166172613Y-90225364D01*
X166172613Y-90225364D02*
X166148803Y-90249173D01*
X166148803Y-90249173D02*
X166101184Y-90272983D01*
X166101184Y-90272983D02*
X165910708Y-90272983D01*
X166672613Y-90511078D02*
X166386899Y-90511078D01*
X166529756Y-90511078D02*
X166529756Y-90011078D01*
X166529756Y-90011078D02*
X166482137Y-90082507D01*
X166482137Y-90082507D02*
X166434518Y-90130126D01*
X166434518Y-90130126D02*
X166386899Y-90153935D01*
X163756666Y-86913936D02*
X163590000Y-86675841D01*
X163470952Y-86913936D02*
X163470952Y-86413936D01*
X163470952Y-86413936D02*
X163661428Y-86413936D01*
X163661428Y-86413936D02*
X163709047Y-86437746D01*
X163709047Y-86437746D02*
X163732857Y-86461555D01*
X163732857Y-86461555D02*
X163756666Y-86509174D01*
X163756666Y-86509174D02*
X163756666Y-86580603D01*
X163756666Y-86580603D02*
X163732857Y-86628222D01*
X163732857Y-86628222D02*
X163709047Y-86652031D01*
X163709047Y-86652031D02*
X163661428Y-86675841D01*
X163661428Y-86675841D02*
X163470952Y-86675841D01*
X163923333Y-86413936D02*
X164232857Y-86413936D01*
X164232857Y-86413936D02*
X164066190Y-86604412D01*
X164066190Y-86604412D02*
X164137619Y-86604412D01*
X164137619Y-86604412D02*
X164185238Y-86628222D01*
X164185238Y-86628222D02*
X164209047Y-86652031D01*
X164209047Y-86652031D02*
X164232857Y-86699650D01*
X164232857Y-86699650D02*
X164232857Y-86818698D01*
X164232857Y-86818698D02*
X164209047Y-86866317D01*
X164209047Y-86866317D02*
X164185238Y-86890127D01*
X164185238Y-86890127D02*
X164137619Y-86913936D01*
X164137619Y-86913936D02*
X163994762Y-86913936D01*
X163994762Y-86913936D02*
X163947143Y-86890127D01*
X163947143Y-86890127D02*
X163923333Y-86866317D01*
X175813247Y-82883440D02*
X175789438Y-82907250D01*
X175789438Y-82907250D02*
X175718009Y-82931059D01*
X175718009Y-82931059D02*
X175670390Y-82931059D01*
X175670390Y-82931059D02*
X175598962Y-82907250D01*
X175598962Y-82907250D02*
X175551343Y-82859630D01*
X175551343Y-82859630D02*
X175527533Y-82812011D01*
X175527533Y-82812011D02*
X175503724Y-82716773D01*
X175503724Y-82716773D02*
X175503724Y-82645345D01*
X175503724Y-82645345D02*
X175527533Y-82550107D01*
X175527533Y-82550107D02*
X175551343Y-82502488D01*
X175551343Y-82502488D02*
X175598962Y-82454869D01*
X175598962Y-82454869D02*
X175670390Y-82431059D01*
X175670390Y-82431059D02*
X175718009Y-82431059D01*
X175718009Y-82431059D02*
X175789438Y-82454869D01*
X175789438Y-82454869D02*
X175813247Y-82478678D01*
X175979914Y-82431059D02*
X176313247Y-82431059D01*
X176313247Y-82431059D02*
X176098962Y-82931059D01*
X175209047Y-90724809D02*
X175209047Y-91129571D01*
X175209047Y-91129571D02*
X175232857Y-91177190D01*
X175232857Y-91177190D02*
X175256666Y-91201000D01*
X175256666Y-91201000D02*
X175304285Y-91224809D01*
X175304285Y-91224809D02*
X175399523Y-91224809D01*
X175399523Y-91224809D02*
X175447142Y-91201000D01*
X175447142Y-91201000D02*
X175470952Y-91177190D01*
X175470952Y-91177190D02*
X175494761Y-91129571D01*
X175494761Y-91129571D02*
X175494761Y-90724809D01*
X175685238Y-90724809D02*
X175994762Y-90724809D01*
X175994762Y-90724809D02*
X175828095Y-90915285D01*
X175828095Y-90915285D02*
X175899524Y-90915285D01*
X175899524Y-90915285D02*
X175947143Y-90939095D01*
X175947143Y-90939095D02*
X175970952Y-90962904D01*
X175970952Y-90962904D02*
X175994762Y-91010523D01*
X175994762Y-91010523D02*
X175994762Y-91129571D01*
X175994762Y-91129571D02*
X175970952Y-91177190D01*
X175970952Y-91177190D02*
X175947143Y-91201000D01*
X175947143Y-91201000D02*
X175899524Y-91224809D01*
X175899524Y-91224809D02*
X175756667Y-91224809D01*
X175756667Y-91224809D02*
X175709048Y-91201000D01*
X175709048Y-91201000D02*
X175685238Y-91177190D01*
X179619505Y-92167089D02*
X179595696Y-92190899D01*
X179595696Y-92190899D02*
X179524267Y-92214708D01*
X179524267Y-92214708D02*
X179476648Y-92214708D01*
X179476648Y-92214708D02*
X179405220Y-92190899D01*
X179405220Y-92190899D02*
X179357601Y-92143279D01*
X179357601Y-92143279D02*
X179333791Y-92095660D01*
X179333791Y-92095660D02*
X179309982Y-92000422D01*
X179309982Y-92000422D02*
X179309982Y-91928994D01*
X179309982Y-91928994D02*
X179333791Y-91833756D01*
X179333791Y-91833756D02*
X179357601Y-91786137D01*
X179357601Y-91786137D02*
X179405220Y-91738518D01*
X179405220Y-91738518D02*
X179476648Y-91714708D01*
X179476648Y-91714708D02*
X179524267Y-91714708D01*
X179524267Y-91714708D02*
X179595696Y-91738518D01*
X179595696Y-91738518D02*
X179619505Y-91762327D01*
X179809982Y-91762327D02*
X179833791Y-91738518D01*
X179833791Y-91738518D02*
X179881410Y-91714708D01*
X179881410Y-91714708D02*
X180000458Y-91714708D01*
X180000458Y-91714708D02*
X180048077Y-91738518D01*
X180048077Y-91738518D02*
X180071886Y-91762327D01*
X180071886Y-91762327D02*
X180095696Y-91809946D01*
X180095696Y-91809946D02*
X180095696Y-91857565D01*
X180095696Y-91857565D02*
X180071886Y-91928994D01*
X180071886Y-91928994D02*
X179786172Y-92214708D01*
X179786172Y-92214708D02*
X180095696Y-92214708D01*
X163756666Y-85929307D02*
X163590000Y-85691212D01*
X163470952Y-85929307D02*
X163470952Y-85429307D01*
X163470952Y-85429307D02*
X163661428Y-85429307D01*
X163661428Y-85429307D02*
X163709047Y-85453117D01*
X163709047Y-85453117D02*
X163732857Y-85476926D01*
X163732857Y-85476926D02*
X163756666Y-85524545D01*
X163756666Y-85524545D02*
X163756666Y-85595974D01*
X163756666Y-85595974D02*
X163732857Y-85643593D01*
X163732857Y-85643593D02*
X163709047Y-85667402D01*
X163709047Y-85667402D02*
X163661428Y-85691212D01*
X163661428Y-85691212D02*
X163470952Y-85691212D01*
X164185238Y-85595974D02*
X164185238Y-85929307D01*
X164066190Y-85405498D02*
X163947143Y-85762640D01*
X163947143Y-85762640D02*
X164256666Y-85762640D01*
X163756666Y-87927190D02*
X163732857Y-87951000D01*
X163732857Y-87951000D02*
X163661428Y-87974809D01*
X163661428Y-87974809D02*
X163613809Y-87974809D01*
X163613809Y-87974809D02*
X163542381Y-87951000D01*
X163542381Y-87951000D02*
X163494762Y-87903380D01*
X163494762Y-87903380D02*
X163470952Y-87855761D01*
X163470952Y-87855761D02*
X163447143Y-87760523D01*
X163447143Y-87760523D02*
X163447143Y-87689095D01*
X163447143Y-87689095D02*
X163470952Y-87593857D01*
X163470952Y-87593857D02*
X163494762Y-87546238D01*
X163494762Y-87546238D02*
X163542381Y-87498619D01*
X163542381Y-87498619D02*
X163613809Y-87474809D01*
X163613809Y-87474809D02*
X163661428Y-87474809D01*
X163661428Y-87474809D02*
X163732857Y-87498619D01*
X163732857Y-87498619D02*
X163756666Y-87522428D01*
X164185238Y-87474809D02*
X164090000Y-87474809D01*
X164090000Y-87474809D02*
X164042381Y-87498619D01*
X164042381Y-87498619D02*
X164018571Y-87522428D01*
X164018571Y-87522428D02*
X163970952Y-87593857D01*
X163970952Y-87593857D02*
X163947143Y-87689095D01*
X163947143Y-87689095D02*
X163947143Y-87879571D01*
X163947143Y-87879571D02*
X163970952Y-87927190D01*
X163970952Y-87927190D02*
X163994762Y-87951000D01*
X163994762Y-87951000D02*
X164042381Y-87974809D01*
X164042381Y-87974809D02*
X164137619Y-87974809D01*
X164137619Y-87974809D02*
X164185238Y-87951000D01*
X164185238Y-87951000D02*
X164209047Y-87927190D01*
X164209047Y-87927190D02*
X164232857Y-87879571D01*
X164232857Y-87879571D02*
X164232857Y-87760523D01*
X164232857Y-87760523D02*
X164209047Y-87712904D01*
X164209047Y-87712904D02*
X164185238Y-87689095D01*
X164185238Y-87689095D02*
X164137619Y-87665285D01*
X164137619Y-87665285D02*
X164042381Y-87665285D01*
X164042381Y-87665285D02*
X163994762Y-87689095D01*
X163994762Y-87689095D02*
X163970952Y-87712904D01*
X163970952Y-87712904D02*
X163947143Y-87760523D01*
X176220590Y-86509968D02*
X175934381Y-86459461D01*
X176018560Y-86711999D02*
X175665007Y-86358445D01*
X175665007Y-86358445D02*
X175799694Y-86223758D01*
X175799694Y-86223758D02*
X175850201Y-86206922D01*
X175850201Y-86206922D02*
X175883873Y-86206922D01*
X175883873Y-86206922D02*
X175934381Y-86223758D01*
X175934381Y-86223758D02*
X175984888Y-86274266D01*
X175984888Y-86274266D02*
X176001724Y-86324774D01*
X176001724Y-86324774D02*
X176001724Y-86358445D01*
X176001724Y-86358445D02*
X175984888Y-86408953D01*
X175984888Y-86408953D02*
X175850201Y-86543640D01*
X176186919Y-85836533D02*
X176018560Y-86004892D01*
X176018560Y-86004892D02*
X176170083Y-86190087D01*
X176170083Y-86190087D02*
X176170083Y-86156415D01*
X176170083Y-86156415D02*
X176186919Y-86105907D01*
X176186919Y-86105907D02*
X176271098Y-86021728D01*
X176271098Y-86021728D02*
X176321606Y-86004892D01*
X176321606Y-86004892D02*
X176355277Y-86004892D01*
X176355277Y-86004892D02*
X176405785Y-86021728D01*
X176405785Y-86021728D02*
X176489964Y-86105907D01*
X176489964Y-86105907D02*
X176506800Y-86156415D01*
X176506800Y-86156415D02*
X176506800Y-86190087D01*
X176506800Y-86190087D02*
X176489964Y-86240594D01*
X176489964Y-86240594D02*
X176405785Y-86324774D01*
X176405785Y-86324774D02*
X176355277Y-86341609D01*
X176355277Y-86341609D02*
X176321606Y-86341609D01*
X181351905Y-87486714D02*
X181351905Y-87724809D01*
X181185239Y-87224809D02*
X181351905Y-87486714D01*
X181351905Y-87486714D02*
X181518572Y-87224809D01*
X181947143Y-87724809D02*
X181661429Y-87724809D01*
X181804286Y-87724809D02*
X181804286Y-87224809D01*
X181804286Y-87224809D02*
X181756667Y-87296238D01*
X181756667Y-87296238D02*
X181709048Y-87343857D01*
X181709048Y-87343857D02*
X181661429Y-87367666D01*
X176994414Y-82520677D02*
X176970605Y-82544487D01*
X176970605Y-82544487D02*
X176899176Y-82568296D01*
X176899176Y-82568296D02*
X176851557Y-82568296D01*
X176851557Y-82568296D02*
X176780129Y-82544487D01*
X176780129Y-82544487D02*
X176732510Y-82496867D01*
X176732510Y-82496867D02*
X176708700Y-82449248D01*
X176708700Y-82449248D02*
X176684891Y-82354010D01*
X176684891Y-82354010D02*
X176684891Y-82282582D01*
X176684891Y-82282582D02*
X176708700Y-82187344D01*
X176708700Y-82187344D02*
X176732510Y-82139725D01*
X176732510Y-82139725D02*
X176780129Y-82092106D01*
X176780129Y-82092106D02*
X176851557Y-82068296D01*
X176851557Y-82068296D02*
X176899176Y-82068296D01*
X176899176Y-82068296D02*
X176970605Y-82092106D01*
X176970605Y-82092106D02*
X176994414Y-82115915D01*
X177470605Y-82568296D02*
X177184891Y-82568296D01*
X177327748Y-82568296D02*
X177327748Y-82068296D01*
X177327748Y-82068296D02*
X177280129Y-82139725D01*
X177280129Y-82139725D02*
X177232510Y-82187344D01*
X177232510Y-82187344D02*
X177184891Y-82211153D01*
X177637271Y-82068296D02*
X177970604Y-82068296D01*
X177970604Y-82068296D02*
X177756319Y-82568296D01*
X163756666Y-79927190D02*
X163732857Y-79951000D01*
X163732857Y-79951000D02*
X163661428Y-79974809D01*
X163661428Y-79974809D02*
X163613809Y-79974809D01*
X163613809Y-79974809D02*
X163542381Y-79951000D01*
X163542381Y-79951000D02*
X163494762Y-79903380D01*
X163494762Y-79903380D02*
X163470952Y-79855761D01*
X163470952Y-79855761D02*
X163447143Y-79760523D01*
X163447143Y-79760523D02*
X163447143Y-79689095D01*
X163447143Y-79689095D02*
X163470952Y-79593857D01*
X163470952Y-79593857D02*
X163494762Y-79546238D01*
X163494762Y-79546238D02*
X163542381Y-79498619D01*
X163542381Y-79498619D02*
X163613809Y-79474809D01*
X163613809Y-79474809D02*
X163661428Y-79474809D01*
X163661428Y-79474809D02*
X163732857Y-79498619D01*
X163732857Y-79498619D02*
X163756666Y-79522428D01*
X163994762Y-79974809D02*
X164090000Y-79974809D01*
X164090000Y-79974809D02*
X164137619Y-79951000D01*
X164137619Y-79951000D02*
X164161428Y-79927190D01*
X164161428Y-79927190D02*
X164209047Y-79855761D01*
X164209047Y-79855761D02*
X164232857Y-79760523D01*
X164232857Y-79760523D02*
X164232857Y-79570047D01*
X164232857Y-79570047D02*
X164209047Y-79522428D01*
X164209047Y-79522428D02*
X164185238Y-79498619D01*
X164185238Y-79498619D02*
X164137619Y-79474809D01*
X164137619Y-79474809D02*
X164042381Y-79474809D01*
X164042381Y-79474809D02*
X163994762Y-79498619D01*
X163994762Y-79498619D02*
X163970952Y-79522428D01*
X163970952Y-79522428D02*
X163947143Y-79570047D01*
X163947143Y-79570047D02*
X163947143Y-79689095D01*
X163947143Y-79689095D02*
X163970952Y-79736714D01*
X163970952Y-79736714D02*
X163994762Y-79760523D01*
X163994762Y-79760523D02*
X164042381Y-79784333D01*
X164042381Y-79784333D02*
X164137619Y-79784333D01*
X164137619Y-79784333D02*
X164185238Y-79760523D01*
X164185238Y-79760523D02*
X164209047Y-79736714D01*
X164209047Y-79736714D02*
X164232857Y-79689095D01*
X163768571Y-82677190D02*
X163744762Y-82701000D01*
X163744762Y-82701000D02*
X163673333Y-82724809D01*
X163673333Y-82724809D02*
X163625714Y-82724809D01*
X163625714Y-82724809D02*
X163554286Y-82701000D01*
X163554286Y-82701000D02*
X163506667Y-82653380D01*
X163506667Y-82653380D02*
X163482857Y-82605761D01*
X163482857Y-82605761D02*
X163459048Y-82510523D01*
X163459048Y-82510523D02*
X163459048Y-82439095D01*
X163459048Y-82439095D02*
X163482857Y-82343857D01*
X163482857Y-82343857D02*
X163506667Y-82296238D01*
X163506667Y-82296238D02*
X163554286Y-82248619D01*
X163554286Y-82248619D02*
X163625714Y-82224809D01*
X163625714Y-82224809D02*
X163673333Y-82224809D01*
X163673333Y-82224809D02*
X163744762Y-82248619D01*
X163744762Y-82248619D02*
X163768571Y-82272428D01*
X164244762Y-82724809D02*
X163959048Y-82724809D01*
X164101905Y-82724809D02*
X164101905Y-82224809D01*
X164101905Y-82224809D02*
X164054286Y-82296238D01*
X164054286Y-82296238D02*
X164006667Y-82343857D01*
X164006667Y-82343857D02*
X163959048Y-82367666D01*
X164411428Y-82224809D02*
X164720952Y-82224809D01*
X164720952Y-82224809D02*
X164554285Y-82415285D01*
X164554285Y-82415285D02*
X164625714Y-82415285D01*
X164625714Y-82415285D02*
X164673333Y-82439095D01*
X164673333Y-82439095D02*
X164697142Y-82462904D01*
X164697142Y-82462904D02*
X164720952Y-82510523D01*
X164720952Y-82510523D02*
X164720952Y-82629571D01*
X164720952Y-82629571D02*
X164697142Y-82677190D01*
X164697142Y-82677190D02*
X164673333Y-82701000D01*
X164673333Y-82701000D02*
X164625714Y-82724809D01*
X164625714Y-82724809D02*
X164482857Y-82724809D01*
X164482857Y-82724809D02*
X164435238Y-82701000D01*
X164435238Y-82701000D02*
X164411428Y-82677190D01*
X163768571Y-80677190D02*
X163744762Y-80701000D01*
X163744762Y-80701000D02*
X163673333Y-80724809D01*
X163673333Y-80724809D02*
X163625714Y-80724809D01*
X163625714Y-80724809D02*
X163554286Y-80701000D01*
X163554286Y-80701000D02*
X163506667Y-80653380D01*
X163506667Y-80653380D02*
X163482857Y-80605761D01*
X163482857Y-80605761D02*
X163459048Y-80510523D01*
X163459048Y-80510523D02*
X163459048Y-80439095D01*
X163459048Y-80439095D02*
X163482857Y-80343857D01*
X163482857Y-80343857D02*
X163506667Y-80296238D01*
X163506667Y-80296238D02*
X163554286Y-80248619D01*
X163554286Y-80248619D02*
X163625714Y-80224809D01*
X163625714Y-80224809D02*
X163673333Y-80224809D01*
X163673333Y-80224809D02*
X163744762Y-80248619D01*
X163744762Y-80248619D02*
X163768571Y-80272428D01*
X164244762Y-80724809D02*
X163959048Y-80724809D01*
X164101905Y-80724809D02*
X164101905Y-80224809D01*
X164101905Y-80224809D02*
X164054286Y-80296238D01*
X164054286Y-80296238D02*
X164006667Y-80343857D01*
X164006667Y-80343857D02*
X163959048Y-80367666D01*
X164720952Y-80724809D02*
X164435238Y-80724809D01*
X164578095Y-80724809D02*
X164578095Y-80224809D01*
X164578095Y-80224809D02*
X164530476Y-80296238D01*
X164530476Y-80296238D02*
X164482857Y-80343857D01*
X164482857Y-80343857D02*
X164435238Y-80367666D01*
X167554286Y-93962904D02*
X167387619Y-93962904D01*
X167387619Y-94224809D02*
X167387619Y-93724809D01*
X167387619Y-93724809D02*
X167625714Y-93724809D01*
X167816190Y-94224809D02*
X167816190Y-93724809D01*
X168054285Y-94224809D02*
X168054285Y-93724809D01*
X168054285Y-93724809D02*
X168173333Y-93724809D01*
X168173333Y-93724809D02*
X168244761Y-93748619D01*
X168244761Y-93748619D02*
X168292380Y-93796238D01*
X168292380Y-93796238D02*
X168316190Y-93843857D01*
X168316190Y-93843857D02*
X168339999Y-93939095D01*
X168339999Y-93939095D02*
X168339999Y-94010523D01*
X168339999Y-94010523D02*
X168316190Y-94105761D01*
X168316190Y-94105761D02*
X168292380Y-94153380D01*
X168292380Y-94153380D02*
X168244761Y-94201000D01*
X168244761Y-94201000D02*
X168173333Y-94224809D01*
X168173333Y-94224809D02*
X168054285Y-94224809D01*
X168530476Y-93772428D02*
X168554285Y-93748619D01*
X168554285Y-93748619D02*
X168601904Y-93724809D01*
X168601904Y-93724809D02*
X168720952Y-93724809D01*
X168720952Y-93724809D02*
X168768571Y-93748619D01*
X168768571Y-93748619D02*
X168792380Y-93772428D01*
X168792380Y-93772428D02*
X168816190Y-93820047D01*
X168816190Y-93820047D02*
X168816190Y-93867666D01*
X168816190Y-93867666D02*
X168792380Y-93939095D01*
X168792380Y-93939095D02*
X168506666Y-94224809D01*
X168506666Y-94224809D02*
X168816190Y-94224809D01*
X172695981Y-79813938D02*
X172529315Y-79575843D01*
X172410267Y-79813938D02*
X172410267Y-79313938D01*
X172410267Y-79313938D02*
X172600743Y-79313938D01*
X172600743Y-79313938D02*
X172648362Y-79337748D01*
X172648362Y-79337748D02*
X172672172Y-79361557D01*
X172672172Y-79361557D02*
X172695981Y-79409176D01*
X172695981Y-79409176D02*
X172695981Y-79480605D01*
X172695981Y-79480605D02*
X172672172Y-79528224D01*
X172672172Y-79528224D02*
X172648362Y-79552033D01*
X172648362Y-79552033D02*
X172600743Y-79575843D01*
X172600743Y-79575843D02*
X172410267Y-79575843D01*
X172862648Y-79313938D02*
X173195981Y-79313938D01*
X173195981Y-79313938D02*
X172981696Y-79813938D01*
X166978310Y-82359157D02*
X166978310Y-82763919D01*
X166978310Y-82763919D02*
X167002120Y-82811538D01*
X167002120Y-82811538D02*
X167025929Y-82835348D01*
X167025929Y-82835348D02*
X167073548Y-82859157D01*
X167073548Y-82859157D02*
X167168786Y-82859157D01*
X167168786Y-82859157D02*
X167216405Y-82835348D01*
X167216405Y-82835348D02*
X167240215Y-82811538D01*
X167240215Y-82811538D02*
X167264024Y-82763919D01*
X167264024Y-82763919D02*
X167264024Y-82359157D01*
X167740215Y-82359157D02*
X167502120Y-82359157D01*
X167502120Y-82359157D02*
X167478311Y-82597252D01*
X167478311Y-82597252D02*
X167502120Y-82573443D01*
X167502120Y-82573443D02*
X167549739Y-82549633D01*
X167549739Y-82549633D02*
X167668787Y-82549633D01*
X167668787Y-82549633D02*
X167716406Y-82573443D01*
X167716406Y-82573443D02*
X167740215Y-82597252D01*
X167740215Y-82597252D02*
X167764025Y-82644871D01*
X167764025Y-82644871D02*
X167764025Y-82763919D01*
X167764025Y-82763919D02*
X167740215Y-82811538D01*
X167740215Y-82811538D02*
X167716406Y-82835348D01*
X167716406Y-82835348D02*
X167668787Y-82859157D01*
X167668787Y-82859157D02*
X167549739Y-82859157D01*
X167549739Y-82859157D02*
X167502120Y-82835348D01*
X167502120Y-82835348D02*
X167478311Y-82811538D01*
X162123333Y-91724809D02*
X162123333Y-92081952D01*
X162123333Y-92081952D02*
X162099524Y-92153380D01*
X162099524Y-92153380D02*
X162051905Y-92201000D01*
X162051905Y-92201000D02*
X161980476Y-92224809D01*
X161980476Y-92224809D02*
X161932857Y-92224809D01*
X162337619Y-91772428D02*
X162361428Y-91748619D01*
X162361428Y-91748619D02*
X162409047Y-91724809D01*
X162409047Y-91724809D02*
X162528095Y-91724809D01*
X162528095Y-91724809D02*
X162575714Y-91748619D01*
X162575714Y-91748619D02*
X162599523Y-91772428D01*
X162599523Y-91772428D02*
X162623333Y-91820047D01*
X162623333Y-91820047D02*
X162623333Y-91867666D01*
X162623333Y-91867666D02*
X162599523Y-91939095D01*
X162599523Y-91939095D02*
X162313809Y-92224809D01*
X162313809Y-92224809D02*
X162623333Y-92224809D01*
X172715100Y-83398754D02*
X172548434Y-83160659D01*
X172429386Y-83398754D02*
X172429386Y-82898754D01*
X172429386Y-82898754D02*
X172619862Y-82898754D01*
X172619862Y-82898754D02*
X172667481Y-82922564D01*
X172667481Y-82922564D02*
X172691291Y-82946373D01*
X172691291Y-82946373D02*
X172715100Y-82993992D01*
X172715100Y-82993992D02*
X172715100Y-83065421D01*
X172715100Y-83065421D02*
X172691291Y-83113040D01*
X172691291Y-83113040D02*
X172667481Y-83136849D01*
X172667481Y-83136849D02*
X172619862Y-83160659D01*
X172619862Y-83160659D02*
X172429386Y-83160659D01*
X173000815Y-83113040D02*
X172953196Y-83089230D01*
X172953196Y-83089230D02*
X172929386Y-83065421D01*
X172929386Y-83065421D02*
X172905577Y-83017802D01*
X172905577Y-83017802D02*
X172905577Y-82993992D01*
X172905577Y-82993992D02*
X172929386Y-82946373D01*
X172929386Y-82946373D02*
X172953196Y-82922564D01*
X172953196Y-82922564D02*
X173000815Y-82898754D01*
X173000815Y-82898754D02*
X173096053Y-82898754D01*
X173096053Y-82898754D02*
X173143672Y-82922564D01*
X173143672Y-82922564D02*
X173167481Y-82946373D01*
X173167481Y-82946373D02*
X173191291Y-82993992D01*
X173191291Y-82993992D02*
X173191291Y-83017802D01*
X173191291Y-83017802D02*
X173167481Y-83065421D01*
X173167481Y-83065421D02*
X173143672Y-83089230D01*
X173143672Y-83089230D02*
X173096053Y-83113040D01*
X173096053Y-83113040D02*
X173000815Y-83113040D01*
X173000815Y-83113040D02*
X172953196Y-83136849D01*
X172953196Y-83136849D02*
X172929386Y-83160659D01*
X172929386Y-83160659D02*
X172905577Y-83208278D01*
X172905577Y-83208278D02*
X172905577Y-83303516D01*
X172905577Y-83303516D02*
X172929386Y-83351135D01*
X172929386Y-83351135D02*
X172953196Y-83374945D01*
X172953196Y-83374945D02*
X173000815Y-83398754D01*
X173000815Y-83398754D02*
X173096053Y-83398754D01*
X173096053Y-83398754D02*
X173143672Y-83374945D01*
X173143672Y-83374945D02*
X173167481Y-83351135D01*
X173167481Y-83351135D02*
X173191291Y-83303516D01*
X173191291Y-83303516D02*
X173191291Y-83208278D01*
X173191291Y-83208278D02*
X173167481Y-83160659D01*
X173167481Y-83160659D02*
X173143672Y-83136849D01*
X173143672Y-83136849D02*
X173096053Y-83113040D01*
X174323152Y-83324809D02*
X174323152Y-82824809D01*
X174323152Y-82824809D02*
X174442200Y-82824809D01*
X174442200Y-82824809D02*
X174513628Y-82848619D01*
X174513628Y-82848619D02*
X174561247Y-82896238D01*
X174561247Y-82896238D02*
X174585057Y-82943857D01*
X174585057Y-82943857D02*
X174608866Y-83039095D01*
X174608866Y-83039095D02*
X174608866Y-83110523D01*
X174608866Y-83110523D02*
X174585057Y-83205761D01*
X174585057Y-83205761D02*
X174561247Y-83253380D01*
X174561247Y-83253380D02*
X174513628Y-83301000D01*
X174513628Y-83301000D02*
X174442200Y-83324809D01*
X174442200Y-83324809D02*
X174323152Y-83324809D01*
X175085057Y-83324809D02*
X174799343Y-83324809D01*
X174942200Y-83324809D02*
X174942200Y-82824809D01*
X174942200Y-82824809D02*
X174894581Y-82896238D01*
X174894581Y-82896238D02*
X174846962Y-82943857D01*
X174846962Y-82943857D02*
X174799343Y-82967666D01*
X163768571Y-81677190D02*
X163744762Y-81701000D01*
X163744762Y-81701000D02*
X163673333Y-81724809D01*
X163673333Y-81724809D02*
X163625714Y-81724809D01*
X163625714Y-81724809D02*
X163554286Y-81701000D01*
X163554286Y-81701000D02*
X163506667Y-81653380D01*
X163506667Y-81653380D02*
X163482857Y-81605761D01*
X163482857Y-81605761D02*
X163459048Y-81510523D01*
X163459048Y-81510523D02*
X163459048Y-81439095D01*
X163459048Y-81439095D02*
X163482857Y-81343857D01*
X163482857Y-81343857D02*
X163506667Y-81296238D01*
X163506667Y-81296238D02*
X163554286Y-81248619D01*
X163554286Y-81248619D02*
X163625714Y-81224809D01*
X163625714Y-81224809D02*
X163673333Y-81224809D01*
X163673333Y-81224809D02*
X163744762Y-81248619D01*
X163744762Y-81248619D02*
X163768571Y-81272428D01*
X164244762Y-81724809D02*
X163959048Y-81724809D01*
X164101905Y-81724809D02*
X164101905Y-81224809D01*
X164101905Y-81224809D02*
X164054286Y-81296238D01*
X164054286Y-81296238D02*
X164006667Y-81343857D01*
X164006667Y-81343857D02*
X163959048Y-81367666D01*
X164435238Y-81272428D02*
X164459047Y-81248619D01*
X164459047Y-81248619D02*
X164506666Y-81224809D01*
X164506666Y-81224809D02*
X164625714Y-81224809D01*
X164625714Y-81224809D02*
X164673333Y-81248619D01*
X164673333Y-81248619D02*
X164697142Y-81272428D01*
X164697142Y-81272428D02*
X164720952Y-81320047D01*
X164720952Y-81320047D02*
X164720952Y-81367666D01*
X164720952Y-81367666D02*
X164697142Y-81439095D01*
X164697142Y-81439095D02*
X164411428Y-81724809D01*
X164411428Y-81724809D02*
X164720952Y-81724809D01*
X179554286Y-80462904D02*
X179387619Y-80462904D01*
X179387619Y-80724809D02*
X179387619Y-80224809D01*
X179387619Y-80224809D02*
X179625714Y-80224809D01*
X179816190Y-80724809D02*
X179816190Y-80224809D01*
X180054285Y-80724809D02*
X180054285Y-80224809D01*
X180054285Y-80224809D02*
X180173333Y-80224809D01*
X180173333Y-80224809D02*
X180244761Y-80248619D01*
X180244761Y-80248619D02*
X180292380Y-80296238D01*
X180292380Y-80296238D02*
X180316190Y-80343857D01*
X180316190Y-80343857D02*
X180339999Y-80439095D01*
X180339999Y-80439095D02*
X180339999Y-80510523D01*
X180339999Y-80510523D02*
X180316190Y-80605761D01*
X180316190Y-80605761D02*
X180292380Y-80653380D01*
X180292380Y-80653380D02*
X180244761Y-80701000D01*
X180244761Y-80701000D02*
X180173333Y-80724809D01*
X180173333Y-80724809D02*
X180054285Y-80724809D01*
X180792380Y-80224809D02*
X180554285Y-80224809D01*
X180554285Y-80224809D02*
X180530476Y-80462904D01*
X180530476Y-80462904D02*
X180554285Y-80439095D01*
X180554285Y-80439095D02*
X180601904Y-80415285D01*
X180601904Y-80415285D02*
X180720952Y-80415285D01*
X180720952Y-80415285D02*
X180768571Y-80439095D01*
X180768571Y-80439095D02*
X180792380Y-80462904D01*
X180792380Y-80462904D02*
X180816190Y-80510523D01*
X180816190Y-80510523D02*
X180816190Y-80629571D01*
X180816190Y-80629571D02*
X180792380Y-80677190D01*
X180792380Y-80677190D02*
X180768571Y-80701000D01*
X180768571Y-80701000D02*
X180720952Y-80724809D01*
X180720952Y-80724809D02*
X180601904Y-80724809D01*
X180601904Y-80724809D02*
X180554285Y-80701000D01*
X180554285Y-80701000D02*
X180530476Y-80677190D01*
X186054286Y-83962904D02*
X185887619Y-83962904D01*
X185887619Y-84224809D02*
X185887619Y-83724809D01*
X185887619Y-83724809D02*
X186125714Y-83724809D01*
X186316190Y-84224809D02*
X186316190Y-83724809D01*
X186554285Y-84224809D02*
X186554285Y-83724809D01*
X186554285Y-83724809D02*
X186673333Y-83724809D01*
X186673333Y-83724809D02*
X186744761Y-83748619D01*
X186744761Y-83748619D02*
X186792380Y-83796238D01*
X186792380Y-83796238D02*
X186816190Y-83843857D01*
X186816190Y-83843857D02*
X186839999Y-83939095D01*
X186839999Y-83939095D02*
X186839999Y-84010523D01*
X186839999Y-84010523D02*
X186816190Y-84105761D01*
X186816190Y-84105761D02*
X186792380Y-84153380D01*
X186792380Y-84153380D02*
X186744761Y-84201000D01*
X186744761Y-84201000D02*
X186673333Y-84224809D01*
X186673333Y-84224809D02*
X186554285Y-84224809D01*
X187316190Y-84224809D02*
X187030476Y-84224809D01*
X187173333Y-84224809D02*
X187173333Y-83724809D01*
X187173333Y-83724809D02*
X187125714Y-83796238D01*
X187125714Y-83796238D02*
X187078095Y-83843857D01*
X187078095Y-83843857D02*
X187030476Y-83867666D01*
X160885283Y-80467594D02*
X160885283Y-80824737D01*
X160885283Y-80824737D02*
X160861474Y-80896165D01*
X160861474Y-80896165D02*
X160813855Y-80943785D01*
X160813855Y-80943785D02*
X160742426Y-80967594D01*
X160742426Y-80967594D02*
X160694807Y-80967594D01*
X161075759Y-80467594D02*
X161385283Y-80467594D01*
X161385283Y-80467594D02*
X161218616Y-80658070D01*
X161218616Y-80658070D02*
X161290045Y-80658070D01*
X161290045Y-80658070D02*
X161337664Y-80681880D01*
X161337664Y-80681880D02*
X161361473Y-80705689D01*
X161361473Y-80705689D02*
X161385283Y-80753308D01*
X161385283Y-80753308D02*
X161385283Y-80872356D01*
X161385283Y-80872356D02*
X161361473Y-80919975D01*
X161361473Y-80919975D02*
X161337664Y-80943785D01*
X161337664Y-80943785D02*
X161290045Y-80967594D01*
X161290045Y-80967594D02*
X161147188Y-80967594D01*
X161147188Y-80967594D02*
X161099569Y-80943785D01*
X161099569Y-80943785D02*
X161075759Y-80919975D01*
X160913961Y-82962626D02*
X160913961Y-83319769D01*
X160913961Y-83319769D02*
X160890152Y-83391197D01*
X160890152Y-83391197D02*
X160842533Y-83438817D01*
X160842533Y-83438817D02*
X160771104Y-83462626D01*
X160771104Y-83462626D02*
X160723485Y-83462626D01*
X161366342Y-83129293D02*
X161366342Y-83462626D01*
X161247294Y-82938817D02*
X161128247Y-83295959D01*
X161128247Y-83295959D02*
X161437770Y-83295959D01*
X176506666Y-81724809D02*
X176340000Y-81486714D01*
X176220952Y-81724809D02*
X176220952Y-81224809D01*
X176220952Y-81224809D02*
X176411428Y-81224809D01*
X176411428Y-81224809D02*
X176459047Y-81248619D01*
X176459047Y-81248619D02*
X176482857Y-81272428D01*
X176482857Y-81272428D02*
X176506666Y-81320047D01*
X176506666Y-81320047D02*
X176506666Y-81391476D01*
X176506666Y-81391476D02*
X176482857Y-81439095D01*
X176482857Y-81439095D02*
X176459047Y-81462904D01*
X176459047Y-81462904D02*
X176411428Y-81486714D01*
X176411428Y-81486714D02*
X176220952Y-81486714D01*
X176935238Y-81224809D02*
X176840000Y-81224809D01*
X176840000Y-81224809D02*
X176792381Y-81248619D01*
X176792381Y-81248619D02*
X176768571Y-81272428D01*
X176768571Y-81272428D02*
X176720952Y-81343857D01*
X176720952Y-81343857D02*
X176697143Y-81439095D01*
X176697143Y-81439095D02*
X176697143Y-81629571D01*
X176697143Y-81629571D02*
X176720952Y-81677190D01*
X176720952Y-81677190D02*
X176744762Y-81701000D01*
X176744762Y-81701000D02*
X176792381Y-81724809D01*
X176792381Y-81724809D02*
X176887619Y-81724809D01*
X176887619Y-81724809D02*
X176935238Y-81701000D01*
X176935238Y-81701000D02*
X176959047Y-81677190D01*
X176959047Y-81677190D02*
X176982857Y-81629571D01*
X176982857Y-81629571D02*
X176982857Y-81510523D01*
X176982857Y-81510523D02*
X176959047Y-81462904D01*
X176959047Y-81462904D02*
X176935238Y-81439095D01*
X176935238Y-81439095D02*
X176887619Y-81415285D01*
X176887619Y-81415285D02*
X176792381Y-81415285D01*
X176792381Y-81415285D02*
X176744762Y-81439095D01*
X176744762Y-81439095D02*
X176720952Y-81462904D01*
X176720952Y-81462904D02*
X176697143Y-81510523D01*
D11*
X163732164Y-92640000D02*
X163947836Y-92640000D01*
X163732164Y-93360000D02*
X163947836Y-93360000D01*
X167505496Y-92582951D02*
X167198214Y-92582951D01*
X167505496Y-91822951D02*
X167198214Y-91822951D01*
X162625000Y-85025000D02*
X162625000Y-91035000D01*
X155805000Y-87275000D02*
X155805000Y-91035000D01*
X162625000Y-91035000D02*
X161365000Y-91035000D01*
X155805000Y-91035000D02*
X157065000Y-91035000D01*
X165460000Y-91528641D02*
X165460000Y-91221359D01*
X166220000Y-91528641D02*
X166220000Y-91221359D01*
X165611359Y-86313750D02*
X165918641Y-86313750D01*
X165611359Y-87073750D02*
X165918641Y-87073750D01*
X174850000Y-91128750D02*
X174200000Y-91128750D01*
X167630000Y-90478750D02*
X167630000Y-91128750D01*
X174850000Y-90478750D02*
X174850000Y-91128750D01*
X167630000Y-84558750D02*
X167630000Y-83908750D01*
X174850000Y-84558750D02*
X174850000Y-83908750D01*
X167630000Y-83908750D02*
X168280000Y-83908750D01*
X174850000Y-83908750D02*
X174200000Y-83908750D01*
X165611359Y-85313750D02*
X165918641Y-85313750D01*
X165611359Y-86073750D02*
X165918641Y-86073750D01*
X176312659Y-86796190D02*
X176529940Y-86578909D01*
X176850060Y-87333591D02*
X177067341Y-87116310D01*
X180862400Y-88410741D02*
X180862400Y-87501759D01*
X178017600Y-87501759D02*
X178017600Y-88410741D01*
X177403754Y-83648047D02*
X177188082Y-83648047D01*
X177403754Y-82928047D02*
X177188082Y-82928047D01*
X165931929Y-79919690D02*
X165716257Y-79919690D01*
X165931929Y-79199690D02*
X165716257Y-79199690D01*
X165947836Y-82860000D02*
X165732164Y-82860000D01*
X165947836Y-82140000D02*
X165732164Y-82140000D01*
X165947836Y-80860000D02*
X165732164Y-80860000D01*
X165947836Y-80140000D02*
X165732164Y-80140000D01*
X172920841Y-80730000D02*
X172613559Y-80730000D01*
X172920841Y-79970000D02*
X172613559Y-79970000D01*
X171368600Y-82776400D02*
X171368600Y-82309741D01*
X171368600Y-79890259D02*
X171368600Y-79423600D01*
X171368600Y-79423600D02*
X170901941Y-79423600D01*
X170901941Y-82776400D02*
X171368600Y-82776400D01*
X168482459Y-79423600D02*
X168015800Y-79423600D01*
X168015800Y-82776400D02*
X168482459Y-82776400D01*
X168015800Y-82309741D02*
X168015800Y-82776400D01*
X168015800Y-79423600D02*
X168015800Y-79890259D01*
D12*
X167584000Y-81040501D02*
X167330000Y-81040501D01*
X167330000Y-80659500D01*
X167584000Y-80659500D01*
X167584000Y-81040501D01*
G36*
X167584000Y-81040501D02*
G01*
X167330000Y-81040501D01*
X167330000Y-80659500D01*
X167584000Y-80659500D01*
X167584000Y-81040501D01*
G37*
D11*
X163090000Y-92150000D02*
X163090000Y-89350000D01*
X165090000Y-92150000D02*
X163090000Y-92150000D01*
X163090000Y-89350000D02*
X165090000Y-89350000D01*
X165090000Y-89350000D02*
X165090000Y-92150000D01*
X172920841Y-82730000D02*
X172613559Y-82730000D01*
X172920841Y-81970000D02*
X172613559Y-81970000D01*
X175427200Y-79865000D02*
X173957200Y-79865000D01*
X173957200Y-79865000D02*
X173957200Y-82150000D01*
X175427200Y-82150000D02*
X175427200Y-79865000D01*
X165947836Y-81860000D02*
X165732164Y-81860000D01*
X165947836Y-81140000D02*
X165732164Y-81140000D01*
X160540000Y-80750000D02*
G75*
G03*
X160540000Y-80750000I-700000J0D01*
G01*
X160540000Y-83250000D02*
G75*
G03*
X160540000Y-83250000I-700000J0D01*
G01*
X172920841Y-81730000D02*
X172613559Y-81730000D01*
X172920841Y-80970000D02*
X172613559Y-80970000D01*
X184243767Y-82722800D02*
G75*
G03*
X184243767Y-82722800I-381000J0D01*
G01*
%LPC*%
D13*
X163360000Y-93000000D03*
X164320000Y-93000000D03*
D14*
X166300000Y-83568750D03*
X165330000Y-83568750D03*
X166300000Y-84568750D03*
X165330000Y-84568750D03*
D15*
X167861855Y-92202951D03*
X166841855Y-92202951D03*
D16*
X161515000Y-85975000D03*
X159215000Y-85975000D03*
D17*
X159215000Y-92275000D03*
D16*
X156915000Y-85975000D03*
D18*
X178705000Y-84956250D03*
X179675000Y-84956250D03*
D19*
X165840000Y-91885000D03*
X165840000Y-90865000D03*
D20*
X165255000Y-86693750D03*
X166275000Y-86693750D03*
D21*
X175896581Y-85191250D03*
X175896581Y-84221250D03*
D22*
X168640000Y-90956250D03*
X169040000Y-90956250D03*
X169440000Y-90956250D03*
X169840000Y-90956250D03*
X170240000Y-90956250D03*
X170640000Y-90956250D03*
X171040000Y-90956250D03*
X171440000Y-90956250D03*
X171840000Y-90956250D03*
X172240000Y-90956250D03*
X172640000Y-90956250D03*
X173040000Y-90956250D03*
X173440000Y-90956250D03*
X173840000Y-90956250D03*
D23*
X174677500Y-90118750D03*
X174677500Y-89718750D03*
X174677500Y-89318750D03*
X174677500Y-88918750D03*
X174677500Y-88518750D03*
X174677500Y-88118750D03*
X174677500Y-87718750D03*
X174677500Y-87318750D03*
X174677500Y-86918750D03*
X174677500Y-86518750D03*
X174677500Y-86118750D03*
X174677500Y-85718750D03*
X174677500Y-85318750D03*
X174677500Y-84918750D03*
D22*
X173840000Y-84081250D03*
X173440000Y-84081250D03*
X173040000Y-84081250D03*
X172640000Y-84081250D03*
X172240000Y-84081250D03*
X171840000Y-84081250D03*
X171440000Y-84081250D03*
X171040000Y-84081250D03*
X170640000Y-84081250D03*
X170240000Y-84081250D03*
X169840000Y-84081250D03*
X169440000Y-84081250D03*
X169040000Y-84081250D03*
X168640000Y-84081250D03*
D23*
X167802500Y-84918750D03*
X167802500Y-85318750D03*
X167802500Y-85718750D03*
X167802500Y-86118750D03*
X167802500Y-86518750D03*
X167802500Y-86918750D03*
X167802500Y-87318750D03*
X167802500Y-87718750D03*
X167802500Y-88118750D03*
X167802500Y-88518750D03*
X167802500Y-88918750D03*
X167802500Y-89318750D03*
X167802500Y-89718750D03*
X167802500Y-90118750D03*
D24*
X171240000Y-87518750D03*
D14*
X180175000Y-90956250D03*
X179205000Y-90956250D03*
D20*
X165255000Y-85693750D03*
X166275000Y-85693750D03*
D14*
X166200000Y-87706250D03*
X165230000Y-87706250D03*
D25*
X176329376Y-87316874D03*
X177050624Y-86595626D03*
D26*
X180240000Y-89340550D03*
X178640000Y-86571950D03*
X178640000Y-89340550D03*
X180240000Y-86571950D03*
D27*
X177775918Y-83288047D03*
X176815918Y-83288047D03*
X166304093Y-79559690D03*
X165344093Y-79559690D03*
X166320000Y-82500000D03*
X165360000Y-82500000D03*
X166320000Y-80500000D03*
X165360000Y-80500000D03*
D28*
X166590000Y-93500000D03*
D15*
X173277200Y-80350000D03*
X172257200Y-80350000D03*
D29*
X171140000Y-81850001D03*
X171140000Y-81350000D03*
X171140000Y-80850000D03*
X171140000Y-80349999D03*
D30*
X170442201Y-79652200D03*
X169942200Y-79652200D03*
X169442200Y-79652200D03*
X168942199Y-79652200D03*
D29*
X168244400Y-80349999D03*
X168244400Y-80850000D03*
X168244400Y-81350000D03*
X168244400Y-81850001D03*
D30*
X168942199Y-82547800D03*
X169442200Y-82547800D03*
X169942200Y-82547800D03*
X170442201Y-82547800D03*
D31*
X169692200Y-81100000D03*
D32*
X164090000Y-91400000D03*
X164090000Y-90100000D03*
D15*
X173277200Y-82350000D03*
X172257200Y-82350000D03*
D33*
X174692200Y-80562500D03*
X174692200Y-82137500D03*
D27*
X166320000Y-81500000D03*
X165360000Y-81500000D03*
D28*
X178090000Y-80500000D03*
X185090000Y-83500000D03*
D34*
X159840000Y-80750000D03*
X159840000Y-83250000D03*
D15*
X173277200Y-81350000D03*
X172257200Y-81350000D03*
D35*
X157140000Y-80700000D03*
D36*
X157440000Y-83730000D03*
X162290000Y-83730000D03*
D35*
X162590000Y-80700000D03*
%LPD*%
M02*
