%TF.GenerationSoftware,KiCad,Pcbnew,(6.0.9)*%
%TF.CreationDate,2023-01-06T22:41:28-05:00*%
%TF.ProjectId,Doom Keycap,446f6f6d-204b-4657-9963-61702e6b6963,REV1*%
%TF.SameCoordinates,Original*%
%TF.FileFunction,Copper,L2,Bot*%
%TF.FilePolarity,Positive*%
%FSLAX46Y46*%
G04 Gerber Fmt 4.6, Leading zero omitted, Abs format (unit mm)*
G04 Created by KiCad (PCBNEW (6.0.9)) date 2023-01-06 22:41:28*
%MOMM*%
%LPD*%
G01*
G04 APERTURE LIST*
G04 Aperture macros list*
%AMRoundRect*
0 Rectangle with rounded corners*
0 $1 Rounding radius*
0 $2 $3 $4 $5 $6 $7 $8 $9 X,Y pos of 4 corners*
0 Add a 4 corners polygon primitive as box body*
4,1,4,$2,$3,$4,$5,$6,$7,$8,$9,$2,$3,0*
0 Add four circle primitives for the rounded corners*
1,1,$1+$1,$2,$3*
1,1,$1+$1,$4,$5*
1,1,$1+$1,$6,$7*
1,1,$1+$1,$8,$9*
0 Add four rect primitives between the rounded corners*
20,1,$1+$1,$2,$3,$4,$5,0*
20,1,$1+$1,$4,$5,$6,$7,0*
20,1,$1+$1,$6,$7,$8,$9,0*
20,1,$1+$1,$8,$9,$2,$3,0*%
G04 Aperture macros list end*
%TA.AperFunction,ComponentPad*%
%ADD10C,0.600000*%
%TD*%
%TA.AperFunction,SMDPad,CuDef*%
%ADD11RoundRect,0.243750X-0.243750X-0.456250X0.243750X-0.456250X0.243750X0.456250X-0.243750X0.456250X0*%
%TD*%
%TA.AperFunction,SMDPad,CuDef*%
%ADD12R,0.400000X1.750000*%
%TD*%
%TA.AperFunction,SMDPad,CuDef*%
%ADD13R,1.825000X0.700000*%
%TD*%
%TA.AperFunction,SMDPad,CuDef*%
%ADD14R,1.425000X2.500000*%
%TD*%
%TA.AperFunction,SMDPad,CuDef*%
%ADD15RoundRect,0.384800X-0.265200X-1.240200X0.265200X-1.240200X0.265200X1.240200X-0.265200X1.240200X0*%
%TD*%
%TA.AperFunction,ComponentPad*%
%ADD16O,1.050000X1.450000*%
%TD*%
%TA.AperFunction,ComponentPad*%
%ADD17O,1.300000X1.800000*%
%TD*%
%TA.AperFunction,SMDPad,CuDef*%
%ADD18R,2.000000X1.460000*%
%TD*%
%TA.AperFunction,SMDPad,CuDef*%
%ADD19R,1.050000X0.650000*%
%TD*%
%TA.AperFunction,SMDPad,CuDef*%
%ADD20R,2.000000X1.500000*%
%TD*%
%TA.AperFunction,SMDPad,CuDef*%
%ADD21R,2.000000X3.800000*%
%TD*%
%TA.AperFunction,SMDPad,CuDef*%
%ADD22RoundRect,0.243750X-0.456250X0.243750X-0.456250X-0.243750X0.456250X-0.243750X0.456250X0.243750X0*%
%TD*%
%TA.AperFunction,SMDPad,CuDef*%
%ADD23R,3.200000X2.000000*%
%TD*%
%TA.AperFunction,ViaPad*%
%ADD24C,0.600000*%
%TD*%
%TA.AperFunction,Conductor*%
%ADD25C,0.200000*%
%TD*%
%TA.AperFunction,Conductor*%
%ADD26C,0.400000*%
%TD*%
%TA.AperFunction,Conductor*%
%ADD27C,0.300000*%
%TD*%
%TA.AperFunction,Conductor*%
%ADD28C,0.150000*%
%TD*%
G04 APERTURE END LIST*
D10*
X175590000Y-88837500D03*
X176865000Y-87562500D03*
X174315000Y-88837500D03*
X175590000Y-86287500D03*
X175590000Y-87562500D03*
X174315000Y-86287500D03*
X176865000Y-86287500D03*
X176865000Y-88837500D03*
X174315000Y-87562500D03*
D11*
X168402500Y-89750000D03*
X170277500Y-89750000D03*
D12*
X159690000Y-83525000D03*
X160340000Y-83525000D03*
X160990000Y-83525000D03*
X161640000Y-83525000D03*
X162290000Y-83525000D03*
D13*
X163977500Y-82400000D03*
D14*
X160027500Y-80450000D03*
D15*
X163715000Y-81125000D03*
D16*
X163415000Y-83730000D03*
D15*
X158265000Y-81125000D03*
D17*
X158265000Y-80700000D03*
D18*
X163890000Y-83730000D03*
D14*
X161952500Y-80450000D03*
D17*
X163715000Y-80700000D03*
D18*
X158090000Y-83730000D03*
D16*
X158565000Y-83730000D03*
D13*
X158002500Y-82400000D03*
D19*
X174163594Y-93828849D03*
X170015000Y-93825000D03*
X174163594Y-91678695D03*
X170014173Y-91678695D03*
D20*
X159790000Y-92050000D03*
D21*
X166090000Y-89750000D03*
D20*
X159790000Y-89750000D03*
X159790000Y-87450000D03*
D22*
X157590000Y-90212500D03*
X157590000Y-92087500D03*
D23*
X186940000Y-81550000D03*
X186940000Y-92950000D03*
X178240000Y-92950000D03*
X178240000Y-81550000D03*
D24*
X181453045Y-85996861D03*
X186215000Y-87625000D03*
X184465000Y-86625000D03*
X187465000Y-90552361D03*
X184980545Y-90552361D03*
X184980545Y-84552361D03*
X162590000Y-87940000D03*
X157090000Y-93715000D03*
X187590000Y-84552361D03*
X180246581Y-83917970D03*
X183496545Y-90378361D03*
X182340000Y-93000000D03*
X167990000Y-85000000D03*
X168590000Y-82750000D03*
X167990000Y-84000000D03*
X184465000Y-88625000D03*
X173590000Y-81250000D03*
X167590000Y-81730000D03*
X183840000Y-81250000D03*
X168330280Y-87873563D03*
X183485045Y-84790361D03*
X168590000Y-81730000D03*
X181326045Y-88473361D03*
X171340000Y-79750000D03*
X163252500Y-90500000D03*
X162002500Y-92000000D03*
X175340000Y-79750000D03*
X171240000Y-87555500D03*
X173490000Y-86862500D03*
X177690000Y-86962530D03*
X179880000Y-86972500D03*
X169965000Y-92750000D03*
X179840000Y-91250000D03*
X180831422Y-91991422D03*
X168365000Y-87012500D03*
X164189500Y-86099500D03*
X170340000Y-80750000D03*
X171340000Y-83750000D03*
D25*
X163450000Y-80450000D02*
X163720000Y-80720000D01*
X158530000Y-80450000D02*
X158260000Y-80720000D01*
X159790000Y-92050000D02*
X157827500Y-92050000D01*
X160030000Y-80450000D02*
X158530000Y-80450000D01*
X161950000Y-80450000D02*
X163450000Y-80450000D01*
X159690000Y-87350000D02*
X159790000Y-87450000D01*
X157590000Y-89650000D02*
X159790000Y-87450000D01*
X157590000Y-90212500D02*
X157590000Y-89650000D01*
D26*
X159690000Y-83525000D02*
X159690000Y-87350000D01*
D25*
X166090000Y-89750000D02*
X168402500Y-89750000D01*
D27*
X166090000Y-89750000D02*
X164002500Y-89750000D01*
X159790000Y-89787500D02*
X162002500Y-92000000D01*
X164002500Y-89750000D02*
X163252500Y-90500000D01*
D28*
X175340000Y-79750000D02*
X171340000Y-79750000D01*
D26*
X177699970Y-86972500D02*
X177690000Y-86962530D01*
X179880000Y-86972500D02*
X177699970Y-86972500D01*
X171240000Y-87555500D02*
X172807000Y-87555500D01*
X173490000Y-86872500D02*
X173490000Y-86862500D01*
X172807000Y-87555500D02*
X173490000Y-86872500D01*
D28*
X170018849Y-93828849D02*
X170015000Y-93825000D01*
X169965000Y-92750000D02*
X170015000Y-93825000D01*
X174163594Y-93828849D02*
X170018849Y-93828849D01*
X180831422Y-91991422D02*
X180581422Y-91991422D01*
X180581422Y-91991422D02*
X179840000Y-91250000D01*
D26*
X160990000Y-85300000D02*
X161140000Y-85450000D01*
X160990000Y-83525000D02*
X160990000Y-85300000D01*
X166802500Y-85450000D02*
X168365000Y-87012500D01*
X161140000Y-85450000D02*
X166802500Y-85450000D01*
X164189500Y-86099500D02*
X161011683Y-86099500D01*
X160340000Y-85375000D02*
X160340000Y-83525000D01*
X161011683Y-86099500D02*
X160315000Y-85402817D01*
X160315000Y-85400000D02*
X160340000Y-85375000D01*
X160315000Y-85402817D02*
X160315000Y-85400000D01*
D27*
X170340000Y-80750000D02*
X172590000Y-80750000D01*
X172590000Y-80750000D02*
X172840000Y-80500000D01*
X177190000Y-80500000D02*
X178240000Y-81550000D01*
X172840000Y-80500000D02*
X177190000Y-80500000D01*
D28*
X180405000Y-86755037D02*
X180405000Y-89935000D01*
X178240000Y-92100000D02*
X178240000Y-92950000D01*
X178649963Y-85000000D02*
X180405000Y-86755037D01*
X172590000Y-85000000D02*
X178649963Y-85000000D01*
X180405000Y-89935000D02*
X178240000Y-92100000D01*
X171340000Y-83750000D02*
X172590000Y-85000000D01*
%TA.AperFunction,Conductor*%
G36*
X157158010Y-79320502D02*
G01*
X157204503Y-79374158D01*
X157214607Y-79444432D01*
X157202156Y-79483703D01*
X157164704Y-79557207D01*
X157160000Y-79569461D01*
X157114628Y-79738790D01*
X157112681Y-79750121D01*
X157107193Y-79819851D01*
X157107000Y-79824780D01*
X157107000Y-80427885D01*
X157111475Y-80443124D01*
X157112865Y-80444329D01*
X157120548Y-80446000D01*
X157992885Y-80446000D01*
X158008124Y-80441525D01*
X158009329Y-80440135D01*
X158011000Y-80432452D01*
X158011000Y-79426500D01*
X158031002Y-79358379D01*
X158084658Y-79311886D01*
X158137000Y-79300500D01*
X158393000Y-79300500D01*
X158461121Y-79320502D01*
X158507614Y-79374158D01*
X158519000Y-79426500D01*
X158519000Y-80427885D01*
X158523475Y-80443124D01*
X158524865Y-80444329D01*
X158532548Y-80446000D01*
X158748885Y-80446000D01*
X158764124Y-80441525D01*
X158765329Y-80440135D01*
X158767000Y-80432452D01*
X158767000Y-80322000D01*
X158787002Y-80253879D01*
X158840658Y-80207386D01*
X158893000Y-80196000D01*
X163087000Y-80196000D01*
X163155121Y-80216002D01*
X163201614Y-80269658D01*
X163213000Y-80322000D01*
X163213000Y-80427885D01*
X163217475Y-80443124D01*
X163218865Y-80444329D01*
X163226548Y-80446000D01*
X163442885Y-80446000D01*
X163458124Y-80441525D01*
X163459329Y-80440135D01*
X163461000Y-80432452D01*
X163461000Y-79426500D01*
X163481002Y-79358379D01*
X163534658Y-79311886D01*
X163587000Y-79300500D01*
X163843000Y-79300500D01*
X163911121Y-79320502D01*
X163957614Y-79374158D01*
X163969000Y-79426500D01*
X163969000Y-80427885D01*
X163973475Y-80443124D01*
X163974865Y-80444329D01*
X163982548Y-80446000D01*
X164854885Y-80446000D01*
X164870124Y-80441525D01*
X164871329Y-80440135D01*
X164873000Y-80432452D01*
X164873000Y-80396026D01*
X164872999Y-80395994D01*
X164872999Y-79824781D01*
X164872805Y-79819850D01*
X164867319Y-79750120D01*
X164865372Y-79738791D01*
X164820000Y-79569461D01*
X164815296Y-79557207D01*
X164777844Y-79483703D01*
X164764740Y-79413926D01*
X164791440Y-79348141D01*
X164849468Y-79307235D01*
X164890111Y-79300500D01*
X170741760Y-79300500D01*
X170809881Y-79320502D01*
X170856374Y-79374158D01*
X170866478Y-79444432D01*
X170858170Y-79474715D01*
X170803670Y-79606291D01*
X170784750Y-79750000D01*
X170803670Y-79893709D01*
X170859139Y-80027625D01*
X170933352Y-80124341D01*
X170947379Y-80142621D01*
X170945825Y-80143814D01*
X170974713Y-80196717D01*
X170969648Y-80267532D01*
X170927101Y-80324368D01*
X170860581Y-80349179D01*
X170851592Y-80349500D01*
X170765124Y-80349500D01*
X170697003Y-80329498D01*
X170688420Y-80323462D01*
X170672978Y-80311613D01*
X170617625Y-80269139D01*
X170483709Y-80213670D01*
X170340000Y-80194750D01*
X170196291Y-80213670D01*
X170062375Y-80269139D01*
X169947379Y-80357379D01*
X169859139Y-80472375D01*
X169803670Y-80606291D01*
X169784750Y-80750000D01*
X169803670Y-80893709D01*
X169859139Y-81027625D01*
X169947379Y-81142621D01*
X170062375Y-81230861D01*
X170196291Y-81286330D01*
X170340000Y-81305250D01*
X170483709Y-81286330D01*
X170617625Y-81230861D01*
X170688420Y-81176538D01*
X170754640Y-81150937D01*
X170765124Y-81150500D01*
X172653433Y-81150500D01*
X172662864Y-81147436D01*
X172662868Y-81147435D01*
X172674353Y-81143703D01*
X172693578Y-81139087D01*
X172705512Y-81137197D01*
X172705513Y-81137197D01*
X172715304Y-81135646D01*
X172724137Y-81131145D01*
X172724141Y-81131144D01*
X172734906Y-81125659D01*
X172753166Y-81118095D01*
X172774090Y-81111296D01*
X172791893Y-81098361D01*
X172808745Y-81088035D01*
X172819502Y-81082554D01*
X172828342Y-81078050D01*
X172850895Y-81055497D01*
X172850910Y-81055483D01*
X172968987Y-80937405D01*
X173031299Y-80903380D01*
X173058083Y-80900500D01*
X176263500Y-80900500D01*
X176331621Y-80920502D01*
X176378114Y-80974158D01*
X176389500Y-81026500D01*
X176389500Y-82574674D01*
X176404034Y-82647740D01*
X176410928Y-82658057D01*
X176410928Y-82658058D01*
X176432037Y-82689650D01*
X176459399Y-82730601D01*
X176542260Y-82785966D01*
X176615326Y-82800500D01*
X179864674Y-82800500D01*
X179937740Y-82785966D01*
X180020601Y-82730601D01*
X180047963Y-82689650D01*
X180069072Y-82658058D01*
X180069072Y-82658057D01*
X180075966Y-82647740D01*
X180090500Y-82574674D01*
X185089500Y-82574674D01*
X185104034Y-82647740D01*
X185110928Y-82658057D01*
X185110928Y-82658058D01*
X185132037Y-82689650D01*
X185159399Y-82730601D01*
X185242260Y-82785966D01*
X185315326Y-82800500D01*
X188564674Y-82800500D01*
X188637740Y-82785966D01*
X188720601Y-82730601D01*
X188747963Y-82689650D01*
X188769072Y-82658058D01*
X188769072Y-82658057D01*
X188775966Y-82647740D01*
X188790500Y-82574674D01*
X188790500Y-80525326D01*
X188775966Y-80452260D01*
X188767865Y-80440135D01*
X188727493Y-80379714D01*
X188720601Y-80369399D01*
X188637740Y-80314034D01*
X188564674Y-80299500D01*
X185315326Y-80299500D01*
X185242260Y-80314034D01*
X185159399Y-80369399D01*
X185152507Y-80379714D01*
X185112136Y-80440135D01*
X185104034Y-80452260D01*
X185089500Y-80525326D01*
X185089500Y-82574674D01*
X180090500Y-82574674D01*
X180090500Y-80525326D01*
X180075966Y-80452260D01*
X180067865Y-80440135D01*
X180027493Y-80379714D01*
X180020601Y-80369399D01*
X179937740Y-80314034D01*
X179864674Y-80299500D01*
X177608083Y-80299500D01*
X177539962Y-80279498D01*
X177518988Y-80262595D01*
X177450909Y-80194516D01*
X177450905Y-80194513D01*
X177428342Y-80171950D01*
X177408746Y-80161965D01*
X177391893Y-80151639D01*
X177374090Y-80138704D01*
X177353166Y-80131905D01*
X177334906Y-80124341D01*
X177324141Y-80118856D01*
X177324137Y-80118855D01*
X177315304Y-80114354D01*
X177305513Y-80112803D01*
X177305512Y-80112803D01*
X177293578Y-80110913D01*
X177274353Y-80106297D01*
X177262868Y-80102565D01*
X177262864Y-80102564D01*
X177253433Y-80099500D01*
X175979661Y-80099500D01*
X175911540Y-80079498D01*
X175865047Y-80025842D01*
X175854943Y-79955568D01*
X175863252Y-79925282D01*
X175873169Y-79901340D01*
X175876330Y-79893709D01*
X175895250Y-79750000D01*
X175876330Y-79606291D01*
X175821831Y-79474716D01*
X175814242Y-79404128D01*
X175846021Y-79340641D01*
X175907080Y-79304414D01*
X175938240Y-79300500D01*
X189163500Y-79300500D01*
X189231621Y-79320502D01*
X189278114Y-79374158D01*
X189289500Y-79426500D01*
X189289500Y-94573500D01*
X189269498Y-94641621D01*
X189215842Y-94688114D01*
X189163500Y-94699500D01*
X156016500Y-94699500D01*
X155948379Y-94679498D01*
X155901886Y-94625842D01*
X155890500Y-94573500D01*
X155890500Y-92377933D01*
X156382001Y-92377933D01*
X156382338Y-92384452D01*
X156392166Y-92479170D01*
X156395058Y-92492564D01*
X156446036Y-92645365D01*
X156452210Y-92658543D01*
X156536744Y-92795149D01*
X156545780Y-92806550D01*
X156659479Y-92920051D01*
X156670890Y-92929063D01*
X156807654Y-93013365D01*
X156820832Y-93019509D01*
X156973740Y-93070227D01*
X156987106Y-93073093D01*
X157080601Y-93082672D01*
X157087016Y-93083000D01*
X157317885Y-93083000D01*
X157333124Y-93078525D01*
X157334329Y-93077135D01*
X157336000Y-93069452D01*
X157336000Y-93064884D01*
X157844000Y-93064884D01*
X157848475Y-93080123D01*
X157849865Y-93081328D01*
X157857548Y-93082999D01*
X158092933Y-93082999D01*
X158099452Y-93082662D01*
X158194170Y-93072834D01*
X158207567Y-93069941D01*
X158241248Y-93058705D01*
X158312198Y-93056121D01*
X158373281Y-93092305D01*
X158381950Y-93102664D01*
X158421719Y-93155728D01*
X158434276Y-93168285D01*
X158536351Y-93244786D01*
X158551946Y-93253324D01*
X158672394Y-93298478D01*
X158687649Y-93302105D01*
X158738514Y-93307631D01*
X158745328Y-93308000D01*
X159517885Y-93308000D01*
X159533124Y-93303525D01*
X159534329Y-93302135D01*
X159536000Y-93294452D01*
X159536000Y-92322115D01*
X159531525Y-92306876D01*
X159530135Y-92305671D01*
X159522452Y-92304000D01*
X158856115Y-92304000D01*
X158827593Y-92312375D01*
X158790216Y-92336396D01*
X158754717Y-92341500D01*
X157862115Y-92341500D01*
X157846876Y-92345975D01*
X157845671Y-92347365D01*
X157844000Y-92355048D01*
X157844000Y-93064884D01*
X157336000Y-93064884D01*
X157336000Y-92359615D01*
X157331525Y-92344376D01*
X157330135Y-92343171D01*
X157322452Y-92341500D01*
X156400116Y-92341500D01*
X156384877Y-92345975D01*
X156383672Y-92347365D01*
X156382001Y-92355048D01*
X156382001Y-92377933D01*
X155890500Y-92377933D01*
X155890500Y-91815385D01*
X156382000Y-91815385D01*
X156386475Y-91830624D01*
X156387865Y-91831829D01*
X156395548Y-91833500D01*
X158223885Y-91833500D01*
X158252407Y-91825125D01*
X158289784Y-91801104D01*
X158325283Y-91796000D01*
X159918000Y-91796000D01*
X159986121Y-91816002D01*
X160032614Y-91869658D01*
X160044000Y-91922000D01*
X160044000Y-93289884D01*
X160048475Y-93305123D01*
X160049865Y-93306328D01*
X160057548Y-93307999D01*
X160834669Y-93307999D01*
X160841490Y-93307629D01*
X160892352Y-93302105D01*
X160907604Y-93298479D01*
X161028054Y-93253324D01*
X161043649Y-93244786D01*
X161145724Y-93168285D01*
X161158285Y-93155724D01*
X161234786Y-93053649D01*
X161243324Y-93038054D01*
X161288478Y-92917606D01*
X161292105Y-92902351D01*
X161297631Y-92851486D01*
X161298000Y-92844672D01*
X161298000Y-92357356D01*
X161318002Y-92289235D01*
X161371658Y-92242742D01*
X161441932Y-92232638D01*
X161506512Y-92262132D01*
X161523960Y-92280650D01*
X161609879Y-92392621D01*
X161724875Y-92480861D01*
X161858791Y-92536330D01*
X162002500Y-92555250D01*
X162146209Y-92536330D01*
X162280125Y-92480861D01*
X162395121Y-92392621D01*
X162483361Y-92277625D01*
X162538830Y-92143709D01*
X162551383Y-92048364D01*
X168981174Y-92048364D01*
X168981544Y-92055185D01*
X168987068Y-92106047D01*
X168990694Y-92121299D01*
X169035849Y-92241749D01*
X169044387Y-92257344D01*
X169120888Y-92359419D01*
X169133449Y-92371980D01*
X169235524Y-92448481D01*
X169251121Y-92457020D01*
X169345284Y-92492320D01*
X169402049Y-92534961D01*
X169426749Y-92601523D01*
X169425977Y-92626745D01*
X169409750Y-92750000D01*
X169428670Y-92893709D01*
X169484139Y-93027625D01*
X169498848Y-93046794D01*
X169506004Y-93056120D01*
X169531605Y-93122340D01*
X169517340Y-93191889D01*
X169467739Y-93242685D01*
X169430623Y-93256403D01*
X169392260Y-93264034D01*
X169309399Y-93319399D01*
X169254034Y-93402260D01*
X169239500Y-93475326D01*
X169239500Y-94174674D01*
X169254034Y-94247740D01*
X169309399Y-94330601D01*
X169392260Y-94385966D01*
X169465326Y-94400500D01*
X170564674Y-94400500D01*
X170637740Y-94385966D01*
X170720601Y-94330601D01*
X170775966Y-94247740D01*
X170778387Y-94235569D01*
X170779811Y-94232132D01*
X170824359Y-94176850D01*
X170896220Y-94154349D01*
X173280780Y-94154349D01*
X173348901Y-94174351D01*
X173397189Y-94232132D01*
X173400207Y-94239418D01*
X173402628Y-94251589D01*
X173457993Y-94334450D01*
X173540854Y-94389815D01*
X173613920Y-94404349D01*
X174713268Y-94404349D01*
X174786334Y-94389815D01*
X174869195Y-94334450D01*
X174924560Y-94251589D01*
X174939094Y-94178523D01*
X174939094Y-93479175D01*
X174924560Y-93406109D01*
X174869195Y-93323248D01*
X174786334Y-93267883D01*
X174713268Y-93253349D01*
X173613920Y-93253349D01*
X173540854Y-93267883D01*
X173457993Y-93323248D01*
X173451101Y-93333563D01*
X173412094Y-93391942D01*
X173402628Y-93406109D01*
X173400207Y-93418279D01*
X173397189Y-93425566D01*
X173352642Y-93480847D01*
X173280780Y-93503349D01*
X170899409Y-93503349D01*
X170831288Y-93483347D01*
X170783000Y-93425567D01*
X170778387Y-93414430D01*
X170775966Y-93402260D01*
X170720601Y-93319399D01*
X170637740Y-93264034D01*
X170564674Y-93249500D01*
X170531112Y-93249500D01*
X170462991Y-93229498D01*
X170416498Y-93175842D01*
X170406394Y-93105568D01*
X170431150Y-93046797D01*
X170445861Y-93027625D01*
X170501330Y-92893709D01*
X170520250Y-92750000D01*
X170507087Y-92650020D01*
X170518026Y-92579872D01*
X170565154Y-92526773D01*
X170618405Y-92508311D01*
X170641525Y-92505800D01*
X170656777Y-92502174D01*
X170777227Y-92457019D01*
X170792822Y-92448481D01*
X170894897Y-92371980D01*
X170907458Y-92359419D01*
X170983959Y-92257344D01*
X170992497Y-92241749D01*
X171037651Y-92121301D01*
X171041278Y-92106046D01*
X171046804Y-92055181D01*
X171047173Y-92048367D01*
X171047173Y-92048364D01*
X173130595Y-92048364D01*
X173130965Y-92055185D01*
X173136489Y-92106047D01*
X173140115Y-92121299D01*
X173185270Y-92241749D01*
X173193808Y-92257344D01*
X173270309Y-92359419D01*
X173282870Y-92371980D01*
X173384945Y-92448481D01*
X173400540Y-92457019D01*
X173520988Y-92502173D01*
X173536243Y-92505800D01*
X173587108Y-92511326D01*
X173593922Y-92511695D01*
X173891479Y-92511695D01*
X173906718Y-92507220D01*
X173907923Y-92505830D01*
X173909594Y-92498147D01*
X173909594Y-92493579D01*
X174417594Y-92493579D01*
X174422069Y-92508818D01*
X174423459Y-92510023D01*
X174431142Y-92511694D01*
X174733263Y-92511694D01*
X174740084Y-92511324D01*
X174790946Y-92505800D01*
X174806198Y-92502174D01*
X174926648Y-92457019D01*
X174942243Y-92448481D01*
X175044318Y-92371980D01*
X175056879Y-92359419D01*
X175133380Y-92257344D01*
X175141918Y-92241749D01*
X175187072Y-92121301D01*
X175190699Y-92106046D01*
X175196225Y-92055181D01*
X175196594Y-92048367D01*
X175196594Y-91950810D01*
X175192119Y-91935571D01*
X175190729Y-91934366D01*
X175183046Y-91932695D01*
X174435709Y-91932695D01*
X174420470Y-91937170D01*
X174419265Y-91938560D01*
X174417594Y-91946243D01*
X174417594Y-92493579D01*
X173909594Y-92493579D01*
X173909594Y-91950810D01*
X173905119Y-91935571D01*
X173903729Y-91934366D01*
X173896046Y-91932695D01*
X173148710Y-91932695D01*
X173133471Y-91937170D01*
X173132266Y-91938560D01*
X173130595Y-91946243D01*
X173130595Y-92048364D01*
X171047173Y-92048364D01*
X171047173Y-91950810D01*
X171042698Y-91935571D01*
X171041308Y-91934366D01*
X171033625Y-91932695D01*
X168999289Y-91932695D01*
X168984050Y-91937170D01*
X168982845Y-91938560D01*
X168981174Y-91946243D01*
X168981174Y-92048364D01*
X162551383Y-92048364D01*
X162557750Y-92000000D01*
X162538830Y-91856291D01*
X162483361Y-91722375D01*
X162395121Y-91607379D01*
X162280125Y-91519139D01*
X162146209Y-91463670D01*
X162057735Y-91452022D01*
X161992809Y-91423299D01*
X161985088Y-91416195D01*
X161077405Y-90508512D01*
X161072757Y-90500000D01*
X162697250Y-90500000D01*
X162716170Y-90643709D01*
X162771639Y-90777625D01*
X162859879Y-90892621D01*
X162974875Y-90980861D01*
X163108791Y-91036330D01*
X163252500Y-91055250D01*
X163396209Y-91036330D01*
X163530125Y-90980861D01*
X163645121Y-90892621D01*
X163733361Y-90777625D01*
X163788830Y-90643709D01*
X163800478Y-90555237D01*
X163829201Y-90490310D01*
X163836304Y-90482589D01*
X164131487Y-90187405D01*
X164193800Y-90153380D01*
X164220583Y-90150500D01*
X164713500Y-90150500D01*
X164781621Y-90170502D01*
X164828114Y-90224158D01*
X164839500Y-90276500D01*
X164839500Y-91674674D01*
X164854034Y-91747740D01*
X164909399Y-91830601D01*
X164992260Y-91885966D01*
X165065326Y-91900500D01*
X167114674Y-91900500D01*
X167187740Y-91885966D01*
X167270601Y-91830601D01*
X167325966Y-91747740D01*
X167340500Y-91674674D01*
X167340500Y-90226500D01*
X167360502Y-90158379D01*
X167414158Y-90111886D01*
X167466500Y-90100500D01*
X167538500Y-90100500D01*
X167606621Y-90120502D01*
X167653114Y-90174158D01*
X167664500Y-90226500D01*
X167664500Y-90253032D01*
X167671066Y-90313474D01*
X167720763Y-90446041D01*
X167726143Y-90453220D01*
X167726145Y-90453223D01*
X167776466Y-90520365D01*
X167805669Y-90559331D01*
X167812849Y-90564712D01*
X167911777Y-90638855D01*
X167911780Y-90638857D01*
X167918959Y-90644237D01*
X167985308Y-90669110D01*
X168044131Y-90691162D01*
X168044133Y-90691162D01*
X168051526Y-90693934D01*
X168059374Y-90694787D01*
X168059376Y-90694787D01*
X168108571Y-90700131D01*
X168111968Y-90700500D01*
X168693032Y-90700500D01*
X168696429Y-90700131D01*
X168745624Y-90694787D01*
X168745626Y-90694787D01*
X168753474Y-90693934D01*
X168760867Y-90691162D01*
X168760869Y-90691162D01*
X168819692Y-90669110D01*
X168886041Y-90644237D01*
X168893220Y-90638857D01*
X168893223Y-90638855D01*
X168992151Y-90564712D01*
X168999331Y-90559331D01*
X169028534Y-90520365D01*
X169078855Y-90453223D01*
X169078857Y-90453220D01*
X169084237Y-90446041D01*
X169087388Y-90437637D01*
X169091699Y-90429762D01*
X169094719Y-90431415D01*
X169127383Y-90387935D01*
X169193945Y-90363237D01*
X169263293Y-90378446D01*
X169313410Y-90428733D01*
X169322245Y-90449055D01*
X169346036Y-90520365D01*
X169352210Y-90533543D01*
X169436711Y-90670096D01*
X169455549Y-90738548D01*
X169434388Y-90806318D01*
X169373797Y-90854381D01*
X169251119Y-90900371D01*
X169235524Y-90908909D01*
X169133449Y-90985410D01*
X169120888Y-90997971D01*
X169044387Y-91100046D01*
X169035849Y-91115641D01*
X168990695Y-91236089D01*
X168987068Y-91251344D01*
X168981542Y-91302209D01*
X168981173Y-91309023D01*
X168981173Y-91406580D01*
X168985648Y-91421819D01*
X168987038Y-91423024D01*
X168994721Y-91424695D01*
X171029057Y-91424695D01*
X171044296Y-91420220D01*
X171045501Y-91418830D01*
X171047172Y-91411147D01*
X171047172Y-91406580D01*
X173130594Y-91406580D01*
X173135069Y-91421819D01*
X173136459Y-91423024D01*
X173144142Y-91424695D01*
X173891479Y-91424695D01*
X173906718Y-91420220D01*
X173907923Y-91418830D01*
X173909594Y-91411147D01*
X173909594Y-91406580D01*
X174417594Y-91406580D01*
X174422069Y-91421819D01*
X174423459Y-91423024D01*
X174431142Y-91424695D01*
X175178478Y-91424695D01*
X175193717Y-91420220D01*
X175194922Y-91418830D01*
X175196593Y-91411147D01*
X175196593Y-91309026D01*
X175196223Y-91302205D01*
X175190699Y-91251343D01*
X175187073Y-91236091D01*
X175141918Y-91115641D01*
X175133380Y-91100046D01*
X175056879Y-90997971D01*
X175044318Y-90985410D01*
X174942243Y-90908909D01*
X174926648Y-90900371D01*
X174806200Y-90855217D01*
X174790945Y-90851590D01*
X174740080Y-90846064D01*
X174733266Y-90845695D01*
X174435709Y-90845695D01*
X174420470Y-90850170D01*
X174419265Y-90851560D01*
X174417594Y-90859243D01*
X174417594Y-91406580D01*
X173909594Y-91406580D01*
X173909594Y-90863811D01*
X173905119Y-90848572D01*
X173903729Y-90847367D01*
X173896046Y-90845696D01*
X173593925Y-90845696D01*
X173587104Y-90846066D01*
X173536242Y-90851590D01*
X173520990Y-90855216D01*
X173400540Y-90900371D01*
X173384945Y-90908909D01*
X173282870Y-90985410D01*
X173270309Y-90997971D01*
X173193808Y-91100046D01*
X173185270Y-91115641D01*
X173140116Y-91236089D01*
X173136489Y-91251344D01*
X173130963Y-91302209D01*
X173130594Y-91309023D01*
X173130594Y-91406580D01*
X171047172Y-91406580D01*
X171047172Y-91309026D01*
X171046802Y-91302205D01*
X171041278Y-91251343D01*
X171037652Y-91236091D01*
X170992497Y-91115641D01*
X170983959Y-91100046D01*
X170914988Y-91008018D01*
X170890140Y-90941511D01*
X170905193Y-90872129D01*
X170949512Y-90825308D01*
X170985152Y-90803254D01*
X170996550Y-90794220D01*
X171110051Y-90680521D01*
X171119063Y-90669110D01*
X171203365Y-90532346D01*
X171209509Y-90519168D01*
X171260227Y-90366260D01*
X171263093Y-90352894D01*
X171272672Y-90259399D01*
X171273000Y-90252984D01*
X171273000Y-90022115D01*
X171268525Y-90006876D01*
X171267135Y-90005671D01*
X171259452Y-90004000D01*
X170149500Y-90004000D01*
X170081379Y-89983998D01*
X170034886Y-89930342D01*
X170023500Y-89878000D01*
X170023500Y-89562854D01*
X173954475Y-89562854D01*
X173957258Y-89566573D01*
X174111680Y-89624002D01*
X174125278Y-89627392D01*
X174290990Y-89649504D01*
X174304986Y-89649797D01*
X174471477Y-89634644D01*
X174485204Y-89631827D01*
X174644202Y-89580166D01*
X174656953Y-89574381D01*
X174663769Y-89570318D01*
X174670690Y-89562854D01*
X175229475Y-89562854D01*
X175232258Y-89566573D01*
X175386680Y-89624002D01*
X175400278Y-89627392D01*
X175565990Y-89649504D01*
X175579986Y-89649797D01*
X175746477Y-89634644D01*
X175760204Y-89631827D01*
X175919202Y-89580166D01*
X175931953Y-89574381D01*
X175938769Y-89570318D01*
X175945690Y-89562854D01*
X176504475Y-89562854D01*
X176507258Y-89566573D01*
X176661680Y-89624002D01*
X176675278Y-89627392D01*
X176840990Y-89649504D01*
X176854986Y-89649797D01*
X177021477Y-89634644D01*
X177035204Y-89631827D01*
X177194202Y-89580166D01*
X177206953Y-89574381D01*
X177213769Y-89570318D01*
X177223358Y-89559976D01*
X177219852Y-89551562D01*
X176877812Y-89209522D01*
X176863868Y-89201908D01*
X176862035Y-89202039D01*
X176855421Y-89206290D01*
X176511232Y-89550479D01*
X176504475Y-89562854D01*
X175945690Y-89562854D01*
X175948358Y-89559976D01*
X175944852Y-89551562D01*
X175602812Y-89209522D01*
X175588868Y-89201908D01*
X175587035Y-89202039D01*
X175580421Y-89206290D01*
X175236232Y-89550479D01*
X175229475Y-89562854D01*
X174670690Y-89562854D01*
X174673358Y-89559976D01*
X174669852Y-89551562D01*
X174327812Y-89209522D01*
X174313868Y-89201908D01*
X174312035Y-89202039D01*
X174305421Y-89206290D01*
X173961232Y-89550479D01*
X173954475Y-89562854D01*
X170023500Y-89562854D01*
X170023500Y-89477885D01*
X170531500Y-89477885D01*
X170535975Y-89493124D01*
X170537365Y-89494329D01*
X170545048Y-89496000D01*
X171254884Y-89496000D01*
X171270123Y-89491525D01*
X171271328Y-89490135D01*
X171272999Y-89482452D01*
X171272999Y-89247067D01*
X171272662Y-89240548D01*
X171262834Y-89145830D01*
X171259942Y-89132436D01*
X171208964Y-88979635D01*
X171202790Y-88966457D01*
X171120304Y-88833160D01*
X173502654Y-88833160D01*
X173518968Y-88999547D01*
X173521879Y-89013241D01*
X173574650Y-89171875D01*
X173580524Y-89184588D01*
X173581768Y-89186643D01*
X173592174Y-89196157D01*
X173600794Y-89192495D01*
X173942979Y-88850311D01*
X173950592Y-88836368D01*
X173950461Y-88834534D01*
X173946210Y-88827921D01*
X173602458Y-88484169D01*
X173590083Y-88477412D01*
X173584926Y-88481272D01*
X173584273Y-88482589D01*
X173527096Y-88639680D01*
X173523803Y-88653295D01*
X173502850Y-88819153D01*
X173502654Y-88833160D01*
X171120304Y-88833160D01*
X171118256Y-88829851D01*
X171109220Y-88818450D01*
X170995521Y-88704949D01*
X170984110Y-88695937D01*
X170847346Y-88611635D01*
X170834168Y-88605491D01*
X170681260Y-88554773D01*
X170667894Y-88551907D01*
X170574399Y-88542328D01*
X170567984Y-88542000D01*
X170549615Y-88542000D01*
X170534376Y-88546475D01*
X170533171Y-88547865D01*
X170531500Y-88555548D01*
X170531500Y-89477885D01*
X170023500Y-89477885D01*
X170023500Y-88560116D01*
X170019025Y-88544877D01*
X170017635Y-88543672D01*
X170009952Y-88542001D01*
X169987067Y-88542001D01*
X169980548Y-88542338D01*
X169885830Y-88552166D01*
X169872436Y-88555058D01*
X169719635Y-88606036D01*
X169706457Y-88612210D01*
X169569851Y-88696744D01*
X169558450Y-88705780D01*
X169444949Y-88819479D01*
X169435937Y-88830890D01*
X169351635Y-88967654D01*
X169345491Y-88980832D01*
X169322309Y-89050722D01*
X169281878Y-89109082D01*
X169216314Y-89136319D01*
X169146433Y-89123786D01*
X169094421Y-89075461D01*
X169091868Y-89070145D01*
X169091699Y-89070238D01*
X169087387Y-89062362D01*
X169084237Y-89053959D01*
X169078857Y-89046780D01*
X169078855Y-89046777D01*
X169004712Y-88947849D01*
X168999331Y-88940669D01*
X168934315Y-88891942D01*
X168893223Y-88861145D01*
X168893220Y-88861143D01*
X168886041Y-88855763D01*
X168788384Y-88819153D01*
X168760869Y-88808838D01*
X168760867Y-88808838D01*
X168753474Y-88806066D01*
X168745626Y-88805213D01*
X168745624Y-88805213D01*
X168696429Y-88799869D01*
X168693032Y-88799500D01*
X168111968Y-88799500D01*
X168108571Y-88799869D01*
X168059376Y-88805213D01*
X168059374Y-88805213D01*
X168051526Y-88806066D01*
X168044133Y-88808838D01*
X168044131Y-88808838D01*
X168016616Y-88819153D01*
X167918959Y-88855763D01*
X167911780Y-88861143D01*
X167911777Y-88861145D01*
X167870685Y-88891942D01*
X167805669Y-88940669D01*
X167800288Y-88947849D01*
X167726145Y-89046777D01*
X167726143Y-89046780D01*
X167720763Y-89053959D01*
X167671066Y-89186526D01*
X167664500Y-89246968D01*
X167664500Y-89273500D01*
X167644498Y-89341621D01*
X167590842Y-89388114D01*
X167538500Y-89399500D01*
X167466500Y-89399500D01*
X167398379Y-89379498D01*
X167351886Y-89325842D01*
X167340500Y-89273500D01*
X167340500Y-87825326D01*
X167325966Y-87752260D01*
X167270601Y-87669399D01*
X167187740Y-87614034D01*
X167114674Y-87599500D01*
X165065326Y-87599500D01*
X164992260Y-87614034D01*
X164909399Y-87669399D01*
X164854034Y-87752260D01*
X164839500Y-87825326D01*
X164839500Y-89223500D01*
X164819498Y-89291621D01*
X164765842Y-89338114D01*
X164713500Y-89349500D01*
X163939067Y-89349500D01*
X163929636Y-89352564D01*
X163929632Y-89352565D01*
X163918147Y-89356297D01*
X163898922Y-89360913D01*
X163886988Y-89362803D01*
X163886987Y-89362803D01*
X163877196Y-89364354D01*
X163868363Y-89368855D01*
X163868359Y-89368856D01*
X163857594Y-89374341D01*
X163839334Y-89381905D01*
X163818410Y-89388704D01*
X163810388Y-89394533D01*
X163810385Y-89394534D01*
X163800616Y-89401632D01*
X163783759Y-89411962D01*
X163772993Y-89417448D01*
X163772992Y-89417449D01*
X163764158Y-89421950D01*
X163741591Y-89444517D01*
X163269912Y-89916195D01*
X163207600Y-89950221D01*
X163197268Y-89952021D01*
X163108791Y-89963670D01*
X162974875Y-90019139D01*
X162859879Y-90107379D01*
X162771639Y-90222375D01*
X162716170Y-90356291D01*
X162697250Y-90500000D01*
X161072757Y-90500000D01*
X161043379Y-90446200D01*
X161040500Y-90419417D01*
X161040500Y-88975326D01*
X161025966Y-88902260D01*
X160970601Y-88819399D01*
X160887740Y-88764034D01*
X160814674Y-88749500D01*
X159290371Y-88749500D01*
X159222250Y-88729498D01*
X159175757Y-88675842D01*
X159165653Y-88605568D01*
X159195147Y-88540988D01*
X159201276Y-88534405D01*
X159248276Y-88487405D01*
X159310588Y-88453379D01*
X159337371Y-88450500D01*
X160814674Y-88450500D01*
X160887740Y-88435966D01*
X160970601Y-88380601D01*
X161025966Y-88297740D01*
X161040500Y-88224674D01*
X161040500Y-86676000D01*
X161060502Y-86607879D01*
X161114158Y-86561386D01*
X161166500Y-86550000D01*
X163829537Y-86550000D01*
X163897658Y-86570002D01*
X163904861Y-86575067D01*
X163905325Y-86575335D01*
X163911875Y-86580361D01*
X164045791Y-86635830D01*
X164189500Y-86654750D01*
X164333209Y-86635830D01*
X164467125Y-86580361D01*
X164582121Y-86492121D01*
X164670361Y-86377125D01*
X164674335Y-86367532D01*
X164676457Y-86362407D01*
X164725830Y-86243209D01*
X164744750Y-86099500D01*
X164737561Y-86044892D01*
X164737305Y-86042946D01*
X164748245Y-85972797D01*
X164795373Y-85919699D01*
X164862227Y-85900500D01*
X166563707Y-85900500D01*
X166631828Y-85920502D01*
X166652802Y-85937405D01*
X167791916Y-87076519D01*
X167825942Y-87138831D01*
X167827452Y-87147497D01*
X167827592Y-87148018D01*
X167828670Y-87156209D01*
X167884139Y-87290125D01*
X167972379Y-87405121D01*
X168087375Y-87493361D01*
X168221291Y-87548830D01*
X168365000Y-87567750D01*
X168458046Y-87555500D01*
X170684750Y-87555500D01*
X170703670Y-87699209D01*
X170759139Y-87833125D01*
X170847379Y-87948121D01*
X170962375Y-88036361D01*
X171096291Y-88091830D01*
X171240000Y-88110750D01*
X171383709Y-88091830D01*
X171517625Y-88036361D01*
X171524179Y-88031332D01*
X171531327Y-88027205D01*
X171532135Y-88028605D01*
X171589481Y-88006437D01*
X171599963Y-88006000D01*
X172772780Y-88006000D01*
X172787589Y-88006873D01*
X172821310Y-88010864D01*
X172830574Y-88009172D01*
X172830575Y-88009172D01*
X172879001Y-88000328D01*
X172882904Y-87999678D01*
X172931645Y-87992350D01*
X172931646Y-87992350D01*
X172940962Y-87990949D01*
X172947475Y-87987821D01*
X172954573Y-87986525D01*
X173006647Y-87959475D01*
X173010137Y-87957732D01*
X173063079Y-87932309D01*
X173068365Y-87927423D01*
X173068413Y-87927390D01*
X173074788Y-87924079D01*
X173079828Y-87919775D01*
X173117055Y-87882548D01*
X173120621Y-87879118D01*
X173155641Y-87846746D01*
X173162556Y-87840354D01*
X173166249Y-87833995D01*
X173171766Y-87827837D01*
X173312592Y-87687011D01*
X173374904Y-87652985D01*
X173445719Y-87658050D01*
X173502555Y-87700597D01*
X173521245Y-87736334D01*
X173574650Y-87896875D01*
X173580524Y-87909588D01*
X173581768Y-87911643D01*
X173592174Y-87921157D01*
X173600796Y-87917494D01*
X174225905Y-87292385D01*
X174288217Y-87258359D01*
X174359032Y-87263424D01*
X174404095Y-87292385D01*
X174585115Y-87473405D01*
X174619141Y-87535717D01*
X174614076Y-87606532D01*
X174585115Y-87651595D01*
X174049520Y-88187190D01*
X174041908Y-88201130D01*
X174042040Y-88202966D01*
X174046289Y-88209578D01*
X174315000Y-88478290D01*
X174939689Y-89102978D01*
X174953632Y-89110591D01*
X174955467Y-89110460D01*
X174962077Y-89106212D01*
X175500905Y-88567385D01*
X175563217Y-88533360D01*
X175634033Y-88538425D01*
X175679095Y-88567385D01*
X176214692Y-89102981D01*
X176228630Y-89110592D01*
X176230466Y-89110460D01*
X176237078Y-89106211D01*
X176504657Y-88838632D01*
X177229408Y-88838632D01*
X177229539Y-88840466D01*
X177233790Y-88847079D01*
X177577504Y-89190793D01*
X177589879Y-89197550D01*
X177593696Y-89194693D01*
X177650065Y-89046302D01*
X177653549Y-89032733D01*
X177677244Y-88864127D01*
X177677851Y-88856241D01*
X177678058Y-88841462D01*
X177677671Y-88833561D01*
X177658692Y-88664355D01*
X177655590Y-88650702D01*
X177600610Y-88492822D01*
X177597281Y-88485872D01*
X177588605Y-88478159D01*
X177579558Y-88482153D01*
X177237021Y-88824689D01*
X177229408Y-88838632D01*
X176504657Y-88838632D01*
X176865000Y-88478290D01*
X177130478Y-88212811D01*
X177138091Y-88198868D01*
X177137960Y-88197033D01*
X177133710Y-88190420D01*
X176594885Y-87651595D01*
X176560859Y-87589283D01*
X176565924Y-87518468D01*
X176594885Y-87473405D01*
X176775905Y-87292385D01*
X176838217Y-87258359D01*
X176909032Y-87263424D01*
X176954095Y-87292385D01*
X177577502Y-87915792D01*
X177589879Y-87922550D01*
X177593696Y-87919693D01*
X177650065Y-87771302D01*
X177653549Y-87757734D01*
X177673886Y-87613026D01*
X177703174Y-87548352D01*
X177762778Y-87509779D01*
X177782213Y-87505640D01*
X177812891Y-87501601D01*
X177833709Y-87498860D01*
X177967625Y-87443391D01*
X177972548Y-87439613D01*
X178034548Y-87423000D01*
X179520037Y-87423000D01*
X179588158Y-87443002D01*
X179595361Y-87448067D01*
X179595825Y-87448335D01*
X179602375Y-87453361D01*
X179736291Y-87508830D01*
X179880000Y-87527750D01*
X179888188Y-87526672D01*
X179888189Y-87526672D01*
X179937054Y-87520239D01*
X180007203Y-87531178D01*
X180060301Y-87578307D01*
X180079500Y-87645161D01*
X180079500Y-89747983D01*
X180059498Y-89816104D01*
X180042595Y-89837078D01*
X178217079Y-91662595D01*
X178154767Y-91696620D01*
X178127984Y-91699500D01*
X176615326Y-91699500D01*
X176542260Y-91714034D01*
X176531943Y-91720928D01*
X176531942Y-91720928D01*
X176518359Y-91730004D01*
X176459399Y-91769399D01*
X176404034Y-91852260D01*
X176389500Y-91925326D01*
X176389500Y-93974674D01*
X176404034Y-94047740D01*
X176459399Y-94130601D01*
X176469714Y-94137493D01*
X176531121Y-94178523D01*
X176542260Y-94185966D01*
X176615326Y-94200500D01*
X179864674Y-94200500D01*
X179937740Y-94185966D01*
X179948880Y-94178523D01*
X180010286Y-94137493D01*
X180020601Y-94130601D01*
X180075966Y-94047740D01*
X180090500Y-93974674D01*
X185089500Y-93974674D01*
X185104034Y-94047740D01*
X185159399Y-94130601D01*
X185169714Y-94137493D01*
X185231121Y-94178523D01*
X185242260Y-94185966D01*
X185315326Y-94200500D01*
X188564674Y-94200500D01*
X188637740Y-94185966D01*
X188648880Y-94178523D01*
X188710286Y-94137493D01*
X188720601Y-94130601D01*
X188775966Y-94047740D01*
X188790500Y-93974674D01*
X188790500Y-91925326D01*
X188775966Y-91852260D01*
X188720601Y-91769399D01*
X188661641Y-91730004D01*
X188648058Y-91720928D01*
X188648057Y-91720928D01*
X188637740Y-91714034D01*
X188564674Y-91699500D01*
X185315326Y-91699500D01*
X185242260Y-91714034D01*
X185231943Y-91720928D01*
X185231942Y-91720928D01*
X185218359Y-91730004D01*
X185159399Y-91769399D01*
X185104034Y-91852260D01*
X185089500Y-91925326D01*
X185089500Y-93974674D01*
X180090500Y-93974674D01*
X180090500Y-92274647D01*
X180110502Y-92206526D01*
X180164158Y-92160033D01*
X180234432Y-92149929D01*
X180299012Y-92179423D01*
X180332909Y-92226430D01*
X180345714Y-92257344D01*
X180350561Y-92269047D01*
X180355588Y-92275598D01*
X180355589Y-92275600D01*
X180378664Y-92305671D01*
X180438801Y-92384043D01*
X180553797Y-92472283D01*
X180687713Y-92527752D01*
X180831422Y-92546672D01*
X180975131Y-92527752D01*
X181109047Y-92472283D01*
X181224043Y-92384043D01*
X181312283Y-92269047D01*
X181367752Y-92135131D01*
X181386672Y-91991422D01*
X181367752Y-91847713D01*
X181312283Y-91713797D01*
X181224043Y-91598801D01*
X181109047Y-91510561D01*
X180975131Y-91455092D01*
X180831422Y-91436172D01*
X180687713Y-91455092D01*
X180680089Y-91458250D01*
X180680085Y-91458251D01*
X180636591Y-91476267D01*
X180566001Y-91483856D01*
X180499279Y-91448953D01*
X180428144Y-91377818D01*
X180394118Y-91315506D01*
X180392317Y-91272276D01*
X180394172Y-91258187D01*
X180395250Y-91250000D01*
X180376330Y-91106291D01*
X180320861Y-90972375D01*
X180232621Y-90857379D01*
X180182701Y-90819074D01*
X180140834Y-90761736D01*
X180136612Y-90690866D01*
X180170310Y-90630016D01*
X180347104Y-90453223D01*
X180621228Y-90179099D01*
X180629332Y-90171673D01*
X180649750Y-90154540D01*
X180658194Y-90147455D01*
X180663704Y-90137912D01*
X180663707Y-90137908D01*
X180677036Y-90114821D01*
X180682941Y-90105551D01*
X180698232Y-90083713D01*
X180704554Y-90074684D01*
X180707407Y-90064036D01*
X180708886Y-90060865D01*
X180710078Y-90057589D01*
X180715588Y-90048045D01*
X180722134Y-90010924D01*
X180724508Y-90000217D01*
X180734263Y-89963807D01*
X180733075Y-89950221D01*
X180730979Y-89926269D01*
X180730500Y-89915288D01*
X180730500Y-86774750D01*
X180730979Y-86763769D01*
X180733303Y-86737207D01*
X180733303Y-86737205D01*
X180734263Y-86726230D01*
X180724508Y-86689820D01*
X180722133Y-86679109D01*
X180720396Y-86669259D01*
X180715588Y-86641992D01*
X180710079Y-86632449D01*
X180708888Y-86629177D01*
X180707408Y-86626004D01*
X180704554Y-86615353D01*
X180682945Y-86584493D01*
X180677039Y-86575222D01*
X180663707Y-86552131D01*
X180658194Y-86542582D01*
X180629317Y-86518352D01*
X180621215Y-86510926D01*
X178894074Y-84783785D01*
X178886647Y-84775681D01*
X178869504Y-84755251D01*
X178869505Y-84755251D01*
X178862418Y-84746806D01*
X178852869Y-84741293D01*
X178829778Y-84727961D01*
X178820507Y-84722055D01*
X178798678Y-84706770D01*
X178789647Y-84700446D01*
X178778997Y-84697592D01*
X178775829Y-84696115D01*
X178772553Y-84694923D01*
X178763008Y-84689412D01*
X178729264Y-84683462D01*
X178725905Y-84682870D01*
X178715178Y-84680492D01*
X178678770Y-84670736D01*
X178667785Y-84671697D01*
X178667783Y-84671697D01*
X178641235Y-84674020D01*
X178630253Y-84674500D01*
X172777016Y-84674500D01*
X172708895Y-84654498D01*
X172687921Y-84637595D01*
X171928144Y-83877818D01*
X171894118Y-83815506D01*
X171892317Y-83772276D01*
X171894172Y-83758187D01*
X171895250Y-83750000D01*
X171876330Y-83606291D01*
X171820861Y-83472375D01*
X171732621Y-83357379D01*
X171617625Y-83269139D01*
X171483709Y-83213670D01*
X171340000Y-83194750D01*
X171196291Y-83213670D01*
X171062375Y-83269139D01*
X170947379Y-83357379D01*
X170859139Y-83472375D01*
X170803670Y-83606291D01*
X170784750Y-83750000D01*
X170803670Y-83893709D01*
X170859139Y-84027625D01*
X170947379Y-84142621D01*
X171062375Y-84230861D01*
X171196291Y-84286330D01*
X171340000Y-84305250D01*
X171362277Y-84302317D01*
X171432425Y-84313256D01*
X171467818Y-84338144D01*
X172345889Y-85216215D01*
X172353316Y-85224319D01*
X172377545Y-85253194D01*
X172387094Y-85258707D01*
X172410185Y-85272039D01*
X172419456Y-85277945D01*
X172450316Y-85299554D01*
X172460966Y-85302408D01*
X172464134Y-85303885D01*
X172467410Y-85305077D01*
X172476955Y-85310588D01*
X172510699Y-85316538D01*
X172514058Y-85317130D01*
X172524785Y-85319508D01*
X172561193Y-85329264D01*
X172572178Y-85328303D01*
X172572180Y-85328303D01*
X172598728Y-85325980D01*
X172609710Y-85325500D01*
X173891320Y-85325500D01*
X173959441Y-85345502D01*
X174005934Y-85399158D01*
X174016038Y-85469432D01*
X173986544Y-85534012D01*
X173972780Y-85545704D01*
X173956016Y-85564299D01*
X173959840Y-85573129D01*
X174302189Y-85915479D01*
X174316132Y-85923092D01*
X174317966Y-85922961D01*
X174324579Y-85918710D01*
X174667914Y-85575375D01*
X174674671Y-85563000D01*
X174656204Y-85538331D01*
X174626545Y-85504493D01*
X174616042Y-85434278D01*
X174645167Y-85369531D01*
X174704674Y-85330808D01*
X174740859Y-85325500D01*
X175166320Y-85325500D01*
X175234441Y-85345502D01*
X175280934Y-85399158D01*
X175291038Y-85469432D01*
X175261544Y-85534012D01*
X175247780Y-85545704D01*
X175231016Y-85564299D01*
X175234840Y-85573129D01*
X175577189Y-85915479D01*
X175591132Y-85923092D01*
X175592966Y-85922961D01*
X175599579Y-85918710D01*
X175942914Y-85575375D01*
X175949671Y-85563000D01*
X175931204Y-85538331D01*
X175901545Y-85504493D01*
X175891042Y-85434278D01*
X175920167Y-85369531D01*
X175979674Y-85330808D01*
X176015859Y-85325500D01*
X176441320Y-85325500D01*
X176509441Y-85345502D01*
X176555934Y-85399158D01*
X176566038Y-85469432D01*
X176536544Y-85534012D01*
X176522780Y-85545704D01*
X176506016Y-85564299D01*
X176509840Y-85573129D01*
X176852189Y-85915479D01*
X176866132Y-85923092D01*
X176867966Y-85922961D01*
X176874579Y-85918710D01*
X177217914Y-85575375D01*
X177224671Y-85563000D01*
X177206204Y-85538331D01*
X177176545Y-85504493D01*
X177166042Y-85434278D01*
X177195167Y-85369531D01*
X177254674Y-85330808D01*
X177290859Y-85325500D01*
X178462947Y-85325500D01*
X178531068Y-85345502D01*
X178552042Y-85362405D01*
X179496542Y-86306905D01*
X179530568Y-86369217D01*
X179525503Y-86440032D01*
X179482956Y-86496868D01*
X179416436Y-86521679D01*
X179407447Y-86522000D01*
X178062956Y-86522000D01*
X177994835Y-86501998D01*
X177986266Y-86495973D01*
X177967625Y-86481669D01*
X177833709Y-86426200D01*
X177787571Y-86420126D01*
X177722645Y-86391404D01*
X177683553Y-86332139D01*
X177678311Y-86295412D01*
X177678251Y-86295415D01*
X177678220Y-86294773D01*
X177678030Y-86293445D01*
X177678058Y-86291463D01*
X177677671Y-86283561D01*
X177658692Y-86114355D01*
X177655590Y-86100702D01*
X177600610Y-85942822D01*
X177597281Y-85935872D01*
X177588605Y-85928159D01*
X177579558Y-85932153D01*
X177224210Y-86287500D01*
X176954095Y-86557616D01*
X176891783Y-86591641D01*
X176820967Y-86586576D01*
X176775905Y-86557615D01*
X176505790Y-86287500D01*
X176240312Y-86022023D01*
X176226368Y-86014409D01*
X176224533Y-86014540D01*
X176217923Y-86018788D01*
X175949210Y-86287500D01*
X175679095Y-86557616D01*
X175616783Y-86591641D01*
X175545967Y-86586576D01*
X175500905Y-86557615D01*
X175230790Y-86287500D01*
X174965312Y-86022023D01*
X174951368Y-86014409D01*
X174949533Y-86014540D01*
X174942923Y-86018788D01*
X174674210Y-86287500D01*
X174404095Y-86557616D01*
X174341783Y-86591641D01*
X174270967Y-86586576D01*
X174225905Y-86557615D01*
X173955790Y-86287500D01*
X173602462Y-85934173D01*
X173590082Y-85927413D01*
X173584926Y-85931273D01*
X173584273Y-85932589D01*
X173527096Y-86089680D01*
X173523803Y-86103294D01*
X173510356Y-86209733D01*
X173481974Y-86274809D01*
X173422914Y-86314210D01*
X173401797Y-86318862D01*
X173366571Y-86323500D01*
X173346291Y-86326170D01*
X173212375Y-86381639D01*
X173097379Y-86469879D01*
X173009139Y-86584875D01*
X172953670Y-86718791D01*
X172951245Y-86737207D01*
X172951227Y-86737347D01*
X172922505Y-86802274D01*
X172915400Y-86809997D01*
X172657302Y-87068095D01*
X172594990Y-87102121D01*
X172568207Y-87105000D01*
X171599963Y-87105000D01*
X171531842Y-87084998D01*
X171524639Y-87079933D01*
X171524175Y-87079665D01*
X171517625Y-87074639D01*
X171383709Y-87019170D01*
X171240000Y-87000250D01*
X171096291Y-87019170D01*
X170962375Y-87074639D01*
X170847379Y-87162879D01*
X170759139Y-87277875D01*
X170703670Y-87411791D01*
X170684750Y-87555500D01*
X168458046Y-87555500D01*
X168508709Y-87548830D01*
X168642625Y-87493361D01*
X168757621Y-87405121D01*
X168845861Y-87290125D01*
X168901330Y-87156209D01*
X168920250Y-87012500D01*
X168901330Y-86868791D01*
X168845861Y-86734875D01*
X168757621Y-86619879D01*
X168642625Y-86531639D01*
X168508709Y-86476170D01*
X168500519Y-86475092D01*
X168492545Y-86472955D01*
X168492964Y-86471392D01*
X168436742Y-86446522D01*
X168429019Y-86439416D01*
X167145253Y-85155650D01*
X167135399Y-85144561D01*
X167120207Y-85125291D01*
X167120205Y-85125289D01*
X167114372Y-85117890D01*
X167106625Y-85112535D01*
X167106623Y-85112534D01*
X167066125Y-85084545D01*
X167062903Y-85082243D01*
X167023258Y-85052960D01*
X167023257Y-85052959D01*
X167015684Y-85047366D01*
X167008868Y-85044973D01*
X167002931Y-85040869D01*
X166993951Y-85038029D01*
X166993949Y-85038028D01*
X166973783Y-85031650D01*
X166946981Y-85023174D01*
X166943250Y-85021929D01*
X166896763Y-85005604D01*
X166896761Y-85005604D01*
X166887869Y-85002481D01*
X166880681Y-85002199D01*
X166880622Y-85002188D01*
X166873770Y-85000020D01*
X166867163Y-84999500D01*
X166814484Y-84999500D01*
X166809537Y-84999403D01*
X166752506Y-84997162D01*
X166745400Y-84999046D01*
X166737153Y-84999500D01*
X165372443Y-84999500D01*
X165304322Y-84979498D01*
X165257829Y-84925842D01*
X165247725Y-84855568D01*
X165271617Y-84797935D01*
X165334786Y-84713649D01*
X165343324Y-84698054D01*
X165388478Y-84577606D01*
X165392105Y-84562351D01*
X165397631Y-84511486D01*
X165398000Y-84504672D01*
X165398000Y-84002115D01*
X165393525Y-83986876D01*
X165392135Y-83985671D01*
X165384452Y-83984000D01*
X162468000Y-83984000D01*
X162399879Y-83963998D01*
X162353386Y-83910342D01*
X162342000Y-83858000D01*
X162342000Y-83743115D01*
X162337525Y-83727876D01*
X162336135Y-83726671D01*
X162328452Y-83725000D01*
X162216500Y-83725000D01*
X162148379Y-83704998D01*
X162101886Y-83651342D01*
X162090500Y-83599000D01*
X162090500Y-83451000D01*
X162110502Y-83382879D01*
X162164158Y-83336386D01*
X162216500Y-83325000D01*
X162912000Y-83325000D01*
X162980121Y-83345002D01*
X163026614Y-83398658D01*
X163038000Y-83451000D01*
X163038000Y-83457885D01*
X163042475Y-83473124D01*
X163043865Y-83474329D01*
X163051548Y-83476000D01*
X163142885Y-83476000D01*
X163158124Y-83471525D01*
X163159329Y-83470135D01*
X163161000Y-83462452D01*
X163161000Y-83457885D01*
X164144000Y-83457885D01*
X164148475Y-83473124D01*
X164149865Y-83474329D01*
X164157548Y-83476000D01*
X165379884Y-83476000D01*
X165395123Y-83471525D01*
X165396328Y-83470135D01*
X165397999Y-83462452D01*
X165397999Y-82955331D01*
X165397629Y-82948510D01*
X165391252Y-82889793D01*
X165393644Y-82889533D01*
X165393652Y-82860468D01*
X165391252Y-82860207D01*
X165397631Y-82801486D01*
X165398000Y-82794672D01*
X165398000Y-82672115D01*
X165393525Y-82656876D01*
X165392135Y-82655671D01*
X165384452Y-82654000D01*
X164249615Y-82654000D01*
X164234376Y-82658475D01*
X164233171Y-82659865D01*
X164231500Y-82667548D01*
X164231500Y-83183305D01*
X164211498Y-83251426D01*
X164157842Y-83297919D01*
X164147472Y-83301787D01*
X164145671Y-83303865D01*
X164144000Y-83311548D01*
X164144000Y-83457885D01*
X163161000Y-83457885D01*
X163161000Y-82583000D01*
X163181002Y-82514879D01*
X163234658Y-82468386D01*
X163287000Y-82457000D01*
X163442885Y-82457000D01*
X163458124Y-82452525D01*
X163459329Y-82451135D01*
X163461000Y-82443452D01*
X163461000Y-82127885D01*
X163969000Y-82127885D01*
X163973475Y-82143124D01*
X163974865Y-82144329D01*
X163982548Y-82146000D01*
X165379884Y-82146000D01*
X165395123Y-82141525D01*
X165396328Y-82140135D01*
X165397999Y-82132452D01*
X165397999Y-82005331D01*
X165397629Y-81998510D01*
X165392105Y-81947648D01*
X165388479Y-81932396D01*
X165343324Y-81811946D01*
X165334786Y-81796351D01*
X165258285Y-81694276D01*
X165245724Y-81681715D01*
X165143649Y-81605214D01*
X165128054Y-81596676D01*
X165007606Y-81551522D01*
X164992349Y-81547894D01*
X164985396Y-81547139D01*
X164919833Y-81519899D01*
X164879405Y-81461537D01*
X164873000Y-81421876D01*
X164873000Y-81397115D01*
X164868525Y-81381876D01*
X164867135Y-81380671D01*
X164859452Y-81379000D01*
X163987115Y-81379000D01*
X163971876Y-81383475D01*
X163970671Y-81384865D01*
X163969000Y-81392548D01*
X163969000Y-82127885D01*
X163461000Y-82127885D01*
X163461000Y-80972115D01*
X163456525Y-80956876D01*
X163455135Y-80955671D01*
X163447452Y-80954000D01*
X162643000Y-80954000D01*
X162574879Y-80933998D01*
X162528386Y-80880342D01*
X162517000Y-80828000D01*
X162517000Y-80722115D01*
X162512525Y-80706876D01*
X162511135Y-80705671D01*
X162503452Y-80704000D01*
X159481115Y-80704000D01*
X159465876Y-80708475D01*
X159464671Y-80709865D01*
X159463000Y-80717548D01*
X159463000Y-80828000D01*
X159442998Y-80896121D01*
X159389342Y-80942614D01*
X159337000Y-80954000D01*
X158537115Y-80954000D01*
X158521876Y-80958475D01*
X158520671Y-80959865D01*
X158519000Y-80967548D01*
X158519000Y-82438885D01*
X158523475Y-82454124D01*
X158524865Y-82455329D01*
X158532548Y-82457000D01*
X158693000Y-82457000D01*
X158761121Y-82477002D01*
X158807614Y-82530658D01*
X158819000Y-82583000D01*
X158819000Y-84949884D01*
X158823475Y-84965123D01*
X158824865Y-84966328D01*
X158832548Y-84967999D01*
X159113500Y-84967999D01*
X159181621Y-84988001D01*
X159228114Y-85041657D01*
X159239500Y-85093999D01*
X159239500Y-86323500D01*
X159219498Y-86391621D01*
X159165842Y-86438114D01*
X159113500Y-86449500D01*
X158765326Y-86449500D01*
X158692260Y-86464034D01*
X158681943Y-86470928D01*
X158681942Y-86470928D01*
X158674097Y-86476170D01*
X158609399Y-86519399D01*
X158593909Y-86542582D01*
X158564514Y-86586576D01*
X158554034Y-86602260D01*
X158539500Y-86675326D01*
X158539500Y-88152628D01*
X158519498Y-88220749D01*
X158502595Y-88241723D01*
X157378101Y-89366217D01*
X157363147Y-89378295D01*
X157359595Y-89381527D01*
X157350848Y-89387175D01*
X157344402Y-89395352D01*
X157331998Y-89411086D01*
X157328501Y-89415021D01*
X157328605Y-89415109D01*
X157325251Y-89419067D01*
X157321572Y-89422746D01*
X157318551Y-89426973D01*
X157316022Y-89429958D01*
X157256722Y-89468998D01*
X157219894Y-89474500D01*
X157086968Y-89474500D01*
X157083571Y-89474869D01*
X157034376Y-89480213D01*
X157034374Y-89480213D01*
X157026526Y-89481066D01*
X157019133Y-89483838D01*
X157019131Y-89483838D01*
X156994361Y-89493124D01*
X156893959Y-89530763D01*
X156886780Y-89536143D01*
X156886777Y-89536145D01*
X156802235Y-89599506D01*
X156780669Y-89615669D01*
X156775288Y-89622849D01*
X156701145Y-89721777D01*
X156701143Y-89721780D01*
X156695763Y-89728959D01*
X156646066Y-89861526D01*
X156639500Y-89921968D01*
X156639500Y-90503032D01*
X156639869Y-90506429D01*
X156642815Y-90533543D01*
X156646066Y-90563474D01*
X156695763Y-90696041D01*
X156701143Y-90703220D01*
X156701145Y-90703223D01*
X156750547Y-90769139D01*
X156780669Y-90809331D01*
X156787849Y-90814712D01*
X156886777Y-90888855D01*
X156886780Y-90888857D01*
X156893959Y-90894237D01*
X156902362Y-90897387D01*
X156910238Y-90901699D01*
X156908585Y-90904719D01*
X156952065Y-90937383D01*
X156976763Y-91003945D01*
X156961554Y-91073293D01*
X156911267Y-91123410D01*
X156890945Y-91132245D01*
X156819635Y-91156036D01*
X156806457Y-91162210D01*
X156669851Y-91246744D01*
X156658450Y-91255780D01*
X156544949Y-91369479D01*
X156535937Y-91380890D01*
X156451635Y-91517654D01*
X156445491Y-91530832D01*
X156394773Y-91683740D01*
X156391907Y-91697106D01*
X156382328Y-91790601D01*
X156382000Y-91797016D01*
X156382000Y-91815385D01*
X155890500Y-91815385D01*
X155890500Y-84504669D01*
X156582001Y-84504669D01*
X156582371Y-84511490D01*
X156587895Y-84562352D01*
X156591521Y-84577604D01*
X156636676Y-84698054D01*
X156645214Y-84713649D01*
X156721715Y-84815724D01*
X156734276Y-84828285D01*
X156836351Y-84904786D01*
X156851946Y-84913324D01*
X156972394Y-84958478D01*
X156987649Y-84962105D01*
X157038514Y-84967631D01*
X157045328Y-84968000D01*
X157817885Y-84968000D01*
X157833124Y-84963525D01*
X157834329Y-84962135D01*
X157836000Y-84954452D01*
X157836000Y-84002115D01*
X157831525Y-83986876D01*
X157830135Y-83985671D01*
X157822452Y-83984000D01*
X156600116Y-83984000D01*
X156584877Y-83988475D01*
X156583672Y-83989865D01*
X156582001Y-83997548D01*
X156582001Y-84504669D01*
X155890500Y-84504669D01*
X155890500Y-83457885D01*
X156582000Y-83457885D01*
X156586475Y-83473124D01*
X156587865Y-83474329D01*
X156595548Y-83476000D01*
X157817885Y-83476000D01*
X157833124Y-83471525D01*
X157834329Y-83470135D01*
X157836000Y-83462452D01*
X157836000Y-83316115D01*
X157831525Y-83300876D01*
X157812111Y-83284053D01*
X157785405Y-83269471D01*
X157751380Y-83207159D01*
X157748500Y-83180375D01*
X157748500Y-82672115D01*
X157744025Y-82656876D01*
X157742635Y-82655671D01*
X157734952Y-82654000D01*
X156600116Y-82654000D01*
X156584877Y-82658475D01*
X156583672Y-82659865D01*
X156582001Y-82667548D01*
X156582001Y-82794669D01*
X156582371Y-82801490D01*
X156588748Y-82860207D01*
X156586353Y-82860467D01*
X156586351Y-82889533D01*
X156588748Y-82889793D01*
X156582369Y-82948514D01*
X156582000Y-82955328D01*
X156582000Y-83457885D01*
X155890500Y-83457885D01*
X155890500Y-82127885D01*
X156582000Y-82127885D01*
X156586475Y-82143124D01*
X156587865Y-82144329D01*
X156595548Y-82146000D01*
X157992885Y-82146000D01*
X158008124Y-82141525D01*
X158009329Y-82140135D01*
X158011000Y-82132452D01*
X158011000Y-81397115D01*
X158006525Y-81381876D01*
X158005135Y-81380671D01*
X157997452Y-81379000D01*
X157125116Y-81379000D01*
X157109877Y-81383475D01*
X157108672Y-81384865D01*
X157107001Y-81392548D01*
X157107001Y-81421876D01*
X157086999Y-81489997D01*
X157033343Y-81536490D01*
X156994607Y-81547139D01*
X156987648Y-81547895D01*
X156972396Y-81551521D01*
X156851946Y-81596676D01*
X156836351Y-81605214D01*
X156734276Y-81681715D01*
X156721715Y-81694276D01*
X156645214Y-81796351D01*
X156636676Y-81811946D01*
X156591522Y-81932394D01*
X156587895Y-81947649D01*
X156582369Y-81998514D01*
X156582000Y-82005328D01*
X156582000Y-82127885D01*
X155890500Y-82127885D01*
X155890500Y-79426500D01*
X155910502Y-79358379D01*
X155964158Y-79311886D01*
X156016500Y-79300500D01*
X157089889Y-79300500D01*
X157158010Y-79320502D01*
G37*
%TD.AperFunction*%
M02*
