%TF.GenerationSoftware,KiCad,Pcbnew,7.0.6*%
%TF.CreationDate,2024-04-24T00:38:09-04:00*%
%TF.ProjectId,Doom Keycap,446f6f6d-204b-4657-9963-61702e6b6963,REV1*%
%TF.SameCoordinates,Original*%
%TF.FileFunction,Drillmap*%
%TF.FilePolarity,Positive*%
%FSLAX45Y45*%
G04 Gerber Fmt 4.5, Leading zero omitted, Abs format (unit mm)*
G04 Created by KiCad (PCBNEW 7.0.6) date 2024-04-24 00:38:09*
%MOMM*%
%LPD*%
G01*
G04 APERTURE LIST*
%ADD10C,0.050000*%
%ADD11C,0.200000*%
G04 APERTURE END LIST*
D10*
X18809000Y-8387500D02*
X18809000Y-9437500D01*
X15559000Y-9437500D01*
X15559000Y-7887500D01*
X18309000Y-7887500D01*
X18809000Y-8387500D01*
D11*
X15817277Y-9751484D02*
X15817277Y-9551484D01*
X15817277Y-9551484D02*
X15864896Y-9551484D01*
X15864896Y-9551484D02*
X15893467Y-9561008D01*
X15893467Y-9561008D02*
X15912515Y-9580055D01*
X15912515Y-9580055D02*
X15922039Y-9599103D01*
X15922039Y-9599103D02*
X15931562Y-9637198D01*
X15931562Y-9637198D02*
X15931562Y-9665770D01*
X15931562Y-9665770D02*
X15922039Y-9703865D01*
X15922039Y-9703865D02*
X15912515Y-9722912D01*
X15912515Y-9722912D02*
X15893467Y-9741960D01*
X15893467Y-9741960D02*
X15864896Y-9751484D01*
X15864896Y-9751484D02*
X15817277Y-9751484D01*
X16017277Y-9751484D02*
X16017277Y-9618150D01*
X16017277Y-9656246D02*
X16026801Y-9637198D01*
X16026801Y-9637198D02*
X16036324Y-9627674D01*
X16036324Y-9627674D02*
X16055372Y-9618150D01*
X16055372Y-9618150D02*
X16074420Y-9618150D01*
X16141086Y-9751484D02*
X16141086Y-9618150D01*
X16141086Y-9551484D02*
X16131562Y-9561008D01*
X16131562Y-9561008D02*
X16141086Y-9570531D01*
X16141086Y-9570531D02*
X16150610Y-9561008D01*
X16150610Y-9561008D02*
X16141086Y-9551484D01*
X16141086Y-9551484D02*
X16141086Y-9570531D01*
X16264896Y-9751484D02*
X16245848Y-9741960D01*
X16245848Y-9741960D02*
X16236324Y-9722912D01*
X16236324Y-9722912D02*
X16236324Y-9551484D01*
X16369658Y-9751484D02*
X16350610Y-9741960D01*
X16350610Y-9741960D02*
X16341086Y-9722912D01*
X16341086Y-9722912D02*
X16341086Y-9551484D01*
X16598229Y-9751484D02*
X16598229Y-9551484D01*
X16598229Y-9551484D02*
X16664896Y-9694341D01*
X16664896Y-9694341D02*
X16731562Y-9551484D01*
X16731562Y-9551484D02*
X16731562Y-9751484D01*
X16912515Y-9751484D02*
X16912515Y-9646722D01*
X16912515Y-9646722D02*
X16902991Y-9627674D01*
X16902991Y-9627674D02*
X16883944Y-9618150D01*
X16883944Y-9618150D02*
X16845848Y-9618150D01*
X16845848Y-9618150D02*
X16826801Y-9627674D01*
X16912515Y-9741960D02*
X16893467Y-9751484D01*
X16893467Y-9751484D02*
X16845848Y-9751484D01*
X16845848Y-9751484D02*
X16826801Y-9741960D01*
X16826801Y-9741960D02*
X16817277Y-9722912D01*
X16817277Y-9722912D02*
X16817277Y-9703865D01*
X16817277Y-9703865D02*
X16826801Y-9684817D01*
X16826801Y-9684817D02*
X16845848Y-9675293D01*
X16845848Y-9675293D02*
X16893467Y-9675293D01*
X16893467Y-9675293D02*
X16912515Y-9665770D01*
X17007753Y-9618150D02*
X17007753Y-9818150D01*
X17007753Y-9627674D02*
X17026801Y-9618150D01*
X17026801Y-9618150D02*
X17064896Y-9618150D01*
X17064896Y-9618150D02*
X17083944Y-9627674D01*
X17083944Y-9627674D02*
X17093467Y-9637198D01*
X17093467Y-9637198D02*
X17102991Y-9656246D01*
X17102991Y-9656246D02*
X17102991Y-9713389D01*
X17102991Y-9713389D02*
X17093467Y-9732436D01*
X17093467Y-9732436D02*
X17083944Y-9741960D01*
X17083944Y-9741960D02*
X17064896Y-9751484D01*
X17064896Y-9751484D02*
X17026801Y-9751484D01*
X17026801Y-9751484D02*
X17007753Y-9741960D01*
X17188705Y-9732436D02*
X17198229Y-9741960D01*
X17198229Y-9741960D02*
X17188705Y-9751484D01*
X17188705Y-9751484D02*
X17179182Y-9741960D01*
X17179182Y-9741960D02*
X17188705Y-9732436D01*
X17188705Y-9732436D02*
X17188705Y-9751484D01*
X17188705Y-9627674D02*
X17198229Y-9637198D01*
X17198229Y-9637198D02*
X17188705Y-9646722D01*
X17188705Y-9646722D02*
X17179182Y-9637198D01*
X17179182Y-9637198D02*
X17188705Y-9627674D01*
X17188705Y-9627674D02*
X17188705Y-9646722D01*
M02*
