%TF.GenerationSoftware,KiCad,Pcbnew,(6.0.9)*%
%TF.CreationDate,2023-01-06T22:41:28-05:00*%
%TF.ProjectId,Doom Keycap,446f6f6d-204b-4657-9963-61702e6b6963,REV1*%
%TF.SameCoordinates,Original*%
%TF.FileFunction,Legend,Bot*%
%TF.FilePolarity,Positive*%
%FSLAX46Y46*%
G04 Gerber Fmt 4.6, Leading zero omitted, Abs format (unit mm)*
G04 Created by KiCad (PCBNEW (6.0.9)) date 2023-01-06 22:41:28*
%MOMM*%
%LPD*%
G01*
G04 APERTURE LIST*
G04 Aperture macros list*
%AMRoundRect*
0 Rectangle with rounded corners*
0 $1 Rounding radius*
0 $2 $3 $4 $5 $6 $7 $8 $9 X,Y pos of 4 corners*
0 Add a 4 corners polygon primitive as box body*
4,1,4,$2,$3,$4,$5,$6,$7,$8,$9,$2,$3,0*
0 Add four circle primitives for the rounded corners*
1,1,$1+$1,$2,$3*
1,1,$1+$1,$4,$5*
1,1,$1+$1,$6,$7*
1,1,$1+$1,$8,$9*
0 Add four rect primitives between the rounded corners*
20,1,$1+$1,$2,$3,$4,$5,0*
20,1,$1+$1,$4,$5,$6,$7,0*
20,1,$1+$1,$6,$7,$8,$9,0*
20,1,$1+$1,$8,$9,$2,$3,0*%
G04 Aperture macros list end*
%ADD10C,0.125000*%
%ADD11C,0.150000*%
%ADD12C,0.120000*%
%ADD13RoundRect,0.294750X-0.243750X-0.456250X0.243750X-0.456250X0.243750X0.456250X-0.243750X0.456250X0*%
%ADD14RoundRect,0.051000X-0.200000X0.875000X-0.200000X-0.875000X0.200000X-0.875000X0.200000X0.875000X0*%
%ADD15RoundRect,0.051000X-0.912500X-0.350000X0.912500X-0.350000X0.912500X0.350000X-0.912500X0.350000X0*%
%ADD16RoundRect,0.051000X-0.712500X1.250000X-0.712500X-1.250000X0.712500X-1.250000X0.712500X1.250000X0*%
%ADD17RoundRect,0.435800X-0.265200X-1.240200X0.265200X-1.240200X0.265200X1.240200X-0.265200X1.240200X0*%
%ADD18O,1.152000X1.552000*%
%ADD19O,1.402000X1.902000*%
%ADD20RoundRect,0.051000X-1.000000X-0.730000X1.000000X-0.730000X1.000000X0.730000X-1.000000X0.730000X0*%
%ADD21RoundRect,0.051000X-0.525000X-0.325000X0.525000X-0.325000X0.525000X0.325000X-0.525000X0.325000X0*%
%ADD22RoundRect,0.051000X-1.000000X-0.750000X1.000000X-0.750000X1.000000X0.750000X-1.000000X0.750000X0*%
%ADD23RoundRect,0.051000X-1.000000X-1.900000X1.000000X-1.900000X1.000000X1.900000X-1.000000X1.900000X0*%
%ADD24RoundRect,0.294750X-0.456250X0.243750X-0.456250X-0.243750X0.456250X-0.243750X0.456250X0.243750X0*%
%ADD25RoundRect,0.051000X1.600000X-1.000000X1.600000X1.000000X-1.600000X1.000000X-1.600000X-1.000000X0*%
G04 APERTURE END LIST*
D10*
X169423333Y-91178571D02*
X169447142Y-91202380D01*
X169518571Y-91226190D01*
X169566190Y-91226190D01*
X169637619Y-91202380D01*
X169685238Y-91154761D01*
X169709047Y-91107142D01*
X169732857Y-91011904D01*
X169732857Y-90940476D01*
X169709047Y-90845238D01*
X169685238Y-90797619D01*
X169637619Y-90750000D01*
X169566190Y-90726190D01*
X169518571Y-90726190D01*
X169447142Y-90750000D01*
X169423333Y-90773809D01*
X168994761Y-90892857D02*
X168994761Y-91226190D01*
X169113809Y-90702380D02*
X169232857Y-91059523D01*
X168923333Y-91059523D01*
X158506666Y-85226190D02*
X158506666Y-85583333D01*
X158530476Y-85654761D01*
X158578095Y-85702380D01*
X158649523Y-85726190D01*
X158697142Y-85726190D01*
X158006666Y-85726190D02*
X158292380Y-85726190D01*
X158149523Y-85726190D02*
X158149523Y-85226190D01*
X158197142Y-85297619D01*
X158244761Y-85345238D01*
X158292380Y-85369047D01*
D11*
X171756666Y-93547619D02*
X171756666Y-92833333D01*
X171709047Y-92690476D01*
X171613809Y-92595238D01*
X171470952Y-92547619D01*
X171375714Y-92547619D01*
X172185238Y-93452380D02*
X172232857Y-93500000D01*
X172328095Y-93547619D01*
X172566190Y-93547619D01*
X172661428Y-93500000D01*
X172709047Y-93452380D01*
X172756666Y-93357142D01*
X172756666Y-93261904D01*
X172709047Y-93119047D01*
X172137619Y-92547619D01*
X172756666Y-92547619D01*
D10*
X162666190Y-93869047D02*
X163070952Y-93869047D01*
X163118571Y-93892857D01*
X163142380Y-93916666D01*
X163166190Y-93964285D01*
X163166190Y-94059523D01*
X163142380Y-94107142D01*
X163118571Y-94130952D01*
X163070952Y-94154761D01*
X162666190Y-94154761D01*
X163166190Y-94654761D02*
X163166190Y-94369047D01*
X163166190Y-94511904D02*
X162666190Y-94511904D01*
X162737619Y-94464285D01*
X162785238Y-94416666D01*
X162809047Y-94369047D01*
X156118571Y-91066666D02*
X156142380Y-91042857D01*
X156166190Y-90971428D01*
X156166190Y-90923809D01*
X156142380Y-90852380D01*
X156094761Y-90804761D01*
X156047142Y-90780952D01*
X155951904Y-90757142D01*
X155880476Y-90757142D01*
X155785238Y-90780952D01*
X155737619Y-90804761D01*
X155690000Y-90852380D01*
X155666190Y-90923809D01*
X155666190Y-90971428D01*
X155690000Y-91042857D01*
X155713809Y-91066666D01*
X156166190Y-91542857D02*
X156166190Y-91257142D01*
X156166190Y-91400000D02*
X155666190Y-91400000D01*
X155737619Y-91352380D01*
X155785238Y-91304761D01*
X155809047Y-91257142D01*
X182863809Y-87571428D02*
X182863809Y-87809523D01*
X183363809Y-87809523D01*
X182887619Y-87428571D02*
X182863809Y-87357142D01*
X182863809Y-87238095D01*
X182887619Y-87190476D01*
X182911428Y-87166666D01*
X182959047Y-87142857D01*
X183006666Y-87142857D01*
X183054285Y-87166666D01*
X183078095Y-87190476D01*
X183101904Y-87238095D01*
X183125714Y-87333333D01*
X183149523Y-87380952D01*
X183173333Y-87404761D01*
X183220952Y-87428571D01*
X183268571Y-87428571D01*
X183316190Y-87404761D01*
X183340000Y-87380952D01*
X183363809Y-87333333D01*
X183363809Y-87214285D01*
X183340000Y-87142857D01*
X182863809Y-86666666D02*
X182863809Y-86952380D01*
X182863809Y-86809523D02*
X183363809Y-86809523D01*
X183292380Y-86857142D01*
X183244761Y-86904761D01*
X183220952Y-86952380D01*
D12*
X169081422Y-89040000D02*
X169598578Y-89040000D01*
X169081422Y-90460000D02*
X169598578Y-90460000D01*
X159665000Y-84680000D02*
X159265000Y-85130000D01*
X164815000Y-79080000D02*
X164815000Y-81880000D01*
X156815000Y-81880000D02*
X156815000Y-83430000D01*
X165115000Y-81880000D02*
X165115000Y-83430000D01*
X156815000Y-81880000D02*
X157115000Y-81880000D01*
X159265000Y-85130000D02*
X160065000Y-85130000D01*
X160065000Y-85130000D02*
X159665000Y-84680000D01*
X164815000Y-81880000D02*
X165115000Y-81880000D01*
X157115000Y-79080000D02*
X157115000Y-81880000D01*
X164850000Y-86340000D02*
X164850000Y-87600000D01*
X158840000Y-93160000D02*
X164850000Y-93160000D01*
X164850000Y-93160000D02*
X164850000Y-91900000D01*
X161090000Y-86340000D02*
X164850000Y-86340000D01*
X158300000Y-90891422D02*
X158300000Y-91408578D01*
X156880000Y-90891422D02*
X156880000Y-91408578D01*
%LPC*%
D13*
X168402500Y-89750000D03*
X170277500Y-89750000D03*
D14*
X159690000Y-83525000D03*
X160340000Y-83525000D03*
X160990000Y-83525000D03*
X161640000Y-83525000D03*
X162290000Y-83525000D03*
D15*
X163977500Y-82400000D03*
D16*
X160027500Y-80450000D03*
D17*
X163715000Y-81125000D03*
D18*
X163415000Y-83730000D03*
D17*
X158265000Y-81125000D03*
D19*
X158265000Y-80700000D03*
D20*
X163890000Y-83730000D03*
D16*
X161952500Y-80450000D03*
D19*
X163715000Y-80700000D03*
D20*
X158090000Y-83730000D03*
D18*
X158565000Y-83730000D03*
D15*
X158002500Y-82400000D03*
D21*
X174163594Y-93828849D03*
X170015000Y-93825000D03*
X174163594Y-91678695D03*
X170014173Y-91678695D03*
D22*
X159790000Y-92050000D03*
D23*
X166090000Y-89750000D03*
D22*
X159790000Y-89750000D03*
X159790000Y-87450000D03*
D24*
X157590000Y-90212500D03*
X157590000Y-92087500D03*
D25*
X186940000Y-81550000D03*
X186940000Y-92950000D03*
X178240000Y-92950000D03*
X178240000Y-81550000D03*
M02*
