%TF.GenerationSoftware,KiCad,Pcbnew,7.0.6*%
%TF.CreationDate,2024-04-24T00:37:06-04:00*%
%TF.ProjectId,Doom Keycap,446f6f6d-204b-4657-9963-61702e6b6963,REV1*%
%TF.SameCoordinates,Original*%
%TF.FileFunction,Soldermask,Top*%
%TF.FilePolarity,Negative*%
%FSLAX46Y46*%
G04 Gerber Fmt 4.6, Leading zero omitted, Abs format (unit mm)*
G04 Created by KiCad (PCBNEW 7.0.6) date 2024-04-24 00:37:06*
%MOMM*%
%LPD*%
G01*
G04 APERTURE LIST*
G04 APERTURE END LIST*
G36*
X166625709Y-93005089D02*
G01*
X166661157Y-93005089D01*
X166689967Y-93013548D01*
X166719307Y-93017411D01*
X166758718Y-93033735D01*
X166797708Y-93045184D01*
X166818287Y-93058409D01*
X166839806Y-93067323D01*
X166879235Y-93097578D01*
X166917430Y-93122125D01*
X166929743Y-93136335D01*
X166943278Y-93146721D01*
X166978368Y-93192451D01*
X167010627Y-93229680D01*
X167016054Y-93241565D01*
X167022675Y-93250193D01*
X167048818Y-93313308D01*
X167069746Y-93359134D01*
X167070780Y-93366329D01*
X167072588Y-93370693D01*
X167085390Y-93467941D01*
X167090000Y-93500000D01*
X167085390Y-93532058D01*
X167072588Y-93629307D01*
X167070780Y-93633670D01*
X167069746Y-93640866D01*
X167048821Y-93686684D01*
X167022676Y-93749806D01*
X167016054Y-93758435D01*
X167010627Y-93770320D01*
X166978365Y-93807551D01*
X166943278Y-93853278D01*
X166929745Y-93863661D01*
X166917430Y-93877875D01*
X166879227Y-93902426D01*
X166839806Y-93932676D01*
X166818292Y-93941587D01*
X166797708Y-93954816D01*
X166758709Y-93966266D01*
X166719307Y-93982588D01*
X166689973Y-93986449D01*
X166661157Y-93994911D01*
X166625701Y-93994911D01*
X166590000Y-93999611D01*
X166554298Y-93994911D01*
X166518843Y-93994911D01*
X166490027Y-93986449D01*
X166460692Y-93982588D01*
X166421286Y-93966265D01*
X166382292Y-93954816D01*
X166361709Y-93941588D01*
X166340193Y-93932676D01*
X166300766Y-93902422D01*
X166262570Y-93877875D01*
X166250256Y-93863663D01*
X166236721Y-93853278D01*
X166201625Y-93807541D01*
X166169373Y-93770320D01*
X166163946Y-93758438D01*
X166157323Y-93749806D01*
X166131167Y-93686661D01*
X166110254Y-93640866D01*
X166109219Y-93633674D01*
X166107411Y-93629307D01*
X166094597Y-93531976D01*
X166090000Y-93500000D01*
X166094597Y-93468023D01*
X166107411Y-93370693D01*
X166109219Y-93366325D01*
X166110254Y-93359134D01*
X166131170Y-93313332D01*
X166157324Y-93250193D01*
X166163946Y-93241562D01*
X166169373Y-93229680D01*
X166201622Y-93192461D01*
X166236721Y-93146721D01*
X166250258Y-93136333D01*
X166262570Y-93122125D01*
X166300763Y-93097579D01*
X166340193Y-93067324D01*
X166361709Y-93058411D01*
X166382292Y-93045184D01*
X166421283Y-93033735D01*
X166460693Y-93017411D01*
X166490032Y-93013548D01*
X166518843Y-93005089D01*
X166554291Y-93005089D01*
X166590000Y-93000388D01*
X166625709Y-93005089D01*
G37*
G36*
X163573093Y-92653539D02*
G01*
X163635057Y-92694943D01*
X163676461Y-92756907D01*
X163691000Y-92830000D01*
X163691000Y-93170000D01*
X163676461Y-93243093D01*
X163635057Y-93305057D01*
X163573093Y-93346461D01*
X163500000Y-93361000D01*
X163220000Y-93361000D01*
X163146907Y-93346461D01*
X163084943Y-93305057D01*
X163043539Y-93243093D01*
X163029000Y-93170000D01*
X163029000Y-92830000D01*
X163043539Y-92756907D01*
X163084943Y-92694943D01*
X163146907Y-92653539D01*
X163220000Y-92639000D01*
X163500000Y-92639000D01*
X163573093Y-92653539D01*
G37*
G36*
X164533093Y-92653539D02*
G01*
X164595057Y-92694943D01*
X164636461Y-92756907D01*
X164651000Y-92830000D01*
X164651000Y-93170000D01*
X164636461Y-93243093D01*
X164595057Y-93305057D01*
X164533093Y-93346461D01*
X164460000Y-93361000D01*
X164180000Y-93361000D01*
X164106907Y-93346461D01*
X164044943Y-93305057D01*
X164003539Y-93243093D01*
X163989000Y-93170000D01*
X163989000Y-92830000D01*
X164003539Y-92756907D01*
X164044943Y-92694943D01*
X164106907Y-92653539D01*
X164180000Y-92639000D01*
X164460000Y-92639000D01*
X164533093Y-92653539D01*
G37*
G36*
X161134517Y-91227882D02*
G01*
X161151062Y-91238938D01*
X161162118Y-91255483D01*
X161166000Y-91275000D01*
X161166000Y-93275000D01*
X161162118Y-93294517D01*
X161151062Y-93311062D01*
X161134517Y-93322118D01*
X161115000Y-93326000D01*
X157315000Y-93326000D01*
X157295483Y-93322118D01*
X157278938Y-93311062D01*
X157267882Y-93294517D01*
X157264000Y-93275000D01*
X157264000Y-91275000D01*
X157267882Y-91255483D01*
X157278938Y-91238938D01*
X157295483Y-91227882D01*
X157315000Y-91224000D01*
X161115000Y-91224000D01*
X161134517Y-91227882D01*
G37*
G36*
X167048034Y-91846109D02*
G01*
X167108377Y-91886429D01*
X167148697Y-91946772D01*
X167162855Y-92017951D01*
X167162855Y-92387951D01*
X167148697Y-92459130D01*
X167108377Y-92519473D01*
X167048034Y-92559793D01*
X166976855Y-92573951D01*
X166706855Y-92573951D01*
X166635676Y-92559793D01*
X166575333Y-92519473D01*
X166535013Y-92459130D01*
X166520855Y-92387951D01*
X166520855Y-92017951D01*
X166535013Y-91946772D01*
X166575333Y-91886429D01*
X166635676Y-91846109D01*
X166706855Y-91831951D01*
X166976855Y-91831951D01*
X167048034Y-91846109D01*
G37*
G36*
X168068034Y-91846109D02*
G01*
X168128377Y-91886429D01*
X168168697Y-91946772D01*
X168182855Y-92017951D01*
X168182855Y-92387951D01*
X168168697Y-92459130D01*
X168128377Y-92519473D01*
X168068034Y-92559793D01*
X167996855Y-92573951D01*
X167726855Y-92573951D01*
X167655676Y-92559793D01*
X167595333Y-92519473D01*
X167555013Y-92459130D01*
X167540855Y-92387951D01*
X167540855Y-92017951D01*
X167555013Y-91946772D01*
X167595333Y-91886429D01*
X167655676Y-91846109D01*
X167726855Y-91831951D01*
X167996855Y-91831951D01*
X168068034Y-91846109D01*
G37*
G36*
X166096179Y-91578158D02*
G01*
X166156522Y-91618478D01*
X166196842Y-91678821D01*
X166211000Y-91750000D01*
X166211000Y-92020000D01*
X166196842Y-92091179D01*
X166156522Y-92151522D01*
X166096179Y-92191842D01*
X166025000Y-92206000D01*
X165655000Y-92206000D01*
X165583821Y-92191842D01*
X165523478Y-92151522D01*
X165483158Y-92091179D01*
X165469000Y-92020000D01*
X165469000Y-91750000D01*
X165483158Y-91678821D01*
X165523478Y-91618478D01*
X165583821Y-91578158D01*
X165655000Y-91564000D01*
X166025000Y-91564000D01*
X166096179Y-91578158D01*
G37*
G36*
X164859517Y-90852882D02*
G01*
X164876062Y-90863938D01*
X164887118Y-90880483D01*
X164891000Y-90900000D01*
X164891000Y-91900000D01*
X164887118Y-91919517D01*
X164876062Y-91936062D01*
X164859517Y-91947118D01*
X164840000Y-91951000D01*
X163340000Y-91951000D01*
X163320483Y-91947118D01*
X163303938Y-91936062D01*
X163292882Y-91919517D01*
X163289000Y-91900000D01*
X163289000Y-90900000D01*
X163292882Y-90880483D01*
X163303938Y-90863938D01*
X163320483Y-90852882D01*
X163340000Y-90849000D01*
X164840000Y-90849000D01*
X164859517Y-90852882D01*
G37*
G36*
X168728651Y-90475438D02*
G01*
X168761418Y-90497332D01*
X168783312Y-90530099D01*
X168791000Y-90568750D01*
X168791000Y-91343750D01*
X168783312Y-91382401D01*
X168761418Y-91415168D01*
X168728651Y-91437062D01*
X168690000Y-91444750D01*
X168590000Y-91444750D01*
X168551349Y-91437062D01*
X168518582Y-91415168D01*
X168496688Y-91382401D01*
X168489000Y-91343750D01*
X168489000Y-90568750D01*
X168496688Y-90530099D01*
X168518582Y-90497332D01*
X168551349Y-90475438D01*
X168590000Y-90467750D01*
X168690000Y-90467750D01*
X168728651Y-90475438D01*
G37*
G36*
X169128651Y-90475438D02*
G01*
X169161418Y-90497332D01*
X169183312Y-90530099D01*
X169191000Y-90568750D01*
X169191000Y-91343750D01*
X169183312Y-91382401D01*
X169161418Y-91415168D01*
X169128651Y-91437062D01*
X169090000Y-91444750D01*
X168990000Y-91444750D01*
X168951349Y-91437062D01*
X168918582Y-91415168D01*
X168896688Y-91382401D01*
X168889000Y-91343750D01*
X168889000Y-90568750D01*
X168896688Y-90530099D01*
X168918582Y-90497332D01*
X168951349Y-90475438D01*
X168990000Y-90467750D01*
X169090000Y-90467750D01*
X169128651Y-90475438D01*
G37*
G36*
X169528651Y-90475438D02*
G01*
X169561418Y-90497332D01*
X169583312Y-90530099D01*
X169591000Y-90568750D01*
X169591000Y-91343750D01*
X169583312Y-91382401D01*
X169561418Y-91415168D01*
X169528651Y-91437062D01*
X169490000Y-91444750D01*
X169390000Y-91444750D01*
X169351349Y-91437062D01*
X169318582Y-91415168D01*
X169296688Y-91382401D01*
X169289000Y-91343750D01*
X169289000Y-90568750D01*
X169296688Y-90530099D01*
X169318582Y-90497332D01*
X169351349Y-90475438D01*
X169390000Y-90467750D01*
X169490000Y-90467750D01*
X169528651Y-90475438D01*
G37*
G36*
X169928651Y-90475438D02*
G01*
X169961418Y-90497332D01*
X169983312Y-90530099D01*
X169991000Y-90568750D01*
X169991000Y-91343750D01*
X169983312Y-91382401D01*
X169961418Y-91415168D01*
X169928651Y-91437062D01*
X169890000Y-91444750D01*
X169790000Y-91444750D01*
X169751349Y-91437062D01*
X169718582Y-91415168D01*
X169696688Y-91382401D01*
X169689000Y-91343750D01*
X169689000Y-90568750D01*
X169696688Y-90530099D01*
X169718582Y-90497332D01*
X169751349Y-90475438D01*
X169790000Y-90467750D01*
X169890000Y-90467750D01*
X169928651Y-90475438D01*
G37*
G36*
X170328651Y-90475438D02*
G01*
X170361418Y-90497332D01*
X170383312Y-90530099D01*
X170391000Y-90568750D01*
X170391000Y-91343750D01*
X170383312Y-91382401D01*
X170361418Y-91415168D01*
X170328651Y-91437062D01*
X170290000Y-91444750D01*
X170190000Y-91444750D01*
X170151349Y-91437062D01*
X170118582Y-91415168D01*
X170096688Y-91382401D01*
X170089000Y-91343750D01*
X170089000Y-90568750D01*
X170096688Y-90530099D01*
X170118582Y-90497332D01*
X170151349Y-90475438D01*
X170190000Y-90467750D01*
X170290000Y-90467750D01*
X170328651Y-90475438D01*
G37*
G36*
X170728651Y-90475438D02*
G01*
X170761418Y-90497332D01*
X170783312Y-90530099D01*
X170791000Y-90568750D01*
X170791000Y-91343750D01*
X170783312Y-91382401D01*
X170761418Y-91415168D01*
X170728651Y-91437062D01*
X170690000Y-91444750D01*
X170590000Y-91444750D01*
X170551349Y-91437062D01*
X170518582Y-91415168D01*
X170496688Y-91382401D01*
X170489000Y-91343750D01*
X170489000Y-90568750D01*
X170496688Y-90530099D01*
X170518582Y-90497332D01*
X170551349Y-90475438D01*
X170590000Y-90467750D01*
X170690000Y-90467750D01*
X170728651Y-90475438D01*
G37*
G36*
X171128651Y-90475438D02*
G01*
X171161418Y-90497332D01*
X171183312Y-90530099D01*
X171191000Y-90568750D01*
X171191000Y-91343750D01*
X171183312Y-91382401D01*
X171161418Y-91415168D01*
X171128651Y-91437062D01*
X171090000Y-91444750D01*
X170990000Y-91444750D01*
X170951349Y-91437062D01*
X170918582Y-91415168D01*
X170896688Y-91382401D01*
X170889000Y-91343750D01*
X170889000Y-90568750D01*
X170896688Y-90530099D01*
X170918582Y-90497332D01*
X170951349Y-90475438D01*
X170990000Y-90467750D01*
X171090000Y-90467750D01*
X171128651Y-90475438D01*
G37*
G36*
X171528651Y-90475438D02*
G01*
X171561418Y-90497332D01*
X171583312Y-90530099D01*
X171591000Y-90568750D01*
X171591000Y-91343750D01*
X171583312Y-91382401D01*
X171561418Y-91415168D01*
X171528651Y-91437062D01*
X171490000Y-91444750D01*
X171390000Y-91444750D01*
X171351349Y-91437062D01*
X171318582Y-91415168D01*
X171296688Y-91382401D01*
X171289000Y-91343750D01*
X171289000Y-90568750D01*
X171296688Y-90530099D01*
X171318582Y-90497332D01*
X171351349Y-90475438D01*
X171390000Y-90467750D01*
X171490000Y-90467750D01*
X171528651Y-90475438D01*
G37*
G36*
X171928651Y-90475438D02*
G01*
X171961418Y-90497332D01*
X171983312Y-90530099D01*
X171991000Y-90568750D01*
X171991000Y-91343750D01*
X171983312Y-91382401D01*
X171961418Y-91415168D01*
X171928651Y-91437062D01*
X171890000Y-91444750D01*
X171790000Y-91444750D01*
X171751349Y-91437062D01*
X171718582Y-91415168D01*
X171696688Y-91382401D01*
X171689000Y-91343750D01*
X171689000Y-90568750D01*
X171696688Y-90530099D01*
X171718582Y-90497332D01*
X171751349Y-90475438D01*
X171790000Y-90467750D01*
X171890000Y-90467750D01*
X171928651Y-90475438D01*
G37*
G36*
X172328651Y-90475438D02*
G01*
X172361418Y-90497332D01*
X172383312Y-90530099D01*
X172391000Y-90568750D01*
X172391000Y-91343750D01*
X172383312Y-91382401D01*
X172361418Y-91415168D01*
X172328651Y-91437062D01*
X172290000Y-91444750D01*
X172190000Y-91444750D01*
X172151349Y-91437062D01*
X172118582Y-91415168D01*
X172096688Y-91382401D01*
X172089000Y-91343750D01*
X172089000Y-90568750D01*
X172096688Y-90530099D01*
X172118582Y-90497332D01*
X172151349Y-90475438D01*
X172190000Y-90467750D01*
X172290000Y-90467750D01*
X172328651Y-90475438D01*
G37*
G36*
X172728651Y-90475438D02*
G01*
X172761418Y-90497332D01*
X172783312Y-90530099D01*
X172791000Y-90568750D01*
X172791000Y-91343750D01*
X172783312Y-91382401D01*
X172761418Y-91415168D01*
X172728651Y-91437062D01*
X172690000Y-91444750D01*
X172590000Y-91444750D01*
X172551349Y-91437062D01*
X172518582Y-91415168D01*
X172496688Y-91382401D01*
X172489000Y-91343750D01*
X172489000Y-90568750D01*
X172496688Y-90530099D01*
X172518582Y-90497332D01*
X172551349Y-90475438D01*
X172590000Y-90467750D01*
X172690000Y-90467750D01*
X172728651Y-90475438D01*
G37*
G36*
X173128651Y-90475438D02*
G01*
X173161418Y-90497332D01*
X173183312Y-90530099D01*
X173191000Y-90568750D01*
X173191000Y-91343750D01*
X173183312Y-91382401D01*
X173161418Y-91415168D01*
X173128651Y-91437062D01*
X173090000Y-91444750D01*
X172990000Y-91444750D01*
X172951349Y-91437062D01*
X172918582Y-91415168D01*
X172896688Y-91382401D01*
X172889000Y-91343750D01*
X172889000Y-90568750D01*
X172896688Y-90530099D01*
X172918582Y-90497332D01*
X172951349Y-90475438D01*
X172990000Y-90467750D01*
X173090000Y-90467750D01*
X173128651Y-90475438D01*
G37*
G36*
X173528651Y-90475438D02*
G01*
X173561418Y-90497332D01*
X173583312Y-90530099D01*
X173591000Y-90568750D01*
X173591000Y-91343750D01*
X173583312Y-91382401D01*
X173561418Y-91415168D01*
X173528651Y-91437062D01*
X173490000Y-91444750D01*
X173390000Y-91444750D01*
X173351349Y-91437062D01*
X173318582Y-91415168D01*
X173296688Y-91382401D01*
X173289000Y-91343750D01*
X173289000Y-90568750D01*
X173296688Y-90530099D01*
X173318582Y-90497332D01*
X173351349Y-90475438D01*
X173390000Y-90467750D01*
X173490000Y-90467750D01*
X173528651Y-90475438D01*
G37*
G36*
X173928651Y-90475438D02*
G01*
X173961418Y-90497332D01*
X173983312Y-90530099D01*
X173991000Y-90568750D01*
X173991000Y-91343750D01*
X173983312Y-91382401D01*
X173961418Y-91415168D01*
X173928651Y-91437062D01*
X173890000Y-91444750D01*
X173790000Y-91444750D01*
X173751349Y-91437062D01*
X173718582Y-91415168D01*
X173696688Y-91382401D01*
X173689000Y-91343750D01*
X173689000Y-90568750D01*
X173696688Y-90530099D01*
X173718582Y-90497332D01*
X173751349Y-90475438D01*
X173790000Y-90467750D01*
X173890000Y-90467750D01*
X173928651Y-90475438D01*
G37*
G36*
X179428463Y-90600360D02*
G01*
X179492861Y-90643389D01*
X179535890Y-90707787D01*
X179551000Y-90783750D01*
X179551000Y-91128750D01*
X179535890Y-91204713D01*
X179492861Y-91269111D01*
X179428463Y-91312140D01*
X179352500Y-91327250D01*
X179057500Y-91327250D01*
X178981537Y-91312140D01*
X178917139Y-91269111D01*
X178874110Y-91204713D01*
X178859000Y-91128750D01*
X178859000Y-90783750D01*
X178874110Y-90707787D01*
X178917139Y-90643389D01*
X178981537Y-90600360D01*
X179057500Y-90585250D01*
X179352500Y-90585250D01*
X179428463Y-90600360D01*
G37*
G36*
X180398463Y-90600360D02*
G01*
X180462861Y-90643389D01*
X180505890Y-90707787D01*
X180521000Y-90783750D01*
X180521000Y-91128750D01*
X180505890Y-91204713D01*
X180462861Y-91269111D01*
X180398463Y-91312140D01*
X180322500Y-91327250D01*
X180027500Y-91327250D01*
X179951537Y-91312140D01*
X179887139Y-91269111D01*
X179844110Y-91204713D01*
X179829000Y-91128750D01*
X179829000Y-90783750D01*
X179844110Y-90707787D01*
X179887139Y-90643389D01*
X179951537Y-90600360D01*
X180027500Y-90585250D01*
X180322500Y-90585250D01*
X180398463Y-90600360D01*
G37*
G36*
X166096179Y-90558158D02*
G01*
X166156522Y-90598478D01*
X166196842Y-90658821D01*
X166211000Y-90730000D01*
X166211000Y-91000000D01*
X166196842Y-91071179D01*
X166156522Y-91131522D01*
X166096179Y-91171842D01*
X166025000Y-91186000D01*
X165655000Y-91186000D01*
X165583821Y-91171842D01*
X165523478Y-91131522D01*
X165483158Y-91071179D01*
X165469000Y-91000000D01*
X165469000Y-90730000D01*
X165483158Y-90658821D01*
X165523478Y-90598478D01*
X165583821Y-90558158D01*
X165655000Y-90544000D01*
X166025000Y-90544000D01*
X166096179Y-90558158D01*
G37*
G36*
X164859517Y-89552882D02*
G01*
X164876062Y-89563938D01*
X164887118Y-89580483D01*
X164891000Y-89600000D01*
X164891000Y-90600000D01*
X164887118Y-90619517D01*
X164876062Y-90636062D01*
X164859517Y-90647118D01*
X164840000Y-90651000D01*
X163340000Y-90651000D01*
X163320483Y-90647118D01*
X163303938Y-90636062D01*
X163292882Y-90619517D01*
X163289000Y-90600000D01*
X163289000Y-89600000D01*
X163292882Y-89580483D01*
X163303938Y-89563938D01*
X163320483Y-89552882D01*
X163340000Y-89549000D01*
X164840000Y-89549000D01*
X164859517Y-89552882D01*
G37*
G36*
X168228651Y-89975438D02*
G01*
X168261418Y-89997332D01*
X168283312Y-90030099D01*
X168291000Y-90068750D01*
X168291000Y-90168750D01*
X168283312Y-90207401D01*
X168261418Y-90240168D01*
X168228651Y-90262062D01*
X168190000Y-90269750D01*
X167415000Y-90269750D01*
X167376349Y-90262062D01*
X167343582Y-90240168D01*
X167321688Y-90207401D01*
X167314000Y-90168750D01*
X167314000Y-90068750D01*
X167321688Y-90030099D01*
X167343582Y-89997332D01*
X167376349Y-89975438D01*
X167415000Y-89967750D01*
X168190000Y-89967750D01*
X168228651Y-89975438D01*
G37*
G36*
X175103651Y-89975438D02*
G01*
X175136418Y-89997332D01*
X175158312Y-90030099D01*
X175166000Y-90068750D01*
X175166000Y-90168750D01*
X175158312Y-90207401D01*
X175136418Y-90240168D01*
X175103651Y-90262062D01*
X175065000Y-90269750D01*
X174290000Y-90269750D01*
X174251349Y-90262062D01*
X174218582Y-90240168D01*
X174196688Y-90207401D01*
X174189000Y-90168750D01*
X174189000Y-90068750D01*
X174196688Y-90030099D01*
X174218582Y-89997332D01*
X174251349Y-89975438D01*
X174290000Y-89967750D01*
X175065000Y-89967750D01*
X175103651Y-89975438D01*
G37*
G36*
X179154817Y-88671132D02*
G01*
X179171362Y-88682188D01*
X179182418Y-88698733D01*
X179186300Y-88718250D01*
X179186300Y-89962850D01*
X179182418Y-89982367D01*
X179171362Y-89998912D01*
X179154817Y-90009968D01*
X179135300Y-90013850D01*
X178144700Y-90013850D01*
X178125183Y-90009968D01*
X178108638Y-89998912D01*
X178097582Y-89982367D01*
X178093700Y-89962850D01*
X178093700Y-88718250D01*
X178097582Y-88698733D01*
X178108638Y-88682188D01*
X178125183Y-88671132D01*
X178144700Y-88667250D01*
X179135300Y-88667250D01*
X179154817Y-88671132D01*
G37*
G36*
X180754817Y-88671132D02*
G01*
X180771362Y-88682188D01*
X180782418Y-88698733D01*
X180786300Y-88718250D01*
X180786300Y-89962850D01*
X180782418Y-89982367D01*
X180771362Y-89998912D01*
X180754817Y-90009968D01*
X180735300Y-90013850D01*
X179744700Y-90013850D01*
X179725183Y-90009968D01*
X179708638Y-89998912D01*
X179697582Y-89982367D01*
X179693700Y-89962850D01*
X179693700Y-88718250D01*
X179697582Y-88698733D01*
X179708638Y-88682188D01*
X179725183Y-88671132D01*
X179744700Y-88667250D01*
X180735300Y-88667250D01*
X180754817Y-88671132D01*
G37*
G36*
X168228651Y-89575438D02*
G01*
X168261418Y-89597332D01*
X168283312Y-89630099D01*
X168291000Y-89668750D01*
X168291000Y-89768750D01*
X168283312Y-89807401D01*
X168261418Y-89840168D01*
X168228651Y-89862062D01*
X168190000Y-89869750D01*
X167415000Y-89869750D01*
X167376349Y-89862062D01*
X167343582Y-89840168D01*
X167321688Y-89807401D01*
X167314000Y-89768750D01*
X167314000Y-89668750D01*
X167321688Y-89630099D01*
X167343582Y-89597332D01*
X167376349Y-89575438D01*
X167415000Y-89567750D01*
X168190000Y-89567750D01*
X168228651Y-89575438D01*
G37*
G36*
X175103651Y-89575438D02*
G01*
X175136418Y-89597332D01*
X175158312Y-89630099D01*
X175166000Y-89668750D01*
X175166000Y-89768750D01*
X175158312Y-89807401D01*
X175136418Y-89840168D01*
X175103651Y-89862062D01*
X175065000Y-89869750D01*
X174290000Y-89869750D01*
X174251349Y-89862062D01*
X174218582Y-89840168D01*
X174196688Y-89807401D01*
X174189000Y-89768750D01*
X174189000Y-89668750D01*
X174196688Y-89630099D01*
X174218582Y-89597332D01*
X174251349Y-89575438D01*
X174290000Y-89567750D01*
X175065000Y-89567750D01*
X175103651Y-89575438D01*
G37*
G36*
X168228651Y-89175438D02*
G01*
X168261418Y-89197332D01*
X168283312Y-89230099D01*
X168291000Y-89268750D01*
X168291000Y-89368750D01*
X168283312Y-89407401D01*
X168261418Y-89440168D01*
X168228651Y-89462062D01*
X168190000Y-89469750D01*
X167415000Y-89469750D01*
X167376349Y-89462062D01*
X167343582Y-89440168D01*
X167321688Y-89407401D01*
X167314000Y-89368750D01*
X167314000Y-89268750D01*
X167321688Y-89230099D01*
X167343582Y-89197332D01*
X167376349Y-89175438D01*
X167415000Y-89167750D01*
X168190000Y-89167750D01*
X168228651Y-89175438D01*
G37*
G36*
X175103651Y-89175438D02*
G01*
X175136418Y-89197332D01*
X175158312Y-89230099D01*
X175166000Y-89268750D01*
X175166000Y-89368750D01*
X175158312Y-89407401D01*
X175136418Y-89440168D01*
X175103651Y-89462062D01*
X175065000Y-89469750D01*
X174290000Y-89469750D01*
X174251349Y-89462062D01*
X174218582Y-89440168D01*
X174196688Y-89407401D01*
X174189000Y-89368750D01*
X174189000Y-89268750D01*
X174196688Y-89230099D01*
X174218582Y-89197332D01*
X174251349Y-89175438D01*
X174290000Y-89167750D01*
X175065000Y-89167750D01*
X175103651Y-89175438D01*
G37*
G36*
X172770623Y-85882593D02*
G01*
X172833886Y-85924864D01*
X172876157Y-85988127D01*
X172891000Y-86062750D01*
X172891000Y-88974750D01*
X172876157Y-89049373D01*
X172833886Y-89112636D01*
X172770623Y-89154907D01*
X172696000Y-89169750D01*
X169784000Y-89169750D01*
X169709377Y-89154907D01*
X169646114Y-89112636D01*
X169603843Y-89049373D01*
X169589000Y-88974750D01*
X169589000Y-86062750D01*
X169603843Y-85988127D01*
X169646114Y-85924864D01*
X169709377Y-85882593D01*
X169784000Y-85867750D01*
X172696000Y-85867750D01*
X172770623Y-85882593D01*
G37*
G36*
X168228651Y-88775438D02*
G01*
X168261418Y-88797332D01*
X168283312Y-88830099D01*
X168291000Y-88868750D01*
X168291000Y-88968750D01*
X168283312Y-89007401D01*
X168261418Y-89040168D01*
X168228651Y-89062062D01*
X168190000Y-89069750D01*
X167415000Y-89069750D01*
X167376349Y-89062062D01*
X167343582Y-89040168D01*
X167321688Y-89007401D01*
X167314000Y-88968750D01*
X167314000Y-88868750D01*
X167321688Y-88830099D01*
X167343582Y-88797332D01*
X167376349Y-88775438D01*
X167415000Y-88767750D01*
X168190000Y-88767750D01*
X168228651Y-88775438D01*
G37*
G36*
X175103651Y-88775438D02*
G01*
X175136418Y-88797332D01*
X175158312Y-88830099D01*
X175166000Y-88868750D01*
X175166000Y-88968750D01*
X175158312Y-89007401D01*
X175136418Y-89040168D01*
X175103651Y-89062062D01*
X175065000Y-89069750D01*
X174290000Y-89069750D01*
X174251349Y-89062062D01*
X174218582Y-89040168D01*
X174196688Y-89007401D01*
X174189000Y-88968750D01*
X174189000Y-88868750D01*
X174196688Y-88830099D01*
X174218582Y-88797332D01*
X174251349Y-88775438D01*
X174290000Y-88767750D01*
X175065000Y-88767750D01*
X175103651Y-88775438D01*
G37*
G36*
X168228651Y-88375438D02*
G01*
X168261418Y-88397332D01*
X168283312Y-88430099D01*
X168291000Y-88468750D01*
X168291000Y-88568750D01*
X168283312Y-88607401D01*
X168261418Y-88640168D01*
X168228651Y-88662062D01*
X168190000Y-88669750D01*
X167415000Y-88669750D01*
X167376349Y-88662062D01*
X167343582Y-88640168D01*
X167321688Y-88607401D01*
X167314000Y-88568750D01*
X167314000Y-88468750D01*
X167321688Y-88430099D01*
X167343582Y-88397332D01*
X167376349Y-88375438D01*
X167415000Y-88367750D01*
X168190000Y-88367750D01*
X168228651Y-88375438D01*
G37*
G36*
X175103651Y-88375438D02*
G01*
X175136418Y-88397332D01*
X175158312Y-88430099D01*
X175166000Y-88468750D01*
X175166000Y-88568750D01*
X175158312Y-88607401D01*
X175136418Y-88640168D01*
X175103651Y-88662062D01*
X175065000Y-88669750D01*
X174290000Y-88669750D01*
X174251349Y-88662062D01*
X174218582Y-88640168D01*
X174196688Y-88607401D01*
X174189000Y-88568750D01*
X174189000Y-88468750D01*
X174196688Y-88430099D01*
X174218582Y-88397332D01*
X174251349Y-88375438D01*
X174290000Y-88367750D01*
X175065000Y-88367750D01*
X175103651Y-88375438D01*
G37*
G36*
X168228651Y-87975438D02*
G01*
X168261418Y-87997332D01*
X168283312Y-88030099D01*
X168291000Y-88068750D01*
X168291000Y-88168750D01*
X168283312Y-88207401D01*
X168261418Y-88240168D01*
X168228651Y-88262062D01*
X168190000Y-88269750D01*
X167415000Y-88269750D01*
X167376349Y-88262062D01*
X167343582Y-88240168D01*
X167321688Y-88207401D01*
X167314000Y-88168750D01*
X167314000Y-88068750D01*
X167321688Y-88030099D01*
X167343582Y-87997332D01*
X167376349Y-87975438D01*
X167415000Y-87967750D01*
X168190000Y-87967750D01*
X168228651Y-87975438D01*
G37*
G36*
X175103651Y-87975438D02*
G01*
X175136418Y-87997332D01*
X175158312Y-88030099D01*
X175166000Y-88068750D01*
X175166000Y-88168750D01*
X175158312Y-88207401D01*
X175136418Y-88240168D01*
X175103651Y-88262062D01*
X175065000Y-88269750D01*
X174290000Y-88269750D01*
X174251349Y-88262062D01*
X174218582Y-88240168D01*
X174196688Y-88207401D01*
X174189000Y-88168750D01*
X174189000Y-88068750D01*
X174196688Y-88030099D01*
X174218582Y-87997332D01*
X174251349Y-87975438D01*
X174290000Y-87967750D01*
X175065000Y-87967750D01*
X175103651Y-87975438D01*
G37*
G36*
X165453463Y-87350360D02*
G01*
X165517861Y-87393389D01*
X165560890Y-87457787D01*
X165576000Y-87533750D01*
X165576000Y-87878750D01*
X165560890Y-87954713D01*
X165517861Y-88019111D01*
X165453463Y-88062140D01*
X165377500Y-88077250D01*
X165082500Y-88077250D01*
X165006537Y-88062140D01*
X164942139Y-88019111D01*
X164899110Y-87954713D01*
X164884000Y-87878750D01*
X164884000Y-87533750D01*
X164899110Y-87457787D01*
X164942139Y-87393389D01*
X165006537Y-87350360D01*
X165082500Y-87335250D01*
X165377500Y-87335250D01*
X165453463Y-87350360D01*
G37*
G36*
X166423463Y-87350360D02*
G01*
X166487861Y-87393389D01*
X166530890Y-87457787D01*
X166546000Y-87533750D01*
X166546000Y-87878750D01*
X166530890Y-87954713D01*
X166487861Y-88019111D01*
X166423463Y-88062140D01*
X166347500Y-88077250D01*
X166052500Y-88077250D01*
X165976537Y-88062140D01*
X165912139Y-88019111D01*
X165869110Y-87954713D01*
X165854000Y-87878750D01*
X165854000Y-87533750D01*
X165869110Y-87457787D01*
X165912139Y-87393389D01*
X165976537Y-87350360D01*
X166052500Y-87335250D01*
X166347500Y-87335250D01*
X166423463Y-87350360D01*
G37*
G36*
X168228651Y-87575438D02*
G01*
X168261418Y-87597332D01*
X168283312Y-87630099D01*
X168291000Y-87668750D01*
X168291000Y-87768750D01*
X168283312Y-87807401D01*
X168261418Y-87840168D01*
X168228651Y-87862062D01*
X168190000Y-87869750D01*
X167415000Y-87869750D01*
X167376349Y-87862062D01*
X167343582Y-87840168D01*
X167321688Y-87807401D01*
X167314000Y-87768750D01*
X167314000Y-87668750D01*
X167321688Y-87630099D01*
X167343582Y-87597332D01*
X167376349Y-87575438D01*
X167415000Y-87567750D01*
X168190000Y-87567750D01*
X168228651Y-87575438D01*
G37*
G36*
X175103651Y-87575438D02*
G01*
X175136418Y-87597332D01*
X175158312Y-87630099D01*
X175166000Y-87668750D01*
X175166000Y-87768750D01*
X175158312Y-87807401D01*
X175136418Y-87840168D01*
X175103651Y-87862062D01*
X175065000Y-87869750D01*
X174290000Y-87869750D01*
X174251349Y-87862062D01*
X174218582Y-87840168D01*
X174196688Y-87807401D01*
X174189000Y-87768750D01*
X174189000Y-87668750D01*
X174196688Y-87630099D01*
X174218582Y-87597332D01*
X174251349Y-87575438D01*
X174290000Y-87567750D01*
X175065000Y-87567750D01*
X175103651Y-87575438D01*
G37*
G36*
X176365200Y-86918758D02*
G01*
X176425543Y-86959078D01*
X176687172Y-87220707D01*
X176727492Y-87281050D01*
X176741650Y-87352229D01*
X176727492Y-87423409D01*
X176687172Y-87483751D01*
X176496253Y-87674670D01*
X176435911Y-87714990D01*
X176364731Y-87729148D01*
X176293552Y-87714990D01*
X176233209Y-87674670D01*
X175971580Y-87413041D01*
X175931260Y-87352698D01*
X175917102Y-87281519D01*
X175931260Y-87210339D01*
X175971580Y-87149997D01*
X176060330Y-87061247D01*
X176159365Y-86962211D01*
X176159368Y-86962208D01*
X176162499Y-86959078D01*
X176222841Y-86918758D01*
X176294021Y-86904600D01*
X176365200Y-86918758D01*
G37*
G36*
X168228651Y-87175438D02*
G01*
X168261418Y-87197332D01*
X168283312Y-87230099D01*
X168291000Y-87268750D01*
X168291000Y-87368750D01*
X168283312Y-87407401D01*
X168261418Y-87440168D01*
X168228651Y-87462062D01*
X168190000Y-87469750D01*
X167415000Y-87469750D01*
X167376349Y-87462062D01*
X167343582Y-87440168D01*
X167321688Y-87407401D01*
X167314000Y-87368750D01*
X167314000Y-87268750D01*
X167321688Y-87230099D01*
X167343582Y-87197332D01*
X167376349Y-87175438D01*
X167415000Y-87167750D01*
X168190000Y-87167750D01*
X168228651Y-87175438D01*
G37*
G36*
X175103651Y-87175438D02*
G01*
X175136418Y-87197332D01*
X175158312Y-87230099D01*
X175166000Y-87268750D01*
X175166000Y-87368750D01*
X175158312Y-87407401D01*
X175136418Y-87440168D01*
X175103651Y-87462062D01*
X175065000Y-87469750D01*
X174290000Y-87469750D01*
X174251349Y-87462062D01*
X174218582Y-87440168D01*
X174196688Y-87407401D01*
X174189000Y-87368750D01*
X174189000Y-87268750D01*
X174196688Y-87230099D01*
X174218582Y-87197332D01*
X174251349Y-87175438D01*
X174290000Y-87167750D01*
X175065000Y-87167750D01*
X175103651Y-87175438D01*
G37*
G36*
X179154817Y-85902532D02*
G01*
X179171362Y-85913588D01*
X179182418Y-85930133D01*
X179186300Y-85949650D01*
X179186300Y-87194250D01*
X179182418Y-87213767D01*
X179171362Y-87230312D01*
X179154817Y-87241368D01*
X179135300Y-87245250D01*
X178144700Y-87245250D01*
X178125183Y-87241368D01*
X178108638Y-87230312D01*
X178097582Y-87213767D01*
X178093700Y-87194250D01*
X178093700Y-85949650D01*
X178097582Y-85930133D01*
X178108638Y-85913588D01*
X178125183Y-85902532D01*
X178144700Y-85898650D01*
X179135300Y-85898650D01*
X179154817Y-85902532D01*
G37*
G36*
X180754817Y-85902532D02*
G01*
X180771362Y-85913588D01*
X180782418Y-85930133D01*
X180786300Y-85949650D01*
X180786300Y-87194250D01*
X180782418Y-87213767D01*
X180771362Y-87230312D01*
X180754817Y-87241368D01*
X180735300Y-87245250D01*
X179744700Y-87245250D01*
X179725183Y-87241368D01*
X179708638Y-87230312D01*
X179697582Y-87213767D01*
X179693700Y-87194250D01*
X179693700Y-85949650D01*
X179697582Y-85930133D01*
X179708638Y-85913588D01*
X179725183Y-85902532D01*
X179744700Y-85898650D01*
X180735300Y-85898650D01*
X180754817Y-85902532D01*
G37*
G36*
X168228651Y-86775438D02*
G01*
X168261418Y-86797332D01*
X168283312Y-86830099D01*
X168291000Y-86868750D01*
X168291000Y-86968750D01*
X168283312Y-87007401D01*
X168261418Y-87040168D01*
X168228651Y-87062062D01*
X168190000Y-87069750D01*
X167415000Y-87069750D01*
X167376349Y-87062062D01*
X167343582Y-87040168D01*
X167321688Y-87007401D01*
X167314000Y-86968750D01*
X167314000Y-86868750D01*
X167321688Y-86830099D01*
X167343582Y-86797332D01*
X167376349Y-86775438D01*
X167415000Y-86767750D01*
X168190000Y-86767750D01*
X168228651Y-86775438D01*
G37*
G36*
X175103651Y-86775438D02*
G01*
X175136418Y-86797332D01*
X175158312Y-86830099D01*
X175166000Y-86868750D01*
X175166000Y-86968750D01*
X175158312Y-87007401D01*
X175136418Y-87040168D01*
X175103651Y-87062062D01*
X175065000Y-87069750D01*
X174290000Y-87069750D01*
X174251349Y-87062062D01*
X174218582Y-87040168D01*
X174196688Y-87007401D01*
X174189000Y-86968750D01*
X174189000Y-86868750D01*
X174196688Y-86830099D01*
X174218582Y-86797332D01*
X174251349Y-86775438D01*
X174290000Y-86767750D01*
X175065000Y-86767750D01*
X175103651Y-86775438D01*
G37*
G36*
X165461179Y-86336908D02*
G01*
X165521522Y-86377228D01*
X165561842Y-86437571D01*
X165576000Y-86508750D01*
X165576000Y-86878750D01*
X165561842Y-86949929D01*
X165521522Y-87010272D01*
X165461179Y-87050592D01*
X165390000Y-87064750D01*
X165120000Y-87064750D01*
X165048821Y-87050592D01*
X164988478Y-87010272D01*
X164948158Y-86949929D01*
X164934000Y-86878750D01*
X164934000Y-86508750D01*
X164948158Y-86437571D01*
X164988478Y-86377228D01*
X165048821Y-86336908D01*
X165120000Y-86322750D01*
X165390000Y-86322750D01*
X165461179Y-86336908D01*
G37*
G36*
X166481179Y-86336908D02*
G01*
X166541522Y-86377228D01*
X166581842Y-86437571D01*
X166596000Y-86508750D01*
X166596000Y-86878750D01*
X166581842Y-86949929D01*
X166541522Y-87010272D01*
X166481179Y-87050592D01*
X166410000Y-87064750D01*
X166140000Y-87064750D01*
X166068821Y-87050592D01*
X166008478Y-87010272D01*
X165968158Y-86949929D01*
X165954000Y-86878750D01*
X165954000Y-86508750D01*
X165968158Y-86437571D01*
X166008478Y-86377228D01*
X166068821Y-86336908D01*
X166140000Y-86322750D01*
X166410000Y-86322750D01*
X166481179Y-86336908D01*
G37*
G36*
X157684517Y-84927882D02*
G01*
X157701062Y-84938938D01*
X157712118Y-84955483D01*
X157716000Y-84975000D01*
X157716000Y-86975000D01*
X157712118Y-86994517D01*
X157701062Y-87011062D01*
X157684517Y-87022118D01*
X157665000Y-87026000D01*
X156165000Y-87026000D01*
X156145483Y-87022118D01*
X156128938Y-87011062D01*
X156117882Y-86994517D01*
X156114000Y-86975000D01*
X156114000Y-84975000D01*
X156117882Y-84955483D01*
X156128938Y-84938938D01*
X156145483Y-84927882D01*
X156165000Y-84924000D01*
X157665000Y-84924000D01*
X157684517Y-84927882D01*
G37*
G36*
X159984517Y-84927882D02*
G01*
X160001062Y-84938938D01*
X160012118Y-84955483D01*
X160016000Y-84975000D01*
X160016000Y-86975000D01*
X160012118Y-86994517D01*
X160001062Y-87011062D01*
X159984517Y-87022118D01*
X159965000Y-87026000D01*
X158465000Y-87026000D01*
X158445483Y-87022118D01*
X158428938Y-87011062D01*
X158417882Y-86994517D01*
X158414000Y-86975000D01*
X158414000Y-84975000D01*
X158417882Y-84955483D01*
X158428938Y-84938938D01*
X158445483Y-84927882D01*
X158465000Y-84924000D01*
X159965000Y-84924000D01*
X159984517Y-84927882D01*
G37*
G36*
X162284517Y-84927882D02*
G01*
X162301062Y-84938938D01*
X162312118Y-84955483D01*
X162316000Y-84975000D01*
X162316000Y-86975000D01*
X162312118Y-86994517D01*
X162301062Y-87011062D01*
X162284517Y-87022118D01*
X162265000Y-87026000D01*
X160765000Y-87026000D01*
X160745483Y-87022118D01*
X160728938Y-87011062D01*
X160717882Y-86994517D01*
X160714000Y-86975000D01*
X160714000Y-84975000D01*
X160717882Y-84955483D01*
X160728938Y-84938938D01*
X160745483Y-84927882D01*
X160765000Y-84924000D01*
X162265000Y-84924000D01*
X162284517Y-84927882D01*
G37*
G36*
X177086448Y-86197510D02*
G01*
X177146791Y-86237830D01*
X177408420Y-86499459D01*
X177448740Y-86559802D01*
X177462898Y-86630981D01*
X177448740Y-86702161D01*
X177408420Y-86762503D01*
X177217501Y-86953422D01*
X177157159Y-86993742D01*
X177085979Y-87007900D01*
X177014800Y-86993742D01*
X176954457Y-86953422D01*
X176692828Y-86691793D01*
X176652508Y-86631450D01*
X176638350Y-86560271D01*
X176652508Y-86489091D01*
X176692828Y-86428749D01*
X176784669Y-86336908D01*
X176880613Y-86240963D01*
X176880616Y-86240960D01*
X176883747Y-86237830D01*
X176944089Y-86197510D01*
X177015269Y-86183352D01*
X177086448Y-86197510D01*
G37*
G36*
X168228651Y-86375438D02*
G01*
X168261418Y-86397332D01*
X168283312Y-86430099D01*
X168291000Y-86468750D01*
X168291000Y-86568750D01*
X168283312Y-86607401D01*
X168261418Y-86640168D01*
X168228651Y-86662062D01*
X168190000Y-86669750D01*
X167415000Y-86669750D01*
X167376349Y-86662062D01*
X167343582Y-86640168D01*
X167321688Y-86607401D01*
X167314000Y-86568750D01*
X167314000Y-86468750D01*
X167321688Y-86430099D01*
X167343582Y-86397332D01*
X167376349Y-86375438D01*
X167415000Y-86367750D01*
X168190000Y-86367750D01*
X168228651Y-86375438D01*
G37*
G36*
X175103651Y-86375438D02*
G01*
X175136418Y-86397332D01*
X175158312Y-86430099D01*
X175166000Y-86468750D01*
X175166000Y-86568750D01*
X175158312Y-86607401D01*
X175136418Y-86640168D01*
X175103651Y-86662062D01*
X175065000Y-86669750D01*
X174290000Y-86669750D01*
X174251349Y-86662062D01*
X174218582Y-86640168D01*
X174196688Y-86607401D01*
X174189000Y-86568750D01*
X174189000Y-86468750D01*
X174196688Y-86430099D01*
X174218582Y-86397332D01*
X174251349Y-86375438D01*
X174290000Y-86367750D01*
X175065000Y-86367750D01*
X175103651Y-86375438D01*
G37*
G36*
X168228651Y-85975438D02*
G01*
X168261418Y-85997332D01*
X168283312Y-86030099D01*
X168291000Y-86068750D01*
X168291000Y-86168750D01*
X168283312Y-86207401D01*
X168261418Y-86240168D01*
X168228651Y-86262062D01*
X168190000Y-86269750D01*
X167415000Y-86269750D01*
X167376349Y-86262062D01*
X167343582Y-86240168D01*
X167321688Y-86207401D01*
X167314000Y-86168750D01*
X167314000Y-86068750D01*
X167321688Y-86030099D01*
X167343582Y-85997332D01*
X167376349Y-85975438D01*
X167415000Y-85967750D01*
X168190000Y-85967750D01*
X168228651Y-85975438D01*
G37*
G36*
X175103651Y-85975438D02*
G01*
X175136418Y-85997332D01*
X175158312Y-86030099D01*
X175166000Y-86068750D01*
X175166000Y-86168750D01*
X175158312Y-86207401D01*
X175136418Y-86240168D01*
X175103651Y-86262062D01*
X175065000Y-86269750D01*
X174290000Y-86269750D01*
X174251349Y-86262062D01*
X174218582Y-86240168D01*
X174196688Y-86207401D01*
X174189000Y-86168750D01*
X174189000Y-86068750D01*
X174196688Y-86030099D01*
X174218582Y-85997332D01*
X174251349Y-85975438D01*
X174290000Y-85967750D01*
X175065000Y-85967750D01*
X175103651Y-85975438D01*
G37*
G36*
X165461179Y-85336908D02*
G01*
X165521522Y-85377228D01*
X165561842Y-85437571D01*
X165576000Y-85508750D01*
X165576000Y-85878750D01*
X165561842Y-85949929D01*
X165521522Y-86010272D01*
X165461179Y-86050592D01*
X165390000Y-86064750D01*
X165120000Y-86064750D01*
X165048821Y-86050592D01*
X164988478Y-86010272D01*
X164948158Y-85949929D01*
X164934000Y-85878750D01*
X164934000Y-85508750D01*
X164948158Y-85437571D01*
X164988478Y-85377228D01*
X165048821Y-85336908D01*
X165120000Y-85322750D01*
X165390000Y-85322750D01*
X165461179Y-85336908D01*
G37*
G36*
X166481179Y-85336908D02*
G01*
X166541522Y-85377228D01*
X166581842Y-85437571D01*
X166596000Y-85508750D01*
X166596000Y-85878750D01*
X166581842Y-85949929D01*
X166541522Y-86010272D01*
X166481179Y-86050592D01*
X166410000Y-86064750D01*
X166140000Y-86064750D01*
X166068821Y-86050592D01*
X166008478Y-86010272D01*
X165968158Y-85949929D01*
X165954000Y-85878750D01*
X165954000Y-85508750D01*
X165968158Y-85437571D01*
X166008478Y-85377228D01*
X166068821Y-85336908D01*
X166140000Y-85322750D01*
X166410000Y-85322750D01*
X166481179Y-85336908D01*
G37*
G36*
X168228651Y-85575438D02*
G01*
X168261418Y-85597332D01*
X168283312Y-85630099D01*
X168291000Y-85668750D01*
X168291000Y-85768750D01*
X168283312Y-85807401D01*
X168261418Y-85840168D01*
X168228651Y-85862062D01*
X168190000Y-85869750D01*
X167415000Y-85869750D01*
X167376349Y-85862062D01*
X167343582Y-85840168D01*
X167321688Y-85807401D01*
X167314000Y-85768750D01*
X167314000Y-85668750D01*
X167321688Y-85630099D01*
X167343582Y-85597332D01*
X167376349Y-85575438D01*
X167415000Y-85567750D01*
X168190000Y-85567750D01*
X168228651Y-85575438D01*
G37*
G36*
X175103651Y-85575438D02*
G01*
X175136418Y-85597332D01*
X175158312Y-85630099D01*
X175166000Y-85668750D01*
X175166000Y-85768750D01*
X175158312Y-85807401D01*
X175136418Y-85840168D01*
X175103651Y-85862062D01*
X175065000Y-85869750D01*
X174290000Y-85869750D01*
X174251349Y-85862062D01*
X174218582Y-85840168D01*
X174196688Y-85807401D01*
X174189000Y-85768750D01*
X174189000Y-85668750D01*
X174196688Y-85630099D01*
X174218582Y-85597332D01*
X174251349Y-85575438D01*
X174290000Y-85567750D01*
X175065000Y-85567750D01*
X175103651Y-85575438D01*
G37*
G36*
X176145044Y-84860360D02*
G01*
X176209442Y-84903389D01*
X176252471Y-84967787D01*
X176267581Y-85043750D01*
X176267581Y-85338750D01*
X176252471Y-85414713D01*
X176209442Y-85479111D01*
X176145044Y-85522140D01*
X176069081Y-85537250D01*
X175724081Y-85537250D01*
X175648118Y-85522140D01*
X175583720Y-85479111D01*
X175540691Y-85414713D01*
X175525581Y-85338750D01*
X175525581Y-85043750D01*
X175540691Y-84967787D01*
X175583720Y-84903389D01*
X175648118Y-84860360D01*
X175724081Y-84845250D01*
X176069081Y-84845250D01*
X176145044Y-84860360D01*
G37*
G36*
X168228651Y-85175438D02*
G01*
X168261418Y-85197332D01*
X168283312Y-85230099D01*
X168291000Y-85268750D01*
X168291000Y-85368750D01*
X168283312Y-85407401D01*
X168261418Y-85440168D01*
X168228651Y-85462062D01*
X168190000Y-85469750D01*
X167415000Y-85469750D01*
X167376349Y-85462062D01*
X167343582Y-85440168D01*
X167321688Y-85407401D01*
X167314000Y-85368750D01*
X167314000Y-85268750D01*
X167321688Y-85230099D01*
X167343582Y-85197332D01*
X167376349Y-85175438D01*
X167415000Y-85167750D01*
X168190000Y-85167750D01*
X168228651Y-85175438D01*
G37*
G36*
X175103651Y-85175438D02*
G01*
X175136418Y-85197332D01*
X175158312Y-85230099D01*
X175166000Y-85268750D01*
X175166000Y-85368750D01*
X175158312Y-85407401D01*
X175136418Y-85440168D01*
X175103651Y-85462062D01*
X175065000Y-85469750D01*
X174290000Y-85469750D01*
X174251349Y-85462062D01*
X174218582Y-85440168D01*
X174196688Y-85407401D01*
X174189000Y-85368750D01*
X174189000Y-85268750D01*
X174196688Y-85230099D01*
X174218582Y-85197332D01*
X174251349Y-85175438D01*
X174290000Y-85167750D01*
X175065000Y-85167750D01*
X175103651Y-85175438D01*
G37*
G36*
X178928463Y-84600360D02*
G01*
X178992861Y-84643389D01*
X179035890Y-84707787D01*
X179051000Y-84783750D01*
X179051000Y-85128750D01*
X179035890Y-85204713D01*
X178992861Y-85269111D01*
X178928463Y-85312140D01*
X178852500Y-85327250D01*
X178557500Y-85327250D01*
X178481537Y-85312140D01*
X178417139Y-85269111D01*
X178374110Y-85204713D01*
X178359000Y-85128750D01*
X178359000Y-84783750D01*
X178374110Y-84707787D01*
X178417139Y-84643389D01*
X178481537Y-84600360D01*
X178557500Y-84585250D01*
X178852500Y-84585250D01*
X178928463Y-84600360D01*
G37*
G36*
X179898463Y-84600360D02*
G01*
X179962861Y-84643389D01*
X180005890Y-84707787D01*
X180021000Y-84783750D01*
X180021000Y-85128750D01*
X180005890Y-85204713D01*
X179962861Y-85269111D01*
X179898463Y-85312140D01*
X179822500Y-85327250D01*
X179527500Y-85327250D01*
X179451537Y-85312140D01*
X179387139Y-85269111D01*
X179344110Y-85204713D01*
X179329000Y-85128750D01*
X179329000Y-84783750D01*
X179344110Y-84707787D01*
X179387139Y-84643389D01*
X179451537Y-84600360D01*
X179527500Y-84585250D01*
X179822500Y-84585250D01*
X179898463Y-84600360D01*
G37*
G36*
X168228651Y-84775438D02*
G01*
X168261418Y-84797332D01*
X168283312Y-84830099D01*
X168291000Y-84868750D01*
X168291000Y-84968750D01*
X168283312Y-85007401D01*
X168261418Y-85040168D01*
X168228651Y-85062062D01*
X168190000Y-85069750D01*
X167415000Y-85069750D01*
X167376349Y-85062062D01*
X167343582Y-85040168D01*
X167321688Y-85007401D01*
X167314000Y-84968750D01*
X167314000Y-84868750D01*
X167321688Y-84830099D01*
X167343582Y-84797332D01*
X167376349Y-84775438D01*
X167415000Y-84767750D01*
X168190000Y-84767750D01*
X168228651Y-84775438D01*
G37*
G36*
X175103651Y-84775438D02*
G01*
X175136418Y-84797332D01*
X175158312Y-84830099D01*
X175166000Y-84868750D01*
X175166000Y-84968750D01*
X175158312Y-85007401D01*
X175136418Y-85040168D01*
X175103651Y-85062062D01*
X175065000Y-85069750D01*
X174290000Y-85069750D01*
X174251349Y-85062062D01*
X174218582Y-85040168D01*
X174196688Y-85007401D01*
X174189000Y-84968750D01*
X174189000Y-84868750D01*
X174196688Y-84830099D01*
X174218582Y-84797332D01*
X174251349Y-84775438D01*
X174290000Y-84767750D01*
X175065000Y-84767750D01*
X175103651Y-84775438D01*
G37*
G36*
X165553463Y-84212860D02*
G01*
X165617861Y-84255889D01*
X165660890Y-84320287D01*
X165676000Y-84396250D01*
X165676000Y-84741250D01*
X165660890Y-84817213D01*
X165617861Y-84881611D01*
X165553463Y-84924640D01*
X165477500Y-84939750D01*
X165182500Y-84939750D01*
X165106537Y-84924640D01*
X165042139Y-84881611D01*
X164999110Y-84817213D01*
X164984000Y-84741250D01*
X164984000Y-84396250D01*
X164999110Y-84320287D01*
X165042139Y-84255889D01*
X165106537Y-84212860D01*
X165182500Y-84197750D01*
X165477500Y-84197750D01*
X165553463Y-84212860D01*
G37*
G36*
X166523463Y-84212860D02*
G01*
X166587861Y-84255889D01*
X166630890Y-84320287D01*
X166646000Y-84396250D01*
X166646000Y-84741250D01*
X166630890Y-84817213D01*
X166587861Y-84881611D01*
X166523463Y-84924640D01*
X166447500Y-84939750D01*
X166152500Y-84939750D01*
X166076537Y-84924640D01*
X166012139Y-84881611D01*
X165969110Y-84817213D01*
X165954000Y-84741250D01*
X165954000Y-84396250D01*
X165969110Y-84320287D01*
X166012139Y-84255889D01*
X166076537Y-84212860D01*
X166152500Y-84197750D01*
X166447500Y-84197750D01*
X166523463Y-84212860D01*
G37*
G36*
X168728651Y-83600438D02*
G01*
X168761418Y-83622332D01*
X168783312Y-83655099D01*
X168791000Y-83693750D01*
X168791000Y-84468750D01*
X168783312Y-84507401D01*
X168761418Y-84540168D01*
X168728651Y-84562062D01*
X168690000Y-84569750D01*
X168590000Y-84569750D01*
X168551349Y-84562062D01*
X168518582Y-84540168D01*
X168496688Y-84507401D01*
X168489000Y-84468750D01*
X168489000Y-83693750D01*
X168496688Y-83655099D01*
X168518582Y-83622332D01*
X168551349Y-83600438D01*
X168590000Y-83592750D01*
X168690000Y-83592750D01*
X168728651Y-83600438D01*
G37*
G36*
X169128651Y-83600438D02*
G01*
X169161418Y-83622332D01*
X169183312Y-83655099D01*
X169191000Y-83693750D01*
X169191000Y-84468750D01*
X169183312Y-84507401D01*
X169161418Y-84540168D01*
X169128651Y-84562062D01*
X169090000Y-84569750D01*
X168990000Y-84569750D01*
X168951349Y-84562062D01*
X168918582Y-84540168D01*
X168896688Y-84507401D01*
X168889000Y-84468750D01*
X168889000Y-83693750D01*
X168896688Y-83655099D01*
X168918582Y-83622332D01*
X168951349Y-83600438D01*
X168990000Y-83592750D01*
X169090000Y-83592750D01*
X169128651Y-83600438D01*
G37*
G36*
X169528651Y-83600438D02*
G01*
X169561418Y-83622332D01*
X169583312Y-83655099D01*
X169591000Y-83693750D01*
X169591000Y-84468750D01*
X169583312Y-84507401D01*
X169561418Y-84540168D01*
X169528651Y-84562062D01*
X169490000Y-84569750D01*
X169390000Y-84569750D01*
X169351349Y-84562062D01*
X169318582Y-84540168D01*
X169296688Y-84507401D01*
X169289000Y-84468750D01*
X169289000Y-83693750D01*
X169296688Y-83655099D01*
X169318582Y-83622332D01*
X169351349Y-83600438D01*
X169390000Y-83592750D01*
X169490000Y-83592750D01*
X169528651Y-83600438D01*
G37*
G36*
X169928651Y-83600438D02*
G01*
X169961418Y-83622332D01*
X169983312Y-83655099D01*
X169991000Y-83693750D01*
X169991000Y-84468750D01*
X169983312Y-84507401D01*
X169961418Y-84540168D01*
X169928651Y-84562062D01*
X169890000Y-84569750D01*
X169790000Y-84569750D01*
X169751349Y-84562062D01*
X169718582Y-84540168D01*
X169696688Y-84507401D01*
X169689000Y-84468750D01*
X169689000Y-83693750D01*
X169696688Y-83655099D01*
X169718582Y-83622332D01*
X169751349Y-83600438D01*
X169790000Y-83592750D01*
X169890000Y-83592750D01*
X169928651Y-83600438D01*
G37*
G36*
X170328651Y-83600438D02*
G01*
X170361418Y-83622332D01*
X170383312Y-83655099D01*
X170391000Y-83693750D01*
X170391000Y-84468750D01*
X170383312Y-84507401D01*
X170361418Y-84540168D01*
X170328651Y-84562062D01*
X170290000Y-84569750D01*
X170190000Y-84569750D01*
X170151349Y-84562062D01*
X170118582Y-84540168D01*
X170096688Y-84507401D01*
X170089000Y-84468750D01*
X170089000Y-83693750D01*
X170096688Y-83655099D01*
X170118582Y-83622332D01*
X170151349Y-83600438D01*
X170190000Y-83592750D01*
X170290000Y-83592750D01*
X170328651Y-83600438D01*
G37*
G36*
X170728651Y-83600438D02*
G01*
X170761418Y-83622332D01*
X170783312Y-83655099D01*
X170791000Y-83693750D01*
X170791000Y-84468750D01*
X170783312Y-84507401D01*
X170761418Y-84540168D01*
X170728651Y-84562062D01*
X170690000Y-84569750D01*
X170590000Y-84569750D01*
X170551349Y-84562062D01*
X170518582Y-84540168D01*
X170496688Y-84507401D01*
X170489000Y-84468750D01*
X170489000Y-83693750D01*
X170496688Y-83655099D01*
X170518582Y-83622332D01*
X170551349Y-83600438D01*
X170590000Y-83592750D01*
X170690000Y-83592750D01*
X170728651Y-83600438D01*
G37*
G36*
X171128651Y-83600438D02*
G01*
X171161418Y-83622332D01*
X171183312Y-83655099D01*
X171191000Y-83693750D01*
X171191000Y-84468750D01*
X171183312Y-84507401D01*
X171161418Y-84540168D01*
X171128651Y-84562062D01*
X171090000Y-84569750D01*
X170990000Y-84569750D01*
X170951349Y-84562062D01*
X170918582Y-84540168D01*
X170896688Y-84507401D01*
X170889000Y-84468750D01*
X170889000Y-83693750D01*
X170896688Y-83655099D01*
X170918582Y-83622332D01*
X170951349Y-83600438D01*
X170990000Y-83592750D01*
X171090000Y-83592750D01*
X171128651Y-83600438D01*
G37*
G36*
X171528651Y-83600438D02*
G01*
X171561418Y-83622332D01*
X171583312Y-83655099D01*
X171591000Y-83693750D01*
X171591000Y-84468750D01*
X171583312Y-84507401D01*
X171561418Y-84540168D01*
X171528651Y-84562062D01*
X171490000Y-84569750D01*
X171390000Y-84569750D01*
X171351349Y-84562062D01*
X171318582Y-84540168D01*
X171296688Y-84507401D01*
X171289000Y-84468750D01*
X171289000Y-83693750D01*
X171296688Y-83655099D01*
X171318582Y-83622332D01*
X171351349Y-83600438D01*
X171390000Y-83592750D01*
X171490000Y-83592750D01*
X171528651Y-83600438D01*
G37*
G36*
X171928651Y-83600438D02*
G01*
X171961418Y-83622332D01*
X171983312Y-83655099D01*
X171991000Y-83693750D01*
X171991000Y-84468750D01*
X171983312Y-84507401D01*
X171961418Y-84540168D01*
X171928651Y-84562062D01*
X171890000Y-84569750D01*
X171790000Y-84569750D01*
X171751349Y-84562062D01*
X171718582Y-84540168D01*
X171696688Y-84507401D01*
X171689000Y-84468750D01*
X171689000Y-83693750D01*
X171696688Y-83655099D01*
X171718582Y-83622332D01*
X171751349Y-83600438D01*
X171790000Y-83592750D01*
X171890000Y-83592750D01*
X171928651Y-83600438D01*
G37*
G36*
X172328651Y-83600438D02*
G01*
X172361418Y-83622332D01*
X172383312Y-83655099D01*
X172391000Y-83693750D01*
X172391000Y-84468750D01*
X172383312Y-84507401D01*
X172361418Y-84540168D01*
X172328651Y-84562062D01*
X172290000Y-84569750D01*
X172190000Y-84569750D01*
X172151349Y-84562062D01*
X172118582Y-84540168D01*
X172096688Y-84507401D01*
X172089000Y-84468750D01*
X172089000Y-83693750D01*
X172096688Y-83655099D01*
X172118582Y-83622332D01*
X172151349Y-83600438D01*
X172190000Y-83592750D01*
X172290000Y-83592750D01*
X172328651Y-83600438D01*
G37*
G36*
X172728651Y-83600438D02*
G01*
X172761418Y-83622332D01*
X172783312Y-83655099D01*
X172791000Y-83693750D01*
X172791000Y-84468750D01*
X172783312Y-84507401D01*
X172761418Y-84540168D01*
X172728651Y-84562062D01*
X172690000Y-84569750D01*
X172590000Y-84569750D01*
X172551349Y-84562062D01*
X172518582Y-84540168D01*
X172496688Y-84507401D01*
X172489000Y-84468750D01*
X172489000Y-83693750D01*
X172496688Y-83655099D01*
X172518582Y-83622332D01*
X172551349Y-83600438D01*
X172590000Y-83592750D01*
X172690000Y-83592750D01*
X172728651Y-83600438D01*
G37*
G36*
X173128651Y-83600438D02*
G01*
X173161418Y-83622332D01*
X173183312Y-83655099D01*
X173191000Y-83693750D01*
X173191000Y-84468750D01*
X173183312Y-84507401D01*
X173161418Y-84540168D01*
X173128651Y-84562062D01*
X173090000Y-84569750D01*
X172990000Y-84569750D01*
X172951349Y-84562062D01*
X172918582Y-84540168D01*
X172896688Y-84507401D01*
X172889000Y-84468750D01*
X172889000Y-83693750D01*
X172896688Y-83655099D01*
X172918582Y-83622332D01*
X172951349Y-83600438D01*
X172990000Y-83592750D01*
X173090000Y-83592750D01*
X173128651Y-83600438D01*
G37*
G36*
X173528651Y-83600438D02*
G01*
X173561418Y-83622332D01*
X173583312Y-83655099D01*
X173591000Y-83693750D01*
X173591000Y-84468750D01*
X173583312Y-84507401D01*
X173561418Y-84540168D01*
X173528651Y-84562062D01*
X173490000Y-84569750D01*
X173390000Y-84569750D01*
X173351349Y-84562062D01*
X173318582Y-84540168D01*
X173296688Y-84507401D01*
X173289000Y-84468750D01*
X173289000Y-83693750D01*
X173296688Y-83655099D01*
X173318582Y-83622332D01*
X173351349Y-83600438D01*
X173390000Y-83592750D01*
X173490000Y-83592750D01*
X173528651Y-83600438D01*
G37*
G36*
X173928651Y-83600438D02*
G01*
X173961418Y-83622332D01*
X173983312Y-83655099D01*
X173991000Y-83693750D01*
X173991000Y-84468750D01*
X173983312Y-84507401D01*
X173961418Y-84540168D01*
X173928651Y-84562062D01*
X173890000Y-84569750D01*
X173790000Y-84569750D01*
X173751349Y-84562062D01*
X173718582Y-84540168D01*
X173696688Y-84507401D01*
X173689000Y-84468750D01*
X173689000Y-83693750D01*
X173696688Y-83655099D01*
X173718582Y-83622332D01*
X173751349Y-83600438D01*
X173790000Y-83592750D01*
X173890000Y-83592750D01*
X173928651Y-83600438D01*
G37*
G36*
X176145044Y-83890360D02*
G01*
X176209442Y-83933389D01*
X176252471Y-83997787D01*
X176267581Y-84073750D01*
X176267581Y-84368750D01*
X176252471Y-84444713D01*
X176209442Y-84509111D01*
X176145044Y-84552140D01*
X176069081Y-84567250D01*
X175724081Y-84567250D01*
X175648118Y-84552140D01*
X175583720Y-84509111D01*
X175540691Y-84444713D01*
X175525581Y-84368750D01*
X175525581Y-84073750D01*
X175540691Y-83997787D01*
X175583720Y-83933389D01*
X175648118Y-83890360D01*
X175724081Y-83875250D01*
X176069081Y-83875250D01*
X176145044Y-83890360D01*
G37*
G36*
X157459360Y-82956548D02*
G01*
X157476144Y-82955493D01*
X157531393Y-82966032D01*
X157589080Y-82973627D01*
X157604338Y-82979947D01*
X157617883Y-82982531D01*
X157671589Y-83007803D01*
X157728000Y-83031169D01*
X157738711Y-83039388D01*
X157748446Y-83043969D01*
X157796628Y-83083829D01*
X157847294Y-83122706D01*
X157853675Y-83131023D01*
X157859623Y-83135943D01*
X157898328Y-83189215D01*
X157938831Y-83242000D01*
X157941684Y-83248889D01*
X157944440Y-83252682D01*
X157970079Y-83317440D01*
X157996373Y-83380920D01*
X157996951Y-83385313D01*
X157997557Y-83386843D01*
X158007160Y-83462858D01*
X158016000Y-83530000D01*
X158016000Y-83930000D01*
X158015829Y-83931292D01*
X158011459Y-84000761D01*
X158001659Y-84038927D01*
X157996373Y-84079080D01*
X157983157Y-84110985D01*
X157975218Y-84141907D01*
X157955470Y-84177827D01*
X157938831Y-84218000D01*
X157919629Y-84243024D01*
X157905705Y-84268353D01*
X157875572Y-84300440D01*
X157847294Y-84337294D01*
X157824642Y-84354674D01*
X157806928Y-84373539D01*
X157767204Y-84398748D01*
X157728000Y-84428831D01*
X157704397Y-84438607D01*
X157685097Y-84450856D01*
X157637452Y-84466336D01*
X157589080Y-84486373D01*
X157566731Y-84489315D01*
X157547863Y-84495446D01*
X157494814Y-84498783D01*
X157440000Y-84506000D01*
X157420633Y-84503450D01*
X157403855Y-84504506D01*
X157348620Y-84493969D01*
X157290920Y-84486373D01*
X157275657Y-84480051D01*
X157262116Y-84477468D01*
X157208420Y-84452200D01*
X157152000Y-84428831D01*
X157141286Y-84420610D01*
X157131553Y-84416030D01*
X157083374Y-84376172D01*
X157032706Y-84337294D01*
X157026323Y-84328976D01*
X157020376Y-84324056D01*
X156981666Y-84270777D01*
X156941169Y-84218000D01*
X156938315Y-84211110D01*
X156935559Y-84207317D01*
X156909907Y-84142526D01*
X156883627Y-84079080D01*
X156883048Y-84074688D01*
X156882442Y-84073156D01*
X156872835Y-83997112D01*
X156864000Y-83930000D01*
X156864000Y-83530000D01*
X156864169Y-83528708D01*
X156868540Y-83459238D01*
X156878342Y-83421062D01*
X156883627Y-83380920D01*
X156896839Y-83349022D01*
X156904781Y-83318092D01*
X156924534Y-83282160D01*
X156941169Y-83242000D01*
X156960365Y-83216982D01*
X156974294Y-83191646D01*
X157004436Y-83159547D01*
X157032706Y-83122706D01*
X157055350Y-83105330D01*
X157073071Y-83086460D01*
X157112808Y-83061241D01*
X157152000Y-83031169D01*
X157175594Y-83021395D01*
X157194902Y-83009143D01*
X157242562Y-82993657D01*
X157290920Y-82973627D01*
X157313261Y-82970685D01*
X157332136Y-82964553D01*
X157385201Y-82961214D01*
X157440000Y-82954000D01*
X157459360Y-82956548D01*
G37*
G36*
X162309360Y-82956548D02*
G01*
X162326144Y-82955493D01*
X162381393Y-82966032D01*
X162439080Y-82973627D01*
X162454338Y-82979947D01*
X162467883Y-82982531D01*
X162521589Y-83007803D01*
X162578000Y-83031169D01*
X162588711Y-83039388D01*
X162598446Y-83043969D01*
X162646628Y-83083829D01*
X162697294Y-83122706D01*
X162703675Y-83131023D01*
X162709623Y-83135943D01*
X162748328Y-83189215D01*
X162788831Y-83242000D01*
X162791684Y-83248889D01*
X162794440Y-83252682D01*
X162820079Y-83317440D01*
X162846373Y-83380920D01*
X162846951Y-83385313D01*
X162847557Y-83386843D01*
X162857160Y-83462858D01*
X162866000Y-83530000D01*
X162866000Y-83930000D01*
X162865829Y-83931292D01*
X162861459Y-84000761D01*
X162851659Y-84038927D01*
X162846373Y-84079080D01*
X162833157Y-84110985D01*
X162825218Y-84141907D01*
X162805470Y-84177827D01*
X162788831Y-84218000D01*
X162769629Y-84243024D01*
X162755705Y-84268353D01*
X162725572Y-84300440D01*
X162697294Y-84337294D01*
X162674642Y-84354674D01*
X162656928Y-84373539D01*
X162617204Y-84398748D01*
X162578000Y-84428831D01*
X162554397Y-84438607D01*
X162535097Y-84450856D01*
X162487452Y-84466336D01*
X162439080Y-84486373D01*
X162416731Y-84489315D01*
X162397863Y-84495446D01*
X162344814Y-84498783D01*
X162290000Y-84506000D01*
X162270633Y-84503450D01*
X162253855Y-84504506D01*
X162198620Y-84493969D01*
X162140920Y-84486373D01*
X162125657Y-84480051D01*
X162112116Y-84477468D01*
X162058420Y-84452200D01*
X162002000Y-84428831D01*
X161991286Y-84420610D01*
X161981553Y-84416030D01*
X161933374Y-84376172D01*
X161882706Y-84337294D01*
X161876323Y-84328976D01*
X161870376Y-84324056D01*
X161831666Y-84270777D01*
X161791169Y-84218000D01*
X161788315Y-84211110D01*
X161785559Y-84207317D01*
X161759907Y-84142526D01*
X161733627Y-84079080D01*
X161733048Y-84074688D01*
X161732442Y-84073156D01*
X161722835Y-83997112D01*
X161714000Y-83930000D01*
X161714000Y-83530000D01*
X161714169Y-83528708D01*
X161718540Y-83459238D01*
X161728342Y-83421062D01*
X161733627Y-83380920D01*
X161746839Y-83349022D01*
X161754781Y-83318092D01*
X161774534Y-83282160D01*
X161791169Y-83242000D01*
X161810365Y-83216982D01*
X161824294Y-83191646D01*
X161854436Y-83159547D01*
X161882706Y-83122706D01*
X161905350Y-83105330D01*
X161923071Y-83086460D01*
X161962808Y-83061241D01*
X162002000Y-83031169D01*
X162025594Y-83021395D01*
X162044902Y-83009143D01*
X162092562Y-82993657D01*
X162140920Y-82973627D01*
X162163261Y-82970685D01*
X162182136Y-82964553D01*
X162235201Y-82961214D01*
X162290000Y-82954000D01*
X162309360Y-82956548D01*
G37*
G36*
X185125709Y-83005089D02*
G01*
X185161157Y-83005089D01*
X185189967Y-83013548D01*
X185219307Y-83017411D01*
X185258718Y-83033735D01*
X185297708Y-83045184D01*
X185318287Y-83058409D01*
X185339806Y-83067323D01*
X185379235Y-83097578D01*
X185417430Y-83122125D01*
X185429743Y-83136335D01*
X185443278Y-83146721D01*
X185478368Y-83192451D01*
X185510627Y-83229680D01*
X185516054Y-83241565D01*
X185522675Y-83250193D01*
X185548818Y-83313308D01*
X185569746Y-83359134D01*
X185570780Y-83366329D01*
X185572588Y-83370693D01*
X185585390Y-83467941D01*
X185590000Y-83500000D01*
X185585390Y-83532058D01*
X185572588Y-83629307D01*
X185570780Y-83633670D01*
X185569746Y-83640866D01*
X185548821Y-83686684D01*
X185522676Y-83749806D01*
X185516054Y-83758435D01*
X185510627Y-83770320D01*
X185478365Y-83807551D01*
X185443278Y-83853278D01*
X185429745Y-83863661D01*
X185417430Y-83877875D01*
X185379227Y-83902426D01*
X185339806Y-83932676D01*
X185318292Y-83941587D01*
X185297708Y-83954816D01*
X185258709Y-83966266D01*
X185219307Y-83982588D01*
X185189973Y-83986449D01*
X185161157Y-83994911D01*
X185125701Y-83994911D01*
X185090000Y-83999611D01*
X185054298Y-83994911D01*
X185018843Y-83994911D01*
X184990027Y-83986449D01*
X184960692Y-83982588D01*
X184921286Y-83966265D01*
X184882292Y-83954816D01*
X184861709Y-83941588D01*
X184840193Y-83932676D01*
X184800766Y-83902422D01*
X184762570Y-83877875D01*
X184750256Y-83863663D01*
X184736721Y-83853278D01*
X184701625Y-83807541D01*
X184669373Y-83770320D01*
X184663946Y-83758438D01*
X184657323Y-83749806D01*
X184631167Y-83686661D01*
X184610254Y-83640866D01*
X184609219Y-83633674D01*
X184607411Y-83629307D01*
X184594597Y-83531976D01*
X184590000Y-83500000D01*
X184594597Y-83468023D01*
X184607411Y-83370693D01*
X184609219Y-83366325D01*
X184610254Y-83359134D01*
X184631170Y-83313332D01*
X184657324Y-83250193D01*
X184663946Y-83241562D01*
X184669373Y-83229680D01*
X184701622Y-83192461D01*
X184736721Y-83146721D01*
X184750258Y-83136333D01*
X184762570Y-83122125D01*
X184800763Y-83097579D01*
X184840193Y-83067324D01*
X184861709Y-83058411D01*
X184882292Y-83045184D01*
X184921283Y-83033735D01*
X184960693Y-83017411D01*
X184990032Y-83013548D01*
X185018843Y-83005089D01*
X185054291Y-83005089D01*
X185090000Y-83000388D01*
X185125709Y-83005089D01*
G37*
G36*
X165553463Y-83212860D02*
G01*
X165617861Y-83255889D01*
X165660890Y-83320287D01*
X165676000Y-83396250D01*
X165676000Y-83741250D01*
X165660890Y-83817213D01*
X165617861Y-83881611D01*
X165553463Y-83924640D01*
X165477500Y-83939750D01*
X165182500Y-83939750D01*
X165106537Y-83924640D01*
X165042139Y-83881611D01*
X164999110Y-83817213D01*
X164984000Y-83741250D01*
X164984000Y-83396250D01*
X164999110Y-83320287D01*
X165042139Y-83255889D01*
X165106537Y-83212860D01*
X165182500Y-83197750D01*
X165477500Y-83197750D01*
X165553463Y-83212860D01*
G37*
G36*
X166523463Y-83212860D02*
G01*
X166587861Y-83255889D01*
X166630890Y-83320287D01*
X166646000Y-83396250D01*
X166646000Y-83741250D01*
X166630890Y-83817213D01*
X166587861Y-83881611D01*
X166523463Y-83924640D01*
X166447500Y-83939750D01*
X166152500Y-83939750D01*
X166076537Y-83924640D01*
X166012139Y-83881611D01*
X165969110Y-83817213D01*
X165954000Y-83741250D01*
X165954000Y-83396250D01*
X165969110Y-83320287D01*
X166012139Y-83255889D01*
X166076537Y-83212860D01*
X166152500Y-83197750D01*
X166447500Y-83197750D01*
X166523463Y-83212860D01*
G37*
G36*
X159982609Y-82717775D02*
G01*
X160115500Y-82772820D01*
X160229616Y-82860384D01*
X160317180Y-82974500D01*
X160372225Y-83107391D01*
X160391000Y-83250000D01*
X160372225Y-83392609D01*
X160317180Y-83525500D01*
X160229616Y-83639616D01*
X160115500Y-83727180D01*
X159982609Y-83782225D01*
X159840000Y-83801000D01*
X159697391Y-83782225D01*
X159564500Y-83727180D01*
X159450384Y-83639616D01*
X159362820Y-83525500D01*
X159307775Y-83392609D01*
X159289000Y-83250000D01*
X159307775Y-83107391D01*
X159362820Y-82974500D01*
X159450384Y-82860384D01*
X159564500Y-82772820D01*
X159697391Y-82717775D01*
X159840000Y-82699000D01*
X159982609Y-82717775D01*
G37*
G36*
X177029011Y-82941586D02*
G01*
X177090975Y-82982990D01*
X177132379Y-83044954D01*
X177146918Y-83118047D01*
X177146918Y-83458047D01*
X177132379Y-83531140D01*
X177090975Y-83593104D01*
X177029011Y-83634508D01*
X176955918Y-83649047D01*
X176675918Y-83649047D01*
X176602825Y-83634508D01*
X176540861Y-83593104D01*
X176499457Y-83531140D01*
X176484918Y-83458047D01*
X176484918Y-83118047D01*
X176499457Y-83044954D01*
X176540861Y-82982990D01*
X176602825Y-82941586D01*
X176675918Y-82927047D01*
X176955918Y-82927047D01*
X177029011Y-82941586D01*
G37*
G36*
X177989011Y-82941586D02*
G01*
X178050975Y-82982990D01*
X178092379Y-83044954D01*
X178106918Y-83118047D01*
X178106918Y-83458047D01*
X178092379Y-83531140D01*
X178050975Y-83593104D01*
X177989011Y-83634508D01*
X177915918Y-83649047D01*
X177635918Y-83649047D01*
X177562825Y-83634508D01*
X177500861Y-83593104D01*
X177459457Y-83531140D01*
X177444918Y-83458047D01*
X177444918Y-83118047D01*
X177459457Y-83044954D01*
X177500861Y-82982990D01*
X177562825Y-82941586D01*
X177635918Y-82927047D01*
X177915918Y-82927047D01*
X177989011Y-82941586D01*
G37*
G36*
X169088716Y-82094282D02*
G01*
X169105261Y-82105338D01*
X169116317Y-82121883D01*
X169120199Y-82141400D01*
X169120199Y-82954200D01*
X169116317Y-82973717D01*
X169105261Y-82990262D01*
X169088716Y-83001318D01*
X169069199Y-83005200D01*
X168815199Y-83005200D01*
X168795682Y-83001318D01*
X168779137Y-82990262D01*
X168768081Y-82973717D01*
X168764199Y-82954200D01*
X168764199Y-82141400D01*
X168768081Y-82121883D01*
X168779137Y-82105338D01*
X168795682Y-82094282D01*
X168815199Y-82090400D01*
X169069199Y-82090400D01*
X169088716Y-82094282D01*
G37*
G36*
X169588717Y-82094282D02*
G01*
X169605262Y-82105338D01*
X169616318Y-82121883D01*
X169620200Y-82141400D01*
X169620200Y-82954200D01*
X169616318Y-82973717D01*
X169605262Y-82990262D01*
X169588717Y-83001318D01*
X169569200Y-83005200D01*
X169315200Y-83005200D01*
X169295683Y-83001318D01*
X169279138Y-82990262D01*
X169268082Y-82973717D01*
X169264200Y-82954200D01*
X169264200Y-82141400D01*
X169268082Y-82121883D01*
X169279138Y-82105338D01*
X169295683Y-82094282D01*
X169315200Y-82090400D01*
X169569200Y-82090400D01*
X169588717Y-82094282D01*
G37*
G36*
X170088717Y-82094282D02*
G01*
X170105262Y-82105338D01*
X170116318Y-82121883D01*
X170120200Y-82141400D01*
X170120200Y-82954200D01*
X170116318Y-82973717D01*
X170105262Y-82990262D01*
X170088717Y-83001318D01*
X170069200Y-83005200D01*
X169815200Y-83005200D01*
X169795683Y-83001318D01*
X169779138Y-82990262D01*
X169768082Y-82973717D01*
X169764200Y-82954200D01*
X169764200Y-82141400D01*
X169768082Y-82121883D01*
X169779138Y-82105338D01*
X169795683Y-82094282D01*
X169815200Y-82090400D01*
X170069200Y-82090400D01*
X170088717Y-82094282D01*
G37*
G36*
X170588718Y-82094282D02*
G01*
X170605263Y-82105338D01*
X170616319Y-82121883D01*
X170620201Y-82141400D01*
X170620201Y-82954200D01*
X170616319Y-82973717D01*
X170605263Y-82990262D01*
X170588718Y-83001318D01*
X170569201Y-83005200D01*
X170315201Y-83005200D01*
X170295684Y-83001318D01*
X170279139Y-82990262D01*
X170268083Y-82973717D01*
X170264201Y-82954200D01*
X170264201Y-82141400D01*
X170268083Y-82121883D01*
X170279139Y-82105338D01*
X170295684Y-82094282D01*
X170315201Y-82090400D01*
X170569201Y-82090400D01*
X170588718Y-82094282D01*
G37*
G36*
X165573093Y-82153539D02*
G01*
X165635057Y-82194943D01*
X165676461Y-82256907D01*
X165691000Y-82330000D01*
X165691000Y-82670000D01*
X165676461Y-82743093D01*
X165635057Y-82805057D01*
X165573093Y-82846461D01*
X165500000Y-82861000D01*
X165220000Y-82861000D01*
X165146907Y-82846461D01*
X165084943Y-82805057D01*
X165043539Y-82743093D01*
X165029000Y-82670000D01*
X165029000Y-82330000D01*
X165043539Y-82256907D01*
X165084943Y-82194943D01*
X165146907Y-82153539D01*
X165220000Y-82139000D01*
X165500000Y-82139000D01*
X165573093Y-82153539D01*
G37*
G36*
X166533093Y-82153539D02*
G01*
X166595057Y-82194943D01*
X166636461Y-82256907D01*
X166651000Y-82330000D01*
X166651000Y-82670000D01*
X166636461Y-82743093D01*
X166595057Y-82805057D01*
X166533093Y-82846461D01*
X166460000Y-82861000D01*
X166180000Y-82861000D01*
X166106907Y-82846461D01*
X166044943Y-82805057D01*
X166003539Y-82743093D01*
X165989000Y-82670000D01*
X165989000Y-82330000D01*
X166003539Y-82256907D01*
X166044943Y-82194943D01*
X166106907Y-82153539D01*
X166180000Y-82139000D01*
X166460000Y-82139000D01*
X166533093Y-82153539D01*
G37*
G36*
X172463379Y-81993158D02*
G01*
X172523722Y-82033478D01*
X172564042Y-82093821D01*
X172578200Y-82165000D01*
X172578200Y-82535000D01*
X172564042Y-82606179D01*
X172523722Y-82666522D01*
X172463379Y-82706842D01*
X172392200Y-82721000D01*
X172122200Y-82721000D01*
X172051021Y-82706842D01*
X171990678Y-82666522D01*
X171950358Y-82606179D01*
X171936200Y-82535000D01*
X171936200Y-82165000D01*
X171950358Y-82093821D01*
X171990678Y-82033478D01*
X172051021Y-81993158D01*
X172122200Y-81979000D01*
X172392200Y-81979000D01*
X172463379Y-81993158D01*
G37*
G36*
X173483379Y-81993158D02*
G01*
X173543722Y-82033478D01*
X173584042Y-82093821D01*
X173598200Y-82165000D01*
X173598200Y-82535000D01*
X173584042Y-82606179D01*
X173543722Y-82666522D01*
X173483379Y-82706842D01*
X173412200Y-82721000D01*
X173142200Y-82721000D01*
X173071021Y-82706842D01*
X173010678Y-82666522D01*
X172970358Y-82606179D01*
X172956200Y-82535000D01*
X172956200Y-82165000D01*
X172970358Y-82093821D01*
X173010678Y-82033478D01*
X173071021Y-81993158D01*
X173142200Y-81979000D01*
X173412200Y-81979000D01*
X173483379Y-81993158D01*
G37*
G36*
X174954224Y-81650148D02*
G01*
X175017173Y-81658436D01*
X175033005Y-81665818D01*
X175051679Y-81669533D01*
X175076412Y-81686059D01*
X175102774Y-81698352D01*
X175118813Y-81714391D01*
X175139192Y-81728008D01*
X175152808Y-81748386D01*
X175168847Y-81764425D01*
X175181138Y-81790785D01*
X175197667Y-81815521D01*
X175201381Y-81834196D01*
X175208763Y-81850026D01*
X175217048Y-81912962D01*
X175218200Y-81918750D01*
X175218200Y-82356250D01*
X175217048Y-82362039D01*
X175208763Y-82424973D01*
X175201382Y-82440801D01*
X175197667Y-82459479D01*
X175181137Y-82484217D01*
X175168847Y-82510574D01*
X175152810Y-82526610D01*
X175139192Y-82546992D01*
X175118810Y-82560610D01*
X175102774Y-82576647D01*
X175076417Y-82588937D01*
X175051679Y-82605467D01*
X175033001Y-82609182D01*
X175017173Y-82616563D01*
X174954239Y-82624848D01*
X174948450Y-82626000D01*
X174435950Y-82626000D01*
X174430162Y-82624848D01*
X174367226Y-82616563D01*
X174351396Y-82609181D01*
X174332721Y-82605467D01*
X174307985Y-82588938D01*
X174281625Y-82576647D01*
X174265586Y-82560608D01*
X174245208Y-82546992D01*
X174231591Y-82526613D01*
X174215552Y-82510574D01*
X174203259Y-82484212D01*
X174186733Y-82459479D01*
X174183018Y-82440805D01*
X174175636Y-82424973D01*
X174167348Y-82362024D01*
X174166200Y-82356250D01*
X174166200Y-81918750D01*
X174167348Y-81912977D01*
X174175636Y-81850026D01*
X174183019Y-81834192D01*
X174186733Y-81815521D01*
X174203257Y-81790789D01*
X174215552Y-81764425D01*
X174231593Y-81748383D01*
X174245208Y-81728008D01*
X174265583Y-81714393D01*
X174281625Y-81698352D01*
X174307989Y-81686057D01*
X174332721Y-81669533D01*
X174351392Y-81665819D01*
X174367226Y-81658436D01*
X174430177Y-81650148D01*
X174435950Y-81649000D01*
X174948450Y-81649000D01*
X174954224Y-81650148D01*
G37*
G36*
X168670317Y-81675883D02*
G01*
X168686862Y-81686939D01*
X168697918Y-81703484D01*
X168701800Y-81723001D01*
X168701800Y-81977001D01*
X168697918Y-81996518D01*
X168686862Y-82013063D01*
X168670317Y-82024119D01*
X168650800Y-82028001D01*
X167838000Y-82028001D01*
X167818483Y-82024119D01*
X167801938Y-82013063D01*
X167790882Y-81996518D01*
X167787000Y-81977001D01*
X167787000Y-81723001D01*
X167790882Y-81703484D01*
X167801938Y-81686939D01*
X167818483Y-81675883D01*
X167838000Y-81672001D01*
X168650800Y-81672001D01*
X168670317Y-81675883D01*
G37*
G36*
X171565917Y-81675883D02*
G01*
X171582462Y-81686939D01*
X171593518Y-81703484D01*
X171597400Y-81723001D01*
X171597400Y-81977001D01*
X171593518Y-81996518D01*
X171582462Y-82013063D01*
X171565917Y-82024119D01*
X171546400Y-82028001D01*
X170733600Y-82028001D01*
X170714083Y-82024119D01*
X170697538Y-82013063D01*
X170686482Y-81996518D01*
X170682600Y-81977001D01*
X170682600Y-81723001D01*
X170686482Y-81703484D01*
X170697538Y-81686939D01*
X170714083Y-81675883D01*
X170733600Y-81672001D01*
X171546400Y-81672001D01*
X171565917Y-81675883D01*
G37*
G36*
X165573093Y-81153539D02*
G01*
X165635057Y-81194943D01*
X165676461Y-81256907D01*
X165691000Y-81330000D01*
X165691000Y-81670000D01*
X165676461Y-81743093D01*
X165635057Y-81805057D01*
X165573093Y-81846461D01*
X165500000Y-81861000D01*
X165220000Y-81861000D01*
X165146907Y-81846461D01*
X165084943Y-81805057D01*
X165043539Y-81743093D01*
X165029000Y-81670000D01*
X165029000Y-81330000D01*
X165043539Y-81256907D01*
X165084943Y-81194943D01*
X165146907Y-81153539D01*
X165220000Y-81139000D01*
X165500000Y-81139000D01*
X165573093Y-81153539D01*
G37*
G36*
X166533093Y-81153539D02*
G01*
X166595057Y-81194943D01*
X166636461Y-81256907D01*
X166651000Y-81330000D01*
X166651000Y-81670000D01*
X166636461Y-81743093D01*
X166595057Y-81805057D01*
X166533093Y-81846461D01*
X166460000Y-81861000D01*
X166180000Y-81861000D01*
X166106907Y-81846461D01*
X166044943Y-81805057D01*
X166003539Y-81743093D01*
X165989000Y-81670000D01*
X165989000Y-81330000D01*
X166003539Y-81256907D01*
X166044943Y-81194943D01*
X166106907Y-81153539D01*
X166180000Y-81139000D01*
X166460000Y-81139000D01*
X166533093Y-81153539D01*
G37*
G36*
X170334017Y-80430582D02*
G01*
X170350562Y-80441638D01*
X170361618Y-80458183D01*
X170365500Y-80477700D01*
X170365500Y-81722300D01*
X170361618Y-81741817D01*
X170350562Y-81758362D01*
X170334017Y-81769418D01*
X170314500Y-81773300D01*
X169069900Y-81773300D01*
X169050383Y-81769418D01*
X169033838Y-81758362D01*
X169022782Y-81741817D01*
X169018900Y-81722300D01*
X169018900Y-80477700D01*
X169022782Y-80458183D01*
X169033838Y-80441638D01*
X169050383Y-80430582D01*
X169069900Y-80426700D01*
X170314500Y-80426700D01*
X170334017Y-80430582D01*
G37*
G36*
X172463379Y-80993158D02*
G01*
X172523722Y-81033478D01*
X172564042Y-81093821D01*
X172578200Y-81165000D01*
X172578200Y-81535000D01*
X172564042Y-81606179D01*
X172523722Y-81666522D01*
X172463379Y-81706842D01*
X172392200Y-81721000D01*
X172122200Y-81721000D01*
X172051021Y-81706842D01*
X171990678Y-81666522D01*
X171950358Y-81606179D01*
X171936200Y-81535000D01*
X171936200Y-81165000D01*
X171950358Y-81093821D01*
X171990678Y-81033478D01*
X172051021Y-80993158D01*
X172122200Y-80979000D01*
X172392200Y-80979000D01*
X172463379Y-80993158D01*
G37*
G36*
X173483379Y-80993158D02*
G01*
X173543722Y-81033478D01*
X173584042Y-81093821D01*
X173598200Y-81165000D01*
X173598200Y-81535000D01*
X173584042Y-81606179D01*
X173543722Y-81666522D01*
X173483379Y-81706842D01*
X173412200Y-81721000D01*
X173142200Y-81721000D01*
X173071021Y-81706842D01*
X173010678Y-81666522D01*
X172970358Y-81606179D01*
X172956200Y-81535000D01*
X172956200Y-81165000D01*
X172970358Y-81093821D01*
X173010678Y-81033478D01*
X173071021Y-80993158D01*
X173142200Y-80979000D01*
X173412200Y-80979000D01*
X173483379Y-80993158D01*
G37*
G36*
X157161407Y-79754111D02*
G01*
X157224496Y-79754111D01*
X157244017Y-79758922D01*
X157261672Y-79759951D01*
X157324491Y-79778758D01*
X157388578Y-79794554D01*
X157403614Y-79802445D01*
X157417534Y-79806613D01*
X157477292Y-79841114D01*
X157538213Y-79873088D01*
X157548580Y-79882272D01*
X157558424Y-79887956D01*
X157611222Y-79937768D01*
X157664706Y-79985151D01*
X157670795Y-79993972D01*
X157676762Y-79999602D01*
X157718824Y-80063554D01*
X157760705Y-80124229D01*
X157763394Y-80131319D01*
X157766162Y-80135528D01*
X157794092Y-80212265D01*
X157820630Y-80282240D01*
X157821164Y-80286645D01*
X157821806Y-80288407D01*
X157832801Y-80382482D01*
X157841000Y-80450000D01*
X157841000Y-80950000D01*
X157840853Y-80951209D01*
X157836260Y-81030059D01*
X157826046Y-81073155D01*
X157820630Y-81117760D01*
X157806884Y-81154003D01*
X157798437Y-81189648D01*
X157777730Y-81230878D01*
X157760705Y-81275771D01*
X157740439Y-81305130D01*
X157725419Y-81335039D01*
X157693714Y-81372823D01*
X157664706Y-81414849D01*
X157640331Y-81436443D01*
X157620845Y-81459666D01*
X157578715Y-81491029D01*
X157538213Y-81526912D01*
X157512125Y-81540603D01*
X157490347Y-81556817D01*
X157439177Y-81578889D01*
X157388578Y-81605446D01*
X157362994Y-81611751D01*
X157340959Y-81621257D01*
X157282885Y-81631497D01*
X157224496Y-81645889D01*
X157201267Y-81645889D01*
X157180743Y-81649508D01*
X157118609Y-81645889D01*
X157055504Y-81645889D01*
X157035977Y-81641076D01*
X157018327Y-81640048D01*
X156955521Y-81621245D01*
X156891422Y-81605446D01*
X156876382Y-81597552D01*
X156862465Y-81593386D01*
X156802715Y-81558889D01*
X156741787Y-81526912D01*
X156731417Y-81517725D01*
X156721575Y-81512043D01*
X156668778Y-81462231D01*
X156615294Y-81414849D01*
X156609204Y-81406027D01*
X156603237Y-81400397D01*
X156561168Y-81336434D01*
X156519295Y-81275771D01*
X156516606Y-81268681D01*
X156513837Y-81264471D01*
X156485891Y-81187693D01*
X156459370Y-81117760D01*
X156458835Y-81113356D01*
X156458193Y-81111592D01*
X156447189Y-81017448D01*
X156439000Y-80950000D01*
X156439000Y-80450000D01*
X156439146Y-80448791D01*
X156443739Y-80369940D01*
X156453955Y-80326833D01*
X156459370Y-80282240D01*
X156473111Y-80246005D01*
X156481562Y-80210351D01*
X156502274Y-80169109D01*
X156519295Y-80124229D01*
X156539554Y-80094877D01*
X156554580Y-80064960D01*
X156586294Y-80027164D01*
X156615294Y-79985151D01*
X156639661Y-79963563D01*
X156659154Y-79940333D01*
X156701296Y-79908959D01*
X156741787Y-79873088D01*
X156767866Y-79859400D01*
X156789652Y-79843182D01*
X156840837Y-79821102D01*
X156891422Y-79794554D01*
X156916998Y-79788249D01*
X156939040Y-79778742D01*
X156997131Y-79768498D01*
X157055504Y-79754111D01*
X157078726Y-79754111D01*
X157099256Y-79750491D01*
X157161407Y-79754111D01*
G37*
G36*
X162611407Y-79754111D02*
G01*
X162674496Y-79754111D01*
X162694017Y-79758922D01*
X162711672Y-79759951D01*
X162774491Y-79778758D01*
X162838578Y-79794554D01*
X162853614Y-79802445D01*
X162867534Y-79806613D01*
X162927292Y-79841114D01*
X162988213Y-79873088D01*
X162998580Y-79882272D01*
X163008424Y-79887956D01*
X163061222Y-79937768D01*
X163114706Y-79985151D01*
X163120795Y-79993972D01*
X163126762Y-79999602D01*
X163168824Y-80063554D01*
X163210705Y-80124229D01*
X163213394Y-80131319D01*
X163216162Y-80135528D01*
X163244092Y-80212265D01*
X163270630Y-80282240D01*
X163271164Y-80286645D01*
X163271806Y-80288407D01*
X163282801Y-80382482D01*
X163291000Y-80450000D01*
X163291000Y-80950000D01*
X163290853Y-80951209D01*
X163286260Y-81030059D01*
X163276046Y-81073155D01*
X163270630Y-81117760D01*
X163256884Y-81154003D01*
X163248437Y-81189648D01*
X163227730Y-81230878D01*
X163210705Y-81275771D01*
X163190439Y-81305130D01*
X163175419Y-81335039D01*
X163143714Y-81372823D01*
X163114706Y-81414849D01*
X163090331Y-81436443D01*
X163070845Y-81459666D01*
X163028715Y-81491029D01*
X162988213Y-81526912D01*
X162962125Y-81540603D01*
X162940347Y-81556817D01*
X162889177Y-81578889D01*
X162838578Y-81605446D01*
X162812994Y-81611751D01*
X162790959Y-81621257D01*
X162732885Y-81631497D01*
X162674496Y-81645889D01*
X162651267Y-81645889D01*
X162630743Y-81649508D01*
X162568609Y-81645889D01*
X162505504Y-81645889D01*
X162485977Y-81641076D01*
X162468327Y-81640048D01*
X162405521Y-81621245D01*
X162341422Y-81605446D01*
X162326382Y-81597552D01*
X162312465Y-81593386D01*
X162252715Y-81558889D01*
X162191787Y-81526912D01*
X162181417Y-81517725D01*
X162171575Y-81512043D01*
X162118778Y-81462231D01*
X162065294Y-81414849D01*
X162059204Y-81406027D01*
X162053237Y-81400397D01*
X162011168Y-81336434D01*
X161969295Y-81275771D01*
X161966606Y-81268681D01*
X161963837Y-81264471D01*
X161935891Y-81187693D01*
X161909370Y-81117760D01*
X161908835Y-81113356D01*
X161908193Y-81111592D01*
X161897189Y-81017448D01*
X161889000Y-80950000D01*
X161889000Y-80450000D01*
X161889146Y-80448791D01*
X161893739Y-80369940D01*
X161903955Y-80326833D01*
X161909370Y-80282240D01*
X161923111Y-80246005D01*
X161931562Y-80210351D01*
X161952274Y-80169109D01*
X161969295Y-80124229D01*
X161989554Y-80094877D01*
X162004580Y-80064960D01*
X162036294Y-80027164D01*
X162065294Y-79985151D01*
X162089661Y-79963563D01*
X162109154Y-79940333D01*
X162151296Y-79908959D01*
X162191787Y-79873088D01*
X162217866Y-79859400D01*
X162239652Y-79843182D01*
X162290837Y-79821102D01*
X162341422Y-79794554D01*
X162366998Y-79788249D01*
X162389040Y-79778742D01*
X162447131Y-79768498D01*
X162505504Y-79754111D01*
X162528726Y-79754111D01*
X162549256Y-79750491D01*
X162611407Y-79754111D01*
G37*
G36*
X168670317Y-81175882D02*
G01*
X168686862Y-81186938D01*
X168697918Y-81203483D01*
X168701800Y-81223000D01*
X168701800Y-81477000D01*
X168697918Y-81496517D01*
X168686862Y-81513062D01*
X168670317Y-81524118D01*
X168650800Y-81528000D01*
X167838000Y-81528000D01*
X167818483Y-81524118D01*
X167801938Y-81513062D01*
X167790882Y-81496517D01*
X167787000Y-81477000D01*
X167787000Y-81223000D01*
X167790882Y-81203483D01*
X167801938Y-81186938D01*
X167818483Y-81175882D01*
X167838000Y-81172000D01*
X168650800Y-81172000D01*
X168670317Y-81175882D01*
G37*
G36*
X171565917Y-81175882D02*
G01*
X171582462Y-81186938D01*
X171593518Y-81203483D01*
X171597400Y-81223000D01*
X171597400Y-81477000D01*
X171593518Y-81496517D01*
X171582462Y-81513062D01*
X171565917Y-81524118D01*
X171546400Y-81528000D01*
X170733600Y-81528000D01*
X170714083Y-81524118D01*
X170697538Y-81513062D01*
X170686482Y-81496517D01*
X170682600Y-81477000D01*
X170682600Y-81223000D01*
X170686482Y-81203483D01*
X170697538Y-81186938D01*
X170714083Y-81175882D01*
X170733600Y-81172000D01*
X171546400Y-81172000D01*
X171565917Y-81175882D01*
G37*
G36*
X159982609Y-80217775D02*
G01*
X160115500Y-80272820D01*
X160229616Y-80360384D01*
X160317180Y-80474500D01*
X160372225Y-80607391D01*
X160391000Y-80750000D01*
X160372225Y-80892609D01*
X160317180Y-81025500D01*
X160229616Y-81139616D01*
X160115500Y-81227180D01*
X159982609Y-81282225D01*
X159840000Y-81301000D01*
X159697391Y-81282225D01*
X159564500Y-81227180D01*
X159450384Y-81139616D01*
X159362820Y-81025500D01*
X159307775Y-80892609D01*
X159289000Y-80750000D01*
X159307775Y-80607391D01*
X159362820Y-80474500D01*
X159450384Y-80360384D01*
X159564500Y-80272820D01*
X159697391Y-80217775D01*
X159840000Y-80199000D01*
X159982609Y-80217775D01*
G37*
G36*
X174954224Y-80075148D02*
G01*
X175017173Y-80083436D01*
X175033005Y-80090818D01*
X175051679Y-80094533D01*
X175076412Y-80111059D01*
X175102774Y-80123352D01*
X175118813Y-80139391D01*
X175139192Y-80153008D01*
X175152808Y-80173386D01*
X175168847Y-80189425D01*
X175181138Y-80215785D01*
X175197667Y-80240521D01*
X175201381Y-80259196D01*
X175208763Y-80275026D01*
X175217048Y-80337962D01*
X175218200Y-80343750D01*
X175218200Y-80781250D01*
X175217048Y-80787039D01*
X175208763Y-80849973D01*
X175201382Y-80865801D01*
X175197667Y-80884479D01*
X175181137Y-80909217D01*
X175168847Y-80935574D01*
X175152810Y-80951610D01*
X175139192Y-80971992D01*
X175118810Y-80985610D01*
X175102774Y-81001647D01*
X175076417Y-81013937D01*
X175051679Y-81030467D01*
X175033001Y-81034182D01*
X175017173Y-81041563D01*
X174954239Y-81049848D01*
X174948450Y-81051000D01*
X174435950Y-81051000D01*
X174430162Y-81049848D01*
X174367226Y-81041563D01*
X174351396Y-81034181D01*
X174332721Y-81030467D01*
X174307985Y-81013938D01*
X174281625Y-81001647D01*
X174265586Y-80985608D01*
X174245208Y-80971992D01*
X174231591Y-80951613D01*
X174215552Y-80935574D01*
X174203259Y-80909212D01*
X174186733Y-80884479D01*
X174183018Y-80865805D01*
X174175636Y-80849973D01*
X174167348Y-80787024D01*
X174166200Y-80781250D01*
X174166200Y-80343750D01*
X174167348Y-80337977D01*
X174175636Y-80275026D01*
X174183019Y-80259192D01*
X174186733Y-80240521D01*
X174203257Y-80215789D01*
X174215552Y-80189425D01*
X174231593Y-80173383D01*
X174245208Y-80153008D01*
X174265583Y-80139393D01*
X174281625Y-80123352D01*
X174307989Y-80111057D01*
X174332721Y-80094533D01*
X174351392Y-80090819D01*
X174367226Y-80083436D01*
X174430177Y-80075148D01*
X174435950Y-80074000D01*
X174948450Y-80074000D01*
X174954224Y-80075148D01*
G37*
G36*
X168670317Y-80675882D02*
G01*
X168686862Y-80686938D01*
X168697918Y-80703483D01*
X168701800Y-80723000D01*
X168701800Y-80977000D01*
X168697918Y-80996517D01*
X168686862Y-81013062D01*
X168670317Y-81024118D01*
X168650800Y-81028000D01*
X167838000Y-81028000D01*
X167818483Y-81024118D01*
X167801938Y-81013062D01*
X167790882Y-80996517D01*
X167787000Y-80977000D01*
X167787000Y-80723000D01*
X167790882Y-80703483D01*
X167801938Y-80686938D01*
X167818483Y-80675882D01*
X167838000Y-80672000D01*
X168650800Y-80672000D01*
X168670317Y-80675882D01*
G37*
G36*
X171565917Y-80675882D02*
G01*
X171582462Y-80686938D01*
X171593518Y-80703483D01*
X171597400Y-80723000D01*
X171597400Y-80977000D01*
X171593518Y-80996517D01*
X171582462Y-81013062D01*
X171565917Y-81024118D01*
X171546400Y-81028000D01*
X170733600Y-81028000D01*
X170714083Y-81024118D01*
X170697538Y-81013062D01*
X170686482Y-80996517D01*
X170682600Y-80977000D01*
X170682600Y-80723000D01*
X170686482Y-80703483D01*
X170697538Y-80686938D01*
X170714083Y-80675882D01*
X170733600Y-80672000D01*
X171546400Y-80672000D01*
X171565917Y-80675882D01*
G37*
G36*
X178125709Y-80005089D02*
G01*
X178161157Y-80005089D01*
X178189967Y-80013548D01*
X178219307Y-80017411D01*
X178258718Y-80033735D01*
X178297708Y-80045184D01*
X178318287Y-80058409D01*
X178339806Y-80067323D01*
X178379235Y-80097578D01*
X178417430Y-80122125D01*
X178429743Y-80136335D01*
X178443278Y-80146721D01*
X178478368Y-80192451D01*
X178510627Y-80229680D01*
X178516054Y-80241565D01*
X178522675Y-80250193D01*
X178548818Y-80313308D01*
X178569746Y-80359134D01*
X178570780Y-80366329D01*
X178572588Y-80370693D01*
X178585390Y-80467941D01*
X178590000Y-80500000D01*
X178585390Y-80532058D01*
X178572588Y-80629307D01*
X178570780Y-80633670D01*
X178569746Y-80640866D01*
X178548821Y-80686684D01*
X178522676Y-80749806D01*
X178516054Y-80758435D01*
X178510627Y-80770320D01*
X178478365Y-80807551D01*
X178443278Y-80853278D01*
X178429745Y-80863661D01*
X178417430Y-80877875D01*
X178379227Y-80902426D01*
X178339806Y-80932676D01*
X178318292Y-80941587D01*
X178297708Y-80954816D01*
X178258709Y-80966266D01*
X178219307Y-80982588D01*
X178189973Y-80986449D01*
X178161157Y-80994911D01*
X178125701Y-80994911D01*
X178090000Y-80999611D01*
X178054298Y-80994911D01*
X178018843Y-80994911D01*
X177990027Y-80986449D01*
X177960692Y-80982588D01*
X177921286Y-80966265D01*
X177882292Y-80954816D01*
X177861709Y-80941588D01*
X177840193Y-80932676D01*
X177800766Y-80902422D01*
X177762570Y-80877875D01*
X177750256Y-80863663D01*
X177736721Y-80853278D01*
X177701625Y-80807541D01*
X177669373Y-80770320D01*
X177663946Y-80758438D01*
X177657323Y-80749806D01*
X177631167Y-80686661D01*
X177610254Y-80640866D01*
X177609219Y-80633674D01*
X177607411Y-80629307D01*
X177594597Y-80531976D01*
X177590000Y-80500000D01*
X177594597Y-80468023D01*
X177607411Y-80370693D01*
X177609219Y-80366325D01*
X177610254Y-80359134D01*
X177631170Y-80313332D01*
X177657324Y-80250193D01*
X177663946Y-80241562D01*
X177669373Y-80229680D01*
X177701622Y-80192461D01*
X177736721Y-80146721D01*
X177750258Y-80136333D01*
X177762570Y-80122125D01*
X177800763Y-80097579D01*
X177840193Y-80067324D01*
X177861709Y-80058411D01*
X177882292Y-80045184D01*
X177921283Y-80033735D01*
X177960693Y-80017411D01*
X177990032Y-80013548D01*
X178018843Y-80005089D01*
X178054291Y-80005089D01*
X178090000Y-80000388D01*
X178125709Y-80005089D01*
G37*
G36*
X165573093Y-80153539D02*
G01*
X165635057Y-80194943D01*
X165676461Y-80256907D01*
X165691000Y-80330000D01*
X165691000Y-80670000D01*
X165676461Y-80743093D01*
X165635057Y-80805057D01*
X165573093Y-80846461D01*
X165500000Y-80861000D01*
X165220000Y-80861000D01*
X165146907Y-80846461D01*
X165084943Y-80805057D01*
X165043539Y-80743093D01*
X165029000Y-80670000D01*
X165029000Y-80330000D01*
X165043539Y-80256907D01*
X165084943Y-80194943D01*
X165146907Y-80153539D01*
X165220000Y-80139000D01*
X165500000Y-80139000D01*
X165573093Y-80153539D01*
G37*
G36*
X166533093Y-80153539D02*
G01*
X166595057Y-80194943D01*
X166636461Y-80256907D01*
X166651000Y-80330000D01*
X166651000Y-80670000D01*
X166636461Y-80743093D01*
X166595057Y-80805057D01*
X166533093Y-80846461D01*
X166460000Y-80861000D01*
X166180000Y-80861000D01*
X166106907Y-80846461D01*
X166044943Y-80805057D01*
X166003539Y-80743093D01*
X165989000Y-80670000D01*
X165989000Y-80330000D01*
X166003539Y-80256907D01*
X166044943Y-80194943D01*
X166106907Y-80153539D01*
X166180000Y-80139000D01*
X166460000Y-80139000D01*
X166533093Y-80153539D01*
G37*
G36*
X172463379Y-79993158D02*
G01*
X172523722Y-80033478D01*
X172564042Y-80093821D01*
X172578200Y-80165000D01*
X172578200Y-80535000D01*
X172564042Y-80606179D01*
X172523722Y-80666522D01*
X172463379Y-80706842D01*
X172392200Y-80721000D01*
X172122200Y-80721000D01*
X172051021Y-80706842D01*
X171990678Y-80666522D01*
X171950358Y-80606179D01*
X171936200Y-80535000D01*
X171936200Y-80165000D01*
X171950358Y-80093821D01*
X171990678Y-80033478D01*
X172051021Y-79993158D01*
X172122200Y-79979000D01*
X172392200Y-79979000D01*
X172463379Y-79993158D01*
G37*
G36*
X173483379Y-79993158D02*
G01*
X173543722Y-80033478D01*
X173584042Y-80093821D01*
X173598200Y-80165000D01*
X173598200Y-80535000D01*
X173584042Y-80606179D01*
X173543722Y-80666522D01*
X173483379Y-80706842D01*
X173412200Y-80721000D01*
X173142200Y-80721000D01*
X173071021Y-80706842D01*
X173010678Y-80666522D01*
X172970358Y-80606179D01*
X172956200Y-80535000D01*
X172956200Y-80165000D01*
X172970358Y-80093821D01*
X173010678Y-80033478D01*
X173071021Y-79993158D01*
X173142200Y-79979000D01*
X173412200Y-79979000D01*
X173483379Y-79993158D01*
G37*
G36*
X168670317Y-80175881D02*
G01*
X168686862Y-80186937D01*
X168697918Y-80203482D01*
X168701800Y-80222999D01*
X168701800Y-80476999D01*
X168697918Y-80496516D01*
X168686862Y-80513061D01*
X168670317Y-80524117D01*
X168650800Y-80527999D01*
X167838000Y-80527999D01*
X167818483Y-80524117D01*
X167801938Y-80513061D01*
X167790882Y-80496516D01*
X167787000Y-80476999D01*
X167787000Y-80222999D01*
X167790882Y-80203482D01*
X167801938Y-80186937D01*
X167818483Y-80175881D01*
X167838000Y-80171999D01*
X168650800Y-80171999D01*
X168670317Y-80175881D01*
G37*
G36*
X171565917Y-80175881D02*
G01*
X171582462Y-80186937D01*
X171593518Y-80203482D01*
X171597400Y-80222999D01*
X171597400Y-80476999D01*
X171593518Y-80496516D01*
X171582462Y-80513061D01*
X171565917Y-80524117D01*
X171546400Y-80527999D01*
X170733600Y-80527999D01*
X170714083Y-80524117D01*
X170697538Y-80513061D01*
X170686482Y-80496516D01*
X170682600Y-80476999D01*
X170682600Y-80222999D01*
X170686482Y-80203482D01*
X170697538Y-80186937D01*
X170714083Y-80175881D01*
X170733600Y-80171999D01*
X171546400Y-80171999D01*
X171565917Y-80175881D01*
G37*
G36*
X169088716Y-79198682D02*
G01*
X169105261Y-79209738D01*
X169116317Y-79226283D01*
X169120199Y-79245800D01*
X169120199Y-80058600D01*
X169116317Y-80078117D01*
X169105261Y-80094662D01*
X169088716Y-80105718D01*
X169069199Y-80109600D01*
X168815199Y-80109600D01*
X168795682Y-80105718D01*
X168779137Y-80094662D01*
X168768081Y-80078117D01*
X168764199Y-80058600D01*
X168764199Y-79245800D01*
X168768081Y-79226283D01*
X168779137Y-79209738D01*
X168795682Y-79198682D01*
X168815199Y-79194800D01*
X169069199Y-79194800D01*
X169088716Y-79198682D01*
G37*
G36*
X169588717Y-79198682D02*
G01*
X169605262Y-79209738D01*
X169616318Y-79226283D01*
X169620200Y-79245800D01*
X169620200Y-80058600D01*
X169616318Y-80078117D01*
X169605262Y-80094662D01*
X169588717Y-80105718D01*
X169569200Y-80109600D01*
X169315200Y-80109600D01*
X169295683Y-80105718D01*
X169279138Y-80094662D01*
X169268082Y-80078117D01*
X169264200Y-80058600D01*
X169264200Y-79245800D01*
X169268082Y-79226283D01*
X169279138Y-79209738D01*
X169295683Y-79198682D01*
X169315200Y-79194800D01*
X169569200Y-79194800D01*
X169588717Y-79198682D01*
G37*
G36*
X170088717Y-79198682D02*
G01*
X170105262Y-79209738D01*
X170116318Y-79226283D01*
X170120200Y-79245800D01*
X170120200Y-80058600D01*
X170116318Y-80078117D01*
X170105262Y-80094662D01*
X170088717Y-80105718D01*
X170069200Y-80109600D01*
X169815200Y-80109600D01*
X169795683Y-80105718D01*
X169779138Y-80094662D01*
X169768082Y-80078117D01*
X169764200Y-80058600D01*
X169764200Y-79245800D01*
X169768082Y-79226283D01*
X169779138Y-79209738D01*
X169795683Y-79198682D01*
X169815200Y-79194800D01*
X170069200Y-79194800D01*
X170088717Y-79198682D01*
G37*
G36*
X170588718Y-79198682D02*
G01*
X170605263Y-79209738D01*
X170616319Y-79226283D01*
X170620201Y-79245800D01*
X170620201Y-80058600D01*
X170616319Y-80078117D01*
X170605263Y-80094662D01*
X170588718Y-80105718D01*
X170569201Y-80109600D01*
X170315201Y-80109600D01*
X170295684Y-80105718D01*
X170279139Y-80094662D01*
X170268083Y-80078117D01*
X170264201Y-80058600D01*
X170264201Y-79245800D01*
X170268083Y-79226283D01*
X170279139Y-79209738D01*
X170295684Y-79198682D01*
X170315201Y-79194800D01*
X170569201Y-79194800D01*
X170588718Y-79198682D01*
G37*
G36*
X165557186Y-79213229D02*
G01*
X165619150Y-79254633D01*
X165660554Y-79316597D01*
X165675093Y-79389690D01*
X165675093Y-79729690D01*
X165660554Y-79802783D01*
X165619150Y-79864747D01*
X165557186Y-79906151D01*
X165484093Y-79920690D01*
X165204093Y-79920690D01*
X165131000Y-79906151D01*
X165069036Y-79864747D01*
X165027632Y-79802783D01*
X165013093Y-79729690D01*
X165013093Y-79389690D01*
X165027632Y-79316597D01*
X165069036Y-79254633D01*
X165131000Y-79213229D01*
X165204093Y-79198690D01*
X165484093Y-79198690D01*
X165557186Y-79213229D01*
G37*
G36*
X166517186Y-79213229D02*
G01*
X166579150Y-79254633D01*
X166620554Y-79316597D01*
X166635093Y-79389690D01*
X166635093Y-79729690D01*
X166620554Y-79802783D01*
X166579150Y-79864747D01*
X166517186Y-79906151D01*
X166444093Y-79920690D01*
X166164093Y-79920690D01*
X166091000Y-79906151D01*
X166029036Y-79864747D01*
X165987632Y-79802783D01*
X165973093Y-79729690D01*
X165973093Y-79389690D01*
X165987632Y-79316597D01*
X166029036Y-79254633D01*
X166091000Y-79213229D01*
X166164093Y-79198690D01*
X166444093Y-79198690D01*
X166517186Y-79213229D01*
G37*
M02*
