%TF.GenerationSoftware,KiCad,Pcbnew,7.0.6*%
%TF.CreationDate,2024-04-24T00:37:06-04:00*%
%TF.ProjectId,Doom Keycap,446f6f6d-204b-4657-9963-61702e6b6963,REV1*%
%TF.SameCoordinates,Original*%
%TF.FileFunction,Paste,Bot*%
%TF.FilePolarity,Positive*%
%FSLAX46Y46*%
G04 Gerber Fmt 4.6, Leading zero omitted, Abs format (unit mm)*
G04 Created by KiCad (PCBNEW 7.0.6) date 2024-04-24 00:37:06*
%MOMM*%
%LPD*%
G01*
G04 APERTURE LIST*
G04 Aperture macros list*
%AMRoundRect*
0 Rectangle with rounded corners*
0 $1 Rounding radius*
0 $2 $3 $4 $5 $6 $7 $8 $9 X,Y pos of 4 corners*
0 Add a 4 corners polygon primitive as box body*
4,1,4,$2,$3,$4,$5,$6,$7,$8,$9,$2,$3,0*
0 Add four circle primitives for the rounded corners*
1,1,$1+$1,$2,$3*
1,1,$1+$1,$4,$5*
1,1,$1+$1,$6,$7*
1,1,$1+$1,$8,$9*
0 Add four rect primitives between the rounded corners*
20,1,$1+$1,$2,$3,$4,$5,0*
20,1,$1+$1,$4,$5,$6,$7,0*
20,1,$1+$1,$6,$7,$8,$9,0*
20,1,$1+$1,$8,$9,$2,$3,0*%
G04 Aperture macros list end*
%ADD10R,0.400000X1.750000*%
%ADD11R,1.825000X0.700000*%
%ADD12R,2.000000X1.460000*%
%ADD13RoundRect,0.384800X-0.265200X-1.240200X0.265200X-1.240200X0.265200X1.240200X-0.265200X1.240200X0*%
%ADD14R,1.425000X2.500000*%
%ADD15RoundRect,0.147500X-0.147500X-0.172500X0.147500X-0.172500X0.147500X0.172500X-0.147500X0.172500X0*%
%ADD16RoundRect,0.150000X0.650000X0.150000X-0.650000X0.150000X-0.650000X-0.150000X0.650000X-0.150000X0*%
%ADD17RoundRect,0.140000X-0.140000X-0.170000X0.140000X-0.170000X0.140000X0.170000X-0.140000X0.170000X0*%
%ADD18R,1.000000X2.200000*%
%ADD19RoundRect,0.147500X0.172500X-0.147500X0.172500X0.147500X-0.172500X0.147500X-0.172500X-0.147500X0*%
%ADD20R,0.812800X0.406400*%
%ADD21R,0.812800X0.304800*%
G04 APERTURE END LIST*
D10*
X158565000Y-83525000D03*
X159215000Y-83525000D03*
X159865000Y-83525000D03*
X160515000Y-83525000D03*
X161165000Y-83525000D03*
D11*
X156877500Y-82400000D03*
D12*
X156965000Y-83730000D03*
D13*
X157140000Y-81125000D03*
D14*
X158902500Y-80450000D03*
X160827500Y-80450000D03*
D13*
X162590000Y-81125000D03*
D12*
X162765000Y-83730000D03*
D11*
X162852500Y-82400000D03*
D15*
X156230000Y-87250000D03*
X157200000Y-87250000D03*
D16*
X163940000Y-88720000D03*
X163940000Y-89990000D03*
X163940000Y-91260000D03*
X163940000Y-92530000D03*
X156740000Y-92530000D03*
X156740000Y-91260000D03*
X156740000Y-89990000D03*
X156740000Y-88720000D03*
D17*
X159610000Y-86875000D03*
X160570000Y-86875000D03*
D18*
X168765000Y-91600000D03*
X180165000Y-91600000D03*
X180165000Y-82900000D03*
X168765000Y-82900000D03*
D19*
X158515000Y-86335000D03*
X158515000Y-85365000D03*
D20*
X186362767Y-84875000D03*
X186362767Y-90375000D03*
D21*
X183862767Y-89374999D03*
X183862767Y-88875000D03*
X183862767Y-88375001D03*
X183862767Y-87875000D03*
X183862767Y-87375000D03*
X183862767Y-86874999D03*
X183862767Y-86375000D03*
X183862767Y-85875001D03*
M02*
