%TF.GenerationSoftware,KiCad,Pcbnew,7.0.6*%
%TF.CreationDate,2024-04-24T00:37:06-04:00*%
%TF.ProjectId,Doom Keycap,446f6f6d-204b-4657-9963-61702e6b6963,REV1*%
%TF.SameCoordinates,Original*%
%TF.FileFunction,Soldermask,Bot*%
%TF.FilePolarity,Negative*%
%FSLAX46Y46*%
G04 Gerber Fmt 4.6, Leading zero omitted, Abs format (unit mm)*
G04 Created by KiCad (PCBNEW 7.0.6) date 2024-04-24 00:37:06*
%MOMM*%
%LPD*%
G01*
G04 APERTURE LIST*
G04 APERTURE END LIST*
G36*
X166625709Y-93005089D02*
G01*
X166661157Y-93005089D01*
X166689967Y-93013548D01*
X166719307Y-93017411D01*
X166758718Y-93033735D01*
X166797708Y-93045184D01*
X166818287Y-93058409D01*
X166839806Y-93067323D01*
X166879235Y-93097578D01*
X166917430Y-93122125D01*
X166929743Y-93136335D01*
X166943278Y-93146721D01*
X166978368Y-93192451D01*
X167010627Y-93229680D01*
X167016054Y-93241565D01*
X167022675Y-93250193D01*
X167048818Y-93313308D01*
X167069746Y-93359134D01*
X167070780Y-93366329D01*
X167072588Y-93370693D01*
X167085390Y-93467941D01*
X167090000Y-93500000D01*
X167085390Y-93532058D01*
X167072588Y-93629307D01*
X167070780Y-93633670D01*
X167069746Y-93640866D01*
X167048821Y-93686684D01*
X167022676Y-93749806D01*
X167016054Y-93758435D01*
X167010627Y-93770320D01*
X166978365Y-93807551D01*
X166943278Y-93853278D01*
X166929745Y-93863661D01*
X166917430Y-93877875D01*
X166879227Y-93902426D01*
X166839806Y-93932676D01*
X166818292Y-93941587D01*
X166797708Y-93954816D01*
X166758709Y-93966266D01*
X166719307Y-93982588D01*
X166689973Y-93986449D01*
X166661157Y-93994911D01*
X166625701Y-93994911D01*
X166590000Y-93999611D01*
X166554298Y-93994911D01*
X166518843Y-93994911D01*
X166490027Y-93986449D01*
X166460692Y-93982588D01*
X166421286Y-93966265D01*
X166382292Y-93954816D01*
X166361709Y-93941588D01*
X166340193Y-93932676D01*
X166300766Y-93902422D01*
X166262570Y-93877875D01*
X166250256Y-93863663D01*
X166236721Y-93853278D01*
X166201625Y-93807541D01*
X166169373Y-93770320D01*
X166163946Y-93758438D01*
X166157323Y-93749806D01*
X166131167Y-93686661D01*
X166110254Y-93640866D01*
X166109219Y-93633674D01*
X166107411Y-93629307D01*
X166094597Y-93531976D01*
X166090000Y-93500000D01*
X166094597Y-93468023D01*
X166107411Y-93370693D01*
X166109219Y-93366325D01*
X166110254Y-93359134D01*
X166131170Y-93313332D01*
X166157324Y-93250193D01*
X166163946Y-93241562D01*
X166169373Y-93229680D01*
X166201622Y-93192461D01*
X166236721Y-93146721D01*
X166250258Y-93136333D01*
X166262570Y-93122125D01*
X166300763Y-93097579D01*
X166340193Y-93067324D01*
X166361709Y-93058411D01*
X166382292Y-93045184D01*
X166421283Y-93033735D01*
X166460693Y-93017411D01*
X166490032Y-93013548D01*
X166518843Y-93005089D01*
X166554291Y-93005089D01*
X166590000Y-93000388D01*
X166625709Y-93005089D01*
G37*
G36*
X157466919Y-92194300D02*
G01*
X157532128Y-92237872D01*
X157575700Y-92303081D01*
X157591000Y-92380000D01*
X157591000Y-92680000D01*
X157575700Y-92756919D01*
X157532128Y-92822128D01*
X157466919Y-92865700D01*
X157390000Y-92881000D01*
X156090000Y-92881000D01*
X156013081Y-92865700D01*
X155947872Y-92822128D01*
X155904300Y-92756919D01*
X155889000Y-92680000D01*
X155889000Y-92380000D01*
X155904300Y-92303081D01*
X155947872Y-92237872D01*
X156013081Y-92194300D01*
X156090000Y-92179000D01*
X157390000Y-92179000D01*
X157466919Y-92194300D01*
G37*
G36*
X164666919Y-92194300D02*
G01*
X164732128Y-92237872D01*
X164775700Y-92303081D01*
X164791000Y-92380000D01*
X164791000Y-92680000D01*
X164775700Y-92756919D01*
X164732128Y-92822128D01*
X164666919Y-92865700D01*
X164590000Y-92881000D01*
X163290000Y-92881000D01*
X163213081Y-92865700D01*
X163147872Y-92822128D01*
X163104300Y-92756919D01*
X163089000Y-92680000D01*
X163089000Y-92380000D01*
X163104300Y-92303081D01*
X163147872Y-92237872D01*
X163213081Y-92194300D01*
X163290000Y-92179000D01*
X164590000Y-92179000D01*
X164666919Y-92194300D01*
G37*
G36*
X169284517Y-90452882D02*
G01*
X169301062Y-90463938D01*
X169312118Y-90480483D01*
X169316000Y-90500000D01*
X169316000Y-92700000D01*
X169312118Y-92719517D01*
X169301062Y-92736062D01*
X169284517Y-92747118D01*
X169265000Y-92751000D01*
X168265000Y-92751000D01*
X168245483Y-92747118D01*
X168228938Y-92736062D01*
X168217882Y-92719517D01*
X168214000Y-92700000D01*
X168214000Y-90500000D01*
X168217882Y-90480483D01*
X168228938Y-90463938D01*
X168245483Y-90452882D01*
X168265000Y-90449000D01*
X169265000Y-90449000D01*
X169284517Y-90452882D01*
G37*
G36*
X180684517Y-90452882D02*
G01*
X180701062Y-90463938D01*
X180712118Y-90480483D01*
X180716000Y-90500000D01*
X180716000Y-92700000D01*
X180712118Y-92719517D01*
X180701062Y-92736062D01*
X180684517Y-92747118D01*
X180665000Y-92751000D01*
X179665000Y-92751000D01*
X179645483Y-92747118D01*
X179628938Y-92736062D01*
X179617882Y-92719517D01*
X179614000Y-92700000D01*
X179614000Y-90500000D01*
X179617882Y-90480483D01*
X179628938Y-90463938D01*
X179645483Y-90452882D01*
X179665000Y-90449000D01*
X180665000Y-90449000D01*
X180684517Y-90452882D01*
G37*
G36*
X157466919Y-90924300D02*
G01*
X157532128Y-90967872D01*
X157575700Y-91033081D01*
X157591000Y-91110000D01*
X157591000Y-91410000D01*
X157575700Y-91486919D01*
X157532128Y-91552128D01*
X157466919Y-91595700D01*
X157390000Y-91611000D01*
X156090000Y-91611000D01*
X156013081Y-91595700D01*
X155947872Y-91552128D01*
X155904300Y-91486919D01*
X155889000Y-91410000D01*
X155889000Y-91110000D01*
X155904300Y-91033081D01*
X155947872Y-90967872D01*
X156013081Y-90924300D01*
X156090000Y-90909000D01*
X157390000Y-90909000D01*
X157466919Y-90924300D01*
G37*
G36*
X164666919Y-90924300D02*
G01*
X164732128Y-90967872D01*
X164775700Y-91033081D01*
X164791000Y-91110000D01*
X164791000Y-91410000D01*
X164775700Y-91486919D01*
X164732128Y-91552128D01*
X164666919Y-91595700D01*
X164590000Y-91611000D01*
X163290000Y-91611000D01*
X163213081Y-91595700D01*
X163147872Y-91552128D01*
X163104300Y-91486919D01*
X163089000Y-91410000D01*
X163089000Y-91110000D01*
X163104300Y-91033081D01*
X163147872Y-90967872D01*
X163213081Y-90924300D01*
X163290000Y-90909000D01*
X164590000Y-90909000D01*
X164666919Y-90924300D01*
G37*
G36*
X186788684Y-90124682D02*
G01*
X186805229Y-90135738D01*
X186816285Y-90152283D01*
X186820167Y-90171800D01*
X186820167Y-90578200D01*
X186816285Y-90597717D01*
X186805229Y-90614262D01*
X186788684Y-90625318D01*
X186769167Y-90629200D01*
X185956367Y-90629200D01*
X185936850Y-90625318D01*
X185920305Y-90614262D01*
X185909249Y-90597717D01*
X185905367Y-90578200D01*
X185905367Y-90171800D01*
X185909249Y-90152283D01*
X185920305Y-90135738D01*
X185936850Y-90124682D01*
X185956367Y-90120800D01*
X186769167Y-90120800D01*
X186788684Y-90124682D01*
G37*
G36*
X157466919Y-89654300D02*
G01*
X157532128Y-89697872D01*
X157575700Y-89763081D01*
X157591000Y-89840000D01*
X157591000Y-90140000D01*
X157575700Y-90216919D01*
X157532128Y-90282128D01*
X157466919Y-90325700D01*
X157390000Y-90341000D01*
X156090000Y-90341000D01*
X156013081Y-90325700D01*
X155947872Y-90282128D01*
X155904300Y-90216919D01*
X155889000Y-90140000D01*
X155889000Y-89840000D01*
X155904300Y-89763081D01*
X155947872Y-89697872D01*
X156013081Y-89654300D01*
X156090000Y-89639000D01*
X157390000Y-89639000D01*
X157466919Y-89654300D01*
G37*
G36*
X164666919Y-89654300D02*
G01*
X164732128Y-89697872D01*
X164775700Y-89763081D01*
X164791000Y-89840000D01*
X164791000Y-90140000D01*
X164775700Y-90216919D01*
X164732128Y-90282128D01*
X164666919Y-90325700D01*
X164590000Y-90341000D01*
X163290000Y-90341000D01*
X163213081Y-90325700D01*
X163147872Y-90282128D01*
X163104300Y-90216919D01*
X163089000Y-90140000D01*
X163089000Y-89840000D01*
X163104300Y-89763081D01*
X163147872Y-89697872D01*
X163213081Y-89654300D01*
X163290000Y-89639000D01*
X164590000Y-89639000D01*
X164666919Y-89654300D01*
G37*
G36*
X184288684Y-89175481D02*
G01*
X184305229Y-89186537D01*
X184316285Y-89203082D01*
X184320167Y-89222599D01*
X184320167Y-89527399D01*
X184316285Y-89546916D01*
X184305229Y-89563461D01*
X184288684Y-89574517D01*
X184269167Y-89578399D01*
X183456367Y-89578399D01*
X183436850Y-89574517D01*
X183420305Y-89563461D01*
X183409249Y-89546916D01*
X183405367Y-89527399D01*
X183405367Y-89222599D01*
X183409249Y-89203082D01*
X183420305Y-89186537D01*
X183436850Y-89175481D01*
X183456367Y-89171599D01*
X184269167Y-89171599D01*
X184288684Y-89175481D01*
G37*
G36*
X184288684Y-88675482D02*
G01*
X184305229Y-88686538D01*
X184316285Y-88703083D01*
X184320167Y-88722600D01*
X184320167Y-89027400D01*
X184316285Y-89046917D01*
X184305229Y-89063462D01*
X184288684Y-89074518D01*
X184269167Y-89078400D01*
X183456367Y-89078400D01*
X183436850Y-89074518D01*
X183420305Y-89063462D01*
X183409249Y-89046917D01*
X183405367Y-89027400D01*
X183405367Y-88722600D01*
X183409249Y-88703083D01*
X183420305Y-88686538D01*
X183436850Y-88675482D01*
X183456367Y-88671600D01*
X184269167Y-88671600D01*
X184288684Y-88675482D01*
G37*
G36*
X157466919Y-88384300D02*
G01*
X157532128Y-88427872D01*
X157575700Y-88493081D01*
X157591000Y-88570000D01*
X157591000Y-88870000D01*
X157575700Y-88946919D01*
X157532128Y-89012128D01*
X157466919Y-89055700D01*
X157390000Y-89071000D01*
X156090000Y-89071000D01*
X156013081Y-89055700D01*
X155947872Y-89012128D01*
X155904300Y-88946919D01*
X155889000Y-88870000D01*
X155889000Y-88570000D01*
X155904300Y-88493081D01*
X155947872Y-88427872D01*
X156013081Y-88384300D01*
X156090000Y-88369000D01*
X157390000Y-88369000D01*
X157466919Y-88384300D01*
G37*
G36*
X164666919Y-88384300D02*
G01*
X164732128Y-88427872D01*
X164775700Y-88493081D01*
X164791000Y-88570000D01*
X164791000Y-88870000D01*
X164775700Y-88946919D01*
X164732128Y-89012128D01*
X164666919Y-89055700D01*
X164590000Y-89071000D01*
X163290000Y-89071000D01*
X163213081Y-89055700D01*
X163147872Y-89012128D01*
X163104300Y-88946919D01*
X163089000Y-88870000D01*
X163089000Y-88570000D01*
X163104300Y-88493081D01*
X163147872Y-88427872D01*
X163213081Y-88384300D01*
X163290000Y-88369000D01*
X164590000Y-88369000D01*
X164666919Y-88384300D01*
G37*
G36*
X184288684Y-88175483D02*
G01*
X184305229Y-88186539D01*
X184316285Y-88203084D01*
X184320167Y-88222601D01*
X184320167Y-88527401D01*
X184316285Y-88546918D01*
X184305229Y-88563463D01*
X184288684Y-88574519D01*
X184269167Y-88578401D01*
X183456367Y-88578401D01*
X183436850Y-88574519D01*
X183420305Y-88563463D01*
X183409249Y-88546918D01*
X183405367Y-88527401D01*
X183405367Y-88222601D01*
X183409249Y-88203084D01*
X183420305Y-88186539D01*
X183436850Y-88175483D01*
X183456367Y-88171601D01*
X184269167Y-88171601D01*
X184288684Y-88175483D01*
G37*
G36*
X184288684Y-87675482D02*
G01*
X184305229Y-87686538D01*
X184316285Y-87703083D01*
X184320167Y-87722600D01*
X184320167Y-88027400D01*
X184316285Y-88046917D01*
X184305229Y-88063462D01*
X184288684Y-88074518D01*
X184269167Y-88078400D01*
X183456367Y-88078400D01*
X183436850Y-88074518D01*
X183420305Y-88063462D01*
X183409249Y-88046917D01*
X183405367Y-88027400D01*
X183405367Y-87722600D01*
X183409249Y-87703083D01*
X183420305Y-87686538D01*
X183436850Y-87675482D01*
X183456367Y-87671600D01*
X184269167Y-87671600D01*
X184288684Y-87675482D01*
G37*
G36*
X156453463Y-86894110D02*
G01*
X156517861Y-86937139D01*
X156560890Y-87001537D01*
X156576000Y-87077500D01*
X156576000Y-87422500D01*
X156560890Y-87498463D01*
X156517861Y-87562861D01*
X156453463Y-87605890D01*
X156377500Y-87621000D01*
X156082500Y-87621000D01*
X156006537Y-87605890D01*
X155942139Y-87562861D01*
X155899110Y-87498463D01*
X155884000Y-87422500D01*
X155884000Y-87077500D01*
X155899110Y-87001537D01*
X155942139Y-86937139D01*
X156006537Y-86894110D01*
X156082500Y-86879000D01*
X156377500Y-86879000D01*
X156453463Y-86894110D01*
G37*
G36*
X157423463Y-86894110D02*
G01*
X157487861Y-86937139D01*
X157530890Y-87001537D01*
X157546000Y-87077500D01*
X157546000Y-87422500D01*
X157530890Y-87498463D01*
X157487861Y-87562861D01*
X157423463Y-87605890D01*
X157347500Y-87621000D01*
X157052500Y-87621000D01*
X156976537Y-87605890D01*
X156912139Y-87562861D01*
X156869110Y-87498463D01*
X156854000Y-87422500D01*
X156854000Y-87077500D01*
X156869110Y-87001537D01*
X156912139Y-86937139D01*
X156976537Y-86894110D01*
X157052500Y-86879000D01*
X157347500Y-86879000D01*
X157423463Y-86894110D01*
G37*
G36*
X184288684Y-87175482D02*
G01*
X184305229Y-87186538D01*
X184316285Y-87203083D01*
X184320167Y-87222600D01*
X184320167Y-87527400D01*
X184316285Y-87546917D01*
X184305229Y-87563462D01*
X184288684Y-87574518D01*
X184269167Y-87578400D01*
X183456367Y-87578400D01*
X183436850Y-87574518D01*
X183420305Y-87563462D01*
X183409249Y-87546917D01*
X183405367Y-87527400D01*
X183405367Y-87222600D01*
X183409249Y-87203083D01*
X183420305Y-87186538D01*
X183436850Y-87175482D01*
X183456367Y-87171600D01*
X184269167Y-87171600D01*
X184288684Y-87175482D01*
G37*
G36*
X159823093Y-86528539D02*
G01*
X159885057Y-86569943D01*
X159926461Y-86631907D01*
X159941000Y-86705000D01*
X159941000Y-87045000D01*
X159926461Y-87118093D01*
X159885057Y-87180057D01*
X159823093Y-87221461D01*
X159750000Y-87236000D01*
X159470000Y-87236000D01*
X159396907Y-87221461D01*
X159334943Y-87180057D01*
X159293539Y-87118093D01*
X159279000Y-87045000D01*
X159279000Y-86705000D01*
X159293539Y-86631907D01*
X159334943Y-86569943D01*
X159396907Y-86528539D01*
X159470000Y-86514000D01*
X159750000Y-86514000D01*
X159823093Y-86528539D01*
G37*
G36*
X160783093Y-86528539D02*
G01*
X160845057Y-86569943D01*
X160886461Y-86631907D01*
X160901000Y-86705000D01*
X160901000Y-87045000D01*
X160886461Y-87118093D01*
X160845057Y-87180057D01*
X160783093Y-87221461D01*
X160710000Y-87236000D01*
X160430000Y-87236000D01*
X160356907Y-87221461D01*
X160294943Y-87180057D01*
X160253539Y-87118093D01*
X160239000Y-87045000D01*
X160239000Y-86705000D01*
X160253539Y-86631907D01*
X160294943Y-86569943D01*
X160356907Y-86528539D01*
X160430000Y-86514000D01*
X160710000Y-86514000D01*
X160783093Y-86528539D01*
G37*
G36*
X184288684Y-86675481D02*
G01*
X184305229Y-86686537D01*
X184316285Y-86703082D01*
X184320167Y-86722599D01*
X184320167Y-87027399D01*
X184316285Y-87046916D01*
X184305229Y-87063461D01*
X184288684Y-87074517D01*
X184269167Y-87078399D01*
X183456367Y-87078399D01*
X183436850Y-87074517D01*
X183420305Y-87063461D01*
X183409249Y-87046916D01*
X183405367Y-87027399D01*
X183405367Y-86722599D01*
X183409249Y-86703082D01*
X183420305Y-86686537D01*
X183436850Y-86675481D01*
X183456367Y-86671599D01*
X184269167Y-86671599D01*
X184288684Y-86675481D01*
G37*
G36*
X158763463Y-86004110D02*
G01*
X158827861Y-86047139D01*
X158870890Y-86111537D01*
X158886000Y-86187500D01*
X158886000Y-86482500D01*
X158870890Y-86558463D01*
X158827861Y-86622861D01*
X158763463Y-86665890D01*
X158687500Y-86681000D01*
X158342500Y-86681000D01*
X158266537Y-86665890D01*
X158202139Y-86622861D01*
X158159110Y-86558463D01*
X158144000Y-86482500D01*
X158144000Y-86187500D01*
X158159110Y-86111537D01*
X158202139Y-86047139D01*
X158266537Y-86004110D01*
X158342500Y-85989000D01*
X158687500Y-85989000D01*
X158763463Y-86004110D01*
G37*
G36*
X184288684Y-86175482D02*
G01*
X184305229Y-86186538D01*
X184316285Y-86203083D01*
X184320167Y-86222600D01*
X184320167Y-86527400D01*
X184316285Y-86546917D01*
X184305229Y-86563462D01*
X184288684Y-86574518D01*
X184269167Y-86578400D01*
X183456367Y-86578400D01*
X183436850Y-86574518D01*
X183420305Y-86563462D01*
X183409249Y-86546917D01*
X183405367Y-86527400D01*
X183405367Y-86222600D01*
X183409249Y-86203083D01*
X183420305Y-86186538D01*
X183436850Y-86175482D01*
X183456367Y-86171600D01*
X184269167Y-86171600D01*
X184288684Y-86175482D01*
G37*
G36*
X184288684Y-85675483D02*
G01*
X184305229Y-85686539D01*
X184316285Y-85703084D01*
X184320167Y-85722601D01*
X184320167Y-86027401D01*
X184316285Y-86046918D01*
X184305229Y-86063463D01*
X184288684Y-86074519D01*
X184269167Y-86078401D01*
X183456367Y-86078401D01*
X183436850Y-86074519D01*
X183420305Y-86063463D01*
X183409249Y-86046918D01*
X183405367Y-86027401D01*
X183405367Y-85722601D01*
X183409249Y-85703084D01*
X183420305Y-85686539D01*
X183436850Y-85675483D01*
X183456367Y-85671601D01*
X184269167Y-85671601D01*
X184288684Y-85675483D01*
G37*
G36*
X158763463Y-85034110D02*
G01*
X158827861Y-85077139D01*
X158870890Y-85141537D01*
X158886000Y-85217500D01*
X158886000Y-85512500D01*
X158870890Y-85588463D01*
X158827861Y-85652861D01*
X158763463Y-85695890D01*
X158687500Y-85711000D01*
X158342500Y-85711000D01*
X158266537Y-85695890D01*
X158202139Y-85652861D01*
X158159110Y-85588463D01*
X158144000Y-85512500D01*
X158144000Y-85217500D01*
X158159110Y-85141537D01*
X158202139Y-85077139D01*
X158266537Y-85034110D01*
X158342500Y-85019000D01*
X158687500Y-85019000D01*
X158763463Y-85034110D01*
G37*
G36*
X186788684Y-84624682D02*
G01*
X186805229Y-84635738D01*
X186816285Y-84652283D01*
X186820167Y-84671800D01*
X186820167Y-85078200D01*
X186816285Y-85097717D01*
X186805229Y-85114262D01*
X186788684Y-85125318D01*
X186769167Y-85129200D01*
X185956367Y-85129200D01*
X185936850Y-85125318D01*
X185920305Y-85114262D01*
X185909249Y-85097717D01*
X185905367Y-85078200D01*
X185905367Y-84671800D01*
X185909249Y-84652283D01*
X185920305Y-84635738D01*
X185936850Y-84624682D01*
X185956367Y-84620800D01*
X186769167Y-84620800D01*
X186788684Y-84624682D01*
G37*
G36*
X157984517Y-82952882D02*
G01*
X158001062Y-82963938D01*
X158012118Y-82980483D01*
X158016000Y-83000000D01*
X158016000Y-84460000D01*
X158012118Y-84479517D01*
X158001062Y-84496062D01*
X157984517Y-84507118D01*
X157965000Y-84511000D01*
X155965000Y-84511000D01*
X155945483Y-84507118D01*
X155928938Y-84496062D01*
X155917882Y-84479517D01*
X155914000Y-84460000D01*
X155914000Y-83000000D01*
X155917882Y-82980483D01*
X155928938Y-82963938D01*
X155945483Y-82952882D01*
X155965000Y-82949000D01*
X157965000Y-82949000D01*
X157984517Y-82952882D01*
G37*
G36*
X163784517Y-82952882D02*
G01*
X163801062Y-82963938D01*
X163812118Y-82980483D01*
X163816000Y-83000000D01*
X163816000Y-84460000D01*
X163812118Y-84479517D01*
X163801062Y-84496062D01*
X163784517Y-84507118D01*
X163765000Y-84511000D01*
X161765000Y-84511000D01*
X161745483Y-84507118D01*
X161728938Y-84496062D01*
X161717882Y-84479517D01*
X161714000Y-84460000D01*
X161714000Y-83000000D01*
X161717882Y-82980483D01*
X161728938Y-82963938D01*
X161745483Y-82952882D01*
X161765000Y-82949000D01*
X163765000Y-82949000D01*
X163784517Y-82952882D01*
G37*
G36*
X158784517Y-82602882D02*
G01*
X158801062Y-82613938D01*
X158812118Y-82630483D01*
X158816000Y-82650000D01*
X158816000Y-84400000D01*
X158812118Y-84419517D01*
X158801062Y-84436062D01*
X158784517Y-84447118D01*
X158765000Y-84451000D01*
X158365000Y-84451000D01*
X158345483Y-84447118D01*
X158328938Y-84436062D01*
X158317882Y-84419517D01*
X158314000Y-84400000D01*
X158314000Y-82650000D01*
X158317882Y-82630483D01*
X158328938Y-82613938D01*
X158345483Y-82602882D01*
X158365000Y-82599000D01*
X158765000Y-82599000D01*
X158784517Y-82602882D01*
G37*
G36*
X159434517Y-82602882D02*
G01*
X159451062Y-82613938D01*
X159462118Y-82630483D01*
X159466000Y-82650000D01*
X159466000Y-84400000D01*
X159462118Y-84419517D01*
X159451062Y-84436062D01*
X159434517Y-84447118D01*
X159415000Y-84451000D01*
X159015000Y-84451000D01*
X158995483Y-84447118D01*
X158978938Y-84436062D01*
X158967882Y-84419517D01*
X158964000Y-84400000D01*
X158964000Y-82650000D01*
X158967882Y-82630483D01*
X158978938Y-82613938D01*
X158995483Y-82602882D01*
X159015000Y-82599000D01*
X159415000Y-82599000D01*
X159434517Y-82602882D01*
G37*
G36*
X160084517Y-82602882D02*
G01*
X160101062Y-82613938D01*
X160112118Y-82630483D01*
X160116000Y-82650000D01*
X160116000Y-84400000D01*
X160112118Y-84419517D01*
X160101062Y-84436062D01*
X160084517Y-84447118D01*
X160065000Y-84451000D01*
X159665000Y-84451000D01*
X159645483Y-84447118D01*
X159628938Y-84436062D01*
X159617882Y-84419517D01*
X159614000Y-84400000D01*
X159614000Y-82650000D01*
X159617882Y-82630483D01*
X159628938Y-82613938D01*
X159645483Y-82602882D01*
X159665000Y-82599000D01*
X160065000Y-82599000D01*
X160084517Y-82602882D01*
G37*
G36*
X160734517Y-82602882D02*
G01*
X160751062Y-82613938D01*
X160762118Y-82630483D01*
X160766000Y-82650000D01*
X160766000Y-84400000D01*
X160762118Y-84419517D01*
X160751062Y-84436062D01*
X160734517Y-84447118D01*
X160715000Y-84451000D01*
X160315000Y-84451000D01*
X160295483Y-84447118D01*
X160278938Y-84436062D01*
X160267882Y-84419517D01*
X160264000Y-84400000D01*
X160264000Y-82650000D01*
X160267882Y-82630483D01*
X160278938Y-82613938D01*
X160295483Y-82602882D01*
X160315000Y-82599000D01*
X160715000Y-82599000D01*
X160734517Y-82602882D01*
G37*
G36*
X161384517Y-82602882D02*
G01*
X161401062Y-82613938D01*
X161412118Y-82630483D01*
X161416000Y-82650000D01*
X161416000Y-84400000D01*
X161412118Y-84419517D01*
X161401062Y-84436062D01*
X161384517Y-84447118D01*
X161365000Y-84451000D01*
X160965000Y-84451000D01*
X160945483Y-84447118D01*
X160928938Y-84436062D01*
X160917882Y-84419517D01*
X160914000Y-84400000D01*
X160914000Y-82650000D01*
X160917882Y-82630483D01*
X160928938Y-82613938D01*
X160945483Y-82602882D01*
X160965000Y-82599000D01*
X161365000Y-82599000D01*
X161384517Y-82602882D01*
G37*
G36*
X169284517Y-81752882D02*
G01*
X169301062Y-81763938D01*
X169312118Y-81780483D01*
X169316000Y-81800000D01*
X169316000Y-84000000D01*
X169312118Y-84019517D01*
X169301062Y-84036062D01*
X169284517Y-84047118D01*
X169265000Y-84051000D01*
X168265000Y-84051000D01*
X168245483Y-84047118D01*
X168228938Y-84036062D01*
X168217882Y-84019517D01*
X168214000Y-84000000D01*
X168214000Y-81800000D01*
X168217882Y-81780483D01*
X168228938Y-81763938D01*
X168245483Y-81752882D01*
X168265000Y-81749000D01*
X169265000Y-81749000D01*
X169284517Y-81752882D01*
G37*
G36*
X180684517Y-81752882D02*
G01*
X180701062Y-81763938D01*
X180712118Y-81780483D01*
X180716000Y-81800000D01*
X180716000Y-84000000D01*
X180712118Y-84019517D01*
X180701062Y-84036062D01*
X180684517Y-84047118D01*
X180665000Y-84051000D01*
X179665000Y-84051000D01*
X179645483Y-84047118D01*
X179628938Y-84036062D01*
X179617882Y-84019517D01*
X179614000Y-84000000D01*
X179614000Y-81800000D01*
X179617882Y-81780483D01*
X179628938Y-81763938D01*
X179645483Y-81752882D01*
X179665000Y-81749000D01*
X180665000Y-81749000D01*
X180684517Y-81752882D01*
G37*
G36*
X185125709Y-83005089D02*
G01*
X185161157Y-83005089D01*
X185189967Y-83013548D01*
X185219307Y-83017411D01*
X185258718Y-83033735D01*
X185297708Y-83045184D01*
X185318287Y-83058409D01*
X185339806Y-83067323D01*
X185379235Y-83097578D01*
X185417430Y-83122125D01*
X185429743Y-83136335D01*
X185443278Y-83146721D01*
X185478368Y-83192451D01*
X185510627Y-83229680D01*
X185516054Y-83241565D01*
X185522675Y-83250193D01*
X185548818Y-83313308D01*
X185569746Y-83359134D01*
X185570780Y-83366329D01*
X185572588Y-83370693D01*
X185585390Y-83467941D01*
X185590000Y-83500000D01*
X185585390Y-83532058D01*
X185572588Y-83629307D01*
X185570780Y-83633670D01*
X185569746Y-83640866D01*
X185548821Y-83686684D01*
X185522676Y-83749806D01*
X185516054Y-83758435D01*
X185510627Y-83770320D01*
X185478365Y-83807551D01*
X185443278Y-83853278D01*
X185429745Y-83863661D01*
X185417430Y-83877875D01*
X185379227Y-83902426D01*
X185339806Y-83932676D01*
X185318292Y-83941587D01*
X185297708Y-83954816D01*
X185258709Y-83966266D01*
X185219307Y-83982588D01*
X185189973Y-83986449D01*
X185161157Y-83994911D01*
X185125701Y-83994911D01*
X185090000Y-83999611D01*
X185054298Y-83994911D01*
X185018843Y-83994911D01*
X184990027Y-83986449D01*
X184960692Y-83982588D01*
X184921286Y-83966265D01*
X184882292Y-83954816D01*
X184861709Y-83941588D01*
X184840193Y-83932676D01*
X184800766Y-83902422D01*
X184762570Y-83877875D01*
X184750256Y-83863663D01*
X184736721Y-83853278D01*
X184701625Y-83807541D01*
X184669373Y-83770320D01*
X184663946Y-83758438D01*
X184657323Y-83749806D01*
X184631167Y-83686661D01*
X184610254Y-83640866D01*
X184609219Y-83633674D01*
X184607411Y-83629307D01*
X184594597Y-83531976D01*
X184590000Y-83500000D01*
X184594597Y-83468023D01*
X184607411Y-83370693D01*
X184609219Y-83366325D01*
X184610254Y-83359134D01*
X184631170Y-83313332D01*
X184657324Y-83250193D01*
X184663946Y-83241562D01*
X184669373Y-83229680D01*
X184701622Y-83192461D01*
X184736721Y-83146721D01*
X184750258Y-83136333D01*
X184762570Y-83122125D01*
X184800763Y-83097579D01*
X184840193Y-83067324D01*
X184861709Y-83058411D01*
X184882292Y-83045184D01*
X184921283Y-83033735D01*
X184960693Y-83017411D01*
X184990032Y-83013548D01*
X185018843Y-83005089D01*
X185054291Y-83005089D01*
X185090000Y-83000388D01*
X185125709Y-83005089D01*
G37*
G36*
X157486220Y-79456598D02*
G01*
X157491877Y-79458577D01*
X157496968Y-79459125D01*
X157550453Y-79479074D01*
X157608836Y-79499503D01*
X157612525Y-79502225D01*
X157613834Y-79502714D01*
X157659101Y-79536600D01*
X157713357Y-79576643D01*
X157753416Y-79630922D01*
X157787285Y-79676165D01*
X157787772Y-79677472D01*
X157790497Y-79681164D01*
X157810932Y-79739564D01*
X157830874Y-79793030D01*
X157831421Y-79798118D01*
X157833402Y-79803780D01*
X157841000Y-79884800D01*
X157841000Y-82049999D01*
X157841000Y-82050000D01*
X157841000Y-82750000D01*
X157837118Y-82769517D01*
X157826062Y-82786062D01*
X157809517Y-82797118D01*
X157790000Y-82801000D01*
X157405200Y-82801000D01*
X156874800Y-82801000D01*
X155965000Y-82801000D01*
X155945483Y-82797118D01*
X155928938Y-82786062D01*
X155917882Y-82769517D01*
X155914000Y-82750000D01*
X155914000Y-82050000D01*
X155917882Y-82030483D01*
X155928938Y-82013938D01*
X155945483Y-82002882D01*
X155965000Y-81999000D01*
X156412640Y-81999000D01*
X156439000Y-81972640D01*
X156439000Y-79887210D01*
X156439000Y-79884800D01*
X156446598Y-79803780D01*
X156448577Y-79798122D01*
X156449125Y-79793031D01*
X156469079Y-79739530D01*
X156489503Y-79681164D01*
X156492225Y-79677475D01*
X156492714Y-79676165D01*
X156526653Y-79630827D01*
X156566643Y-79576643D01*
X156620827Y-79536653D01*
X156666165Y-79502714D01*
X156667475Y-79502225D01*
X156671164Y-79499503D01*
X156729521Y-79479082D01*
X156783030Y-79459125D01*
X156788122Y-79458577D01*
X156793780Y-79456598D01*
X156874800Y-79449000D01*
X157405200Y-79449000D01*
X157486220Y-79456598D01*
G37*
G36*
X162936220Y-79456598D02*
G01*
X162941877Y-79458577D01*
X162946968Y-79459125D01*
X163000453Y-79479074D01*
X163058836Y-79499503D01*
X163062525Y-79502225D01*
X163063834Y-79502714D01*
X163109101Y-79536600D01*
X163163357Y-79576643D01*
X163203416Y-79630922D01*
X163237285Y-79676165D01*
X163237772Y-79677472D01*
X163240497Y-79681164D01*
X163260932Y-79739564D01*
X163280874Y-79793030D01*
X163281421Y-79798118D01*
X163283402Y-79803780D01*
X163291000Y-79884800D01*
X163290999Y-81972640D01*
X163317359Y-81999000D01*
X163765000Y-81999000D01*
X163784517Y-82002882D01*
X163801062Y-82013938D01*
X163812118Y-82030483D01*
X163816000Y-82050000D01*
X163816000Y-82750000D01*
X163812118Y-82769517D01*
X163801062Y-82786062D01*
X163784517Y-82797118D01*
X163765000Y-82801000D01*
X162855200Y-82801000D01*
X162324800Y-82801000D01*
X161940000Y-82801000D01*
X161920483Y-82797118D01*
X161903938Y-82786062D01*
X161892882Y-82769517D01*
X161889000Y-82750000D01*
X161889000Y-82050000D01*
X161889000Y-82049999D01*
X161889000Y-79887210D01*
X161889000Y-79887209D01*
X161889000Y-79884800D01*
X161896598Y-79803780D01*
X161898577Y-79798122D01*
X161899125Y-79793031D01*
X161919079Y-79739530D01*
X161939503Y-79681164D01*
X161942225Y-79677475D01*
X161942714Y-79676165D01*
X161976653Y-79630827D01*
X162016643Y-79576643D01*
X162070827Y-79536653D01*
X162116165Y-79502714D01*
X162117475Y-79502225D01*
X162121164Y-79499503D01*
X162179521Y-79479082D01*
X162233030Y-79459125D01*
X162238122Y-79458577D01*
X162243780Y-79456598D01*
X162324800Y-79449000D01*
X162855200Y-79449000D01*
X162936220Y-79456598D01*
G37*
G36*
X159634517Y-79152882D02*
G01*
X159651062Y-79163938D01*
X159662118Y-79180483D01*
X159666000Y-79200000D01*
X159666000Y-81700000D01*
X159662118Y-81719517D01*
X159651062Y-81736062D01*
X159634517Y-81747118D01*
X159615000Y-81751000D01*
X158190000Y-81751000D01*
X158170483Y-81747118D01*
X158153938Y-81736062D01*
X158142882Y-81719517D01*
X158139000Y-81700000D01*
X158139000Y-79200000D01*
X158142882Y-79180483D01*
X158153938Y-79163938D01*
X158170483Y-79152882D01*
X158190000Y-79149000D01*
X159615000Y-79149000D01*
X159634517Y-79152882D01*
G37*
G36*
X161559517Y-79152882D02*
G01*
X161576062Y-79163938D01*
X161587118Y-79180483D01*
X161591000Y-79200000D01*
X161591000Y-81700000D01*
X161587118Y-81719517D01*
X161576062Y-81736062D01*
X161559517Y-81747118D01*
X161540000Y-81751000D01*
X160115000Y-81751000D01*
X160095483Y-81747118D01*
X160078938Y-81736062D01*
X160067882Y-81719517D01*
X160064000Y-81700000D01*
X160064000Y-79200000D01*
X160067882Y-79180483D01*
X160078938Y-79163938D01*
X160095483Y-79152882D01*
X160115000Y-79149000D01*
X161540000Y-79149000D01*
X161559517Y-79152882D01*
G37*
G36*
X178125709Y-80005089D02*
G01*
X178161157Y-80005089D01*
X178189967Y-80013548D01*
X178219307Y-80017411D01*
X178258718Y-80033735D01*
X178297708Y-80045184D01*
X178318287Y-80058409D01*
X178339806Y-80067323D01*
X178379235Y-80097578D01*
X178417430Y-80122125D01*
X178429743Y-80136335D01*
X178443278Y-80146721D01*
X178478368Y-80192451D01*
X178510627Y-80229680D01*
X178516054Y-80241565D01*
X178522675Y-80250193D01*
X178548818Y-80313308D01*
X178569746Y-80359134D01*
X178570780Y-80366329D01*
X178572588Y-80370693D01*
X178585390Y-80467941D01*
X178590000Y-80500000D01*
X178585390Y-80532058D01*
X178572588Y-80629307D01*
X178570780Y-80633670D01*
X178569746Y-80640866D01*
X178548821Y-80686684D01*
X178522676Y-80749806D01*
X178516054Y-80758435D01*
X178510627Y-80770320D01*
X178478365Y-80807551D01*
X178443278Y-80853278D01*
X178429745Y-80863661D01*
X178417430Y-80877875D01*
X178379227Y-80902426D01*
X178339806Y-80932676D01*
X178318292Y-80941587D01*
X178297708Y-80954816D01*
X178258709Y-80966266D01*
X178219307Y-80982588D01*
X178189973Y-80986449D01*
X178161157Y-80994911D01*
X178125701Y-80994911D01*
X178090000Y-80999611D01*
X178054298Y-80994911D01*
X178018843Y-80994911D01*
X177990027Y-80986449D01*
X177960692Y-80982588D01*
X177921286Y-80966265D01*
X177882292Y-80954816D01*
X177861709Y-80941588D01*
X177840193Y-80932676D01*
X177800766Y-80902422D01*
X177762570Y-80877875D01*
X177750256Y-80863663D01*
X177736721Y-80853278D01*
X177701625Y-80807541D01*
X177669373Y-80770320D01*
X177663946Y-80758438D01*
X177657323Y-80749806D01*
X177631167Y-80686661D01*
X177610254Y-80640866D01*
X177609219Y-80633674D01*
X177607411Y-80629307D01*
X177594597Y-80531976D01*
X177590000Y-80500000D01*
X177594597Y-80468023D01*
X177607411Y-80370693D01*
X177609219Y-80366325D01*
X177610254Y-80359134D01*
X177631170Y-80313332D01*
X177657324Y-80250193D01*
X177663946Y-80241562D01*
X177669373Y-80229680D01*
X177701622Y-80192461D01*
X177736721Y-80146721D01*
X177750258Y-80136333D01*
X177762570Y-80122125D01*
X177800763Y-80097579D01*
X177840193Y-80067324D01*
X177861709Y-80058411D01*
X177882292Y-80045184D01*
X177921283Y-80033735D01*
X177960693Y-80017411D01*
X177990032Y-80013548D01*
X178018843Y-80005089D01*
X178054291Y-80005089D01*
X178090000Y-80000388D01*
X178125709Y-80005089D01*
G37*
M02*
