M48
; DRILL file {KiCad 7.0.6} date Wed Apr 24 00:38:07 2024
; FORMAT={-:-/ absolute / metric / decimal}
; #@! TF.CreationDate,2024-04-24T00:38:07-04:00
; #@! TF.GenerationSoftware,Kicad,Pcbnew,7.0.6
; #@! TF.FileFunction,Plated,1,2,PTH
FMAT,2
METRIC
; #@! TA.AperFunction,Plated,PTH,ViaDrill
T1C0.350
; #@! TA.AperFunction,Plated,PTH,ComponentDrill
T2C0.350
; #@! TA.AperFunction,Plated,PTH,ComponentDrill
T3C0.650
; #@! TA.AperFunction,Plated,PTH,ComponentDrill
T4C0.700
%
G90
G05
T1
X156.915Y-85.975
X158.34Y-88.0
X158.34Y-89.0
X158.34Y-89.75
X158.34Y-90.5
X162.09Y-90.125
X162.84Y-86.0
X164.151Y-81.819
X164.215Y-86.694
X164.215Y-87.75
X164.34Y-83.5
X164.4Y-84.569
X164.465Y-82.5
X164.469Y-80.5
X164.491Y-79.777
X165.215Y-93.0
X165.334Y-90.241
X166.09Y-89.625
X166.927Y-87.549
X167.215Y-80.375
X167.215Y-81.5
X167.59Y-83.875
X167.815Y-90.875
X168.136Y-79.6
X168.34Y-93.15
X169.14Y-86.819
X169.692Y-81.1
X171.442Y-79.6
X172.245Y-91.725
X173.34Y-86.919
X175.53Y-86.929
X175.892Y-80.6
X175.94Y-88.956
X176.84Y-84.25
X177.44Y-87.456
X177.44Y-90.706
X177.69Y-84.706
X179.611Y-87.935
X181.581Y-88.426
X181.69Y-84.706
X181.69Y-86.206
X181.69Y-90.706
X183.072Y-86.489
X183.09Y-89.5
X184.638Y-85.966
X185.163Y-87.35
X185.59Y-86.5
X186.13Y-87.851
X186.715Y-88.625
T2
X169.965Y-86.244
X169.965Y-87.519
X169.965Y-88.794
X171.24Y-86.244
X171.24Y-87.519
X171.24Y-88.794
X172.515Y-86.244
X172.515Y-87.519
X172.515Y-88.794
T3
X157.44Y-83.53G85X157.44Y-83.93
G05
X162.29Y-83.53G85X162.29Y-83.93
G05
T4
X157.14Y-80.45G85X157.14Y-80.95
G05
X162.59Y-80.45G85X162.59Y-80.95
G05
T0
M30
