%TF.GenerationSoftware,KiCad,Pcbnew,(6.0.9)*%
%TF.CreationDate,2023-01-06T22:41:28-05:00*%
%TF.ProjectId,Doom Keycap,446f6f6d-204b-4657-9963-61702e6b6963,REV1*%
%TF.SameCoordinates,Original*%
%TF.FileFunction,Legend,Top*%
%TF.FilePolarity,Positive*%
%FSLAX46Y46*%
G04 Gerber Fmt 4.6, Leading zero omitted, Abs format (unit mm)*
G04 Created by KiCad (PCBNEW (6.0.9)) date 2023-01-06 22:41:28*
%MOMM*%
%LPD*%
G01*
G04 APERTURE LIST*
G04 Aperture macros list*
%AMRoundRect*
0 Rectangle with rounded corners*
0 $1 Rounding radius*
0 $2 $3 $4 $5 $6 $7 $8 $9 X,Y pos of 4 corners*
0 Add a 4 corners polygon primitive as box body*
4,1,4,$2,$3,$4,$5,$6,$7,$8,$9,$2,$3,0*
0 Add four circle primitives for the rounded corners*
1,1,$1+$1,$2,$3*
1,1,$1+$1,$4,$5*
1,1,$1+$1,$6,$7*
1,1,$1+$1,$8,$9*
0 Add four rect primitives between the rounded corners*
20,1,$1+$1,$2,$3,$4,$5,0*
20,1,$1+$1,$4,$5,$6,$7,0*
20,1,$1+$1,$6,$7,$8,$9,0*
20,1,$1+$1,$8,$9,$2,$3,0*%
G04 Aperture macros list end*
%ADD10C,0.150000*%
%ADD11C,0.125000*%
%ADD12C,0.120000*%
%ADD13C,0.100000*%
%ADD14RoundRect,0.198500X0.147500X0.172500X-0.147500X0.172500X-0.147500X-0.172500X0.147500X-0.172500X0*%
%ADD15RoundRect,0.198500X-0.172500X0.147500X-0.172500X-0.147500X0.172500X-0.147500X0.172500X0.147500X0*%
%ADD16RoundRect,0.198500X0.172500X-0.147500X0.172500X0.147500X-0.172500X0.147500X-0.172500X-0.147500X0*%
%ADD17RoundRect,0.201000X0.650000X0.150000X-0.650000X0.150000X-0.650000X-0.150000X0.650000X-0.150000X0*%
%ADD18RoundRect,0.198500X-0.147500X-0.172500X0.147500X-0.172500X0.147500X0.172500X-0.147500X0.172500X0*%
%ADD19RoundRect,0.101000X0.050000X-0.387500X0.050000X0.387500X-0.050000X0.387500X-0.050000X-0.387500X0*%
%ADD20RoundRect,0.101000X0.387500X-0.050000X0.387500X0.050000X-0.387500X0.050000X-0.387500X-0.050000X0*%
%ADD21RoundRect,0.195000X1.456000X-1.456000X1.456000X1.456000X-1.456000X1.456000X-1.456000X-1.456000X0*%
%ADD22RoundRect,0.051000X0.495300X-0.622300X0.495300X0.622300X-0.495300X0.622300X-0.495300X-0.622300X0*%
%ADD23RoundRect,0.294750X0.243750X0.456250X-0.243750X0.456250X-0.243750X-0.456250X0.243750X-0.456250X0*%
%ADD24RoundRect,0.191000X-0.170000X0.140000X-0.170000X-0.140000X0.170000X-0.140000X0.170000X0.140000X0*%
%ADD25RoundRect,0.191000X0.140000X0.170000X-0.140000X0.170000X-0.140000X-0.170000X0.140000X-0.170000X0*%
%ADD26RoundRect,0.051000X-0.406400X0.127000X-0.406400X-0.127000X0.406400X-0.127000X0.406400X0.127000X0*%
%ADD27RoundRect,0.051000X0.127000X0.406400X-0.127000X0.406400X-0.127000X-0.406400X0.127000X-0.406400X0*%
%ADD28RoundRect,0.051000X0.622300X0.622300X-0.622300X0.622300X-0.622300X-0.622300X0.622300X-0.622300X0*%
%ADD29RoundRect,0.186000X-0.185000X0.135000X-0.185000X-0.135000X0.185000X-0.135000X0.185000X0.135000X0*%
%ADD30RoundRect,0.269750X0.256250X-0.218750X0.256250X0.218750X-0.256250X0.218750X-0.256250X-0.218750X0*%
%ADD31RoundRect,0.051000X0.152400X-0.127000X0.152400X0.127000X-0.152400X0.127000X-0.152400X-0.127000X0*%
%ADD32O,1.152000X1.552000*%
%ADD33O,1.402000X1.902000*%
G04 APERTURE END LIST*
D10*
X171268571Y-95507380D02*
X171268571Y-96316904D01*
X171316190Y-96412142D01*
X171363809Y-96459761D01*
X171459047Y-96507380D01*
X171649523Y-96507380D01*
X171744761Y-96459761D01*
X171792380Y-96412142D01*
X171840000Y-96316904D01*
X171840000Y-95507380D01*
X172268571Y-96459761D02*
X172411428Y-96507380D01*
X172649523Y-96507380D01*
X172744761Y-96459761D01*
X172792380Y-96412142D01*
X172840000Y-96316904D01*
X172840000Y-96221666D01*
X172792380Y-96126428D01*
X172744761Y-96078809D01*
X172649523Y-96031190D01*
X172459047Y-95983571D01*
X172363809Y-95935952D01*
X172316190Y-95888333D01*
X172268571Y-95793095D01*
X172268571Y-95697857D01*
X172316190Y-95602619D01*
X172363809Y-95555000D01*
X172459047Y-95507380D01*
X172697142Y-95507380D01*
X172840000Y-95555000D01*
X173601904Y-95983571D02*
X173744761Y-96031190D01*
X173792380Y-96078809D01*
X173840000Y-96174047D01*
X173840000Y-96316904D01*
X173792380Y-96412142D01*
X173744761Y-96459761D01*
X173649523Y-96507380D01*
X173268571Y-96507380D01*
X173268571Y-95507380D01*
X173601904Y-95507380D01*
X173697142Y-95555000D01*
X173744761Y-95602619D01*
X173792380Y-95697857D01*
X173792380Y-95793095D01*
X173744761Y-95888333D01*
X173697142Y-95935952D01*
X173601904Y-95983571D01*
X173268571Y-95983571D01*
X174030476Y-96602619D02*
X174792380Y-96602619D01*
X175363809Y-95983571D02*
X175506666Y-96031190D01*
X175554285Y-96078809D01*
X175601904Y-96174047D01*
X175601904Y-96316904D01*
X175554285Y-96412142D01*
X175506666Y-96459761D01*
X175411428Y-96507380D01*
X175030476Y-96507380D01*
X175030476Y-95507380D01*
X175363809Y-95507380D01*
X175459047Y-95555000D01*
X175506666Y-95602619D01*
X175554285Y-95697857D01*
X175554285Y-95793095D01*
X175506666Y-95888333D01*
X175459047Y-95935952D01*
X175363809Y-95983571D01*
X175030476Y-95983571D01*
X176220952Y-95507380D02*
X176411428Y-95507380D01*
X176506666Y-95555000D01*
X176601904Y-95650238D01*
X176649523Y-95840714D01*
X176649523Y-96174047D01*
X176601904Y-96364523D01*
X176506666Y-96459761D01*
X176411428Y-96507380D01*
X176220952Y-96507380D01*
X176125714Y-96459761D01*
X176030476Y-96364523D01*
X175982857Y-96174047D01*
X175982857Y-95840714D01*
X176030476Y-95650238D01*
X176125714Y-95555000D01*
X176220952Y-95507380D01*
X177268571Y-95507380D02*
X177459047Y-95507380D01*
X177554285Y-95555000D01*
X177649523Y-95650238D01*
X177697142Y-95840714D01*
X177697142Y-96174047D01*
X177649523Y-96364523D01*
X177554285Y-96459761D01*
X177459047Y-96507380D01*
X177268571Y-96507380D01*
X177173333Y-96459761D01*
X177078095Y-96364523D01*
X177030476Y-96174047D01*
X177030476Y-95840714D01*
X177078095Y-95650238D01*
X177173333Y-95555000D01*
X177268571Y-95507380D01*
X177982857Y-95507380D02*
X178554285Y-95507380D01*
X178268571Y-96507380D02*
X178268571Y-95507380D01*
D11*
X166518571Y-84178571D02*
X166494761Y-84202380D01*
X166423333Y-84226190D01*
X166375714Y-84226190D01*
X166304285Y-84202380D01*
X166256666Y-84154761D01*
X166232857Y-84107142D01*
X166209047Y-84011904D01*
X166209047Y-83940476D01*
X166232857Y-83845238D01*
X166256666Y-83797619D01*
X166304285Y-83750000D01*
X166375714Y-83726190D01*
X166423333Y-83726190D01*
X166494761Y-83750000D01*
X166518571Y-83773809D01*
X166994761Y-84226190D02*
X166709047Y-84226190D01*
X166851904Y-84226190D02*
X166851904Y-83726190D01*
X166804285Y-83797619D01*
X166756666Y-83845238D01*
X166709047Y-83869047D01*
X167304285Y-83726190D02*
X167351904Y-83726190D01*
X167399523Y-83750000D01*
X167423333Y-83773809D01*
X167447142Y-83821428D01*
X167470952Y-83916666D01*
X167470952Y-84035714D01*
X167447142Y-84130952D01*
X167423333Y-84178571D01*
X167399523Y-84202380D01*
X167351904Y-84226190D01*
X167304285Y-84226190D01*
X167256666Y-84202380D01*
X167232857Y-84178571D01*
X167209047Y-84130952D01*
X167185238Y-84035714D01*
X167185238Y-83916666D01*
X167209047Y-83821428D01*
X167232857Y-83773809D01*
X167256666Y-83750000D01*
X167304285Y-83726190D01*
X167006666Y-85178571D02*
X166982857Y-85202380D01*
X166911428Y-85226190D01*
X166863809Y-85226190D01*
X166792380Y-85202380D01*
X166744761Y-85154761D01*
X166720952Y-85107142D01*
X166697142Y-85011904D01*
X166697142Y-84940476D01*
X166720952Y-84845238D01*
X166744761Y-84797619D01*
X166792380Y-84750000D01*
X166863809Y-84726190D01*
X166911428Y-84726190D01*
X166982857Y-84750000D01*
X167006666Y-84773809D01*
X167292380Y-84940476D02*
X167244761Y-84916666D01*
X167220952Y-84892857D01*
X167197142Y-84845238D01*
X167197142Y-84821428D01*
X167220952Y-84773809D01*
X167244761Y-84750000D01*
X167292380Y-84726190D01*
X167387619Y-84726190D01*
X167435238Y-84750000D01*
X167459047Y-84773809D01*
X167482857Y-84821428D01*
X167482857Y-84845238D01*
X167459047Y-84892857D01*
X167435238Y-84916666D01*
X167387619Y-84940476D01*
X167292380Y-84940476D01*
X167244761Y-84964285D01*
X167220952Y-84988095D01*
X167197142Y-85035714D01*
X167197142Y-85130952D01*
X167220952Y-85178571D01*
X167244761Y-85202380D01*
X167292380Y-85226190D01*
X167387619Y-85226190D01*
X167435238Y-85202380D01*
X167459047Y-85178571D01*
X167482857Y-85130952D01*
X167482857Y-85035714D01*
X167459047Y-84988095D01*
X167435238Y-84964285D01*
X167387619Y-84940476D01*
X156856666Y-90928571D02*
X156832857Y-90952380D01*
X156761428Y-90976190D01*
X156713809Y-90976190D01*
X156642380Y-90952380D01*
X156594761Y-90904761D01*
X156570952Y-90857142D01*
X156547142Y-90761904D01*
X156547142Y-90690476D01*
X156570952Y-90595238D01*
X156594761Y-90547619D01*
X156642380Y-90500000D01*
X156713809Y-90476190D01*
X156761428Y-90476190D01*
X156832857Y-90500000D01*
X156856666Y-90523809D01*
X157309047Y-90476190D02*
X157070952Y-90476190D01*
X157047142Y-90714285D01*
X157070952Y-90690476D01*
X157118571Y-90666666D01*
X157237619Y-90666666D01*
X157285238Y-90690476D01*
X157309047Y-90714285D01*
X157332857Y-90761904D01*
X157332857Y-90880952D01*
X157309047Y-90928571D01*
X157285238Y-90952380D01*
X157237619Y-90976190D01*
X157118571Y-90976190D01*
X157070952Y-90952380D01*
X157047142Y-90928571D01*
X167431666Y-94211190D02*
X167265000Y-93973095D01*
X167145952Y-94211190D02*
X167145952Y-93711190D01*
X167336428Y-93711190D01*
X167384047Y-93735000D01*
X167407857Y-93758809D01*
X167431666Y-93806428D01*
X167431666Y-93877857D01*
X167407857Y-93925476D01*
X167384047Y-93949285D01*
X167336428Y-93973095D01*
X167145952Y-93973095D01*
X167622142Y-93758809D02*
X167645952Y-93735000D01*
X167693571Y-93711190D01*
X167812619Y-93711190D01*
X167860238Y-93735000D01*
X167884047Y-93758809D01*
X167907857Y-93806428D01*
X167907857Y-93854047D01*
X167884047Y-93925476D01*
X167598333Y-94211190D01*
X167907857Y-94211190D01*
X161859047Y-89476190D02*
X161859047Y-89880952D01*
X161882857Y-89928571D01*
X161906666Y-89952380D01*
X161954285Y-89976190D01*
X162049523Y-89976190D01*
X162097142Y-89952380D01*
X162120952Y-89928571D01*
X162144761Y-89880952D01*
X162144761Y-89476190D01*
X162359047Y-89523809D02*
X162382857Y-89500000D01*
X162430476Y-89476190D01*
X162549523Y-89476190D01*
X162597142Y-89500000D01*
X162620952Y-89523809D01*
X162644761Y-89571428D01*
X162644761Y-89619047D01*
X162620952Y-89690476D01*
X162335238Y-89976190D01*
X162644761Y-89976190D01*
X183506666Y-84178571D02*
X183482857Y-84202380D01*
X183411428Y-84226190D01*
X183363809Y-84226190D01*
X183292380Y-84202380D01*
X183244761Y-84154761D01*
X183220952Y-84107142D01*
X183197142Y-84011904D01*
X183197142Y-83940476D01*
X183220952Y-83845238D01*
X183244761Y-83797619D01*
X183292380Y-83750000D01*
X183363809Y-83726190D01*
X183411428Y-83726190D01*
X183482857Y-83750000D01*
X183506666Y-83773809D01*
X183673333Y-83726190D02*
X183982857Y-83726190D01*
X183816190Y-83916666D01*
X183887619Y-83916666D01*
X183935238Y-83940476D01*
X183959047Y-83964285D01*
X183982857Y-84011904D01*
X183982857Y-84130952D01*
X183959047Y-84178571D01*
X183935238Y-84202380D01*
X183887619Y-84226190D01*
X183744761Y-84226190D01*
X183697142Y-84202380D01*
X183673333Y-84178571D01*
X169006666Y-94226190D02*
X168840000Y-93988095D01*
X168720952Y-94226190D02*
X168720952Y-93726190D01*
X168911428Y-93726190D01*
X168959047Y-93750000D01*
X168982857Y-93773809D01*
X169006666Y-93821428D01*
X169006666Y-93892857D01*
X168982857Y-93940476D01*
X168959047Y-93964285D01*
X168911428Y-93988095D01*
X168720952Y-93988095D01*
X169482857Y-94226190D02*
X169197142Y-94226190D01*
X169340000Y-94226190D02*
X169340000Y-93726190D01*
X169292380Y-93797619D01*
X169244761Y-93845238D01*
X169197142Y-93869047D01*
X167256666Y-87226190D02*
X167090000Y-86988095D01*
X166970952Y-87226190D02*
X166970952Y-86726190D01*
X167161428Y-86726190D01*
X167209047Y-86750000D01*
X167232857Y-86773809D01*
X167256666Y-86821428D01*
X167256666Y-86892857D01*
X167232857Y-86940476D01*
X167209047Y-86964285D01*
X167161428Y-86988095D01*
X166970952Y-86988095D01*
X167423333Y-86726190D02*
X167732857Y-86726190D01*
X167566190Y-86916666D01*
X167637619Y-86916666D01*
X167685238Y-86940476D01*
X167709047Y-86964285D01*
X167732857Y-87011904D01*
X167732857Y-87130952D01*
X167709047Y-87178571D01*
X167685238Y-87202380D01*
X167637619Y-87226190D01*
X167494761Y-87226190D01*
X167447142Y-87202380D01*
X167423333Y-87178571D01*
X180163247Y-83502543D02*
X180139438Y-83526352D01*
X180068009Y-83550162D01*
X180020390Y-83550162D01*
X179948961Y-83526352D01*
X179901342Y-83478733D01*
X179877533Y-83431114D01*
X179853723Y-83335876D01*
X179853723Y-83264448D01*
X179877533Y-83169210D01*
X179901342Y-83121591D01*
X179948961Y-83073972D01*
X180020390Y-83050162D01*
X180068009Y-83050162D01*
X180139438Y-83073972D01*
X180163247Y-83097781D01*
X180329914Y-83050162D02*
X180663247Y-83050162D01*
X180448961Y-83550162D01*
X171709047Y-91476190D02*
X171709047Y-91880952D01*
X171732857Y-91928571D01*
X171756666Y-91952380D01*
X171804285Y-91976190D01*
X171899523Y-91976190D01*
X171947142Y-91952380D01*
X171970952Y-91928571D01*
X171994761Y-91880952D01*
X171994761Y-91476190D01*
X172185238Y-91476190D02*
X172494761Y-91476190D01*
X172328095Y-91666666D01*
X172399523Y-91666666D01*
X172447142Y-91690476D01*
X172470952Y-91714285D01*
X172494761Y-91761904D01*
X172494761Y-91880952D01*
X172470952Y-91928571D01*
X172447142Y-91952380D01*
X172399523Y-91976190D01*
X172256666Y-91976190D01*
X172209047Y-91952380D01*
X172185238Y-91928571D01*
X183313211Y-87678571D02*
X183289402Y-87702380D01*
X183217973Y-87726190D01*
X183170354Y-87726190D01*
X183098925Y-87702380D01*
X183051306Y-87654761D01*
X183027497Y-87607142D01*
X183003687Y-87511904D01*
X183003687Y-87440476D01*
X183027497Y-87345238D01*
X183051306Y-87297619D01*
X183098925Y-87250000D01*
X183170354Y-87226190D01*
X183217973Y-87226190D01*
X183289402Y-87250000D01*
X183313211Y-87273809D01*
X183503687Y-87273809D02*
X183527497Y-87250000D01*
X183575116Y-87226190D01*
X183694164Y-87226190D01*
X183741783Y-87250000D01*
X183765592Y-87273809D01*
X183789402Y-87321428D01*
X183789402Y-87369047D01*
X183765592Y-87440476D01*
X183479878Y-87726190D01*
X183789402Y-87726190D01*
X167256666Y-86226190D02*
X167090000Y-85988095D01*
X166970952Y-86226190D02*
X166970952Y-85726190D01*
X167161428Y-85726190D01*
X167209047Y-85750000D01*
X167232857Y-85773809D01*
X167256666Y-85821428D01*
X167256666Y-85892857D01*
X167232857Y-85940476D01*
X167209047Y-85964285D01*
X167161428Y-85988095D01*
X166970952Y-85988095D01*
X167685238Y-85892857D02*
X167685238Y-86226190D01*
X167566190Y-85702380D02*
X167447142Y-86059523D01*
X167756666Y-86059523D01*
X167280296Y-88326970D02*
X167256487Y-88350779D01*
X167185058Y-88374589D01*
X167137439Y-88374589D01*
X167066010Y-88350779D01*
X167018391Y-88303160D01*
X166994582Y-88255541D01*
X166970772Y-88160303D01*
X166970772Y-88088875D01*
X166994582Y-87993637D01*
X167018391Y-87946018D01*
X167066010Y-87898399D01*
X167137439Y-87874589D01*
X167185058Y-87874589D01*
X167256487Y-87898399D01*
X167280296Y-87922208D01*
X167708868Y-87874589D02*
X167613630Y-87874589D01*
X167566010Y-87898399D01*
X167542201Y-87922208D01*
X167494582Y-87993637D01*
X167470772Y-88088875D01*
X167470772Y-88279351D01*
X167494582Y-88326970D01*
X167518391Y-88350779D01*
X167566010Y-88374589D01*
X167661249Y-88374589D01*
X167708868Y-88350779D01*
X167732677Y-88326970D01*
X167756487Y-88279351D01*
X167756487Y-88160303D01*
X167732677Y-88112684D01*
X167708868Y-88088875D01*
X167661249Y-88065065D01*
X167566010Y-88065065D01*
X167518391Y-88088875D01*
X167494582Y-88112684D01*
X167470772Y-88160303D01*
X181506666Y-85476190D02*
X181340000Y-85238095D01*
X181220952Y-85476190D02*
X181220952Y-84976190D01*
X181411428Y-84976190D01*
X181459047Y-85000000D01*
X181482857Y-85023809D01*
X181506666Y-85071428D01*
X181506666Y-85142857D01*
X181482857Y-85190476D01*
X181459047Y-85214285D01*
X181411428Y-85238095D01*
X181220952Y-85238095D01*
X181959047Y-84976190D02*
X181720952Y-84976190D01*
X181697142Y-85214285D01*
X181720952Y-85190476D01*
X181768571Y-85166666D01*
X181887619Y-85166666D01*
X181935238Y-85190476D01*
X181959047Y-85214285D01*
X181982857Y-85261904D01*
X181982857Y-85380952D01*
X181959047Y-85428571D01*
X181935238Y-85452380D01*
X181887619Y-85476190D01*
X181768571Y-85476190D01*
X181720952Y-85452380D01*
X181697142Y-85428571D01*
X186820359Y-85110234D02*
X186820359Y-85348329D01*
X186653693Y-84848329D02*
X186820359Y-85110234D01*
X186987026Y-84848329D01*
X187415597Y-85348329D02*
X187129883Y-85348329D01*
X187272740Y-85348329D02*
X187272740Y-84848329D01*
X187225121Y-84919758D01*
X187177502Y-84967377D01*
X187129883Y-84991186D01*
X188391788Y-92261904D02*
X188391788Y-92023809D01*
X188534645Y-92309523D02*
X188034645Y-92142857D01*
X188534645Y-91976190D01*
X188272740Y-91642857D02*
X188296550Y-91571428D01*
X188320359Y-91547619D01*
X188367978Y-91523809D01*
X188439407Y-91523809D01*
X188487026Y-91547619D01*
X188510835Y-91571428D01*
X188534645Y-91619047D01*
X188534645Y-91809523D01*
X188034645Y-91809523D01*
X188034645Y-91642857D01*
X188058455Y-91595238D01*
X188082264Y-91571428D01*
X188129883Y-91547619D01*
X188177502Y-91547619D01*
X188225121Y-91571428D01*
X188248931Y-91595238D01*
X188272740Y-91642857D01*
X188272740Y-91809523D01*
X188534645Y-91071428D02*
X188534645Y-91309523D01*
X188034645Y-91309523D01*
X188510835Y-90928571D02*
X188534645Y-90857142D01*
X188534645Y-90738095D01*
X188510835Y-90690476D01*
X188487026Y-90666666D01*
X188439407Y-90642857D01*
X188391788Y-90642857D01*
X188344169Y-90666666D01*
X188320359Y-90690476D01*
X188296550Y-90738095D01*
X188272740Y-90833333D01*
X188248931Y-90880952D01*
X188225121Y-90904761D01*
X188177502Y-90928571D01*
X188129883Y-90928571D01*
X188082264Y-90904761D01*
X188058455Y-90880952D01*
X188034645Y-90833333D01*
X188034645Y-90714285D01*
X188058455Y-90642857D01*
X188344169Y-90428571D02*
X188344169Y-90047619D01*
X188534645Y-89547619D02*
X188534645Y-89833333D01*
X188534645Y-89690476D02*
X188034645Y-89690476D01*
X188106074Y-89738095D01*
X188153693Y-89785714D01*
X188177502Y-89833333D01*
X188082264Y-89357142D02*
X188058455Y-89333333D01*
X188034645Y-89285714D01*
X188034645Y-89166666D01*
X188058455Y-89119047D01*
X188082264Y-89095238D01*
X188129883Y-89071428D01*
X188177502Y-89071428D01*
X188248931Y-89095238D01*
X188534645Y-89380952D01*
X188534645Y-89071428D01*
X188487026Y-88857142D02*
X188510835Y-88833333D01*
X188534645Y-88857142D01*
X188510835Y-88880952D01*
X188487026Y-88857142D01*
X188534645Y-88857142D01*
X188034645Y-88523809D02*
X188034645Y-88476190D01*
X188058455Y-88428571D01*
X188082264Y-88404761D01*
X188129883Y-88380952D01*
X188225121Y-88357142D01*
X188344169Y-88357142D01*
X188439407Y-88380952D01*
X188487026Y-88404761D01*
X188510835Y-88428571D01*
X188534645Y-88476190D01*
X188534645Y-88523809D01*
X188510835Y-88571428D01*
X188487026Y-88595238D01*
X188439407Y-88619047D01*
X188344169Y-88642857D01*
X188225121Y-88642857D01*
X188129883Y-88619047D01*
X188082264Y-88595238D01*
X188058455Y-88571428D01*
X188034645Y-88523809D01*
X188034645Y-88047619D02*
X188034645Y-88000000D01*
X188058455Y-87952380D01*
X188082264Y-87928571D01*
X188129883Y-87904761D01*
X188225121Y-87880952D01*
X188344169Y-87880952D01*
X188439407Y-87904761D01*
X188487026Y-87928571D01*
X188510835Y-87952380D01*
X188534645Y-88000000D01*
X188534645Y-88047619D01*
X188510835Y-88095238D01*
X188487026Y-88119047D01*
X188439407Y-88142857D01*
X188344169Y-88166666D01*
X188225121Y-88166666D01*
X188129883Y-88142857D01*
X188082264Y-88119047D01*
X188058455Y-88095238D01*
X188034645Y-88047619D01*
X188034645Y-87571428D02*
X188034645Y-87523809D01*
X188058455Y-87476190D01*
X188082264Y-87452380D01*
X188129883Y-87428571D01*
X188225121Y-87404761D01*
X188344169Y-87404761D01*
X188439407Y-87428571D01*
X188487026Y-87452380D01*
X188510835Y-87476190D01*
X188534645Y-87523809D01*
X188534645Y-87571428D01*
X188510835Y-87619047D01*
X188487026Y-87642857D01*
X188439407Y-87666666D01*
X188344169Y-87690476D01*
X188225121Y-87690476D01*
X188129883Y-87666666D01*
X188082264Y-87642857D01*
X188058455Y-87619047D01*
X188034645Y-87571428D01*
X188534645Y-87190476D02*
X188034645Y-87190476D01*
X188391788Y-87023809D01*
X188034645Y-86857142D01*
X188534645Y-86857142D01*
X188534645Y-86619047D02*
X188034645Y-86619047D01*
X188272740Y-86619047D02*
X188272740Y-86333333D01*
X188534645Y-86333333D02*
X188034645Y-86333333D01*
X188034645Y-86142857D02*
X188034645Y-85809523D01*
X188534645Y-86142857D01*
X188534645Y-85809523D01*
X188344169Y-85619047D02*
X188344169Y-85238095D01*
X188272740Y-84833333D02*
X188296550Y-84761904D01*
X188320359Y-84738095D01*
X188367978Y-84714285D01*
X188439407Y-84714285D01*
X188487026Y-84738095D01*
X188510835Y-84761904D01*
X188534645Y-84809523D01*
X188534645Y-85000000D01*
X188034645Y-85000000D01*
X188034645Y-84833333D01*
X188058455Y-84785714D01*
X188082264Y-84761904D01*
X188129883Y-84738095D01*
X188177502Y-84738095D01*
X188225121Y-84761904D01*
X188248931Y-84785714D01*
X188272740Y-84833333D01*
X188272740Y-85000000D01*
X188201312Y-84285714D02*
X188534645Y-84285714D01*
X188010835Y-84404761D02*
X188367978Y-84523809D01*
X188367978Y-84214285D01*
X188344169Y-84023809D02*
X188344169Y-83642857D01*
X188034645Y-83476190D02*
X188034645Y-83190476D01*
X188534645Y-83333333D02*
X188034645Y-83333333D01*
X185768571Y-83078571D02*
X185744761Y-83102380D01*
X185673333Y-83126190D01*
X185625714Y-83126190D01*
X185554285Y-83102380D01*
X185506666Y-83054761D01*
X185482857Y-83007142D01*
X185459047Y-82911904D01*
X185459047Y-82840476D01*
X185482857Y-82745238D01*
X185506666Y-82697619D01*
X185554285Y-82650000D01*
X185625714Y-82626190D01*
X185673333Y-82626190D01*
X185744761Y-82650000D01*
X185768571Y-82673809D01*
X186244761Y-83126190D02*
X185959047Y-83126190D01*
X186101904Y-83126190D02*
X186101904Y-82626190D01*
X186054285Y-82697619D01*
X186006666Y-82745238D01*
X185959047Y-82769047D01*
X186411428Y-82626190D02*
X186744761Y-82626190D01*
X186530476Y-83126190D01*
X166506666Y-79928571D02*
X166482857Y-79952380D01*
X166411428Y-79976190D01*
X166363809Y-79976190D01*
X166292380Y-79952380D01*
X166244761Y-79904761D01*
X166220952Y-79857142D01*
X166197142Y-79761904D01*
X166197142Y-79690476D01*
X166220952Y-79595238D01*
X166244761Y-79547619D01*
X166292380Y-79500000D01*
X166363809Y-79476190D01*
X166411428Y-79476190D01*
X166482857Y-79500000D01*
X166506666Y-79523809D01*
X166744761Y-79976190D02*
X166840000Y-79976190D01*
X166887619Y-79952380D01*
X166911428Y-79928571D01*
X166959047Y-79857142D01*
X166982857Y-79761904D01*
X166982857Y-79571428D01*
X166959047Y-79523809D01*
X166935238Y-79500000D01*
X166887619Y-79476190D01*
X166792380Y-79476190D01*
X166744761Y-79500000D01*
X166720952Y-79523809D01*
X166697142Y-79571428D01*
X166697142Y-79690476D01*
X166720952Y-79738095D01*
X166744761Y-79761904D01*
X166792380Y-79785714D01*
X166887619Y-79785714D01*
X166935238Y-79761904D01*
X166959047Y-79738095D01*
X166982857Y-79690476D01*
X170768571Y-83928571D02*
X170744761Y-83952380D01*
X170673333Y-83976190D01*
X170625714Y-83976190D01*
X170554285Y-83952380D01*
X170506666Y-83904761D01*
X170482857Y-83857142D01*
X170459047Y-83761904D01*
X170459047Y-83690476D01*
X170482857Y-83595238D01*
X170506666Y-83547619D01*
X170554285Y-83500000D01*
X170625714Y-83476190D01*
X170673333Y-83476190D01*
X170744761Y-83500000D01*
X170768571Y-83523809D01*
X171244761Y-83976190D02*
X170959047Y-83976190D01*
X171101904Y-83976190D02*
X171101904Y-83476190D01*
X171054285Y-83547619D01*
X171006666Y-83595238D01*
X170959047Y-83619047D01*
X171411428Y-83476190D02*
X171720952Y-83476190D01*
X171554285Y-83666666D01*
X171625714Y-83666666D01*
X171673333Y-83690476D01*
X171697142Y-83714285D01*
X171720952Y-83761904D01*
X171720952Y-83880952D01*
X171697142Y-83928571D01*
X171673333Y-83952380D01*
X171625714Y-83976190D01*
X171482857Y-83976190D01*
X171435238Y-83952380D01*
X171411428Y-83928571D01*
X169643571Y-79928571D02*
X169619761Y-79952380D01*
X169548333Y-79976190D01*
X169500714Y-79976190D01*
X169429285Y-79952380D01*
X169381666Y-79904761D01*
X169357857Y-79857142D01*
X169334047Y-79761904D01*
X169334047Y-79690476D01*
X169357857Y-79595238D01*
X169381666Y-79547619D01*
X169429285Y-79500000D01*
X169500714Y-79476190D01*
X169548333Y-79476190D01*
X169619761Y-79500000D01*
X169643571Y-79523809D01*
X170119761Y-79976190D02*
X169834047Y-79976190D01*
X169976904Y-79976190D02*
X169976904Y-79476190D01*
X169929285Y-79547619D01*
X169881666Y-79595238D01*
X169834047Y-79619047D01*
X170595952Y-79976190D02*
X170310238Y-79976190D01*
X170453095Y-79976190D02*
X170453095Y-79476190D01*
X170405476Y-79547619D01*
X170357857Y-79595238D01*
X170310238Y-79619047D01*
X178006666Y-80726190D02*
X177840000Y-80488095D01*
X177720952Y-80726190D02*
X177720952Y-80226190D01*
X177911428Y-80226190D01*
X177959047Y-80250000D01*
X177982857Y-80273809D01*
X178006666Y-80321428D01*
X178006666Y-80392857D01*
X177982857Y-80440476D01*
X177959047Y-80464285D01*
X177911428Y-80488095D01*
X177720952Y-80488095D01*
X178173333Y-80226190D02*
X178506666Y-80226190D01*
X178292380Y-80726190D01*
X170959047Y-79476190D02*
X170959047Y-79880952D01*
X170982857Y-79928571D01*
X171006666Y-79952380D01*
X171054285Y-79976190D01*
X171149523Y-79976190D01*
X171197142Y-79952380D01*
X171220952Y-79928571D01*
X171244761Y-79880952D01*
X171244761Y-79476190D01*
X171720952Y-79476190D02*
X171482857Y-79476190D01*
X171459047Y-79714285D01*
X171482857Y-79690476D01*
X171530476Y-79666666D01*
X171649523Y-79666666D01*
X171697142Y-79690476D01*
X171720952Y-79714285D01*
X171744761Y-79761904D01*
X171744761Y-79880952D01*
X171720952Y-79928571D01*
X171697142Y-79952380D01*
X171649523Y-79976190D01*
X171530476Y-79976190D01*
X171482857Y-79952380D01*
X171459047Y-79928571D01*
X175673333Y-79976190D02*
X175673333Y-79476190D01*
X175840000Y-79833333D01*
X176006666Y-79476190D01*
X176006666Y-79976190D01*
X176220952Y-79833333D02*
X176459047Y-79833333D01*
X176173333Y-79976190D02*
X176340000Y-79476190D01*
X176506666Y-79976190D01*
X176625714Y-79476190D02*
X176959047Y-79976190D01*
X176959047Y-79476190D02*
X176625714Y-79976190D01*
X177173333Y-79976190D02*
X177268571Y-79976190D01*
X177316190Y-79952380D01*
X177340000Y-79928571D01*
X177387619Y-79857142D01*
X177411428Y-79761904D01*
X177411428Y-79571428D01*
X177387619Y-79523809D01*
X177363809Y-79500000D01*
X177316190Y-79476190D01*
X177220952Y-79476190D01*
X177173333Y-79500000D01*
X177149523Y-79523809D01*
X177125714Y-79571428D01*
X177125714Y-79690476D01*
X177149523Y-79738095D01*
X177173333Y-79761904D01*
X177220952Y-79785714D01*
X177316190Y-79785714D01*
X177363809Y-79761904D01*
X177387619Y-79738095D01*
X177411428Y-79690476D01*
X177697142Y-79690476D02*
X177649523Y-79666666D01*
X177625714Y-79642857D01*
X177601904Y-79595238D01*
X177601904Y-79571428D01*
X177625714Y-79523809D01*
X177649523Y-79500000D01*
X177697142Y-79476190D01*
X177792380Y-79476190D01*
X177840000Y-79500000D01*
X177863809Y-79523809D01*
X177887619Y-79571428D01*
X177887619Y-79595238D01*
X177863809Y-79642857D01*
X177840000Y-79666666D01*
X177792380Y-79690476D01*
X177697142Y-79690476D01*
X177649523Y-79714285D01*
X177625714Y-79738095D01*
X177601904Y-79785714D01*
X177601904Y-79880952D01*
X177625714Y-79928571D01*
X177649523Y-79952380D01*
X177697142Y-79976190D01*
X177792380Y-79976190D01*
X177840000Y-79952380D01*
X177863809Y-79928571D01*
X177887619Y-79880952D01*
X177887619Y-79785714D01*
X177863809Y-79738095D01*
X177840000Y-79714285D01*
X177792380Y-79690476D01*
X178054285Y-79476190D02*
X178363809Y-79476190D01*
X178197142Y-79666666D01*
X178268571Y-79666666D01*
X178316190Y-79690476D01*
X178340000Y-79714285D01*
X178363809Y-79761904D01*
X178363809Y-79880952D01*
X178340000Y-79928571D01*
X178316190Y-79952380D01*
X178268571Y-79976190D01*
X178125714Y-79976190D01*
X178078095Y-79952380D01*
X178054285Y-79928571D01*
X178816190Y-79476190D02*
X178578095Y-79476190D01*
X178554285Y-79714285D01*
X178578095Y-79690476D01*
X178625714Y-79666666D01*
X178744761Y-79666666D01*
X178792380Y-79690476D01*
X178816190Y-79714285D01*
X178840000Y-79761904D01*
X178840000Y-79880952D01*
X178816190Y-79928571D01*
X178792380Y-79952380D01*
X178744761Y-79976190D01*
X178625714Y-79976190D01*
X178578095Y-79952380D01*
X178554285Y-79928571D01*
X179006666Y-79476190D02*
X179340000Y-79476190D01*
X179125714Y-79976190D01*
X179506666Y-79833333D02*
X179744761Y-79833333D01*
X179459047Y-79976190D02*
X179625714Y-79476190D01*
X179792380Y-79976190D01*
X179959047Y-79714285D02*
X180125714Y-79714285D01*
X180197142Y-79976190D02*
X179959047Y-79976190D01*
X179959047Y-79476190D01*
X180197142Y-79476190D01*
X180340000Y-79476190D02*
X180625714Y-79476190D01*
X180482857Y-79976190D02*
X180482857Y-79476190D01*
X180792380Y-79714285D02*
X180959047Y-79714285D01*
X181030476Y-79976190D02*
X180792380Y-79976190D01*
X180792380Y-79476190D01*
X181030476Y-79476190D01*
X181244761Y-79785714D02*
X181625714Y-79785714D01*
X181435238Y-79976190D02*
X181435238Y-79595238D01*
X181792380Y-79476190D02*
X182078095Y-79476190D01*
X181935238Y-79976190D02*
X181935238Y-79476190D01*
X179506666Y-81226190D02*
X179340000Y-80988095D01*
X179220952Y-81226190D02*
X179220952Y-80726190D01*
X179411428Y-80726190D01*
X179459047Y-80750000D01*
X179482857Y-80773809D01*
X179506666Y-80821428D01*
X179506666Y-80892857D01*
X179482857Y-80940476D01*
X179459047Y-80964285D01*
X179411428Y-80988095D01*
X179220952Y-80988095D01*
X179792380Y-80940476D02*
X179744761Y-80916666D01*
X179720952Y-80892857D01*
X179697142Y-80845238D01*
X179697142Y-80821428D01*
X179720952Y-80773809D01*
X179744761Y-80750000D01*
X179792380Y-80726190D01*
X179887619Y-80726190D01*
X179935238Y-80750000D01*
X179959047Y-80773809D01*
X179982857Y-80821428D01*
X179982857Y-80845238D01*
X179959047Y-80892857D01*
X179935238Y-80916666D01*
X179887619Y-80940476D01*
X179792380Y-80940476D01*
X179744761Y-80964285D01*
X179720952Y-80988095D01*
X179697142Y-81035714D01*
X179697142Y-81130952D01*
X179720952Y-81178571D01*
X179744761Y-81202380D01*
X179792380Y-81226190D01*
X179887619Y-81226190D01*
X179935238Y-81202380D01*
X179959047Y-81178571D01*
X179982857Y-81130952D01*
X179982857Y-81035714D01*
X179959047Y-80988095D01*
X179935238Y-80964285D01*
X179887619Y-80940476D01*
X181470952Y-81476190D02*
X181470952Y-80976190D01*
X181590000Y-80976190D01*
X181661428Y-81000000D01*
X181709047Y-81047619D01*
X181732857Y-81095238D01*
X181756666Y-81190476D01*
X181756666Y-81261904D01*
X181732857Y-81357142D01*
X181709047Y-81404761D01*
X181661428Y-81452380D01*
X181590000Y-81476190D01*
X181470952Y-81476190D01*
X182232857Y-81476190D02*
X181947142Y-81476190D01*
X182090000Y-81476190D02*
X182090000Y-80976190D01*
X182042380Y-81047619D01*
X181994761Y-81095238D01*
X181947142Y-81119047D01*
X169768571Y-80928571D02*
X169744761Y-80952380D01*
X169673333Y-80976190D01*
X169625714Y-80976190D01*
X169554285Y-80952380D01*
X169506666Y-80904761D01*
X169482857Y-80857142D01*
X169459047Y-80761904D01*
X169459047Y-80690476D01*
X169482857Y-80595238D01*
X169506666Y-80547619D01*
X169554285Y-80500000D01*
X169625714Y-80476190D01*
X169673333Y-80476190D01*
X169744761Y-80500000D01*
X169768571Y-80523809D01*
X170244761Y-80976190D02*
X169959047Y-80976190D01*
X170101904Y-80976190D02*
X170101904Y-80476190D01*
X170054285Y-80547619D01*
X170006666Y-80595238D01*
X169959047Y-80619047D01*
X170435238Y-80523809D02*
X170459047Y-80500000D01*
X170506666Y-80476190D01*
X170625714Y-80476190D01*
X170673333Y-80500000D01*
X170697142Y-80523809D01*
X170720952Y-80571428D01*
X170720952Y-80619047D01*
X170697142Y-80690476D01*
X170411428Y-80976190D01*
X170720952Y-80976190D01*
X181709047Y-89476190D02*
X181709047Y-89880952D01*
X181732857Y-89928571D01*
X181756666Y-89952380D01*
X181804285Y-89976190D01*
X181899523Y-89976190D01*
X181947142Y-89952380D01*
X181970952Y-89928571D01*
X181994761Y-89880952D01*
X181994761Y-89476190D01*
X182447142Y-89642857D02*
X182447142Y-89976190D01*
X182328095Y-89452380D02*
X182209047Y-89809523D01*
X182518571Y-89809523D01*
X190142380Y-96316666D02*
X190166190Y-96245238D01*
X190166190Y-96126190D01*
X190142380Y-96078571D01*
X190118571Y-96054761D01*
X190070952Y-96030952D01*
X190023333Y-96030952D01*
X189975714Y-96054761D01*
X189951904Y-96078571D01*
X189928095Y-96126190D01*
X189904285Y-96221428D01*
X189880476Y-96269047D01*
X189856666Y-96292857D01*
X189809047Y-96316666D01*
X189761428Y-96316666D01*
X189713809Y-96292857D01*
X189690000Y-96269047D01*
X189666190Y-96221428D01*
X189666190Y-96102380D01*
X189690000Y-96030952D01*
X189666190Y-95888095D02*
X189666190Y-95602380D01*
X190166190Y-95745238D02*
X189666190Y-95745238D01*
X189666190Y-95483333D02*
X189666190Y-95150000D01*
X190166190Y-95364285D01*
X189666190Y-95007142D02*
X189666190Y-94673809D01*
X190166190Y-94888095D01*
X189666190Y-94530952D02*
X189666190Y-94221428D01*
X189856666Y-94388095D01*
X189856666Y-94316666D01*
X189880476Y-94269047D01*
X189904285Y-94245238D01*
X189951904Y-94221428D01*
X190070952Y-94221428D01*
X190118571Y-94245238D01*
X190142380Y-94269047D01*
X190166190Y-94316666D01*
X190166190Y-94459523D01*
X190142380Y-94507142D01*
X190118571Y-94530952D01*
X189666190Y-93769047D02*
X189666190Y-94007142D01*
X189904285Y-94030952D01*
X189880476Y-94007142D01*
X189856666Y-93959523D01*
X189856666Y-93840476D01*
X189880476Y-93792857D01*
X189904285Y-93769047D01*
X189951904Y-93745238D01*
X190070952Y-93745238D01*
X190118571Y-93769047D01*
X190142380Y-93792857D01*
X190166190Y-93840476D01*
X190166190Y-93959523D01*
X190142380Y-94007142D01*
X190118571Y-94030952D01*
X190142380Y-93554761D02*
X190166190Y-93507142D01*
X190166190Y-93411904D01*
X190142380Y-93364285D01*
X190094761Y-93340476D01*
X190070952Y-93340476D01*
X190023333Y-93364285D01*
X189999523Y-93411904D01*
X189999523Y-93483333D01*
X189975714Y-93530952D01*
X189928095Y-93554761D01*
X189904285Y-93554761D01*
X189856666Y-93530952D01*
X189832857Y-93483333D01*
X189832857Y-93411904D01*
X189856666Y-93364285D01*
X190213809Y-93245238D02*
X190213809Y-92864285D01*
X189880476Y-92673809D02*
X189856666Y-92721428D01*
X189832857Y-92745238D01*
X189785238Y-92769047D01*
X189761428Y-92769047D01*
X189713809Y-92745238D01*
X189690000Y-92721428D01*
X189666190Y-92673809D01*
X189666190Y-92578571D01*
X189690000Y-92530952D01*
X189713809Y-92507142D01*
X189761428Y-92483333D01*
X189785238Y-92483333D01*
X189832857Y-92507142D01*
X189856666Y-92530952D01*
X189880476Y-92578571D01*
X189880476Y-92673809D01*
X189904285Y-92721428D01*
X189928095Y-92745238D01*
X189975714Y-92769047D01*
X190070952Y-92769047D01*
X190118571Y-92745238D01*
X190142380Y-92721428D01*
X190166190Y-92673809D01*
X190166190Y-92578571D01*
X190142380Y-92530952D01*
X190118571Y-92507142D01*
X190070952Y-92483333D01*
X189975714Y-92483333D01*
X189928095Y-92507142D01*
X189904285Y-92530952D01*
X189880476Y-92578571D01*
X178006666Y-81726190D02*
X177840000Y-81488095D01*
X177720952Y-81726190D02*
X177720952Y-81226190D01*
X177911428Y-81226190D01*
X177959047Y-81250000D01*
X177982857Y-81273809D01*
X178006666Y-81321428D01*
X178006666Y-81392857D01*
X177982857Y-81440476D01*
X177959047Y-81464285D01*
X177911428Y-81488095D01*
X177720952Y-81488095D01*
X178435238Y-81226190D02*
X178340000Y-81226190D01*
X178292380Y-81250000D01*
X178268571Y-81273809D01*
X178220952Y-81345238D01*
X178197142Y-81440476D01*
X178197142Y-81630952D01*
X178220952Y-81678571D01*
X178244761Y-81702380D01*
X178292380Y-81726190D01*
X178387619Y-81726190D01*
X178435238Y-81702380D01*
X178459047Y-81678571D01*
X178482857Y-81630952D01*
X178482857Y-81511904D01*
X178459047Y-81464285D01*
X178435238Y-81440476D01*
X178387619Y-81416666D01*
X178292380Y-81416666D01*
X178244761Y-81440476D01*
X178220952Y-81464285D01*
X178197142Y-81511904D01*
D12*
X162240000Y-92590000D02*
X164965000Y-92590000D01*
X162240000Y-87140000D02*
X164965000Y-87140000D01*
X164965000Y-92330000D02*
X166640000Y-92330000D01*
X162240000Y-92590000D02*
X159515000Y-92590000D01*
X159515000Y-87140000D02*
X159515000Y-87400000D01*
X162240000Y-87140000D02*
X159515000Y-87140000D01*
X164965000Y-87140000D02*
X164965000Y-87400000D01*
X159515000Y-92590000D02*
X159515000Y-92330000D01*
X164965000Y-92590000D02*
X164965000Y-92330000D01*
X171980000Y-84602500D02*
X171980000Y-83952500D01*
X179200000Y-84602500D02*
X179200000Y-83952500D01*
X171980000Y-83952500D02*
X172630000Y-83952500D01*
X179200000Y-91172500D02*
X178550000Y-91172500D01*
X171980000Y-90522500D02*
X171980000Y-91172500D01*
X179200000Y-83952500D02*
X178550000Y-83952500D01*
X179200000Y-90522500D02*
X179200000Y-91172500D01*
X187637400Y-88204491D02*
X187637400Y-87295509D01*
X184792600Y-87295509D02*
X184792600Y-88204491D01*
X186348578Y-81960000D02*
X185831422Y-81960000D01*
X186348578Y-80540000D02*
X185831422Y-80540000D01*
X167950000Y-80142164D02*
X167950000Y-80357836D01*
X167230000Y-80142164D02*
X167230000Y-80357836D01*
X170197836Y-82390000D02*
X169982164Y-82390000D01*
X170197836Y-83110000D02*
X169982164Y-83110000D01*
X168230000Y-80122164D02*
X168230000Y-80337836D01*
X168950000Y-80122164D02*
X168950000Y-80337836D01*
X176697836Y-80140000D02*
X176482164Y-80140000D01*
X176697836Y-80860000D02*
X176482164Y-80860000D01*
X172380259Y-79573600D02*
X171913600Y-79573600D01*
X175266400Y-79573600D02*
X174799741Y-79573600D01*
X171913600Y-82459741D02*
X171913600Y-82926400D01*
X175266400Y-82926400D02*
X175266400Y-82459741D01*
X175266400Y-80040259D02*
X175266400Y-79573600D01*
X171913600Y-79573600D02*
X171913600Y-80040259D01*
X171913600Y-82926400D02*
X172380259Y-82926400D01*
X174799741Y-82926400D02*
X175266400Y-82926400D01*
G36*
X171481800Y-81190501D02*
G01*
X171227800Y-81190501D01*
X171227800Y-80809500D01*
X171481800Y-80809500D01*
X171481800Y-81190501D01*
G37*
D13*
X171481800Y-81190501D02*
X171227800Y-81190501D01*
X171227800Y-80809500D01*
X171481800Y-80809500D01*
X171481800Y-81190501D01*
D12*
X179970000Y-82346359D02*
X179970000Y-82653641D01*
X179210000Y-82346359D02*
X179210000Y-82653641D01*
X182575000Y-84485000D02*
X182575000Y-82200000D01*
X181105000Y-82200000D02*
X181105000Y-84485000D01*
X181105000Y-84485000D02*
X182575000Y-84485000D01*
X170197836Y-81390000D02*
X169982164Y-81390000D01*
X170197836Y-82110000D02*
X169982164Y-82110000D01*
X181239800Y-94722500D02*
X184440200Y-94722500D01*
X184440200Y-90277500D02*
X181239800Y-90277500D01*
X181239800Y-94145288D02*
X181239800Y-94722500D01*
X181239800Y-90277500D02*
X181239800Y-90854712D01*
X184440200Y-94722500D02*
X184440200Y-94145288D01*
X184440200Y-90854712D02*
X184440200Y-90277500D01*
X176697836Y-81860000D02*
X176482164Y-81860000D01*
X176697836Y-81140000D02*
X176482164Y-81140000D01*
%LPC*%
D14*
X169890000Y-84000000D03*
X168920000Y-84000000D03*
X169890000Y-85000000D03*
X168920000Y-85000000D03*
D15*
X157090000Y-91630000D03*
X157090000Y-92600000D03*
D16*
X167715000Y-92720000D03*
X167715000Y-91750000D03*
D17*
X165840000Y-91770000D03*
X165840000Y-90500000D03*
X165840000Y-89230000D03*
X165840000Y-87960000D03*
X158640000Y-87960000D03*
X158640000Y-89230000D03*
X158640000Y-90500000D03*
X158640000Y-91770000D03*
D16*
X183496545Y-86552361D03*
X183496545Y-85582361D03*
D15*
X168840000Y-91765000D03*
X168840000Y-92735000D03*
D18*
X169630000Y-87012500D03*
X170600000Y-87012500D03*
D16*
X180246581Y-85808972D03*
X180246581Y-84838972D03*
D19*
X172990000Y-91000000D03*
X173390000Y-91000000D03*
X173790000Y-91000000D03*
X174190000Y-91000000D03*
X174590000Y-91000000D03*
X174990000Y-91000000D03*
X175390000Y-91000000D03*
X175790000Y-91000000D03*
X176190000Y-91000000D03*
X176590000Y-91000000D03*
X176990000Y-91000000D03*
X177390000Y-91000000D03*
X177790000Y-91000000D03*
X178190000Y-91000000D03*
D20*
X179027500Y-90162500D03*
X179027500Y-89762500D03*
X179027500Y-89362500D03*
X179027500Y-88962500D03*
X179027500Y-88562500D03*
X179027500Y-88162500D03*
X179027500Y-87762500D03*
X179027500Y-87362500D03*
X179027500Y-86962500D03*
X179027500Y-86562500D03*
X179027500Y-86162500D03*
X179027500Y-85762500D03*
X179027500Y-85362500D03*
X179027500Y-84962500D03*
D19*
X178190000Y-84125000D03*
X177790000Y-84125000D03*
X177390000Y-84125000D03*
X176990000Y-84125000D03*
X176590000Y-84125000D03*
X176190000Y-84125000D03*
X175790000Y-84125000D03*
X175390000Y-84125000D03*
X174990000Y-84125000D03*
X174590000Y-84125000D03*
X174190000Y-84125000D03*
X173790000Y-84125000D03*
X173390000Y-84125000D03*
X172990000Y-84125000D03*
D20*
X172152500Y-84962500D03*
X172152500Y-85362500D03*
X172152500Y-85762500D03*
X172152500Y-86162500D03*
X172152500Y-86562500D03*
X172152500Y-86962500D03*
X172152500Y-87362500D03*
X172152500Y-87762500D03*
X172152500Y-88162500D03*
X172152500Y-88562500D03*
X172152500Y-88962500D03*
X172152500Y-89362500D03*
X172152500Y-89762500D03*
X172152500Y-90162500D03*
D21*
X175590000Y-87562500D03*
D15*
X183496545Y-88552361D03*
X183496545Y-89522361D03*
D18*
X169630000Y-86012500D03*
X170600000Y-86012500D03*
D14*
X170123630Y-88010899D03*
X169153630Y-88010899D03*
D18*
X181126545Y-86852361D03*
X182096545Y-86852361D03*
D22*
X187015000Y-89134300D03*
X185415000Y-86365700D03*
X185415000Y-89134300D03*
X187015000Y-86365700D03*
D23*
X187027500Y-81250000D03*
X185152500Y-81250000D03*
D24*
X167590000Y-79770000D03*
X167590000Y-80730000D03*
D25*
X170570000Y-82750000D03*
X169610000Y-82750000D03*
D24*
X168590000Y-79750000D03*
X168590000Y-80710000D03*
D25*
X177070000Y-80500000D03*
X176110000Y-80500000D03*
D26*
X175037800Y-82000001D03*
X175037800Y-81500000D03*
X175037800Y-81000000D03*
X175037800Y-80499999D03*
D27*
X174340001Y-79802200D03*
X173840000Y-79802200D03*
X173340000Y-79802200D03*
X172839999Y-79802200D03*
D26*
X172142200Y-80499999D03*
X172142200Y-81000000D03*
X172142200Y-81500000D03*
X172142200Y-82000001D03*
D27*
X172839999Y-82697800D03*
X173340000Y-82697800D03*
X173840000Y-82697800D03*
X174340001Y-82697800D03*
D28*
X173590000Y-81250000D03*
D29*
X179590000Y-81990000D03*
X179590000Y-83010000D03*
D30*
X181840000Y-83787500D03*
X181840000Y-82212500D03*
D25*
X170570000Y-81750000D03*
X169610000Y-81750000D03*
D31*
X184165400Y-93549999D03*
X181514600Y-93250001D03*
X184165400Y-92949997D03*
X181514600Y-92649999D03*
X184165400Y-92349999D03*
X181514600Y-92050001D03*
X184165400Y-91750000D03*
X181514600Y-91450002D03*
D25*
X177070000Y-81500000D03*
X176110000Y-81500000D03*
D32*
X163415000Y-83730000D03*
D33*
X158265000Y-80700000D03*
X163715000Y-80700000D03*
D32*
X158565000Y-83730000D03*
M02*
