%TF.GenerationSoftware,KiCad,Pcbnew,7.0.6*%
%TF.CreationDate,2024-04-24T00:37:06-04:00*%
%TF.ProjectId,Doom Keycap,446f6f6d-204b-4657-9963-61702e6b6963,REV1*%
%TF.SameCoordinates,Original*%
%TF.FileFunction,Paste,Top*%
%TF.FilePolarity,Positive*%
%FSLAX46Y46*%
G04 Gerber Fmt 4.6, Leading zero omitted, Abs format (unit mm)*
G04 Created by KiCad (PCBNEW 7.0.6) date 2024-04-24 00:37:06*
%MOMM*%
%LPD*%
G01*
G04 APERTURE LIST*
G04 Aperture macros list*
%AMRoundRect*
0 Rectangle with rounded corners*
0 $1 Rounding radius*
0 $2 $3 $4 $5 $6 $7 $8 $9 X,Y pos of 4 corners*
0 Add a 4 corners polygon primitive as box body*
4,1,4,$2,$3,$4,$5,$6,$7,$8,$9,$2,$3,0*
0 Add four circle primitives for the rounded corners*
1,1,$1+$1,$2,$3*
1,1,$1+$1,$4,$5*
1,1,$1+$1,$6,$7*
1,1,$1+$1,$8,$9*
0 Add four rect primitives between the rounded corners*
20,1,$1+$1,$2,$3,$4,$5,0*
20,1,$1+$1,$4,$5,$6,$7,0*
20,1,$1+$1,$6,$7,$8,$9,0*
20,1,$1+$1,$8,$9,$2,$3,0*%
G04 Aperture macros list end*
%ADD10RoundRect,0.140000X-0.140000X-0.170000X0.140000X-0.170000X0.140000X0.170000X-0.140000X0.170000X0*%
%ADD11RoundRect,0.147500X0.147500X0.172500X-0.147500X0.172500X-0.147500X-0.172500X0.147500X-0.172500X0*%
%ADD12RoundRect,0.135000X0.135000X0.185000X-0.135000X0.185000X-0.135000X-0.185000X0.135000X-0.185000X0*%
%ADD13R,1.500000X2.000000*%
%ADD14R,3.800000X2.000000*%
%ADD15RoundRect,0.147500X-0.147500X-0.172500X0.147500X-0.172500X0.147500X0.172500X-0.147500X0.172500X0*%
%ADD16RoundRect,0.135000X0.185000X-0.135000X0.185000X0.135000X-0.185000X0.135000X-0.185000X-0.135000X0*%
%ADD17RoundRect,0.135000X-0.135000X-0.185000X0.135000X-0.185000X0.135000X0.185000X-0.135000X0.185000X0*%
%ADD18RoundRect,0.147500X0.172500X-0.147500X0.172500X0.147500X-0.172500X0.147500X-0.172500X-0.147500X0*%
%ADD19RoundRect,0.250000X0.292217X-0.292217X0.292217X0.292217X-0.292217X0.292217X-0.292217X-0.292217X0*%
%ADD20RoundRect,0.050000X0.050000X-0.387500X0.050000X0.387500X-0.050000X0.387500X-0.050000X-0.387500X0*%
%ADD21RoundRect,0.050000X0.387500X-0.050000X0.387500X0.050000X-0.387500X0.050000X-0.387500X-0.050000X0*%
%ADD22RoundRect,0.135000X0.035355X-0.226274X0.226274X-0.035355X-0.035355X0.226274X-0.226274X0.035355X0*%
%ADD23R,0.990600X1.244600*%
%ADD24RoundRect,0.140000X0.140000X0.170000X-0.140000X0.170000X-0.140000X-0.170000X0.140000X-0.170000X0*%
%ADD25R,0.812800X0.254000*%
%ADD26R,0.254000X0.812800*%
%ADD27R,1.244600X1.244600*%
%ADD28RoundRect,0.218750X-0.256250X0.218750X-0.256250X-0.218750X0.256250X-0.218750X0.256250X0.218750X0*%
G04 APERTURE END LIST*
D10*
X163360000Y-93000000D03*
X164320000Y-93000000D03*
D11*
X166300000Y-83568750D03*
X165330000Y-83568750D03*
X166300000Y-84568750D03*
X165330000Y-84568750D03*
D12*
X167861855Y-92202951D03*
X166841855Y-92202951D03*
D13*
X161515000Y-85975000D03*
X159215000Y-85975000D03*
D14*
X159215000Y-92275000D03*
D13*
X156915000Y-85975000D03*
D15*
X178705000Y-84956250D03*
X179675000Y-84956250D03*
D16*
X165840000Y-91885000D03*
X165840000Y-90865000D03*
D17*
X165255000Y-86693750D03*
X166275000Y-86693750D03*
D18*
X175896581Y-85191250D03*
X175896581Y-84221250D03*
D19*
X170602500Y-88156250D03*
X171877500Y-88156250D03*
X170602500Y-86881250D03*
X171877500Y-86881250D03*
D20*
X168640000Y-90956250D03*
X169040000Y-90956250D03*
X169440000Y-90956250D03*
X169840000Y-90956250D03*
X170240000Y-90956250D03*
X170640000Y-90956250D03*
X171040000Y-90956250D03*
X171440000Y-90956250D03*
X171840000Y-90956250D03*
X172240000Y-90956250D03*
X172640000Y-90956250D03*
X173040000Y-90956250D03*
X173440000Y-90956250D03*
X173840000Y-90956250D03*
D21*
X174677500Y-90118750D03*
X174677500Y-89718750D03*
X174677500Y-89318750D03*
X174677500Y-88918750D03*
X174677500Y-88518750D03*
X174677500Y-88118750D03*
X174677500Y-87718750D03*
X174677500Y-87318750D03*
X174677500Y-86918750D03*
X174677500Y-86518750D03*
X174677500Y-86118750D03*
X174677500Y-85718750D03*
X174677500Y-85318750D03*
X174677500Y-84918750D03*
D20*
X173840000Y-84081250D03*
X173440000Y-84081250D03*
X173040000Y-84081250D03*
X172640000Y-84081250D03*
X172240000Y-84081250D03*
X171840000Y-84081250D03*
X171440000Y-84081250D03*
X171040000Y-84081250D03*
X170640000Y-84081250D03*
X170240000Y-84081250D03*
X169840000Y-84081250D03*
X169440000Y-84081250D03*
X169040000Y-84081250D03*
X168640000Y-84081250D03*
D21*
X167802500Y-84918750D03*
X167802500Y-85318750D03*
X167802500Y-85718750D03*
X167802500Y-86118750D03*
X167802500Y-86518750D03*
X167802500Y-86918750D03*
X167802500Y-87318750D03*
X167802500Y-87718750D03*
X167802500Y-88118750D03*
X167802500Y-88518750D03*
X167802500Y-88918750D03*
X167802500Y-89318750D03*
X167802500Y-89718750D03*
X167802500Y-90118750D03*
D11*
X180175000Y-90956250D03*
X179205000Y-90956250D03*
D17*
X165255000Y-85693750D03*
X166275000Y-85693750D03*
D11*
X166200000Y-87706250D03*
X165230000Y-87706250D03*
D22*
X176329376Y-87316874D03*
X177050624Y-86595626D03*
D23*
X180240000Y-89340550D03*
X178640000Y-86571950D03*
X178640000Y-89340550D03*
X180240000Y-86571950D03*
D24*
X177775918Y-83288047D03*
X176815918Y-83288047D03*
X166304093Y-79559690D03*
X165344093Y-79559690D03*
X166320000Y-82500000D03*
X165360000Y-82500000D03*
X166320000Y-80500000D03*
X165360000Y-80500000D03*
D12*
X173277200Y-80350000D03*
X172257200Y-80350000D03*
D25*
X171140000Y-81850001D03*
X171140000Y-81350000D03*
X171140000Y-80850000D03*
X171140000Y-80349999D03*
D26*
X170442201Y-79652200D03*
X169942200Y-79652200D03*
X169442200Y-79652200D03*
X168942199Y-79652200D03*
D25*
X168244400Y-80349999D03*
X168244400Y-80850000D03*
X168244400Y-81350000D03*
X168244400Y-81850001D03*
D26*
X168942199Y-82547800D03*
X169442200Y-82547800D03*
X169942200Y-82547800D03*
X170442201Y-82547800D03*
D27*
X169692200Y-81100000D03*
D12*
X173277200Y-82350000D03*
X172257200Y-82350000D03*
D28*
X174692200Y-80562500D03*
X174692200Y-82137500D03*
D24*
X166320000Y-81500000D03*
X165360000Y-81500000D03*
D12*
X173277200Y-81350000D03*
X172257200Y-81350000D03*
M02*
