M48
; DRILL file {KiCad (6.0.9)} date Fri Jan  6 22:42:18 2023
; FORMAT={-:-/ absolute / metric / decimal}
; #@! TF.CreationDate,2023-01-06T22:42:18-05:00
; #@! TF.GenerationSoftware,Kicad,Pcbnew,(6.0.9)
; #@! TF.FileFunction,Plated,1,2,PTH
FMAT,2
METRIC
; #@! TA.AperFunction,Plated,PTH,ViaDrill
T1C0.350
; #@! TA.AperFunction,Plated,PTH,ComponentDrill
T2C0.350
; #@! TA.AperFunction,Plated,PTH,ComponentDrill
T3C0.650
; #@! TA.AperFunction,Plated,PTH,ComponentDrill
T4C0.700
%
G90
G05
T1
X157.09Y-93.715
X162.002Y-92.0
X162.59Y-87.94
X163.252Y-90.5
X164.189Y-86.099
X167.59Y-81.73
X167.99Y-84.0
X167.99Y-85.0
X168.33Y-87.874
X168.365Y-87.013
X168.59Y-81.73
X168.59Y-82.75
X169.965Y-92.75
X170.34Y-80.75
X171.24Y-87.555
X171.34Y-79.75
X171.34Y-83.75
X173.49Y-86.862
X173.59Y-81.25
X175.34Y-79.75
X177.69Y-86.963
X179.84Y-91.25
X179.88Y-86.972
X180.247Y-83.918
X180.831Y-91.991
X181.326Y-88.473
X181.453Y-85.997
X182.34Y-93.0
X183.485Y-84.79
X183.497Y-90.378
X183.84Y-81.25
X184.465Y-86.625
X184.465Y-88.625
X184.981Y-84.552
X184.981Y-90.552
X186.215Y-87.625
X187.465Y-90.552
X187.59Y-84.552
T2
X174.315Y-86.287
X174.315Y-87.562
X174.315Y-88.837
X175.59Y-86.287
X175.59Y-87.562
X175.59Y-88.837
X176.865Y-86.287
X176.865Y-87.562
X176.865Y-88.837
T3
X158.565Y-83.53G85X158.565Y-83.93
G05
X163.415Y-83.53G85X163.415Y-83.93
G05
T4
X158.265Y-80.45G85X158.265Y-80.95
G05
X163.715Y-80.45G85X163.715Y-80.95
G05
T0
M30
