%TF.GenerationSoftware,KiCad,Pcbnew,7.0.6*%
%TF.CreationDate,2024-10-04T02:05:28-04:00*%
%TF.ProjectId,Doom Keycap,446f6f6d-204b-4657-9963-61702e6b6963,REV1*%
%TF.SameCoordinates,Original*%
%TF.FileFunction,Paste,Top*%
%TF.FilePolarity,Positive*%
%FSLAX46Y46*%
G04 Gerber Fmt 4.6, Leading zero omitted, Abs format (unit mm)*
G04 Created by KiCad (PCBNEW 7.0.6) date 2024-10-04 02:05:28*
%MOMM*%
%LPD*%
G01*
G04 APERTURE LIST*
G04 Aperture macros list*
%AMRoundRect*
0 Rectangle with rounded corners*
0 $1 Rounding radius*
0 $2 $3 $4 $5 $6 $7 $8 $9 X,Y pos of 4 corners*
0 Add a 4 corners polygon primitive as box body*
4,1,4,$2,$3,$4,$5,$6,$7,$8,$9,$2,$3,0*
0 Add four circle primitives for the rounded corners*
1,1,$1+$1,$2,$3*
1,1,$1+$1,$4,$5*
1,1,$1+$1,$6,$7*
1,1,$1+$1,$8,$9*
0 Add four rect primitives between the rounded corners*
20,1,$1+$1,$2,$3,$4,$5,0*
20,1,$1+$1,$4,$5,$6,$7,0*
20,1,$1+$1,$6,$7,$8,$9,0*
20,1,$1+$1,$8,$9,$2,$3,0*%
G04 Aperture macros list end*
%ADD10R,0.812800X0.406400*%
%ADD11R,0.812800X0.304800*%
%ADD12RoundRect,0.140000X-0.170000X0.140000X-0.170000X-0.140000X0.170000X-0.140000X0.170000X0.140000X0*%
%ADD13R,0.600000X1.150000*%
%ADD14R,0.300000X1.150000*%
%ADD15RoundRect,0.147500X-0.172500X0.147500X-0.172500X-0.147500X0.172500X-0.147500X0.172500X0.147500X0*%
%ADD16RoundRect,0.147500X0.147500X0.172500X-0.147500X0.172500X-0.147500X-0.172500X0.147500X-0.172500X0*%
%ADD17RoundRect,0.135000X0.135000X0.185000X-0.135000X0.185000X-0.135000X-0.185000X0.135000X-0.185000X0*%
%ADD18R,1.500000X2.000000*%
%ADD19R,3.800000X2.000000*%
%ADD20RoundRect,0.150000X0.650000X0.150000X-0.650000X0.150000X-0.650000X-0.150000X0.650000X-0.150000X0*%
%ADD21RoundRect,0.147500X0.172500X-0.147500X0.172500X0.147500X-0.172500X0.147500X-0.172500X-0.147500X0*%
%ADD22RoundRect,0.135000X0.185000X-0.135000X0.185000X0.135000X-0.185000X0.135000X-0.185000X-0.135000X0*%
%ADD23RoundRect,0.140000X0.170000X-0.140000X0.170000X0.140000X-0.170000X0.140000X-0.170000X-0.140000X0*%
%ADD24RoundRect,0.250000X0.292217X0.292217X-0.292217X0.292217X-0.292217X-0.292217X0.292217X-0.292217X0*%
%ADD25RoundRect,0.050000X0.387500X0.050000X-0.387500X0.050000X-0.387500X-0.050000X0.387500X-0.050000X0*%
%ADD26RoundRect,0.050000X0.050000X0.387500X-0.050000X0.387500X-0.050000X-0.387500X0.050000X-0.387500X0*%
%ADD27RoundRect,0.135000X0.226274X0.035355X0.035355X0.226274X-0.226274X-0.035355X-0.035355X-0.226274X0*%
%ADD28R,1.244600X0.990600*%
%ADD29RoundRect,0.140000X0.021213X-0.219203X0.219203X-0.021213X-0.021213X0.219203X-0.219203X0.021213X0*%
%ADD30RoundRect,0.243750X0.456250X-0.243750X0.456250X0.243750X-0.456250X0.243750X-0.456250X-0.243750X0*%
%ADD31RoundRect,0.135000X-0.185000X0.135000X-0.185000X-0.135000X0.185000X-0.135000X0.185000X0.135000X0*%
%ADD32R,2.000000X1.500000*%
%ADD33RoundRect,0.140000X-0.140000X-0.170000X0.140000X-0.170000X0.140000X0.170000X-0.140000X0.170000X0*%
%ADD34RoundRect,0.135000X-0.135000X-0.185000X0.135000X-0.185000X0.135000X0.185000X-0.135000X0.185000X0*%
%ADD35R,0.812800X0.254000*%
%ADD36R,0.254000X0.812800*%
%ADD37R,1.244600X1.244600*%
%ADD38RoundRect,0.140000X0.140000X0.170000X-0.140000X0.170000X-0.140000X-0.170000X0.140000X-0.170000X0*%
%ADD39RoundRect,0.450000X-0.450000X-1.150000X0.450000X-1.150000X0.450000X1.150000X-0.450000X1.150000X0*%
%ADD40RoundRect,0.450000X0.450000X1.150000X-0.450000X1.150000X-0.450000X-1.150000X0.450000X-1.150000X0*%
%ADD41R,0.700000X1.200000*%
%ADD42R,0.760000X1.200000*%
%ADD43R,0.800000X1.200000*%
%ADD44R,1.800000X1.350000*%
%ADD45R,1.800000X1.500000*%
%ADD46RoundRect,0.218750X-0.218750X-0.256250X0.218750X-0.256250X0.218750X0.256250X-0.218750X0.256250X0*%
G04 APERTURE END LIST*
D10*
X130200000Y-110725000D03*
X130200000Y-116225000D03*
D11*
X132700000Y-115224999D03*
X132700000Y-114725000D03*
X132700000Y-114225001D03*
X132700000Y-113725000D03*
X132700000Y-113225000D03*
X132700000Y-112724999D03*
X132700000Y-112225000D03*
X132700000Y-111725001D03*
D12*
X104800000Y-124145000D03*
X104800000Y-125105000D03*
D13*
X116320000Y-143195000D03*
X117120000Y-143195000D03*
D14*
X118270000Y-143195000D03*
X119270000Y-143195000D03*
X119770000Y-143195000D03*
X120770000Y-143195000D03*
D13*
X122720000Y-143195000D03*
X121920000Y-143195000D03*
D14*
X121270000Y-143195000D03*
X120270000Y-143195000D03*
X118770000Y-143195000D03*
X117770000Y-143195000D03*
D15*
X116200000Y-125545150D03*
X116200000Y-126515150D03*
X117200000Y-125945150D03*
X117200000Y-126915150D03*
D16*
X124700000Y-134030150D03*
X123730000Y-134030150D03*
D17*
X134210000Y-133480150D03*
X133190000Y-133480150D03*
D18*
X106400000Y-114800000D03*
X104100000Y-114800000D03*
D19*
X104100000Y-121100000D03*
D18*
X101800000Y-114800000D03*
D20*
X131605752Y-131585150D03*
X131605752Y-130315150D03*
X131605752Y-129045150D03*
X131605752Y-127775150D03*
X124405752Y-127775150D03*
X124405752Y-129045150D03*
X124405752Y-130315150D03*
X124405752Y-131585150D03*
D21*
X117359406Y-110743350D03*
X117359406Y-109773350D03*
D17*
X133200000Y-134530150D03*
X132180000Y-134530150D03*
D22*
X120440000Y-141185000D03*
X120440000Y-140165000D03*
D15*
X121200000Y-127545150D03*
X121200000Y-128515150D03*
D23*
X101500000Y-110405000D03*
X101500000Y-109445000D03*
D24*
X120562500Y-121417650D03*
X120562500Y-120142650D03*
X119287500Y-121417650D03*
X119287500Y-120142650D03*
D25*
X123362500Y-123380150D03*
X123362500Y-122980150D03*
X123362500Y-122580150D03*
X123362500Y-122180150D03*
X123362500Y-121780150D03*
X123362500Y-121380150D03*
X123362500Y-120980150D03*
X123362500Y-120580150D03*
X123362500Y-120180150D03*
X123362500Y-119780150D03*
X123362500Y-119380150D03*
X123362500Y-118980150D03*
X123362500Y-118580150D03*
X123362500Y-118180150D03*
D26*
X122525000Y-117342650D03*
X122125000Y-117342650D03*
X121725000Y-117342650D03*
X121325000Y-117342650D03*
X120925000Y-117342650D03*
X120525000Y-117342650D03*
X120125000Y-117342650D03*
X119725000Y-117342650D03*
X119325000Y-117342650D03*
X118925000Y-117342650D03*
X118525000Y-117342650D03*
X118125000Y-117342650D03*
X117725000Y-117342650D03*
X117325000Y-117342650D03*
D25*
X116487500Y-118180150D03*
X116487500Y-118580150D03*
X116487500Y-118980150D03*
X116487500Y-119380150D03*
X116487500Y-119780150D03*
X116487500Y-120180150D03*
X116487500Y-120580150D03*
X116487500Y-120980150D03*
X116487500Y-121380150D03*
X116487500Y-121780150D03*
X116487500Y-122180150D03*
X116487500Y-122580150D03*
X116487500Y-122980150D03*
X116487500Y-123380150D03*
D26*
X117325000Y-124217650D03*
X117725000Y-124217650D03*
X118125000Y-124217650D03*
X118525000Y-124217650D03*
X118925000Y-124217650D03*
X119325000Y-124217650D03*
X119725000Y-124217650D03*
X120125000Y-124217650D03*
X120525000Y-124217650D03*
X120925000Y-124217650D03*
X121325000Y-124217650D03*
X121725000Y-124217650D03*
X122125000Y-124217650D03*
X122525000Y-124217650D03*
D15*
X123359406Y-109273350D03*
X123359406Y-110243350D03*
D22*
X119440000Y-141185000D03*
X119440000Y-140165000D03*
D16*
X118685000Y-115499916D03*
X117715000Y-115499916D03*
D27*
X119720030Y-113118974D03*
X118998782Y-112397726D03*
D28*
X121743706Y-109208350D03*
X118975106Y-110808350D03*
X121743706Y-110808350D03*
X118975106Y-109208350D03*
D23*
X156200000Y-102930000D03*
X156200000Y-101970000D03*
D29*
X125360589Y-119128822D03*
X126039411Y-118450000D03*
D30*
X103600000Y-111162500D03*
X103600000Y-109287500D03*
D31*
X107125000Y-109365000D03*
X107125000Y-110385000D03*
D12*
X107700000Y-135770000D03*
X107700000Y-136730000D03*
D31*
X121500000Y-140215000D03*
X121500000Y-141235000D03*
X103900000Y-130615000D03*
X103900000Y-131635000D03*
D32*
X124100000Y-136030150D03*
X132300000Y-136030150D03*
D30*
X123700000Y-141325000D03*
X123700000Y-139450000D03*
D33*
X110620000Y-132950000D03*
X111580000Y-132950000D03*
D12*
X106700000Y-135770000D03*
X106700000Y-136730000D03*
D31*
X106125000Y-109365000D03*
X106125000Y-110385000D03*
D34*
X102890000Y-133725000D03*
X103910000Y-133725000D03*
D33*
X125020000Y-123530150D03*
X125980000Y-123530150D03*
D35*
X105269400Y-132224999D03*
X105269400Y-132725000D03*
X105269400Y-133225000D03*
X105269400Y-133725001D03*
D36*
X105967199Y-134422800D03*
X106467200Y-134422800D03*
X106967200Y-134422800D03*
X107467201Y-134422800D03*
D35*
X108165000Y-133725001D03*
X108165000Y-133225000D03*
X108165000Y-132725000D03*
X108165000Y-132224999D03*
D36*
X107467201Y-131527200D03*
X106967200Y-131527200D03*
X106467200Y-131527200D03*
X105967199Y-131527200D03*
D37*
X106717200Y-132975000D03*
D38*
X114600000Y-123330150D03*
X113640000Y-123330150D03*
D39*
X101500000Y-140075000D03*
D40*
X112900000Y-148775000D03*
D39*
X101500000Y-148775000D03*
D40*
X112900000Y-140075000D03*
D41*
X107100000Y-107257500D03*
D42*
X105080000Y-107257500D03*
D43*
X103850000Y-107257500D03*
D41*
X106100000Y-107257500D03*
D42*
X108120000Y-107257500D03*
D43*
X109350000Y-107257500D03*
D44*
X111725000Y-107202500D03*
D45*
X111725000Y-103622500D03*
D44*
X101475000Y-107202500D03*
D45*
X101475000Y-103622500D03*
D12*
X115200000Y-125550150D03*
X115200000Y-126510150D03*
D34*
X114090000Y-120930150D03*
X115110000Y-120930150D03*
D46*
X111012500Y-120930150D03*
X112587500Y-120930150D03*
D33*
X110620000Y-133950000D03*
X111580000Y-133950000D03*
D31*
X118240000Y-140240000D03*
X118240000Y-141260000D03*
D12*
X120200000Y-127550150D03*
X120200000Y-128510150D03*
D38*
X119305752Y-114470150D03*
X118345752Y-114470150D03*
X113350000Y-119430150D03*
X112390000Y-119430150D03*
D34*
X102890000Y-132725000D03*
X103910000Y-132725000D03*
M02*
